<?xml version="1.0" encoding="UTF-8" standalone="no"?>
<!DOCTYPE svg PUBLIC "-//W3C//DTD SVG 1.1//EN"
 "http://www.w3.org/Graphics/SVG/1.1/DTD/svg11.dtd">
<!-- Generated by graphviz version 14.1.2 (20260126.1125)
 -->
<!-- Title: writeback_data_flow Pages: 1 -->
<svg width="518pt" height="98pt"
 viewBox="0.00 0.00 518.00 98.00" xmlns="http://www.w3.org/2000/svg" xmlns:xlink="http://www.w3.org/1999/xlink">
<g id="graph0" class="graph" transform="scale(1 1) rotate(0) translate(4 94)">
<title>writeback_data_flow</title>
<polygon fill="white" stroke="none" points="-4,4 -4,-94 513.75,-94 513.75,4 -4,4"/>
<!-- Compiz -->
<g id="node1" class="node">
<title>Compiz</title>
<polygon fill="none" stroke="black" points="69.25,-63 0,-63 0,-27 69.25,-27 69.25,-63"/>
<text xml:space="preserve" text-anchor="middle" x="34.62" y="-40.33" font-family="Times,serif" font-size="14.00">Compiz</text>
</g>
<!-- Splitter -->
<g id="node2" class="node">
<title>Splitter</title>
<polygon fill="none" stroke="black" points="176,-63 105.25,-63 105.25,-27 176,-27 176,-63"/>
<text xml:space="preserve" text-anchor="middle" x="140.62" y="-40.33" font-family="Times,serif" font-size="14.00">Splitter</text>
</g>
<!-- Compiz&#45;&gt;Splitter -->
<g id="edge1" class="edge">
<title>Compiz&#45;&gt;Splitter</title>
<path fill="none" stroke="black" d="M69.68,-45C77.24,-45 85.38,-45 93.34,-45"/>
<polygon fill="black" stroke="black" points="93.27,-48.5 103.27,-45 93.27,-41.5 93.27,-48.5"/>
</g>
<!-- Scaler&#45;0 -->
<g id="node3" class="node">
<title>Scaler&#45;0</title>
<polygon fill="none" stroke="black" points="286.5,-90 212,-90 212,-54 286.5,-54 286.5,-90"/>
<text xml:space="preserve" text-anchor="middle" x="249.25" y="-67.33" font-family="Times,serif" font-size="14.00">Scaler&#45;0</text>
</g>
<!-- Splitter&#45;&gt;Scaler&#45;0 -->
<g id="edge2" class="edge">
<title>Splitter&#45;&gt;Scaler&#45;0</title>
<path fill="none" stroke="black" d="M176.24,-53.77C184.02,-55.74 192.4,-57.86 200.6,-59.94"/>
<polygon fill="black" stroke="black" points="199.58,-63.29 210.14,-62.35 201.3,-56.5 199.58,-63.29"/>
</g>
<!-- Scaler&#45;1 -->
<g id="node5" class="node">
<title>Scaler&#45;1</title>
<polygon fill="none" stroke="black" points="286.5,-36 212,-36 212,0 286.5,0 286.5,-36"/>
<text xml:space="preserve" text-anchor="middle" x="249.25" y="-13.32" font-family="Times,serif" font-size="14.00">Scaler&#45;1</text>
</g>
<!-- Splitter&#45;&gt;Scaler&#45;1 -->
<g id="edge4" class="edge">
<title>Splitter&#45;&gt;Scaler&#45;1</title>
<path fill="none" stroke="black" d="M176.24,-36.23C184.02,-34.26 192.4,-32.14 200.6,-30.06"/>
<polygon fill="black" stroke="black" points="201.3,-33.5 210.14,-27.65 199.58,-26.71 201.3,-33.5"/>
</g>
<!-- Merger -->
<g id="node4" class="node">
<title>Merger</title>
<polygon fill="none" stroke="black" points="391.75,-63 322.5,-63 322.5,-27 391.75,-27 391.75,-63"/>
<text xml:space="preserve" text-anchor="middle" x="357.12" y="-40.33" font-family="Times,serif" font-size="14.00">Merger</text>
</g>
<!-- Scaler&#45;0&#45;&gt;Merger -->
<g id="edge3" class="edge">
<title>Scaler&#45;0&#45;&gt;Merger</title>
<path fill="none" stroke="black" d="M286.98,-62.63C294.78,-60.64 303.09,-58.52 311.15,-56.47"/>
<polygon fill="black" stroke="black" points="312.01,-59.86 320.83,-54 310.28,-53.08 312.01,-59.86"/>
</g>
<!-- Wb_layer -->
<g id="node6" class="node">
<title>Wb_layer</title>
<polygon fill="none" stroke="black" points="509.75,-63 427.75,-63 427.75,-27 509.75,-27 509.75,-63"/>
<text xml:space="preserve" text-anchor="middle" x="468.75" y="-40.33" font-family="Times,serif" font-size="14.00">Wb_layer</text>
</g>
<!-- Merger&#45;&gt;Wb_layer -->
<g id="edge6" class="edge">
<title>Merger&#45;&gt;Wb_layer</title>
<path fill="none" stroke="black" d="M392.21,-45C399.81,-45 408.04,-45 416.18,-45"/>
<polygon fill="black" stroke="black" points="416.02,-48.5 426.02,-45 416.02,-41.5 416.02,-48.5"/>
</g>
<!-- Scaler&#45;1&#45;&gt;Merger -->
<g id="edge5" class="edge">
<title>Scaler&#45;1&#45;&gt;Merger</title>
<path fill="none" stroke="black" d="M286.98,-27.37C294.78,-29.36 303.09,-31.48 311.15,-33.53"/>
<polygon fill="black" stroke="black" points="310.28,-36.92 320.83,-36 312.01,-30.14 310.28,-36.92"/>
</g>
</g>
</svg>
