<?xml version="1.0" encoding="UTF-8" standalone="no"?>
<!DOCTYPE svg PUBLIC "-//W3C//DTD SVG 1.1//EN"
 "http://www.w3.org/Graphics/SVG/1.1/DTD/svg11.dtd">
<!-- Generated by graphviz version 14.1.2 (20260126.1125)
 -->
<!-- Title: single_ppl Pages: 1 -->
<svg width="754pt" height="238pt"
 viewBox="0.00 0.00 754.00 238.00" xmlns="http://www.w3.org/2000/svg" xmlns:xlink="http://www.w3.org/1999/xlink">
<g id="graph0" class="graph" transform="scale(1 1) rotate(0) translate(4 234)">
<title>single_ppl</title>
<polygon fill="white" stroke="none" points="-4,4 -4,-234 750.07,-234 750.07,4 -4,4"/>
<g id="clust2" class="cluster">
<title>cluster_pipeline</title>
<polygon fill="none" stroke="black" stroke-dasharray="5,2" points="8,-8 8,-222 612.5,-222 612.5,-8 8,-8"/>
</g>
<!-- Memory -->
<g id="node1" class="node">
<title>Memory</title>
<ellipse fill="none" stroke="black" cx="693.29" cy="-142" rx="52.79" ry="18"/>
<text xml:space="preserve" text-anchor="middle" x="693.29" y="-137.32" font-family="Times,serif" font-size="14.00">Memory</text>
</g>
<!-- Monitor -->
<g id="node2" class="node">
<title>Monitor</title>
<ellipse fill="none" stroke="black" cx="693.29" cy="-88" rx="51.21" ry="18"/>
<text xml:space="preserve" text-anchor="middle" x="693.29" y="-83.33" font-family="Times,serif" font-size="14.00">Monitor</text>
</g>
<!-- Scaler&#45;0 -->
<g id="node3" class="node">
<title>Scaler&#45;0</title>
<polygon fill="none" stroke="black" stroke-dasharray="5,2" points="196.5,-86 122,-86 122,-50 196.5,-50 196.5,-86"/>
<text xml:space="preserve" text-anchor="middle" x="159.25" y="-63.33" font-family="Times,serif" font-size="14.00">Scaler&#45;0</text>
</g>
<!-- Compiz -->
<g id="node10" class="node">
<title>Compiz</title>
<polygon fill="lightgrey" stroke="black" points="301.75,-133 232.5,-133 232.5,-97 301.75,-97 301.75,-133"/>
<text xml:space="preserve" text-anchor="middle" x="267.13" y="-110.33" font-family="Times,serif" font-size="14.00">Compiz</text>
</g>
<!-- Scaler&#45;0&#45;&gt;Compiz -->
<g id="edge9" class="edge">
<title>Scaler&#45;0&#45;&gt;Compiz</title>
<path fill="none" stroke="black" d="M196.98,-84.31C205.05,-87.89 213.66,-91.71 221.98,-95.4"/>
<polygon fill="black" stroke="black" points="220.35,-98.51 230.91,-99.37 223.19,-92.11 220.35,-98.51"/>
</g>
<!-- Scaler&#45;1 -->
<g id="node4" class="node">
<title>Scaler&#45;1</title>
<polygon fill="none" stroke="black" stroke-dasharray="5,2" points="196.5,-180 122,-180 122,-144 196.5,-144 196.5,-180"/>
<text xml:space="preserve" text-anchor="middle" x="159.25" y="-157.32" font-family="Times,serif" font-size="14.00">Scaler&#45;1</text>
</g>
<!-- Scaler&#45;1&#45;&gt;Compiz -->
<g id="edge10" class="edge">
<title>Scaler&#45;1&#45;&gt;Compiz</title>
<path fill="none" stroke="black" d="M196.98,-145.69C205.05,-142.11 213.66,-138.29 221.98,-134.6"/>
<polygon fill="black" stroke="black" points="223.19,-137.89 230.91,-130.63 220.35,-131.49 223.19,-137.89"/>
</g>
<!-- Scaler&#45;0/1 -->
<g id="node5" class="node">
<title>Scaler&#45;0/1</title>
<polygon fill="none" stroke="black" stroke-dasharray="5,2" points="425.75,-160 337.75,-160 337.75,-124 425.75,-124 425.75,-160"/>
<text xml:space="preserve" text-anchor="middle" x="381.75" y="-137.32" font-family="Times,serif" font-size="14.00">Scaler&#45;0/1</text>
</g>
<!-- Wb_layer -->
<g id="node11" class="node">
<title>Wb_layer</title>
<polygon fill="lightgrey" stroke="black" points="574.12,-160 492.12,-160 492.12,-124 574.12,-124 574.12,-160"/>
<text xml:space="preserve" text-anchor="middle" x="533.12" y="-137.32" font-family="Times,serif" font-size="14.00">Wb_layer</text>
</g>
<!-- Scaler&#45;0/1&#45;&gt;Wb_layer -->
<g id="edge12" class="edge">
<title>Scaler&#45;0/1&#45;&gt;Wb_layer</title>
<path fill="none" stroke="black" d="M425.96,-142C442.99,-142 462.7,-142 480.48,-142"/>
<polygon fill="black" stroke="black" points="480.32,-145.5 490.32,-142 480.32,-138.5 480.32,-145.5"/>
</g>
<!-- Layer&#45;0 -->
<g id="node6" class="node">
<title>Layer&#45;0</title>
<polygon fill="lightgrey" stroke="black" points="86,-52 16,-52 16,-16 86,-16 86,-52"/>
<text xml:space="preserve" text-anchor="middle" x="51" y="-29.32" font-family="Times,serif" font-size="14.00">Layer&#45;0</text>
</g>
<!-- Layer&#45;0&#45;&gt;Scaler&#45;0 -->
<g id="edge1" class="edge">
<title>Layer&#45;0&#45;&gt;Scaler&#45;0</title>
<path fill="none" stroke="black" d="M86.5,-45.04C94.24,-47.52 102.6,-50.19 110.77,-52.81"/>
<polygon fill="black" stroke="black" points="109.7,-56.14 120.29,-55.85 111.83,-49.47 109.7,-56.14"/>
</g>
<!-- Layer&#45;0&#45;&gt;Compiz -->
<g id="edge5" class="edge">
<title>Layer&#45;0&#45;&gt;Compiz</title>
<path fill="none" stroke="black" d="M86.41,-28.67C116.81,-25.55 161.6,-24.91 196.5,-41 217.92,-50.88 235.97,-70.64 248.31,-87.25"/>
<polygon fill="black" stroke="black" points="245.4,-89.19 254.03,-95.34 251.12,-85.15 245.4,-89.19"/>
</g>
<!-- Layer&#45;1 -->
<g id="node7" class="node">
<title>Layer&#45;1</title>
<polygon fill="lightgrey" stroke="black" points="86,-106 16,-106 16,-70 86,-70 86,-106"/>
<text xml:space="preserve" text-anchor="middle" x="51" y="-83.33" font-family="Times,serif" font-size="14.00">Layer&#45;1</text>
</g>
<!-- Layer&#45;1&#45;&gt;Scaler&#45;0 -->
<g id="edge2" class="edge">
<title>Layer&#45;1&#45;&gt;Scaler&#45;0</title>
<path fill="none" stroke="black" d="M86.5,-81.51C94.16,-80.06 102.41,-78.51 110.49,-76.99"/>
<polygon fill="black" stroke="black" points="111.07,-80.44 120.24,-75.15 109.77,-73.56 111.07,-80.44"/>
</g>
<!-- Layer&#45;1&#45;&gt;Compiz -->
<g id="edge6" class="edge">
<title>Layer&#45;1&#45;&gt;Compiz</title>
<path fill="none" stroke="black" d="M86.4,-92.34C122.88,-96.94 180.66,-104.22 220.82,-109.29"/>
<polygon fill="black" stroke="black" points="220.3,-112.75 230.66,-110.53 221.18,-105.8 220.3,-112.75"/>
</g>
<!-- Layer&#45;2 -->
<g id="node8" class="node">
<title>Layer&#45;2</title>
<polygon fill="lightgrey" stroke="black" points="86,-160 16,-160 16,-124 86,-124 86,-160"/>
<text xml:space="preserve" text-anchor="middle" x="51" y="-137.32" font-family="Times,serif" font-size="14.00">Layer&#45;2</text>
</g>
<!-- Layer&#45;2&#45;&gt;Scaler&#45;1 -->
<g id="edge3" class="edge">
<title>Layer&#45;2&#45;&gt;Scaler&#45;1</title>
<path fill="none" stroke="black" d="M86.5,-148.49C94.16,-149.94 102.41,-151.49 110.49,-153.01"/>
<polygon fill="black" stroke="black" points="109.77,-156.44 120.24,-154.85 111.07,-149.56 109.77,-156.44"/>
</g>
<!-- Layer&#45;2&#45;&gt;Compiz -->
<g id="edge7" class="edge">
<title>Layer&#45;2&#45;&gt;Compiz</title>
<path fill="none" stroke="black" d="M86.4,-137.66C122.88,-133.06 180.66,-125.78 220.82,-120.71"/>
<polygon fill="black" stroke="black" points="221.18,-124.2 230.66,-119.47 220.3,-117.25 221.18,-124.2"/>
</g>
<!-- Layer&#45;3 -->
<g id="node9" class="node">
<title>Layer&#45;3</title>
<polygon fill="lightgrey" stroke="black" points="86,-214 16,-214 16,-178 86,-178 86,-214"/>
<text xml:space="preserve" text-anchor="middle" x="51" y="-191.32" font-family="Times,serif" font-size="14.00">Layer&#45;3</text>
</g>
<!-- Layer&#45;3&#45;&gt;Scaler&#45;1 -->
<g id="edge4" class="edge">
<title>Layer&#45;3&#45;&gt;Scaler&#45;1</title>
<path fill="none" stroke="black" d="M86.5,-184.96C94.24,-182.48 102.6,-179.81 110.77,-177.19"/>
<polygon fill="black" stroke="black" points="111.83,-180.53 120.29,-174.15 109.7,-173.86 111.83,-180.53"/>
</g>
<!-- Layer&#45;3&#45;&gt;Compiz -->
<g id="edge8" class="edge">
<title>Layer&#45;3&#45;&gt;Compiz</title>
<path fill="none" stroke="black" d="M86.41,-201.33C116.81,-204.45 161.6,-205.09 196.5,-189 217.92,-179.12 235.97,-159.36 248.31,-142.75"/>
<polygon fill="black" stroke="black" points="251.12,-144.85 254.03,-134.66 245.4,-140.81 251.12,-144.85"/>
</g>
<!-- Compiz&#45;&gt;Scaler&#45;0/1 -->
<g id="edge11" class="edge">
<title>Compiz&#45;&gt;Scaler&#45;0/1</title>
<path fill="none" stroke="black" d="M302.22,-123.17C309.88,-125.01 318.19,-127 326.44,-128.98"/>
<polygon fill="black" stroke="black" points="325.57,-132.37 336.11,-131.3 327.21,-125.56 325.57,-132.37"/>
</g>
<!-- Improc -->
<g id="node12" class="node">
<title>Improc</title>
<polygon fill="lightgrey" stroke="black" points="414.88,-106 348.63,-106 348.63,-70 414.88,-70 414.88,-106"/>
<text xml:space="preserve" text-anchor="middle" x="381.75" y="-83.33" font-family="Times,serif" font-size="14.00">Improc</text>
</g>
<!-- Compiz&#45;&gt;Improc -->
<g id="edge13" class="edge">
<title>Compiz&#45;&gt;Improc</title>
<path fill="none" stroke="black" d="M302.22,-106.83C313.31,-104.17 325.77,-101.18 337.44,-98.38"/>
<polygon fill="black" stroke="black" points="337.93,-101.86 346.84,-96.13 336.3,-95.06 337.93,-101.86"/>
</g>
<!-- Wb_layer&#45;&gt;Memory -->
<g id="edge15" class="edge">
<title>Wb_layer&#45;&gt;Memory</title>
<path fill="none" stroke="black" d="M574.45,-142C590.89,-142 610.31,-142 628.58,-142"/>
<polygon fill="black" stroke="black" points="628.57,-145.5 638.57,-142 628.57,-138.5 628.57,-145.5"/>
</g>
<!-- Timing Controller -->
<g id="node13" class="node">
<title>Timing Controller</title>
<polygon fill="lightgrey" stroke="black" points="604.5,-106 461.75,-106 461.75,-70 604.5,-70 604.5,-106"/>
<text xml:space="preserve" text-anchor="middle" x="533.12" y="-83.33" font-family="Times,serif" font-size="14.00">Timing Controller</text>
</g>
<!-- Improc&#45;&gt;Timing Controller -->
<g id="edge14" class="edge">
<title>Improc&#45;&gt;Timing Controller</title>
<path fill="none" stroke="black" d="M415.16,-88C425.61,-88 437.7,-88 450.06,-88"/>
<polygon fill="black" stroke="black" points="449.94,-91.5 459.94,-88 449.94,-84.5 449.94,-91.5"/>
</g>
<!-- Timing Controller&#45;&gt;Monitor -->
<g id="edge16" class="edge">
<title>Timing Controller&#45;&gt;Monitor</title>
<path fill="none" stroke="black" d="M604.88,-88C613.47,-88 622.2,-88 630.65,-88"/>
<polygon fill="black" stroke="black" points="630.44,-91.5 640.44,-88 630.44,-84.5 630.44,-91.5"/>
</g>
</g>
</svg>
