<?xml version="1.0" encoding="UTF-8" standalone="no"?>
<!DOCTYPE svg PUBLIC "-//W3C//DTD SVG 1.1//EN"
 "http://www.w3.org/Graphics/SVG/1.1/DTD/svg11.dtd">
<!-- Generated by graphviz version 14.1.2 (20260126.1125)
 -->
<!-- Title: slave_ppl Pages: 1 -->
<svg width="990pt" height="510pt"
 viewBox="0.00 0.00 990.00 510.00" xmlns="http://www.w3.org/2000/svg" xmlns:xlink="http://www.w3.org/1999/xlink">
<g id="graph0" class="graph" transform="scale(1 1) rotate(0) translate(4 506)">
<title>slave_ppl</title>
<polygon fill="white" stroke="none" points="-4,4 -4,-506 985.82,-506 985.82,4 -4,4"/>
<g id="clust2" class="cluster">
<title>cluster_pipeline_slave</title>
<polygon fill="none" stroke="black" stroke-dasharray="5,2" points="8,-8 8,-247 440.25,-247 440.25,-8 8,-8"/>
<text xml:space="preserve" text-anchor="middle" x="224.12" y="-229.7" font-family="Times,serif" font-size="14.00">Slave Pipeline_B</text>
</g>
<g id="clust4" class="cluster">
<title>cluster_pipeline_master</title>
<polygon fill="none" stroke="black" stroke-dasharray="5,2" points="181.5,-255 181.5,-494 848.25,-494 848.25,-255 181.5,-255"/>
<text xml:space="preserve" text-anchor="middle" x="514.88" y="-476.7" font-family="Times,serif" font-size="14.00">Master Pipeline_A</text>
</g>
<!-- Memory -->
<g id="node1" class="node">
<title>Memory</title>
<ellipse fill="none" stroke="black" cx="929.04" cy="-376" rx="52.79" ry="18"/>
<text xml:space="preserve" text-anchor="middle" x="929.04" y="-371.32" font-family="Times,serif" font-size="14.00">Memory</text>
</g>
<!-- Monitor -->
<g id="node2" class="node">
<title>Monitor</title>
<ellipse fill="none" stroke="black" cx="929.04" cy="-322" rx="51.21" ry="18"/>
<text xml:space="preserve" text-anchor="middle" x="929.04" y="-317.32" font-family="Times,serif" font-size="14.00">Monitor</text>
</g>
<!-- Slave.Scaler&#45;0 -->
<g id="node3" class="node">
<title>Slave.Scaler&#45;0</title>
<polygon fill="none" stroke="black" stroke-dasharray="5,2" points="283.5,-89 165.5,-89 165.5,-53 283.5,-53 283.5,-89"/>
<text xml:space="preserve" text-anchor="middle" x="224.5" y="-66.33" font-family="Times,serif" font-size="14.00">Slave.Scaler&#45;0</text>
</g>
<!-- Slave.Compiz -->
<g id="node9" class="node">
<title>Slave.Compiz</title>
<polygon fill="lightgrey" stroke="black" points="432.25,-146 319.5,-146 319.5,-110 432.25,-110 432.25,-146"/>
<text xml:space="preserve" text-anchor="middle" x="375.88" y="-123.33" font-family="Times,serif" font-size="14.00">Slave.Compiz</text>
</g>
<!-- Slave.Scaler&#45;0&#45;&gt;Slave.Compiz -->
<g id="edge9" class="edge">
<title>Slave.Scaler&#45;0&#45;&gt;Slave.Compiz</title>
<path fill="none" stroke="black" d="M273.59,-89.35C287.11,-94.51 301.97,-100.18 316.05,-105.55"/>
<polygon fill="black" stroke="black" points="314.62,-108.75 325.21,-109.05 317.11,-102.21 314.62,-108.75"/>
</g>
<!-- Slave.Scaler&#45;1 -->
<g id="node4" class="node">
<title>Slave.Scaler&#45;1</title>
<polygon fill="none" stroke="black" stroke-dasharray="5,2" points="283.5,-183 165.5,-183 165.5,-147 283.5,-147 283.5,-183"/>
<text xml:space="preserve" text-anchor="middle" x="224.5" y="-160.32" font-family="Times,serif" font-size="14.00">Slave.Scaler&#45;1</text>
</g>
<!-- Slave.Scaler&#45;1&#45;&gt;Slave.Compiz -->
<g id="edge10" class="edge">
<title>Slave.Scaler&#45;1&#45;&gt;Slave.Compiz</title>
<path fill="none" stroke="black" d="M283.68,-150.59C291.68,-148.61 299.94,-146.56 308.08,-144.55"/>
<polygon fill="black" stroke="black" points="308.72,-147.99 317.59,-142.19 307.04,-141.2 308.72,-147.99"/>
</g>
<!-- Slave.Layer&#45;0 -->
<g id="node5" class="node">
<title>Slave.Layer&#45;0</title>
<polygon fill="lightgrey" stroke="black" points="129.5,-52 16,-52 16,-16 129.5,-16 129.5,-52"/>
<text xml:space="preserve" text-anchor="middle" x="72.75" y="-29.32" font-family="Times,serif" font-size="14.00">Slave.Layer&#45;0</text>
</g>
<!-- Slave.Layer&#45;0&#45;&gt;Slave.Scaler&#45;0 -->
<g id="edge1" class="edge">
<title>Slave.Layer&#45;0&#45;&gt;Slave.Scaler&#45;0</title>
<path fill="none" stroke="black" d="M129.94,-47.88C137.87,-49.84 146.1,-51.88 154.24,-53.89"/>
<polygon fill="black" stroke="black" points="153.23,-57.24 163.78,-56.24 154.91,-50.45 153.23,-57.24"/>
</g>
<!-- Slave.Layer&#45;0&#45;&gt;Slave.Compiz -->
<g id="edge5" class="edge">
<title>Slave.Layer&#45;0&#45;&gt;Slave.Compiz</title>
<path fill="none" stroke="black" d="M129.89,-26.56C173.49,-23.13 234.55,-23.56 283.5,-44 312.17,-55.97 337.53,-81.1 354.21,-100.77"/>
<polygon fill="black" stroke="black" points="351.46,-102.94 360.5,-108.46 356.88,-98.5 351.46,-102.94"/>
</g>
<!-- Slave.Layer&#45;1 -->
<g id="node6" class="node">
<title>Slave.Layer&#45;1</title>
<polygon fill="lightgrey" stroke="black" points="129.5,-106 16,-106 16,-70 129.5,-70 129.5,-106"/>
<text xml:space="preserve" text-anchor="middle" x="72.75" y="-83.33" font-family="Times,serif" font-size="14.00">Slave.Layer&#45;1</text>
</g>
<!-- Slave.Layer&#45;1&#45;&gt;Slave.Scaler&#45;0 -->
<g id="edge2" class="edge">
<title>Slave.Layer&#45;1&#45;&gt;Slave.Scaler&#45;0</title>
<path fill="none" stroke="black" d="M129.94,-81.62C137.78,-80.73 145.91,-79.81 153.96,-78.89"/>
<polygon fill="black" stroke="black" points="154.2,-82.39 163.74,-77.78 153.41,-75.43 154.2,-82.39"/>
</g>
<!-- Slave.Layer&#45;1&#45;&gt;Slave.Compiz -->
<g id="edge6" class="edge">
<title>Slave.Layer&#45;1&#45;&gt;Slave.Compiz</title>
<path fill="none" stroke="black" d="M129.68,-95.43C180.18,-102.14 254.55,-112.02 308.14,-119.14"/>
<polygon fill="black" stroke="black" points="307.37,-122.56 317.74,-120.41 308.29,-115.62 307.37,-122.56"/>
</g>
<!-- Slave.Layer&#45;2 -->
<g id="node7" class="node">
<title>Slave.Layer&#45;2</title>
<polygon fill="lightgrey" stroke="black" points="129.5,-160 16,-160 16,-124 129.5,-124 129.5,-160"/>
<text xml:space="preserve" text-anchor="middle" x="72.75" y="-137.32" font-family="Times,serif" font-size="14.00">Slave.Layer&#45;2</text>
</g>
<!-- Slave.Layer&#45;2&#45;&gt;Slave.Scaler&#45;1 -->
<g id="edge3" class="edge">
<title>Slave.Layer&#45;2&#45;&gt;Slave.Scaler&#45;1</title>
<path fill="none" stroke="black" d="M129.94,-150.63C137.78,-151.83 145.91,-153.08 153.96,-154.32"/>
<polygon fill="black" stroke="black" points="153.34,-157.76 163.75,-155.82 154.4,-150.85 153.34,-157.76"/>
</g>
<!-- Slave.Layer&#45;2&#45;&gt;Slave.Compiz -->
<g id="edge7" class="edge">
<title>Slave.Layer&#45;2&#45;&gt;Slave.Compiz</title>
<path fill="none" stroke="black" d="M129.68,-139.4C180.07,-137.06 254.24,-133.61 307.8,-131.12"/>
<polygon fill="black" stroke="black" points="307.9,-134.62 317.73,-130.66 307.58,-127.63 307.9,-134.62"/>
</g>
<!-- Slave.Layer&#45;3 -->
<g id="node8" class="node">
<title>Slave.Layer&#45;3</title>
<polygon fill="lightgrey" stroke="black" points="129.5,-214 16,-214 16,-178 129.5,-178 129.5,-214"/>
<text xml:space="preserve" text-anchor="middle" x="72.75" y="-191.32" font-family="Times,serif" font-size="14.00">Slave.Layer&#45;3</text>
</g>
<!-- Slave.Layer&#45;3&#45;&gt;Slave.Scaler&#45;1 -->
<g id="edge4" class="edge">
<title>Slave.Layer&#45;3&#45;&gt;Slave.Scaler&#45;1</title>
<path fill="none" stroke="black" d="M129.94,-184.37C137.87,-182.73 146.1,-181.02 154.24,-179.34"/>
<polygon fill="black" stroke="black" points="154.68,-182.82 163.77,-177.37 153.26,-175.97 154.68,-182.82"/>
</g>
<!-- Slave.Layer&#45;3&#45;&gt;Slave.Compiz -->
<g id="edge8" class="edge">
<title>Slave.Layer&#45;3&#45;&gt;Slave.Compiz</title>
<path fill="none" stroke="black" d="M129.98,-203.67C173.08,-207.48 233.46,-208.31 283.5,-192 307.49,-184.18 330.73,-167.74 347.77,-153.49"/>
<polygon fill="black" stroke="black" points="349.67,-156.47 354.94,-147.28 345.09,-151.18 349.67,-156.47"/>
</g>
<!-- Compiz -->
<g id="node17" class="node">
<title>Compiz</title>
<polygon fill="lightgrey" stroke="black" points="537.5,-367 468.25,-367 468.25,-331 537.5,-331 537.5,-367"/>
<text xml:space="preserve" text-anchor="middle" x="502.88" y="-344.32" font-family="Times,serif" font-size="14.00">Compiz</text>
</g>
<!-- Slave.Compiz&#45;&gt;Compiz -->
<g id="edge15" class="edge">
<title>Slave.Compiz&#45;&gt;Compiz</title>
<path fill="none" stroke="black" d="M387.32,-146.46C409.2,-185.15 459.99,-274.94 485.96,-320.86"/>
<polygon fill="black" stroke="black" points="482.84,-322.45 490.81,-329.43 488.93,-319 482.84,-322.45"/>
</g>
<!-- Scaler&#45;0 -->
<g id="node10" class="node">
<title>Scaler&#45;0</title>
<polygon fill="none" stroke="black" stroke-dasharray="5,2" points="413.12,-330 338.62,-330 338.62,-294 413.12,-294 413.12,-330"/>
<text xml:space="preserve" text-anchor="middle" x="375.88" y="-307.32" font-family="Times,serif" font-size="14.00">Scaler&#45;0</text>
</g>
<!-- Scaler&#45;0&#45;&gt;Compiz -->
<g id="edge20" class="edge">
<title>Scaler&#45;0&#45;&gt;Compiz</title>
<path fill="none" stroke="black" d="M413.37,-322.8C427.15,-326.88 442.98,-331.57 457.42,-335.84"/>
<polygon fill="black" stroke="black" points="456.09,-339.1 466.67,-338.58 458.07,-332.38 456.09,-339.1"/>
</g>
<!-- Scaler&#45;1 -->
<g id="node11" class="node">
<title>Scaler&#45;1</title>
<polygon fill="none" stroke="black" stroke-dasharray="5,2" points="413.12,-424 338.62,-424 338.62,-388 413.12,-388 413.12,-424"/>
<text xml:space="preserve" text-anchor="middle" x="375.88" y="-401.32" font-family="Times,serif" font-size="14.00">Scaler&#45;1</text>
</g>
<!-- Scaler&#45;1&#45;&gt;Compiz -->
<g id="edge21" class="edge">
<title>Scaler&#45;1&#45;&gt;Compiz</title>
<path fill="none" stroke="black" d="M413.37,-389.36C427.28,-383.01 443.29,-375.71 457.84,-369.08"/>
<polygon fill="black" stroke="black" points="459.1,-372.35 466.74,-365.02 456.19,-365.98 459.1,-372.35"/>
</g>
<!-- Scaler&#45;0/1 -->
<g id="node12" class="node">
<title>Scaler&#45;0/1</title>
<polygon fill="none" stroke="black" stroke-dasharray="5,2" points="661.5,-394 573.5,-394 573.5,-358 661.5,-358 661.5,-394"/>
<text xml:space="preserve" text-anchor="middle" x="617.5" y="-371.32" font-family="Times,serif" font-size="14.00">Scaler&#45;0/1</text>
</g>
<!-- Wb_layer -->
<g id="node18" class="node">
<title>Wb_layer</title>
<polygon fill="lightgrey" stroke="black" points="809.88,-394 727.88,-394 727.88,-358 809.88,-358 809.88,-394"/>
<text xml:space="preserve" text-anchor="middle" x="768.88" y="-371.32" font-family="Times,serif" font-size="14.00">Wb_layer</text>
</g>
<!-- Scaler&#45;0/1&#45;&gt;Wb_layer -->
<g id="edge23" class="edge">
<title>Scaler&#45;0/1&#45;&gt;Wb_layer</title>
<path fill="none" stroke="black" d="M661.71,-376C678.74,-376 698.45,-376 716.23,-376"/>
<polygon fill="black" stroke="black" points="716.07,-379.5 726.07,-376 716.07,-372.5 716.07,-379.5"/>
</g>
<!-- Layer&#45;0 -->
<g id="node13" class="node">
<title>Layer&#45;0</title>
<polygon fill="lightgrey" stroke="black" points="259.5,-299 189.5,-299 189.5,-263 259.5,-263 259.5,-299"/>
<text xml:space="preserve" text-anchor="middle" x="224.5" y="-276.32" font-family="Times,serif" font-size="14.00">Layer&#45;0</text>
</g>
<!-- Layer&#45;0&#45;&gt;Scaler&#45;0 -->
<g id="edge11" class="edge">
<title>Layer&#45;0&#45;&gt;Scaler&#45;0</title>
<path fill="none" stroke="black" d="M259.77,-288.11C279.72,-292.25 305.18,-297.54 327.08,-302.08"/>
<polygon fill="black" stroke="black" points="326.17,-305.47 336.67,-304.07 327.59,-298.61 326.17,-305.47"/>
</g>
<!-- Layer&#45;0&#45;&gt;Compiz -->
<g id="edge16" class="edge">
<title>Layer&#45;0&#45;&gt;Compiz</title>
<path fill="none" stroke="black" d="M259.94,-273.85C303.84,-266.44 381.12,-259.2 440.25,-285 457.71,-292.62 472.67,-307.78 483.47,-321.44"/>
<polygon fill="black" stroke="black" points="480.57,-323.41 489.36,-329.32 486.18,-319.22 480.57,-323.41"/>
</g>
<!-- Layer&#45;1 -->
<g id="node14" class="node">
<title>Layer&#45;1</title>
<polygon fill="lightgrey" stroke="black" points="259.5,-353 189.5,-353 189.5,-317 259.5,-317 259.5,-353"/>
<text xml:space="preserve" text-anchor="middle" x="224.5" y="-330.32" font-family="Times,serif" font-size="14.00">Layer&#45;1</text>
</g>
<!-- Layer&#45;1&#45;&gt;Scaler&#45;0 -->
<g id="edge12" class="edge">
<title>Layer&#45;1&#45;&gt;Scaler&#45;0</title>
<path fill="none" stroke="black" d="M259.77,-329.72C279.72,-326.65 305.18,-322.73 327.08,-319.36"/>
<polygon fill="black" stroke="black" points="327.31,-322.87 336.66,-317.88 326.24,-315.95 327.31,-322.87"/>
</g>
<!-- Layer&#45;1&#45;&gt;Compiz -->
<g id="edge17" class="edge">
<title>Layer&#45;1&#45;&gt;Compiz</title>
<path fill="none" stroke="black" d="M259.94,-336.74C309.66,-339.26 401.59,-343.92 456.69,-346.71"/>
<polygon fill="black" stroke="black" points="456.19,-350.19 466.35,-347.2 456.54,-343.2 456.19,-350.19"/>
</g>
<!-- Layer&#45;2 -->
<g id="node15" class="node">
<title>Layer&#45;2</title>
<polygon fill="lightgrey" stroke="black" points="259.5,-407 189.5,-407 189.5,-371 259.5,-371 259.5,-407"/>
<text xml:space="preserve" text-anchor="middle" x="224.5" y="-384.32" font-family="Times,serif" font-size="14.00">Layer&#45;2</text>
</g>
<!-- Layer&#45;2&#45;&gt;Scaler&#45;1 -->
<g id="edge13" class="edge">
<title>Layer&#45;2&#45;&gt;Scaler&#45;1</title>
<path fill="none" stroke="black" d="M259.77,-392.9C279.63,-395.16 304.94,-398.04 326.77,-400.53"/>
<polygon fill="black" stroke="black" points="326.32,-404 336.65,-401.65 327.11,-397.04 326.32,-404"/>
</g>
<!-- Layer&#45;2&#45;&gt;Compiz -->
<g id="edge18" class="edge">
<title>Layer&#45;2&#45;&gt;Compiz</title>
<path fill="none" stroke="black" d="M259.94,-384.01C309.66,-376.82 401.59,-363.51 456.69,-355.54"/>
<polygon fill="black" stroke="black" points="456.97,-359.04 466.37,-354.14 455.97,-352.11 456.97,-359.04"/>
</g>
<!-- Layer&#45;3 -->
<g id="node16" class="node">
<title>Layer&#45;3</title>
<polygon fill="lightgrey" stroke="black" points="259.5,-461 189.5,-461 189.5,-425 259.5,-425 259.5,-461"/>
<text xml:space="preserve" text-anchor="middle" x="224.5" y="-438.32" font-family="Times,serif" font-size="14.00">Layer&#45;3</text>
</g>
<!-- Layer&#45;3&#45;&gt;Scaler&#45;1 -->
<g id="edge14" class="edge">
<title>Layer&#45;3&#45;&gt;Scaler&#45;1</title>
<path fill="none" stroke="black" d="M259.77,-434.51C279.72,-429.57 305.18,-423.26 327.08,-417.84"/>
<polygon fill="black" stroke="black" points="327.82,-421.26 336.69,-415.46 326.14,-414.47 327.82,-421.26"/>
</g>
<!-- Layer&#45;3&#45;&gt;Compiz -->
<g id="edge19" class="edge">
<title>Layer&#45;3&#45;&gt;Compiz</title>
<path fill="none" stroke="black" d="M259.87,-450.03C304.38,-457.28 383.02,-463.69 440.25,-433 462.71,-420.96 479.12,-396.72 489.33,-377.37"/>
<polygon fill="black" stroke="black" points="492.38,-379.09 493.69,-368.58 486.11,-375.98 492.38,-379.09"/>
</g>
<!-- Compiz&#45;&gt;Scaler&#45;0/1 -->
<g id="edge22" class="edge">
<title>Compiz&#45;&gt;Scaler&#45;0/1</title>
<path fill="none" stroke="black" d="M537.97,-357.17C545.63,-359.01 553.94,-361 562.19,-362.98"/>
<polygon fill="black" stroke="black" points="561.32,-366.37 571.86,-365.3 562.96,-359.56 561.32,-366.37"/>
</g>
<!-- Improc -->
<g id="node19" class="node">
<title>Improc</title>
<polygon fill="lightgrey" stroke="black" points="650.62,-340 584.38,-340 584.38,-304 650.62,-304 650.62,-340"/>
<text xml:space="preserve" text-anchor="middle" x="617.5" y="-317.32" font-family="Times,serif" font-size="14.00">Improc</text>
</g>
<!-- Compiz&#45;&gt;Improc -->
<g id="edge24" class="edge">
<title>Compiz&#45;&gt;Improc</title>
<path fill="none" stroke="black" d="M537.97,-340.83C549.06,-338.17 561.52,-335.18 573.19,-332.38"/>
<polygon fill="black" stroke="black" points="573.68,-335.86 582.59,-330.13 572.05,-329.06 573.68,-335.86"/>
</g>
<!-- Wb_layer&#45;&gt;Memory -->
<g id="edge26" class="edge">
<title>Wb_layer&#45;&gt;Memory</title>
<path fill="none" stroke="black" d="M810.2,-376C826.64,-376 846.06,-376 864.33,-376"/>
<polygon fill="black" stroke="black" points="864.32,-379.5 874.32,-376 864.32,-372.5 864.32,-379.5"/>
</g>
<!-- Timing Controller -->
<g id="node20" class="node">
<title>Timing Controller</title>
<polygon fill="lightgrey" stroke="black" points="840.25,-340 697.5,-340 697.5,-304 840.25,-304 840.25,-340"/>
<text xml:space="preserve" text-anchor="middle" x="768.88" y="-317.32" font-family="Times,serif" font-size="14.00">Timing Controller</text>
</g>
<!-- Improc&#45;&gt;Timing Controller -->
<g id="edge25" class="edge">
<title>Improc&#45;&gt;Timing Controller</title>
<path fill="none" stroke="black" d="M650.91,-322C661.36,-322 673.45,-322 685.81,-322"/>
<polygon fill="black" stroke="black" points="685.69,-325.5 695.69,-322 685.69,-318.5 685.69,-325.5"/>
</g>
<!-- Timing Controller&#45;&gt;Monitor -->
<g id="edge27" class="edge">
<title>Timing Controller&#45;&gt;Monitor</title>
<path fill="none" stroke="black" d="M840.63,-322C849.22,-322 857.95,-322 866.4,-322"/>
<polygon fill="black" stroke="black" points="866.19,-325.5 876.19,-322 866.19,-318.5 866.19,-325.5"/>
</g>
</g>
</svg>
