<?xml version="1.0" encoding="UTF-8" standalone="no"?>
<!DOCTYPE svg PUBLIC "-//W3C//DTD SVG 1.1//EN"
 "http://www.w3.org/Graphics/SVG/1.1/DTD/svg11.dtd">
<!-- Generated by graphviz version 14.1.2 (20260126.1125)
 -->
<!-- Title: layer_data_flow Pages: 1 -->
<svg width="294pt" height="44pt"
 viewBox="0.00 0.00 294.00 44.00" xmlns="http://www.w3.org/2000/svg" xmlns:xlink="http://www.w3.org/1999/xlink">
<g id="graph0" class="graph" transform="scale(1 1) rotate(0) translate(4 40)">
<title>layer_data_flow</title>
<polygon fill="white" stroke="none" points="-4,4 -4,-40 289.75,-40 289.75,4 -4,4"/>
<!-- Scaler&#45;n -->
<g id="node1" class="node">
<title>Scaler&#45;n</title>
<polygon fill="none" stroke="black" stroke-dasharray="5,2" points="180.5,-36 106,-36 106,0 180.5,0 180.5,-36"/>
<text xml:space="preserve" text-anchor="middle" x="143.25" y="-13.32" font-family="Times,serif" font-size="14.00">Scaler&#45;n</text>
</g>
<!-- Compiz -->
<g id="node3" class="node">
<title>Compiz</title>
<polygon fill="none" stroke="black" points="285.75,-36 216.5,-36 216.5,0 285.75,0 285.75,-36"/>
<text xml:space="preserve" text-anchor="middle" x="251.12" y="-13.32" font-family="Times,serif" font-size="14.00">Compiz</text>
</g>
<!-- Scaler&#45;n&#45;&gt;Compiz -->
<g id="edge2" class="edge">
<title>Scaler&#45;n&#45;&gt;Compiz</title>
<path fill="none" stroke="black" d="M180.98,-18C188.69,-18 196.9,-18 204.87,-18"/>
<polygon fill="black" stroke="black" points="204.78,-21.5 214.78,-18 204.78,-14.5 204.78,-21.5"/>
</g>
<!-- Layer&#45;n -->
<g id="node2" class="node">
<title>Layer&#45;n</title>
<polygon fill="none" stroke="black" points="70,-36 0,-36 0,0 70,0 70,-36"/>
<text xml:space="preserve" text-anchor="middle" x="35" y="-13.32" font-family="Times,serif" font-size="14.00">Layer&#45;n</text>
</g>
<!-- Layer&#45;n&#45;&gt;Scaler&#45;n -->
<g id="edge1" class="edge">
<title>Layer&#45;n&#45;&gt;Scaler&#45;n</title>
<path fill="none" stroke="black" d="M70.5,-18C78.16,-18 86.41,-18 94.49,-18"/>
<polygon fill="black" stroke="black" points="94.22,-21.5 104.22,-18 94.22,-14.5 94.22,-21.5"/>
</g>
</g>
</svg>
