<?xml version="1.0" encoding="UTF-8" standalone="no"?>
<!DOCTYPE svg PUBLIC "-//W3C//DTD SVG 1.1//EN"
 "http://www.w3.org/Graphics/SVG/1.1/DTD/svg11.dtd">
<!-- Generated by graphviz version 14.1.2 (20260126.1125)
 -->
<!-- Title: foo Pages: 1 -->
<svg width="294pt" height="260pt"
 viewBox="0.00 0.00 294.00 260.00" xmlns="http://www.w3.org/2000/svg" xmlns:xlink="http://www.w3.org/1999/xlink">
<g id="graph0" class="graph" transform="scale(1 1) rotate(0) translate(4 256)">
<title>foo</title>
<polygon fill="white" stroke="none" points="-4,4 -4,-256 289.98,-256 289.98,4 -4,4"/>
<!-- root0 -->
<g id="node1" class="node">
<title>root0</title>
<ellipse fill="none" stroke="black" cx="142.99" cy="-234" rx="38.06" ry="18"/>
<text xml:space="preserve" text-anchor="middle" x="142.99" y="-229.32" font-family="Times,serif" font-size="14.00">root0</text>
</g>
<!-- decoder0.0 -->
<g id="node2" class="node">
<title>decoder0.0</title>
<ellipse fill="none" stroke="black" cx="142.99" cy="-162" rx="66.99" ry="18"/>
<text xml:space="preserve" text-anchor="middle" x="142.99" y="-157.32" font-family="Times,serif" font-size="14.00">decoder0.0</text>
</g>
<!-- root0&#45;&gt;decoder0.0 -->
<g id="edge1" class="edge">
<title>root0&#45;&gt;decoder0.0</title>
<path fill="none" stroke="black" d="M142.99,-215.7C142.99,-208.41 142.99,-199.73 142.99,-191.54"/>
<polygon fill="black" stroke="black" points="146.49,-191.62 142.99,-181.62 139.49,-191.62 146.49,-191.62"/>
</g>
<!-- region0 -->
<g id="node3" class="node">
<title>region0</title>
<ellipse fill="none" stroke="black" cx="142.99" cy="-90" rx="49.63" ry="18"/>
<text xml:space="preserve" text-anchor="middle" x="142.99" y="-85.33" font-family="Times,serif" font-size="14.00">region0</text>
</g>
<!-- decoder0.0&#45;&gt;region0 -->
<g id="edge2" class="edge">
<title>decoder0.0&#45;&gt;region0</title>
<path fill="none" stroke="black" d="M142.99,-143.7C142.99,-136.41 142.99,-127.73 142.99,-119.54"/>
<polygon fill="black" stroke="black" points="146.49,-119.62 142.99,-109.62 139.49,-119.62 146.49,-119.62"/>
</g>
<!-- decoder5.0 -->
<g id="node4" class="node">
<title>decoder5.0</title>
<ellipse fill="none" stroke="black" cx="66.99" cy="-18" rx="66.99" ry="18"/>
<text xml:space="preserve" text-anchor="middle" x="66.99" y="-13.32" font-family="Times,serif" font-size="14.00">decoder5.0</text>
</g>
<!-- region0&#45;&gt;decoder5.0 -->
<g id="edge3" class="edge">
<title>region0&#45;&gt;decoder5.0</title>
<path fill="none" stroke="black" d="M125.36,-72.76C115.81,-63.97 103.83,-52.93 93.2,-43.14"/>
<polygon fill="black" stroke="black" points="95.89,-40.86 86.16,-36.66 91.15,-46.01 95.89,-40.86"/>
</g>
<!-- decoder6.0 -->
<g id="node5" class="node">
<title>decoder6.0</title>
<ellipse fill="none" stroke="black" cx="218.99" cy="-18" rx="66.99" ry="18"/>
<text xml:space="preserve" text-anchor="middle" x="218.99" y="-13.32" font-family="Times,serif" font-size="14.00">decoder6.0</text>
</g>
<!-- region0&#45;&gt;decoder6.0 -->
<g id="edge4" class="edge">
<title>region0&#45;&gt;decoder6.0</title>
<path fill="none" stroke="black" d="M160.62,-72.76C170.17,-63.97 182.15,-52.93 192.78,-43.14"/>
<polygon fill="black" stroke="black" points="194.83,-46.01 199.82,-36.66 190.09,-40.86 194.83,-46.01"/>
</g>
</g>
</svg>
