<?xml version="1.0" encoding="UTF-8" standalone="no"?>
<!DOCTYPE svg PUBLIC "-//W3C//DTD SVG 1.1//EN"
 "http://www.w3.org/Graphics/SVG/1.1/DTD/svg11.dtd">
<!-- Generated by graphviz version 14.1.2 (20260126.1125)
 -->
<!-- Title: board Pages: 1 -->
<svg width="1078pt" height="961pt"
 viewBox="0.00 0.00 1078.00 961.00" xmlns="http://www.w3.org/2000/svg" xmlns:xlink="http://www.w3.org/1999/xlink">
<g id="graph0" class="graph" transform="scale(1 1) rotate(0) translate(4 956.5)">
<title>board</title>
<polygon fill="white" stroke="none" points="-4,4 -4,-956.5 1073.66,-956.5 1073.66,4 -4,4"/>
<!-- n00000001 -->
<g id="node1" class="node">
<title>n00000001</title>
<path fill="green" stroke="black" d="M106.29,-469C106.29,-469 219.04,-469 219.04,-469 225.04,-469 231.04,-475 231.04,-481 231.04,-481 231.04,-550 231.04,-550 231.04,-556 225.04,-562 219.04,-562 219.04,-562 106.29,-562 106.29,-562 100.29,-562 94.29,-556 94.29,-550 94.29,-550 94.29,-481 94.29,-481 94.29,-475 100.29,-469 106.29,-469"/>
<text xml:space="preserve" text-anchor="middle" x="162.29" y="-544.7" font-family="Times,serif" font-size="14.00">0</text>
<polyline fill="none" stroke="black" points="94.29,-536.75 231.04,-536.75"/>
<text xml:space="preserve" text-anchor="middle" x="162.66" y="-519.45" font-family="Times,serif" font-size="14.00">ipu1_csi0</text>
<text xml:space="preserve" text-anchor="middle" x="162.66" y="-502.2" font-family="Times,serif" font-size="14.00">/dev/v4l&#45;subdev0</text>
<polyline fill="none" stroke="black" points="94.29,-494.25 231.04,-494.25"/>
<text xml:space="preserve" text-anchor="middle" x="128.29" y="-476.95" font-family="Times,serif" font-size="14.00">1</text>
<polyline fill="none" stroke="black" points="162.29,-469 162.29,-494.25"/>
<text xml:space="preserve" text-anchor="middle" x="196.29" y="-476.95" font-family="Times,serif" font-size="14.00">2</text>
</g>
<!-- n00000005 -->
<g id="node2" class="node">
<title>n00000005</title>
<polygon fill="yellow" stroke="black" points="167.66,-406.75 25.66,-406.75 25.66,-364.25 167.66,-364.25 167.66,-406.75"/>
<text xml:space="preserve" text-anchor="middle" x="96.66" y="-389.45" font-family="Times,serif" font-size="14.00">ipu1_csi0 capture</text>
<text xml:space="preserve" text-anchor="middle" x="96.66" y="-372.2" font-family="Times,serif" font-size="14.00">/dev/video0</text>
</g>
<!-- n00000001&#45;&gt;n00000005 -->
<g id="edge1" class="edge">
<title>n00000001:port2&#45;&gt;n00000005</title>
<path fill="none" stroke="black" stroke-dasharray="5,2" d="M196.29,-468.5C196.29,-453.19 167.88,-430.84 141.4,-413.35"/>
<polygon fill="black" stroke="black" points="143.36,-410.45 133.06,-407.96 139.56,-416.33 143.36,-410.45"/>
</g>
<!-- n0000000f -->
<g id="node3" class="node">
<title>n0000000f</title>
<path fill="green" stroke="black" d="M197.29,-209C197.29,-209 310.04,-209 310.04,-209 316.04,-209 322.04,-215 322.04,-221 322.04,-221 322.04,-290 322.04,-290 322.04,-296 316.04,-302 310.04,-302 310.04,-302 197.29,-302 197.29,-302 191.29,-302 185.29,-296 185.29,-290 185.29,-290 185.29,-221 185.29,-221 185.29,-215 191.29,-209 197.29,-209"/>
<text xml:space="preserve" text-anchor="middle" x="253.29" y="-284.7" font-family="Times,serif" font-size="14.00">0</text>
<polyline fill="none" stroke="black" points="185.29,-276.75 322.04,-276.75"/>
<text xml:space="preserve" text-anchor="middle" x="253.66" y="-259.45" font-family="Times,serif" font-size="14.00">ipu1_ic_prp</text>
<text xml:space="preserve" text-anchor="middle" x="253.66" y="-242.2" font-family="Times,serif" font-size="14.00">/dev/v4l&#45;subdev2</text>
<polyline fill="none" stroke="black" points="185.29,-234.25 322.04,-234.25"/>
<text xml:space="preserve" text-anchor="middle" x="219.29" y="-216.95" font-family="Times,serif" font-size="14.00">1</text>
<polyline fill="none" stroke="black" points="253.29,-209 253.29,-234.25"/>
<text xml:space="preserve" text-anchor="middle" x="287.29" y="-216.95" font-family="Times,serif" font-size="14.00">2</text>
</g>
<!-- n00000001&#45;&gt;n0000000f -->
<g id="edge2" class="edge">
<title>n00000001:port1&#45;&gt;n0000000f:port0</title>
<path fill="none" stroke="black" stroke-dasharray="5,2" d="M93.29,-481.62C21.13,-481.62 -26.59,-396.25 16.66,-338.5 37.93,-310.1 127.94,-292.57 172.9,-289.77"/>
<polygon fill="black" stroke="black" points="172.9,-293.27 182.78,-289.43 172.66,-286.28 172.9,-293.27"/>
</g>
<!-- n0000000b -->
<g id="node4" class="node">
<title>n0000000b</title>
<path fill="green" stroke="black" d="M197.29,-339C197.29,-339 310.04,-339 310.04,-339 316.04,-339 322.04,-345 322.04,-351 322.04,-351 322.04,-420 322.04,-420 322.04,-426 316.04,-432 310.04,-432 310.04,-432 197.29,-432 197.29,-432 191.29,-432 185.29,-426 185.29,-420 185.29,-420 185.29,-351 185.29,-351 185.29,-345 191.29,-339 197.29,-339"/>
<text xml:space="preserve" text-anchor="middle" x="219.29" y="-414.7" font-family="Times,serif" font-size="14.00">0</text>
<polyline fill="none" stroke="black" points="253.29,-406.75 253.29,-432"/>
<text xml:space="preserve" text-anchor="middle" x="287.29" y="-414.7" font-family="Times,serif" font-size="14.00">1</text>
<polyline fill="none" stroke="black" points="185.29,-406.75 322.04,-406.75"/>
<text xml:space="preserve" text-anchor="middle" x="253.66" y="-389.45" font-family="Times,serif" font-size="14.00">ipu1_vdic</text>
<text xml:space="preserve" text-anchor="middle" x="253.66" y="-372.2" font-family="Times,serif" font-size="14.00">/dev/v4l&#45;subdev1</text>
<polyline fill="none" stroke="black" points="185.29,-364.25 322.04,-364.25"/>
<text xml:space="preserve" text-anchor="middle" x="253.29" y="-346.95" font-family="Times,serif" font-size="14.00">2</text>
</g>
<!-- n00000001&#45;&gt;n0000000b -->
<g id="edge3" class="edge">
<title>n00000001:port1&#45;&gt;n0000000b:port0</title>
<path fill="none" stroke="black" stroke-dasharray="5,2" d="M128.29,-468.5C128.29,-441.7 158.82,-452.49 176.66,-432.5 177.58,-431.48 178.15,-430.33 178.55,-429.15"/>
<polygon fill="black" stroke="black" points="181.48,-431.08 183.52,-420.68 175.44,-427.53 181.48,-431.08"/>
</g>
<!-- n00000013 -->
<g id="node5" class="node">
<title>n00000013</title>
<path fill="green" stroke="black" d="M110.29,-79C110.29,-79 223.04,-79 223.04,-79 229.04,-79 235.04,-85 235.04,-91 235.04,-91 235.04,-160 235.04,-160 235.04,-166 229.04,-172 223.04,-172 223.04,-172 110.29,-172 110.29,-172 104.29,-172 98.29,-166 98.29,-160 98.29,-160 98.29,-91 98.29,-91 98.29,-85 104.29,-79 110.29,-79"/>
<text xml:space="preserve" text-anchor="middle" x="166.29" y="-154.7" font-family="Times,serif" font-size="14.00">0</text>
<polyline fill="none" stroke="black" points="98.29,-146.75 235.04,-146.75"/>
<text xml:space="preserve" text-anchor="middle" x="166.66" y="-129.45" font-family="Times,serif" font-size="14.00">ipu1_ic_prpenc</text>
<text xml:space="preserve" text-anchor="middle" x="166.66" y="-112.2" font-family="Times,serif" font-size="14.00">/dev/v4l&#45;subdev3</text>
<polyline fill="none" stroke="black" points="98.29,-104.25 235.04,-104.25"/>
<text xml:space="preserve" text-anchor="middle" x="166.29" y="-86.95" font-family="Times,serif" font-size="14.00">1</text>
</g>
<!-- n0000000f&#45;&gt;n00000013 -->
<g id="edge5" class="edge">
<title>n0000000f:port1&#45;&gt;n00000013:port0</title>
<path fill="none" stroke="black" stroke-dasharray="5,2" d="M184.29,-221.62C178.44,-221.62 182.45,-213.62 185.29,-208.5 198.4,-184.87 221.18,-196.13 234.29,-172.5 234.6,-171.94 234.92,-171.35 235.25,-170.73"/>
<polygon fill="black" stroke="black" points="238.75,-170.9 235.28,-160.89 231.75,-170.88 238.75,-170.9"/>
</g>
<!-- n0000001c -->
<g id="node6" class="node">
<title>n0000001c</title>
<path fill="green" stroke="black" d="M275.29,-79C275.29,-79 388.04,-79 388.04,-79 394.04,-79 400.04,-85 400.04,-91 400.04,-91 400.04,-160 400.04,-160 400.04,-166 394.04,-172 388.04,-172 388.04,-172 275.29,-172 275.29,-172 269.29,-172 263.29,-166 263.29,-160 263.29,-160 263.29,-91 263.29,-91 263.29,-85 269.29,-79 275.29,-79"/>
<text xml:space="preserve" text-anchor="middle" x="331.29" y="-154.7" font-family="Times,serif" font-size="14.00">0</text>
<polyline fill="none" stroke="black" points="263.29,-146.75 400.04,-146.75"/>
<text xml:space="preserve" text-anchor="middle" x="331.66" y="-129.45" font-family="Times,serif" font-size="14.00">ipu1_ic_prpvf</text>
<text xml:space="preserve" text-anchor="middle" x="331.66" y="-112.2" font-family="Times,serif" font-size="14.00">/dev/v4l&#45;subdev4</text>
<polyline fill="none" stroke="black" points="263.29,-104.25 400.04,-104.25"/>
<text xml:space="preserve" text-anchor="middle" x="331.29" y="-86.95" font-family="Times,serif" font-size="14.00">1</text>
</g>
<!-- n0000000f&#45;&gt;n0000001c -->
<g id="edge6" class="edge">
<title>n0000000f:port2&#45;&gt;n0000001c:port0</title>
<path fill="none" stroke="black" stroke-dasharray="5,2" d="M287.29,-208.5C287.29,-189.27 269.56,-190.68 263.29,-172.5 263.08,-171.9 262.83,-171.27 262.57,-170.62"/>
<polygon fill="black" stroke="black" points="266.08,-170.8 262.33,-160.89 259.08,-170.97 266.08,-170.8"/>
</g>
<!-- n0000000b&#45;&gt;n0000000f -->
<g id="edge4" class="edge">
<title>n0000000b:port2&#45;&gt;n0000000f:port0</title>
<path fill="none" stroke="black" stroke-dasharray="5,2" d="M253.29,-338.5C253.29,-327.12 253.29,-321.82 253.29,-313.95"/>
<polygon fill="black" stroke="black" points="256.79,-314.01 253.29,-304.01 249.79,-314.01 256.79,-314.01"/>
</g>
<!-- n00000016 -->
<g id="node7" class="node">
<title>n00000016</title>
<polygon fill="yellow" stroke="black" points="238.54,-42.5 56.79,-42.5 56.79,0 238.54,0 238.54,-42.5"/>
<text xml:space="preserve" text-anchor="middle" x="147.66" y="-25.2" font-family="Times,serif" font-size="14.00">ipu1_ic_prpenc capture</text>
<text xml:space="preserve" text-anchor="middle" x="147.66" y="-7.95" font-family="Times,serif" font-size="14.00">/dev/video1</text>
</g>
<!-- n00000013&#45;&gt;n00000016 -->
<g id="edge7" class="edge">
<title>n00000013:port1&#45;&gt;n00000016</title>
<path fill="none" stroke="black" stroke-dasharray="5,2" d="M166.29,-78.5C166.29,-70.18 164.43,-61.5 161.88,-53.52"/>
<polygon fill="black" stroke="black" points="165.21,-52.42 158.48,-44.24 158.64,-54.83 165.21,-52.42"/>
</g>
<!-- n0000001f -->
<g id="node8" class="node">
<title>n0000001f</title>
<polygon fill="yellow" stroke="black" points="426.91,-42.5 256.41,-42.5 256.41,0 426.91,0 426.91,-42.5"/>
<text xml:space="preserve" text-anchor="middle" x="341.66" y="-25.2" font-family="Times,serif" font-size="14.00">ipu1_ic_prpvf capture</text>
<text xml:space="preserve" text-anchor="middle" x="341.66" y="-7.95" font-family="Times,serif" font-size="14.00">/dev/video2</text>
</g>
<!-- n0000001c&#45;&gt;n0000001f -->
<g id="edge8" class="edge">
<title>n0000001c:port1&#45;&gt;n0000001f</title>
<path fill="none" stroke="black" stroke-dasharray="5,2" d="M331.29,-78.5C331.29,-70.49 332.32,-61.95 333.73,-54"/>
<polygon fill="black" stroke="black" points="337.12,-54.9 335.69,-44.4 330.26,-53.5 337.12,-54.9"/>
</g>
<!-- n0000002f -->
<g id="node9" class="node">
<title>n0000002f</title>
<path fill="green" stroke="black" d="M343.29,-469C343.29,-469 456.04,-469 456.04,-469 462.04,-469 468.04,-475 468.04,-481 468.04,-481 468.04,-550 468.04,-550 468.04,-556 462.04,-562 456.04,-562 456.04,-562 343.29,-562 343.29,-562 337.29,-562 331.29,-556 331.29,-550 331.29,-550 331.29,-481 331.29,-481 331.29,-475 337.29,-469 343.29,-469"/>
<text xml:space="preserve" text-anchor="middle" x="399.29" y="-544.7" font-family="Times,serif" font-size="14.00">0</text>
<polyline fill="none" stroke="black" points="331.29,-536.75 468.04,-536.75"/>
<text xml:space="preserve" text-anchor="middle" x="399.66" y="-519.45" font-family="Times,serif" font-size="14.00">ipu1_csi1</text>
<text xml:space="preserve" text-anchor="middle" x="399.66" y="-502.2" font-family="Times,serif" font-size="14.00">/dev/v4l&#45;subdev5</text>
<polyline fill="none" stroke="black" points="331.29,-494.25 468.04,-494.25"/>
<text xml:space="preserve" text-anchor="middle" x="365.29" y="-476.95" font-family="Times,serif" font-size="14.00">1</text>
<polyline fill="none" stroke="black" points="399.29,-469 399.29,-494.25"/>
<text xml:space="preserve" text-anchor="middle" x="433.29" y="-476.95" font-family="Times,serif" font-size="14.00">2</text>
</g>
<!-- n0000002f&#45;&gt;n0000000f -->
<g id="edge10" class="edge">
<title>n0000002f:port1&#45;&gt;n0000000f:port0</title>
<path fill="none" stroke="black" stroke-dasharray="5,2" d="M365.29,-468.5C365.29,-431.4 363.59,-314.43 332.81,-292.82"/>
<polygon fill="black" stroke="black" points="334.32,-289.64 323.73,-289.85 332.14,-296.29 334.32,-289.64"/>
</g>
<!-- n0000002f&#45;&gt;n0000000b -->
<g id="edge11" class="edge">
<title>n0000002f:port1&#45;&gt;n0000000b:port0</title>
<path fill="none" stroke="black" stroke-dasharray="5,2" d="M330.29,-481.62C306.9,-481.62 240.6,-464.97 223.4,-442.95"/>
<polygon fill="black" stroke="black" points="226.76,-441.93 219.84,-433.91 220.25,-444.5 226.76,-441.93"/>
</g>
<!-- n00000033 -->
<g id="node10" class="node">
<title>n00000033</title>
<polygon fill="yellow" stroke="black" points="519.66,-406.75 377.66,-406.75 377.66,-364.25 519.66,-364.25 519.66,-406.75"/>
<text xml:space="preserve" text-anchor="middle" x="448.66" y="-389.45" font-family="Times,serif" font-size="14.00">ipu1_csi1 capture</text>
<text xml:space="preserve" text-anchor="middle" x="448.66" y="-372.2" font-family="Times,serif" font-size="14.00">/dev/video3</text>
</g>
<!-- n0000002f&#45;&gt;n00000033 -->
<g id="edge9" class="edge">
<title>n0000002f:port2&#45;&gt;n00000033</title>
<path fill="none" stroke="black" stroke-dasharray="5,2" d="M433.29,-468.5C433.29,-451.65 436.46,-433.18 439.93,-418.04"/>
<polygon fill="black" stroke="black" points="443.24,-419.21 442.23,-408.67 436.45,-417.54 443.24,-419.21"/>
</g>
<!-- n0000003d -->
<g id="node11" class="node">
<title>n0000003d</title>
<path fill="green" stroke="black" d="M541.29,-469C541.29,-469 654.04,-469 654.04,-469 660.04,-469 666.04,-475 666.04,-481 666.04,-481 666.04,-550 666.04,-550 666.04,-556 660.04,-562 654.04,-562 654.04,-562 541.29,-562 541.29,-562 535.29,-562 529.29,-556 529.29,-550 529.29,-550 529.29,-481 529.29,-481 529.29,-475 535.29,-469 541.29,-469"/>
<text xml:space="preserve" text-anchor="middle" x="597.29" y="-544.7" font-family="Times,serif" font-size="14.00">0</text>
<polyline fill="none" stroke="black" points="529.29,-536.75 666.04,-536.75"/>
<text xml:space="preserve" text-anchor="middle" x="597.66" y="-519.45" font-family="Times,serif" font-size="14.00">ipu2_csi0</text>
<text xml:space="preserve" text-anchor="middle" x="597.66" y="-502.2" font-family="Times,serif" font-size="14.00">/dev/v4l&#45;subdev6</text>
<polyline fill="none" stroke="black" points="529.29,-494.25 666.04,-494.25"/>
<text xml:space="preserve" text-anchor="middle" x="563.29" y="-476.95" font-family="Times,serif" font-size="14.00">1</text>
<polyline fill="none" stroke="black" points="597.29,-469 597.29,-494.25"/>
<text xml:space="preserve" text-anchor="middle" x="631.29" y="-476.95" font-family="Times,serif" font-size="14.00">2</text>
</g>
<!-- n00000041 -->
<g id="node12" class="node">
<title>n00000041</title>
<polygon fill="yellow" stroke="black" points="717.66,-406.75 575.66,-406.75 575.66,-364.25 717.66,-364.25 717.66,-406.75"/>
<text xml:space="preserve" text-anchor="middle" x="646.66" y="-389.45" font-family="Times,serif" font-size="14.00">ipu2_csi0 capture</text>
<text xml:space="preserve" text-anchor="middle" x="646.66" y="-372.2" font-family="Times,serif" font-size="14.00">/dev/video4</text>
</g>
<!-- n0000003d&#45;&gt;n00000041 -->
<g id="edge12" class="edge">
<title>n0000003d:port2&#45;&gt;n00000041</title>
<path fill="none" stroke="black" stroke-dasharray="5,2" d="M631.29,-468.5C631.29,-451.65 634.46,-433.18 637.93,-418.04"/>
<polygon fill="black" stroke="black" points="641.24,-419.21 640.23,-408.67 634.45,-417.54 641.24,-419.21"/>
</g>
<!-- n0000004b -->
<g id="node13" class="node">
<title>n0000004b</title>
<path fill="green" stroke="black" d="M747.29,-209C747.29,-209 860.04,-209 860.04,-209 866.04,-209 872.04,-215 872.04,-221 872.04,-221 872.04,-290 872.04,-290 872.04,-296 866.04,-302 860.04,-302 860.04,-302 747.29,-302 747.29,-302 741.29,-302 735.29,-296 735.29,-290 735.29,-290 735.29,-221 735.29,-221 735.29,-215 741.29,-209 747.29,-209"/>
<text xml:space="preserve" text-anchor="middle" x="803.29" y="-284.7" font-family="Times,serif" font-size="14.00">0</text>
<polyline fill="none" stroke="black" points="735.29,-276.75 872.04,-276.75"/>
<text xml:space="preserve" text-anchor="middle" x="803.66" y="-259.45" font-family="Times,serif" font-size="14.00">ipu2_ic_prp</text>
<text xml:space="preserve" text-anchor="middle" x="803.66" y="-242.2" font-family="Times,serif" font-size="14.00">/dev/v4l&#45;subdev8</text>
<polyline fill="none" stroke="black" points="735.29,-234.25 872.04,-234.25"/>
<text xml:space="preserve" text-anchor="middle" x="769.29" y="-216.95" font-family="Times,serif" font-size="14.00">1</text>
<polyline fill="none" stroke="black" points="803.29,-209 803.29,-234.25"/>
<text xml:space="preserve" text-anchor="middle" x="837.29" y="-216.95" font-family="Times,serif" font-size="14.00">2</text>
</g>
<!-- n0000003d&#45;&gt;n0000004b -->
<g id="edge13" class="edge">
<title>n0000003d:port1&#45;&gt;n0000004b:port0</title>
<path fill="none" stroke="black" stroke-dasharray="5,2" d="M563.29,-468.5C563.29,-410.7 531.42,-384.31 566.66,-338.5 588.3,-310.38 678,-292.62 722.9,-289.78"/>
<polygon fill="black" stroke="black" points="722.91,-293.28 732.78,-289.43 722.66,-286.28 722.91,-293.28"/>
</g>
<!-- n00000047 -->
<g id="node14" class="node">
<title>n00000047</title>
<path fill="green" stroke="black" d="M747.29,-339C747.29,-339 860.04,-339 860.04,-339 866.04,-339 872.04,-345 872.04,-351 872.04,-351 872.04,-420 872.04,-420 872.04,-426 866.04,-432 860.04,-432 860.04,-432 747.29,-432 747.29,-432 741.29,-432 735.29,-426 735.29,-420 735.29,-420 735.29,-351 735.29,-351 735.29,-345 741.29,-339 747.29,-339"/>
<text xml:space="preserve" text-anchor="middle" x="769.29" y="-414.7" font-family="Times,serif" font-size="14.00">0</text>
<polyline fill="none" stroke="black" points="803.29,-406.75 803.29,-432"/>
<text xml:space="preserve" text-anchor="middle" x="837.29" y="-414.7" font-family="Times,serif" font-size="14.00">1</text>
<polyline fill="none" stroke="black" points="735.29,-406.75 872.04,-406.75"/>
<text xml:space="preserve" text-anchor="middle" x="803.66" y="-389.45" font-family="Times,serif" font-size="14.00">ipu2_vdic</text>
<text xml:space="preserve" text-anchor="middle" x="803.66" y="-372.2" font-family="Times,serif" font-size="14.00">/dev/v4l&#45;subdev7</text>
<polyline fill="none" stroke="black" points="735.29,-364.25 872.04,-364.25"/>
<text xml:space="preserve" text-anchor="middle" x="803.29" y="-346.95" font-family="Times,serif" font-size="14.00">2</text>
</g>
<!-- n0000003d&#45;&gt;n00000047 -->
<g id="edge14" class="edge">
<title>n0000003d:port1&#45;&gt;n00000047:port0</title>
<path fill="none" stroke="black" stroke-dasharray="5,2" d="M563.29,-468.5C563.29,-394.15 666.61,-476.35 726.66,-432.5 727.77,-431.69 728.46,-430.67 728.92,-429.56"/>
<polygon fill="black" stroke="black" points="732.02,-431.19 733.58,-420.71 725.82,-427.93 732.02,-431.19"/>
</g>
<!-- n0000004f -->
<g id="node15" class="node">
<title>n0000004f</title>
<path fill="green" stroke="black" d="M659.29,-79C659.29,-79 772.04,-79 772.04,-79 778.04,-79 784.04,-85 784.04,-91 784.04,-91 784.04,-160 784.04,-160 784.04,-166 778.04,-172 772.04,-172 772.04,-172 659.29,-172 659.29,-172 653.29,-172 647.29,-166 647.29,-160 647.29,-160 647.29,-91 647.29,-91 647.29,-85 653.29,-79 659.29,-79"/>
<text xml:space="preserve" text-anchor="middle" x="715.29" y="-154.7" font-family="Times,serif" font-size="14.00">0</text>
<polyline fill="none" stroke="black" points="647.29,-146.75 784.04,-146.75"/>
<text xml:space="preserve" text-anchor="middle" x="715.66" y="-129.45" font-family="Times,serif" font-size="14.00">ipu2_ic_prpenc</text>
<text xml:space="preserve" text-anchor="middle" x="715.66" y="-112.2" font-family="Times,serif" font-size="14.00">/dev/v4l&#45;subdev9</text>
<polyline fill="none" stroke="black" points="647.29,-104.25 784.04,-104.25"/>
<text xml:space="preserve" text-anchor="middle" x="715.29" y="-86.95" font-family="Times,serif" font-size="14.00">1</text>
</g>
<!-- n0000004b&#45;&gt;n0000004f -->
<g id="edge16" class="edge">
<title>n0000004b:port1&#45;&gt;n0000004f:port0</title>
<path fill="none" stroke="black" stroke-dasharray="5,2" d="M734.29,-221.62C728.44,-221.62 732.47,-213.63 735.29,-208.5 748.11,-185.12 770.46,-195.88 783.29,-172.5 783.6,-171.94 783.92,-171.34 784.24,-170.73"/>
<polygon fill="black" stroke="black" points="787.74,-170.9 784.28,-160.89 780.74,-170.87 787.74,-170.9"/>
</g>
<!-- n00000058 -->
<g id="node16" class="node">
<title>n00000058</title>
<path fill="green" stroke="black" d="M830.79,-79C830.79,-79 952.54,-79 952.54,-79 958.54,-79 964.54,-85 964.54,-91 964.54,-91 964.54,-160 964.54,-160 964.54,-166 958.54,-172 952.54,-172 952.54,-172 830.79,-172 830.79,-172 824.79,-172 818.79,-166 818.79,-160 818.79,-160 818.79,-91 818.79,-91 818.79,-85 824.79,-79 830.79,-79"/>
<text xml:space="preserve" text-anchor="middle" x="891.29" y="-154.7" font-family="Times,serif" font-size="14.00">0</text>
<polyline fill="none" stroke="black" points="818.79,-146.75 964.54,-146.75"/>
<text xml:space="preserve" text-anchor="middle" x="891.66" y="-129.45" font-family="Times,serif" font-size="14.00">ipu2_ic_prpvf</text>
<text xml:space="preserve" text-anchor="middle" x="891.66" y="-112.2" font-family="Times,serif" font-size="14.00">/dev/v4l&#45;subdev10</text>
<polyline fill="none" stroke="black" points="818.79,-104.25 964.54,-104.25"/>
<text xml:space="preserve" text-anchor="middle" x="891.29" y="-86.95" font-family="Times,serif" font-size="14.00">1</text>
</g>
<!-- n0000004b&#45;&gt;n00000058 -->
<g id="edge17" class="edge">
<title>n0000004b:port2&#45;&gt;n00000058:port0</title>
<path fill="none" stroke="black" stroke-dasharray="5,2" d="M872.29,-221.62C878.14,-221.62 874.21,-213.57 871.29,-208.5 857.16,-183.99 832.92,-197.01 818.79,-172.5 818.47,-171.95 818.14,-171.36 817.81,-170.74"/>
<polygon fill="black" stroke="black" points="821.31,-170.88 817.79,-160.89 814.31,-170.89 821.31,-170.88"/>
</g>
<!-- n00000047&#45;&gt;n0000004b -->
<g id="edge15" class="edge">
<title>n00000047:port2&#45;&gt;n0000004b:port0</title>
<path fill="none" stroke="black" stroke-dasharray="5,2" d="M803.29,-338.5C803.29,-327.12 803.29,-321.82 803.29,-313.95"/>
<polygon fill="black" stroke="black" points="806.79,-314.01 803.29,-304.01 799.79,-314.01 806.79,-314.01"/>
</g>
<!-- n00000052 -->
<g id="node17" class="node">
<title>n00000052</title>
<polygon fill="yellow" stroke="black" points="797.54,-42.5 615.79,-42.5 615.79,0 797.54,0 797.54,-42.5"/>
<text xml:space="preserve" text-anchor="middle" x="706.66" y="-25.2" font-family="Times,serif" font-size="14.00">ipu2_ic_prpenc capture</text>
<text xml:space="preserve" text-anchor="middle" x="706.66" y="-7.95" font-family="Times,serif" font-size="14.00">/dev/video5</text>
</g>
<!-- n0000004f&#45;&gt;n00000052 -->
<g id="edge18" class="edge">
<title>n0000004f:port1&#45;&gt;n00000052</title>
<path fill="none" stroke="black" stroke-dasharray="5,2" d="M715.29,-78.5C715.29,-70.53 714.43,-62.01 713.26,-54.06"/>
<polygon fill="black" stroke="black" points="716.75,-53.74 711.63,-44.46 709.85,-54.91 716.75,-53.74"/>
</g>
<!-- n0000005b -->
<g id="node18" class="node">
<title>n0000005b</title>
<polygon fill="yellow" stroke="black" points="985.91,-42.5 815.41,-42.5 815.41,0 985.91,0 985.91,-42.5"/>
<text xml:space="preserve" text-anchor="middle" x="900.66" y="-25.2" font-family="Times,serif" font-size="14.00">ipu2_ic_prpvf capture</text>
<text xml:space="preserve" text-anchor="middle" x="900.66" y="-7.95" font-family="Times,serif" font-size="14.00">/dev/video6</text>
</g>
<!-- n00000058&#45;&gt;n0000005b -->
<g id="edge19" class="edge">
<title>n00000058:port1&#45;&gt;n0000005b</title>
<path fill="none" stroke="black" stroke-dasharray="5,2" d="M891.29,-78.5C891.29,-70.52 892.22,-61.98 893.49,-54.04"/>
<polygon fill="black" stroke="black" points="896.89,-54.91 895.26,-44.44 890.01,-53.64 896.89,-54.91"/>
</g>
<!-- n0000006b -->
<g id="node19" class="node">
<title>n0000006b</title>
<path fill="green" stroke="black" d="M809.79,-469C809.79,-469 931.54,-469 931.54,-469 937.54,-469 943.54,-475 943.54,-481 943.54,-481 943.54,-550 943.54,-550 943.54,-556 937.54,-562 931.54,-562 931.54,-562 809.79,-562 809.79,-562 803.79,-562 797.79,-556 797.79,-550 797.79,-550 797.79,-481 797.79,-481 797.79,-475 803.79,-469 809.79,-469"/>
<text xml:space="preserve" text-anchor="middle" x="870.29" y="-544.7" font-family="Times,serif" font-size="14.00">0</text>
<polyline fill="none" stroke="black" points="797.79,-536.75 943.54,-536.75"/>
<text xml:space="preserve" text-anchor="middle" x="870.66" y="-519.45" font-family="Times,serif" font-size="14.00">ipu2_csi1</text>
<text xml:space="preserve" text-anchor="middle" x="870.66" y="-502.2" font-family="Times,serif" font-size="14.00">/dev/v4l&#45;subdev11</text>
<polyline fill="none" stroke="black" points="797.79,-494.25 943.54,-494.25"/>
<text xml:space="preserve" text-anchor="middle" x="833.79" y="-476.95" font-family="Times,serif" font-size="14.00">1</text>
<polyline fill="none" stroke="black" points="869.79,-469 869.79,-494.25"/>
<text xml:space="preserve" text-anchor="middle" x="906.29" y="-476.95" font-family="Times,serif" font-size="14.00">2</text>
</g>
<!-- n0000006b&#45;&gt;n0000004b -->
<g id="edge21" class="edge">
<title>n0000006b:port1&#45;&gt;n0000004b:port0</title>
<path fill="none" stroke="black" stroke-dasharray="5,2" d="M833.79,-468.5C833.79,-442.23 869.05,-456.06 880.66,-432.5 907.02,-379.03 932.5,-300.34 883.5,-290.42"/>
<polygon fill="black" stroke="black" points="884.08,-286.95 873.79,-289.51 883.43,-293.92 884.08,-286.95"/>
</g>
<!-- n0000006b&#45;&gt;n00000047 -->
<g id="edge22" class="edge">
<title>n0000006b:port1&#45;&gt;n00000047:port0</title>
<path fill="none" stroke="black" stroke-dasharray="5,2" d="M833.79,-468.5C833.79,-440.29 786.15,-458.22 772.76,-442.99"/>
<polygon fill="black" stroke="black" points="776.22,-442.33 769.76,-433.94 769.58,-444.53 776.22,-442.33"/>
</g>
<!-- n0000006f -->
<g id="node20" class="node">
<title>n0000006f</title>
<polygon fill="yellow" stroke="black" points="1069.66,-406.75 927.66,-406.75 927.66,-364.25 1069.66,-364.25 1069.66,-406.75"/>
<text xml:space="preserve" text-anchor="middle" x="998.66" y="-389.45" font-family="Times,serif" font-size="14.00">ipu2_csi1 capture</text>
<text xml:space="preserve" text-anchor="middle" x="998.66" y="-372.2" font-family="Times,serif" font-size="14.00">/dev/video7</text>
</g>
<!-- n0000006b&#45;&gt;n0000006f -->
<g id="edge20" class="edge">
<title>n0000006b:port2&#45;&gt;n0000006f</title>
<path fill="none" stroke="black" stroke-dasharray="5,2" d="M943.79,-481.62C973.65,-481.62 987.51,-446.02 993.77,-418.37"/>
<polygon fill="black" stroke="black" points="997.2,-419.12 995.72,-408.62 990.33,-417.75 997.2,-419.12"/>
</g>
<!-- n00000079 -->
<g id="node21" class="node">
<title>n00000079</title>
<path fill="green" stroke="black" d="M389.79,-729C389.79,-729 511.54,-729 511.54,-729 517.54,-729 523.54,-735 523.54,-741 523.54,-741 523.54,-810 523.54,-810 523.54,-816 517.54,-822 511.54,-822 511.54,-822 389.79,-822 389.79,-822 383.79,-822 377.79,-816 377.79,-810 377.79,-810 377.79,-741 377.79,-741 377.79,-735 383.79,-729 389.79,-729"/>
<text xml:space="preserve" text-anchor="middle" x="450.29" y="-804.7" font-family="Times,serif" font-size="14.00">0</text>
<polyline fill="none" stroke="black" points="377.79,-796.75 523.54,-796.75"/>
<text xml:space="preserve" text-anchor="middle" x="450.66" y="-779.45" font-family="Times,serif" font-size="14.00">imx6&#45;mipi&#45;csi2</text>
<text xml:space="preserve" text-anchor="middle" x="450.66" y="-762.2" font-family="Times,serif" font-size="14.00">/dev/v4l&#45;subdev12</text>
<polyline fill="none" stroke="black" points="377.79,-754.25 523.54,-754.25"/>
<text xml:space="preserve" text-anchor="middle" x="395.79" y="-736.95" font-family="Times,serif" font-size="14.00">1</text>
<polyline fill="none" stroke="black" points="413.79,-729 413.79,-754.25"/>
<text xml:space="preserve" text-anchor="middle" x="431.79" y="-736.95" font-family="Times,serif" font-size="14.00">2</text>
<polyline fill="none" stroke="black" points="449.79,-729 449.79,-754.25"/>
<text xml:space="preserve" text-anchor="middle" x="468.29" y="-736.95" font-family="Times,serif" font-size="14.00">3</text>
<polyline fill="none" stroke="black" points="486.79,-729 486.79,-754.25"/>
<text xml:space="preserve" text-anchor="middle" x="504.79" y="-736.95" font-family="Times,serif" font-size="14.00">4</text>
</g>
<!-- n00000079&#45;&gt;n0000002f -->
<g id="edge23" class="edge">
<title>n00000079:port2&#45;&gt;n0000002f:port0</title>
<path fill="none" stroke="black" stroke-dasharray="5,2" d="M431.79,-728.5C431.79,-657.29 402.63,-639.49 399.55,-573.91"/>
<polygon fill="black" stroke="black" points="403.05,-573.93 399.32,-564.01 396.05,-574.09 403.05,-573.93"/>
</g>
<!-- n00000079&#45;&gt;n0000003d -->
<g id="edge24" class="edge">
<title>n00000079:port3&#45;&gt;n0000003d:port0</title>
<path fill="none" stroke="black" stroke-dasharray="5,2" d="M468.29,-728.5C468.29,-639.08 586.44,-654.35 596.59,-573.93"/>
<polygon fill="black" stroke="black" points="600.08,-574.2 597.2,-564.01 593.1,-573.78 600.08,-574.2"/>
</g>
<!-- n0000007f -->
<g id="node22" class="node">
<title>n0000007f</title>
<path fill="green" stroke="black" d="M242.79,-599C242.79,-599 364.54,-599 364.54,-599 370.54,-599 376.54,-605 376.54,-611 376.54,-611 376.54,-680 376.54,-680 376.54,-686 370.54,-692 364.54,-692 364.54,-692 242.79,-692 242.79,-692 236.79,-692 230.79,-686 230.79,-680 230.79,-680 230.79,-611 230.79,-611 230.79,-605 236.79,-599 242.79,-599"/>
<text xml:space="preserve" text-anchor="middle" x="266.79" y="-674.7" font-family="Times,serif" font-size="14.00">0</text>
<polyline fill="none" stroke="black" points="302.79,-666.75 302.79,-692"/>
<text xml:space="preserve" text-anchor="middle" x="339.29" y="-674.7" font-family="Times,serif" font-size="14.00">1</text>
<polyline fill="none" stroke="black" points="230.79,-666.75 376.54,-666.75"/>
<text xml:space="preserve" text-anchor="middle" x="303.66" y="-649.45" font-family="Times,serif" font-size="14.00">ipu1_csi0_mux</text>
<text xml:space="preserve" text-anchor="middle" x="303.66" y="-632.2" font-family="Times,serif" font-size="14.00">/dev/v4l&#45;subdev13</text>
<polyline fill="none" stroke="black" points="230.79,-624.25 376.54,-624.25"/>
<text xml:space="preserve" text-anchor="middle" x="303.29" y="-606.95" font-family="Times,serif" font-size="14.00">2</text>
</g>
<!-- n00000079&#45;&gt;n0000007f -->
<g id="edge25" class="edge">
<title>n00000079:port1&#45;&gt;n0000007f:port0</title>
<path fill="none" stroke="black" stroke-dasharray="5,2" d="M376.79,-741.62C353.57,-741.62 287.9,-724.81 270.86,-702.89"/>
<polygon fill="black" stroke="black" points="274.25,-701.94 267.34,-693.91 267.73,-704.5 274.25,-701.94"/>
</g>
<!-- n00000083 -->
<g id="node23" class="node">
<title>n00000083</title>
<path fill="green" stroke="black" d="M690.79,-599C690.79,-599 812.54,-599 812.54,-599 818.54,-599 824.54,-605 824.54,-611 824.54,-611 824.54,-680 824.54,-680 824.54,-686 818.54,-692 812.54,-692 812.54,-692 690.79,-692 690.79,-692 684.79,-692 678.79,-686 678.79,-680 678.79,-680 678.79,-611 678.79,-611 678.79,-605 684.79,-599 690.79,-599"/>
<text xml:space="preserve" text-anchor="middle" x="714.79" y="-674.7" font-family="Times,serif" font-size="14.00">0</text>
<polyline fill="none" stroke="black" points="750.79,-666.75 750.79,-692"/>
<text xml:space="preserve" text-anchor="middle" x="787.29" y="-674.7" font-family="Times,serif" font-size="14.00">1</text>
<polyline fill="none" stroke="black" points="678.79,-666.75 824.54,-666.75"/>
<text xml:space="preserve" text-anchor="middle" x="751.66" y="-649.45" font-family="Times,serif" font-size="14.00">ipu2_csi1_mux</text>
<text xml:space="preserve" text-anchor="middle" x="751.66" y="-632.2" font-family="Times,serif" font-size="14.00">/dev/v4l&#45;subdev14</text>
<polyline fill="none" stroke="black" points="678.79,-624.25 824.54,-624.25"/>
<text xml:space="preserve" text-anchor="middle" x="751.29" y="-606.95" font-family="Times,serif" font-size="14.00">2</text>
</g>
<!-- n00000079&#45;&gt;n00000083 -->
<g id="edge26" class="edge">
<title>n00000079:port4&#45;&gt;n00000083:port0</title>
<path fill="none" stroke="black" stroke-dasharray="5,2" d="M523.79,-741.62C593.72,-741.62 603.11,-685.77 666.65,-679.88"/>
<polygon fill="black" stroke="black" points="666.44,-683.39 676.28,-679.44 666.13,-676.4 666.44,-683.39"/>
</g>
<!-- n0000007f&#45;&gt;n00000001 -->
<g id="edge27" class="edge">
<title>n0000007f:port2&#45;&gt;n00000001:port0</title>
<path fill="none" stroke="black" stroke-dasharray="5,2" d="M229.79,-611.62C208.49,-611.62 237.25,-574.76 239.02,-557.77"/>
<polygon fill="black" stroke="black" points="241.66,-555.47 232.31,-550.49 236.52,-560.21 241.66,-555.47"/>
</g>
<!-- n00000083&#45;&gt;n0000006b -->
<g id="edge28" class="edge">
<title>n00000083:port2&#45;&gt;n0000006b:port0</title>
<path fill="none" stroke="black" stroke-dasharray="5,2" d="M824.79,-611.62C847.07,-611.62 805.16,-578.05 793.34,-560.22"/>
<polygon fill="black" stroke="black" points="796.64,-561.41 796.33,-550.82 789.97,-559.29 796.64,-561.41"/>
</g>
<!-- n00000087 -->
<g id="node24" class="node">
<title>n00000087</title>
<path fill="green" stroke="black" d="M389.79,-859C389.79,-859 511.54,-859 511.54,-859 517.54,-859 523.54,-865 523.54,-871 523.54,-871 523.54,-940 523.54,-940 523.54,-946 517.54,-952 511.54,-952 511.54,-952 389.79,-952 389.79,-952 383.79,-952 377.79,-946 377.79,-940 377.79,-940 377.79,-871 377.79,-871 377.79,-865 383.79,-859 389.79,-859"/>
<text xml:space="preserve" text-anchor="middle" x="450.54" y="-934.7" font-family="Times,serif" font-size="14.00"> </text>
<polyline fill="none" stroke="black" points="377.79,-926.75 523.54,-926.75"/>
<text xml:space="preserve" text-anchor="middle" x="450.66" y="-909.45" font-family="Times,serif" font-size="14.00">ov5640 1&#45;003c</text>
<text xml:space="preserve" text-anchor="middle" x="450.66" y="-892.2" font-family="Times,serif" font-size="14.00">/dev/v4l&#45;subdev15</text>
<polyline fill="none" stroke="black" points="377.79,-884.25 523.54,-884.25"/>
<text xml:space="preserve" text-anchor="middle" x="450.29" y="-866.95" font-family="Times,serif" font-size="14.00">0</text>
</g>
<!-- n00000087&#45;&gt;n00000079 -->
<g id="edge29" class="edge">
<title>n00000087:port0&#45;&gt;n00000079:port0</title>
<path fill="none" stroke="black" stroke-dasharray="5,2" d="M450.29,-858.5C450.29,-847.12 450.29,-841.82 450.29,-833.95"/>
<polygon fill="black" stroke="black" points="453.79,-834.01 450.29,-824.01 446.79,-834.01 453.79,-834.01"/>
</g>
</g>
</svg>
