<?xml version="1.0" encoding="UTF-8" standalone="no"?>
<!DOCTYPE svg PUBLIC "-//W3C//DTD SVG 1.1//EN"
 "http://www.w3.org/Graphics/SVG/1.1/DTD/svg11.dtd">
<!-- Generated by graphviz version 14.1.2 (20260126.1125)
 -->
<!-- Title: board Pages: 1 -->
<svg width="396pt" height="571pt"
 viewBox="0.00 0.00 396.00 571.00" xmlns="http://www.w3.org/2000/svg" xmlns:xlink="http://www.w3.org/1999/xlink">
<g id="graph0" class="graph" transform="scale(1 1) rotate(0) translate(4 566.5)">
<title>board</title>
<polygon fill="white" stroke="none" points="-4,4 -4,-566.5 392.25,-566.5 392.25,4 -4,4"/>
<!-- n00000001 -->
<g id="node1" class="node">
<title>n00000001</title>
<path fill="green" stroke="black" d="M108.5,-339C108.5,-339 221.25,-339 221.25,-339 227.25,-339 233.25,-345 233.25,-351 233.25,-351 233.25,-420 233.25,-420 233.25,-426 227.25,-432 221.25,-432 221.25,-432 108.5,-432 108.5,-432 102.5,-432 96.5,-426 96.5,-420 96.5,-420 96.5,-351 96.5,-351 96.5,-345 102.5,-339 108.5,-339"/>
<text xml:space="preserve" text-anchor="middle" x="164.75" y="-414.7" font-family="Times,serif" font-size="14.00"> </text>
<polyline fill="none" stroke="black" points="96.5,-406.75 233.25,-406.75"/>
<text xml:space="preserve" text-anchor="middle" x="164.88" y="-389.45" font-family="Times,serif" font-size="14.00">mali&#45;c55 tpg</text>
<text xml:space="preserve" text-anchor="middle" x="164.88" y="-372.2" font-family="Times,serif" font-size="14.00">/dev/v4l&#45;subdev0</text>
<polyline fill="none" stroke="black" points="96.5,-364.25 233.25,-364.25"/>
<text xml:space="preserve" text-anchor="middle" x="164.5" y="-346.95" font-family="Times,serif" font-size="14.00">0</text>
</g>
<!-- n00000003 -->
<g id="node2" class="node">
<title>n00000003</title>
<path fill="green" stroke="black" d="M185.5,-209C185.5,-209 298.25,-209 298.25,-209 304.25,-209 310.25,-215 310.25,-221 310.25,-221 310.25,-290 310.25,-290 310.25,-296 304.25,-302 298.25,-302 298.25,-302 185.5,-302 185.5,-302 179.5,-302 173.5,-296 173.5,-290 173.5,-290 173.5,-221 173.5,-221 173.5,-215 179.5,-209 185.5,-209"/>
<text xml:space="preserve" text-anchor="middle" x="241.5" y="-284.7" font-family="Times,serif" font-size="14.00">0</text>
<polyline fill="none" stroke="black" points="173.5,-276.75 310.25,-276.75"/>
<text xml:space="preserve" text-anchor="middle" x="241.88" y="-259.45" font-family="Times,serif" font-size="14.00">mali&#45;c55 isp</text>
<text xml:space="preserve" text-anchor="middle" x="241.88" y="-242.2" font-family="Times,serif" font-size="14.00">/dev/v4l&#45;subdev1</text>
<polyline fill="none" stroke="black" points="173.5,-234.25 310.25,-234.25"/>
<text xml:space="preserve" text-anchor="middle" x="207.5" y="-216.95" font-family="Times,serif" font-size="14.00">1</text>
<polyline fill="none" stroke="black" points="241.5,-209 241.5,-234.25"/>
<text xml:space="preserve" text-anchor="middle" x="275.5" y="-216.95" font-family="Times,serif" font-size="14.00">2</text>
</g>
<!-- n00000001&#45;&gt;n00000003 -->
<g id="edge1" class="edge">
<title>n00000001:port0&#45;&gt;n00000003:port0</title>
<path fill="none" stroke="black" stroke-dasharray="5,2" d="M233.5,-351.62C239.35,-351.62 235.56,-343.49 232.5,-338.5 216.46,-312.3 189.54,-328.7 173.5,-302.5 173.17,-301.95 172.82,-301.37 172.48,-300.76"/>
<polygon fill="black" stroke="black" points="175.98,-300.89 172.5,-290.89 168.98,-300.88 175.98,-300.89"/>
</g>
<!-- n00000007 -->
<g id="node3" class="node">
<title>n00000007</title>
<path fill="green" stroke="black" d="M182.25,-79C182.25,-79 305.5,-79 305.5,-79 311.5,-79 317.5,-85 317.5,-91 317.5,-91 317.5,-160 317.5,-160 317.5,-166 311.5,-172 305.5,-172 305.5,-172 182.25,-172 182.25,-172 176.25,-172 170.25,-166 170.25,-160 170.25,-160 170.25,-91 170.25,-91 170.25,-85 176.25,-79 182.25,-79"/>
<text xml:space="preserve" text-anchor="middle" x="206.75" y="-154.7" font-family="Times,serif" font-size="14.00">0</text>
<polyline fill="none" stroke="black" points="243.25,-146.75 243.25,-172"/>
<text xml:space="preserve" text-anchor="middle" x="280.25" y="-154.7" font-family="Times,serif" font-size="14.00">2</text>
<polyline fill="none" stroke="black" points="170.25,-146.75 317.5,-146.75"/>
<text xml:space="preserve" text-anchor="middle" x="243.88" y="-129.45" font-family="Times,serif" font-size="14.00">mali&#45;c55 resizer fr</text>
<text xml:space="preserve" text-anchor="middle" x="243.88" y="-112.2" font-family="Times,serif" font-size="14.00">/dev/v4l&#45;subdev2</text>
<polyline fill="none" stroke="black" points="170.25,-104.25 317.5,-104.25"/>
<text xml:space="preserve" text-anchor="middle" x="243.75" y="-86.95" font-family="Times,serif" font-size="14.00">1</text>
</g>
<!-- n00000003&#45;&gt;n00000007 -->
<g id="edge2" class="edge">
<title>n00000003:port1&#45;&gt;n00000007:port0</title>
<path fill="none" stroke="black" stroke-width="2" d="M207.5,-208.5C207.5,-197.12 207.12,-191.82 206.9,-183.95"/>
<polygon fill="black" stroke="black" stroke-width="2" points="210.42,-185.48 206.79,-175.53 203.42,-185.57 210.42,-185.48"/>
</g>
<!-- n00000003&#45;&gt;n00000007 -->
<g id="edge3" class="edge">
<title>n00000003:port2&#45;&gt;n00000007:port2</title>
<path fill="none" stroke="black" stroke-width="2" d="M275.5,-208.5C275.5,-196.9 277.95,-191.71 279.33,-183.72"/>
<polygon fill="black" stroke="black" stroke-width="2" points="282.68,-185.77 280,-175.52 275.7,-185.2 282.68,-185.77"/>
</g>
<!-- n0000000b -->
<g id="node4" class="node">
<title>n0000000b</title>
<path fill="green" stroke="black" d="M12,-79C12,-79 139.75,-79 139.75,-79 145.75,-79 151.75,-85 151.75,-91 151.75,-91 151.75,-160 151.75,-160 151.75,-166 145.75,-172 139.75,-172 139.75,-172 12,-172 12,-172 6,-172 0,-166 0,-160 0,-160 0,-91 0,-91 0,-85 6,-79 12,-79"/>
<text xml:space="preserve" text-anchor="middle" x="75.5" y="-154.7" font-family="Times,serif" font-size="14.00">0</text>
<polyline fill="none" stroke="black" points="0,-146.75 151.75,-146.75"/>
<text xml:space="preserve" text-anchor="middle" x="75.88" y="-129.45" font-family="Times,serif" font-size="14.00">mali&#45;c55 resizer ds</text>
<text xml:space="preserve" text-anchor="middle" x="75.88" y="-112.2" font-family="Times,serif" font-size="14.00">/dev/v4l&#45;subdev3</text>
<polyline fill="none" stroke="black" points="0,-104.25 151.75,-104.25"/>
<text xml:space="preserve" text-anchor="middle" x="75.5" y="-86.95" font-family="Times,serif" font-size="14.00">1</text>
</g>
<!-- n00000003&#45;&gt;n0000000b -->
<g id="edge4" class="edge">
<title>n00000003:port1&#45;&gt;n0000000b:port0</title>
<path fill="none" stroke="black" stroke-width="2" d="M172.5,-221.62C161.41,-221.62 163.77,-185.51 159.09,-168.29"/>
<polygon fill="black" stroke="black" stroke-width="2" points="162.85,-167.4 153.88,-161.74 157.37,-171.75 162.85,-167.4"/>
</g>
<!-- n0000000e -->
<g id="node5" class="node">
<title>n0000000e</title>
<polygon fill="yellow" stroke="black" points="292.75,-42.5 195,-42.5 195,0 292.75,0 292.75,-42.5"/>
<text xml:space="preserve" text-anchor="middle" x="243.88" y="-25.2" font-family="Times,serif" font-size="14.00">mali&#45;c55 fr</text>
<text xml:space="preserve" text-anchor="middle" x="243.88" y="-7.95" font-family="Times,serif" font-size="14.00">/dev/video0</text>
</g>
<!-- n00000007&#45;&gt;n0000000e -->
<g id="edge5" class="edge">
<title>n00000007:port1&#45;&gt;n0000000e</title>
<path fill="none" stroke="black" stroke-width="2" d="M243.75,-78.5C243.75,-70.65 243.76,-62.19 243.78,-54.27"/>
<polygon fill="black" stroke="black" stroke-width="2" points="247.28,-55.86 243.8,-45.85 240.28,-55.84 247.28,-55.86"/>
</g>
<!-- n00000012 -->
<g id="node6" class="node">
<title>n00000012</title>
<polygon fill="yellow" stroke="black" points="124.75,-42.5 27,-42.5 27,0 124.75,0 124.75,-42.5"/>
<text xml:space="preserve" text-anchor="middle" x="75.88" y="-25.2" font-family="Times,serif" font-size="14.00">mali&#45;c55 ds</text>
<text xml:space="preserve" text-anchor="middle" x="75.88" y="-7.95" font-family="Times,serif" font-size="14.00">/dev/video1</text>
</g>
<!-- n0000000b&#45;&gt;n00000012 -->
<g id="edge6" class="edge">
<title>n0000000b:port1&#45;&gt;n00000012</title>
<path fill="none" stroke="black" stroke-width="2" d="M75.5,-78.5C75.5,-70.65 75.54,-62.19 75.59,-54.27"/>
<polygon fill="black" stroke="black" stroke-width="2" points="79.08,-55.87 75.65,-45.85 72.08,-55.82 79.08,-55.87"/>
</g>
<!-- n00000022 -->
<g id="node7" class="node">
<title>n00000022</title>
<path fill="green" stroke="black" d="M263.5,-339C263.5,-339 376.25,-339 376.25,-339 382.25,-339 388.25,-345 388.25,-351 388.25,-351 388.25,-420 388.25,-420 388.25,-426 382.25,-432 376.25,-432 376.25,-432 263.5,-432 263.5,-432 257.5,-432 251.5,-426 251.5,-420 251.5,-420 251.5,-351 251.5,-351 251.5,-345 257.5,-339 263.5,-339"/>
<text xml:space="preserve" text-anchor="middle" x="319.5" y="-414.7" font-family="Times,serif" font-size="14.00">0</text>
<polyline fill="none" stroke="black" points="251.5,-406.75 388.25,-406.75"/>
<text xml:space="preserve" text-anchor="middle" x="319.88" y="-389.45" font-family="Times,serif" font-size="14.00">csi2&#45;rx</text>
<text xml:space="preserve" text-anchor="middle" x="319.88" y="-372.2" font-family="Times,serif" font-size="14.00">/dev/v4l&#45;subdev4</text>
<polyline fill="none" stroke="black" points="251.5,-364.25 388.25,-364.25"/>
<text xml:space="preserve" text-anchor="middle" x="319.5" y="-346.95" font-family="Times,serif" font-size="14.00">1</text>
</g>
<!-- n00000022&#45;&gt;n00000003 -->
<g id="edge7" class="edge">
<title>n00000022:port1&#45;&gt;n00000003:port0</title>
<path fill="none" stroke="black" d="M250.5,-351.62C244.65,-351.62 248.46,-343.5 251.5,-338.5 267.25,-312.57 293.75,-328.43 309.5,-302.5 309.83,-301.95 310.17,-301.37 310.51,-300.76"/>
<polygon fill="black" stroke="black" points="314.01,-300.89 310.5,-290.89 307.01,-300.89 314.01,-300.89"/>
</g>
<!-- n00000027 -->
<g id="node8" class="node">
<title>n00000027</title>
<path fill="green" stroke="black" d="M263.5,-469C263.5,-469 376.25,-469 376.25,-469 382.25,-469 388.25,-475 388.25,-481 388.25,-481 388.25,-550 388.25,-550 388.25,-556 382.25,-562 376.25,-562 376.25,-562 263.5,-562 263.5,-562 257.5,-562 251.5,-556 251.5,-550 251.5,-550 251.5,-481 251.5,-481 251.5,-475 257.5,-469 263.5,-469"/>
<text xml:space="preserve" text-anchor="middle" x="319.75" y="-544.7" font-family="Times,serif" font-size="14.00"> </text>
<polyline fill="none" stroke="black" points="251.5,-536.75 388.25,-536.75"/>
<text xml:space="preserve" text-anchor="middle" x="319.88" y="-519.45" font-family="Times,serif" font-size="14.00">imx415 1&#45;001a</text>
<text xml:space="preserve" text-anchor="middle" x="319.88" y="-502.2" font-family="Times,serif" font-size="14.00">/dev/v4l&#45;subdev5</text>
<polyline fill="none" stroke="black" points="251.5,-494.25 388.25,-494.25"/>
<text xml:space="preserve" text-anchor="middle" x="319.5" y="-476.95" font-family="Times,serif" font-size="14.00">0</text>
</g>
<!-- n00000027&#45;&gt;n00000022 -->
<g id="edge8" class="edge">
<title>n00000027:port0&#45;&gt;n00000022:port0</title>
<path fill="none" stroke="black" stroke-width="2" d="M319.5,-468.5C319.5,-457.12 319.5,-451.82 319.5,-443.95"/>
<polygon fill="black" stroke="black" stroke-width="2" points="323,-445.53 319.5,-435.53 316,-445.53 323,-445.53"/>
</g>
</g>
</svg>
