<?xml version="1.0" encoding="UTF-8" standalone="no"?>
<!DOCTYPE svg PUBLIC "-//W3C//DTD SVG 1.1//EN"
 "http://www.w3.org/Graphics/SVG/1.1/DTD/svg11.dtd">
<!-- Generated by graphviz version 14.1.2 (20260126.1125)
 -->
<!-- Title: board Pages: 1 -->
<svg width="381pt" height="381pt"
 viewBox="0.00 0.00 381.00 381.00" xmlns="http://www.w3.org/2000/svg" xmlns:xlink="http://www.w3.org/1999/xlink">
<g id="graph0" class="graph" transform="scale(1 1) rotate(0) translate(4 376.5)">
<title>board</title>
<polygon fill="white" stroke="none" points="-4,4 -4,-376.5 376.66,-376.5 376.66,4 -4,4"/>
<!-- scaler -->
<g id="node1" class="node">
<title>scaler</title>
<path fill="lightblue" stroke="black" d="M182.75,-108C182.75,-108 269.75,-108 269.75,-108 275.75,-108 281.75,-114 281.75,-120 281.75,-120 281.75,-138.5 281.75,-138.5 281.75,-144.5 275.75,-150.5 269.75,-150.5 269.75,-150.5 182.75,-150.5 182.75,-150.5 176.75,-150.5 170.75,-144.5 170.75,-138.5 170.75,-138.5 170.75,-120 170.75,-120 170.75,-114 176.75,-108 182.75,-108"/>
<text xml:space="preserve" text-anchor="middle" x="183.25" y="-124.7" font-family="Times,serif" font-size="14.00">0</text>
<polyline fill="none" stroke="black" points="195.75,-108 195.75,-150.5"/>
<text xml:space="preserve" text-anchor="middle" x="226.25" y="-133.2" font-family="Times,serif" font-size="14.00">Host</text>
<text xml:space="preserve" text-anchor="middle" x="226.25" y="-115.95" font-family="Times,serif" font-size="14.00">Scaler</text>
<polyline fill="none" stroke="black" points="256.75,-108 256.75,-150.5"/>
<text xml:space="preserve" text-anchor="middle" x="269.25" y="-124.7" font-family="Times,serif" font-size="14.00">1</text>
</g>
<!-- io -->
<g id="node4" class="node">
<title>io</title>
<path fill="aquamarine" stroke="black" d="M268.12,-0.5C268.12,-0.5 338.38,-0.5 338.38,-0.5 344.38,-0.5 350.38,-6.5 350.38,-12.5 350.38,-12.5 350.38,-24.5 350.38,-24.5 350.38,-30.5 344.38,-36.5 338.38,-36.5 338.38,-36.5 268.12,-36.5 268.12,-36.5 262.12,-36.5 256.12,-30.5 256.12,-24.5 256.12,-24.5 256.12,-12.5 256.12,-12.5 256.12,-6.5 262.12,-0.5 268.12,-0.5"/>
<text xml:space="preserve" text-anchor="middle" x="268.62" y="-14.2" font-family="Times,serif" font-size="14.00">0</text>
<polyline fill="none" stroke="black" points="281.12,-0.5 281.12,-36.5"/>
<text xml:space="preserve" text-anchor="middle" x="315.75" y="-13.82" font-family="Times,serif" font-size="14.00">V4L I/O</text>
</g>
<!-- scaler&#45;&gt;io -->
<g id="edge3" class="edge">
<title>scaler:scaler_1&#45;&gt;io:io_0</title>
<path fill="none" stroke="blue" d="M269.25,-107.5C269.25,-80.33 268.78,-70.83 268.66,-48.35"/>
<polygon fill="blue" stroke="blue" points="272.16,-48.5 268.63,-38.51 265.16,-48.52 272.16,-48.5"/>
<text xml:space="preserve" text-anchor="middle" x="320.91" y="-76.2" font-family="Times,serif" font-size="14.00">HQ: 1280x720</text>
<text xml:space="preserve" text-anchor="middle" x="320.91" y="-58.95" font-family="Times,serif" font-size="14.00">HS: 1280x720</text>
</g>
<!-- frontend -->
<g id="node2" class="node">
<title>frontend</title>
<path fill="lightblue" stroke="black" d="M76.25,-222C76.25,-222 184.25,-222 184.25,-222 190.25,-222 196.25,-228 196.25,-234 196.25,-234 196.25,-252.5 196.25,-252.5 196.25,-258.5 190.25,-264.5 184.25,-264.5 184.25,-264.5 76.25,-264.5 76.25,-264.5 70.25,-264.5 64.25,-258.5 64.25,-252.5 64.25,-252.5 64.25,-234 64.25,-234 64.25,-228 70.25,-222 76.25,-222"/>
<text xml:space="preserve" text-anchor="middle" x="76.75" y="-238.7" font-family="Times,serif" font-size="14.00">0</text>
<polyline fill="none" stroke="black" points="89.25,-222 89.25,-264.5"/>
<text xml:space="preserve" text-anchor="middle" x="130.25" y="-247.2" font-family="Times,serif" font-size="14.00">Host</text>
<text xml:space="preserve" text-anchor="middle" x="130.25" y="-229.95" font-family="Times,serif" font-size="14.00">Frontend</text>
<polyline fill="none" stroke="black" points="171.25,-222 171.25,-264.5"/>
<text xml:space="preserve" text-anchor="middle" x="183.75" y="-238.7" font-family="Times,serif" font-size="14.00">1</text>
</g>
<!-- frontend&#45;&gt;scaler -->
<g id="edge2" class="edge">
<title>frontend:frontend_1&#45;&gt;scaler:scaler_0</title>
<path fill="none" stroke="blue" d="M183.75,-221.5C183.75,-194.33 183.37,-184.83 183.27,-162.35"/>
<polygon fill="blue" stroke="blue" points="186.77,-162.51 183.25,-152.51 179.77,-162.52 186.77,-162.51"/>
<text xml:space="preserve" text-anchor="middle" x="239.93" y="-190.2" font-family="Times,serif" font-size="14.00">HQ: 2592x1968</text>
<text xml:space="preserve" text-anchor="middle" x="239.93" y="-172.95" font-family="Times,serif" font-size="14.00">HS: 1296x984</text>
</g>
<!-- sensor -->
<g id="node3" class="node">
<title>sensor</title>
<path fill="aquamarine" stroke="black" d="M12,-336C12,-336 78.5,-336 78.5,-336 84.5,-336 90.5,-342 90.5,-348 90.5,-348 90.5,-360 90.5,-360 90.5,-366 84.5,-372 78.5,-372 78.5,-372 12,-372 12,-372 6,-372 0,-366 0,-360 0,-360 0,-348 0,-348 0,-342 6,-336 12,-336"/>
<text xml:space="preserve" text-anchor="middle" x="32.75" y="-349.32" font-family="Times,serif" font-size="14.00">Sensor</text>
<polyline fill="none" stroke="black" points="65.5,-336 65.5,-372"/>
<text xml:space="preserve" text-anchor="middle" x="78" y="-349.7" font-family="Times,serif" font-size="14.00">0</text>
</g>
<!-- sensor&#45;&gt;frontend -->
<g id="edge1" class="edge">
<title>sensor:sensor_0&#45;&gt;frontend:frontend_0</title>
<path fill="none" stroke="blue" d="M78,-335.75C78,-308.48 77.06,-298.95 76.81,-276.39"/>
<polygon fill="blue" stroke="blue" points="80.31,-276.49 76.76,-266.51 73.31,-276.53 80.31,-276.49"/>
<text xml:space="preserve" text-anchor="middle" x="134.07" y="-304.2" font-family="Times,serif" font-size="14.00">HQ: 2592x1968</text>
<text xml:space="preserve" text-anchor="middle" x="134.07" y="-286.95" font-family="Times,serif" font-size="14.00">HS: 1296x984</text>
</g>
</g>
</svg>
