<?xml version="1.0" encoding="UTF-8" standalone="no"?>
<!DOCTYPE svg PUBLIC "-//W3C//DTD SVG 1.1//EN"
 "http://www.w3.org/Graphics/SVG/1.1/DTD/svg11.dtd">
<!-- Generated by graphviz version 14.1.2 (20260126.1125)
 -->
<!-- Title: T Pages: 1 -->
<svg width="581pt" height="461pt"
 viewBox="0.00 0.00 581.00 461.00" xmlns="http://www.w3.org/2000/svg" xmlns:xlink="http://www.w3.org/1999/xlink">
<g id="graph0" class="graph" transform="scale(1 1) rotate(0) translate(4 457.25)">
<title>T</title>
<polygon fill="white" stroke="none" points="-4,4 -4,-457.25 577.25,-457.25 577.25,4 -4,4"/>
<g id="clust1" class="cluster">
<title>cluster_driver</title>
<polygon fill="grey" stroke="black" points="289,-321.25 289,-445.25 518,-445.25 518,-321.25 289,-321.25"/>
</g>
<g id="clust3" class="cluster">
<title>cluster_topology</title>
<polygon fill="none" stroke="black" points="8,-8 8,-373.25 281,-373.25 281,-8 8,-8"/>
<text xml:space="preserve" text-anchor="middle" x="144.5" y="-15.95" font-family="Times,serif" font-size="14.00">Topology Manager</text>
</g>
<!-- driver -->
<g id="node1" class="node">
<title>driver</title>
<polygon fill="lightblue" stroke="black" points="453,-437.25 353,-437.25 353,-401.25 453,-401.25 453,-437.25"/>
<text xml:space="preserve" text-anchor="middle" x="403" y="-414.57" font-family="Times,serif" font-size="14.00">DRM driver</text>
</g>
<!-- payload1 -->
<g id="node2" class="node">
<title>payload1</title>
<polygon fill="lightblue" stroke="black" points="394.5,-365.25 297.5,-365.25 297.5,-329.25 394.5,-329.25 394.5,-365.25"/>
<text xml:space="preserve" text-anchor="middle" x="346" y="-342.57" font-family="Times,serif" font-size="14.00">Payload #1</text>
</g>
<!-- driver&#45;&gt;payload1 -->
<g id="edge1" class="edge">
<title>driver&#45;&gt;payload1</title>
<path fill="none" stroke="black" d="M388.91,-400.95C380.07,-390.1 368.73,-376.17 359.93,-365.35"/>
</g>
<!-- payload2 -->
<g id="node3" class="node">
<title>payload2</title>
<polygon fill="lightblue" stroke="black" points="509.5,-365.25 412.5,-365.25 412.5,-329.25 509.5,-329.25 509.5,-365.25"/>
<text xml:space="preserve" text-anchor="middle" x="461" y="-342.57" font-family="Times,serif" font-size="14.00">Payload #2</text>
</g>
<!-- driver&#45;&gt;payload2 -->
<g id="edge2" class="edge">
<title>driver&#45;&gt;payload2</title>
<path fill="none" stroke="black" d="M417.34,-400.95C426.33,-390.1 437.87,-376.17 446.83,-365.35"/>
</g>
<!-- port1 -->
<g id="node4" class="node">
<title>port1</title>
<ellipse fill="none" stroke="black" cx="213" cy="-275.25" rx="50.16" ry="18"/>
<text xml:space="preserve" text-anchor="middle" x="213" y="-270.57" font-family="Times,serif" font-size="14.00">Port #1</text>
</g>
<!-- driver&#45;&gt;port1 -->
<g id="edge3" class="edge">
<title>driver&#45;&gt;port1</title>
<path fill="none" stroke="black" stroke-dasharray="5,2" d="M352.52,-416.91C284.83,-413.92 170.11,-404.29 144,-373.25 129.12,-355.56 132.99,-341.57 144,-321.25 149.95,-310.27 159.86,-301.55 170.34,-294.82"/>
<polygon fill="black" stroke="black" points="171.83,-298 178.72,-289.95 168.32,-291.95 171.83,-298"/>
</g>
<!-- port2 -->
<g id="node5" class="node">
<title>port2</title>
<ellipse fill="none" stroke="black" cx="87" cy="-275.25" rx="50.16" ry="18"/>
<text xml:space="preserve" text-anchor="middle" x="87" y="-270.57" font-family="Times,serif" font-size="14.00">Port #2</text>
</g>
<!-- driver&#45;&gt;port2 -->
<g id="edge4" class="edge">
<title>driver&#45;&gt;port2</title>
<path fill="none" stroke="black" stroke-dasharray="5,2" d="M352.7,-415.61C283.59,-411.04 163.96,-399.52 130,-373.25 108.51,-356.63 97.51,-326.96 92.04,-304.8"/>
<polygon fill="black" stroke="black" points="95.49,-304.19 89.93,-295.17 88.66,-305.69 95.49,-304.19"/>
</g>
<!-- port3 -->
<g id="node6" class="node">
<title>port3</title>
<ellipse fill="none" stroke="black" cx="203" cy="-131.25" rx="50.16" ry="18"/>
<text xml:space="preserve" text-anchor="middle" x="203" y="-126.58" font-family="Times,serif" font-size="14.00">Port #3</text>
</g>
<!-- driver&#45;&gt;port3 -->
<g id="edge5" class="edge">
<title>driver&#45;&gt;port3:e</title>
<path fill="none" stroke="black" stroke-dasharray="5,2" d="M453.16,-417.61C487,-414.23 529.45,-403.62 552,-373.25 582.74,-331.86 576.97,-302.35 552,-257.25 484.3,-134.99 402.6,-131.36 265.86,-131.25"/>
<polygon fill="black" stroke="black" points="266.14,-127.75 256.14,-131.25 266.14,-134.75 266.14,-127.75"/>
</g>
<!-- port4 -->
<g id="node7" class="node">
<title>port4</title>
<ellipse fill="none" stroke="black" cx="76" cy="-131.25" rx="50.16" ry="18"/>
<text xml:space="preserve" text-anchor="middle" x="76" y="-126.58" font-family="Times,serif" font-size="14.00">Port #4</text>
</g>
<!-- driver&#45;&gt;port4 -->
<g id="edge6" class="edge">
<title>driver&#45;&gt;port4</title>
<path fill="none" stroke="black" stroke-dasharray="5,2" d="M453.43,-411.9C477.51,-406.05 504.23,-394.82 519,-373.25 532.06,-354.18 530.58,-341.25 519,-321.25 458.14,-216.16 394.49,-231.02 282,-185.25 274.71,-182.28 185.74,-159.76 127.14,-145.04"/>
<polygon fill="black" stroke="black" points="128.23,-141.71 117.68,-142.67 126.53,-148.5 128.23,-141.71"/>
</g>
<!-- payload1&#45;&gt;port1 -->
<g id="edge7" class="edge">
<title>payload1:s&#45;&gt;port1:e</title>
<path fill="none" stroke="black" stroke-dasharray="5,2" d="M346,-328.25C346,-288.97 314.34,-277.29 276.12,-275.51"/>
<polygon fill="black" stroke="black" points="276.21,-272.01 266.14,-275.28 276.06,-279 276.21,-272.01"/>
</g>
<!-- payload2&#45;&gt;port3 -->
<g id="edge8" class="edge">
<title>payload2:s&#45;&gt;port3:e</title>
<path fill="none" stroke="black" stroke-dasharray="5,2" d="M461,-328.25C461,-205.29 386.17,-135.55 266.01,-131.44"/>
<polygon fill="black" stroke="black" points="266.2,-127.95 256.14,-131.28 266.08,-134.94 266.2,-127.95"/>
</g>
<!-- mstb2 -->
<g id="node9" class="node">
<title>mstb2</title>
<ellipse fill="palegreen" stroke="black" cx="213" cy="-203.25" rx="59.63" ry="18"/>
<text xml:space="preserve" text-anchor="middle" x="213" y="-198.57" font-family="Times,serif" font-size="14.00">MSTB #2</text>
</g>
<!-- port1&#45;&gt;mstb2 -->
<g id="edge11" class="edge">
<title>port1&#45;&gt;mstb2</title>
<path fill="none" stroke="black" d="M207.08,-256.95C206.33,-249.66 206.09,-240.98 206.35,-232.79"/>
<polygon fill="black" stroke="black" points="209.84,-233.07 207.01,-222.86 202.86,-232.61 209.84,-233.07"/>
</g>
<!-- port1&#45;&gt;mstb2 -->
<g id="edge18" class="edge">
<title>port1&#45;&gt;mstb2</title>
<path fill="none" stroke="black" stroke-dasharray="5,2" d="M219.65,-245.49C219.91,-237.29 219.66,-228.62 218.9,-221.35"/>
<polygon fill="black" stroke="black" points="216.16,-245.23 219.01,-255.44 223.15,-245.68 216.16,-245.23"/>
</g>
<!-- mstb3 -->
<g id="node10" class="node">
<title>mstb3</title>
<ellipse fill="palegreen" stroke="black" cx="76" cy="-203.25" rx="59.63" ry="18"/>
<text xml:space="preserve" text-anchor="middle" x="76" y="-198.57" font-family="Times,serif" font-size="14.00">MSTB #3</text>
</g>
<!-- port2&#45;&gt;mstb3 -->
<g id="edge12" class="edge">
<title>port2&#45;&gt;mstb3</title>
<path fill="none" stroke="black" d="M78.46,-257.3C76.52,-249.93 74.87,-241.09 73.83,-232.76"/>
<polygon fill="black" stroke="black" points="77.34,-232.67 72.94,-223.03 70.37,-233.31 77.34,-232.67"/>
</g>
<!-- port2&#45;&gt;mstb3 -->
<g id="edge19" class="edge">
<title>port2&#45;&gt;mstb3</title>
<path fill="none" stroke="black" stroke-dasharray="5,2" d="M89.13,-245.49C88.1,-237.29 86.49,-228.62 84.58,-221.35"/>
<polygon fill="black" stroke="black" points="85.65,-245.81 90.06,-255.44 92.62,-245.16 85.65,-245.81"/>
</g>
<!-- mstb4 -->
<g id="node11" class="node">
<title>mstb4</title>
<ellipse fill="palegreen" stroke="black" cx="203" cy="-59.25" rx="59.63" ry="18"/>
<text xml:space="preserve" text-anchor="middle" x="203" y="-54.58" font-family="Times,serif" font-size="14.00">MSTB #4</text>
</g>
<!-- port3&#45;&gt;mstb4 -->
<g id="edge15" class="edge">
<title>port3&#45;&gt;mstb4</title>
<path fill="none" stroke="black" d="M197.08,-112.95C196.33,-105.66 196.09,-96.98 196.35,-88.79"/>
<polygon fill="black" stroke="black" points="199.84,-89.07 197.01,-78.86 192.86,-88.61 199.84,-89.07"/>
</g>
<!-- port3&#45;&gt;mstb4 -->
<g id="edge22" class="edge">
<title>port3&#45;&gt;mstb4</title>
<path fill="none" stroke="black" stroke-dasharray="5,2" d="M209.65,-101.49C209.91,-93.29 209.66,-84.62 208.9,-77.35"/>
<polygon fill="black" stroke="black" points="206.16,-101.23 209.01,-111.44 213.15,-101.68 206.16,-101.23"/>
</g>
<!-- mstb1 -->
<g id="node8" class="node">
<title>mstb1</title>
<ellipse fill="palegreen" stroke="black" cx="213" cy="-347.25" rx="59.63" ry="18"/>
<text xml:space="preserve" text-anchor="middle" x="213" y="-342.57" font-family="Times,serif" font-size="14.00">MSTB #1</text>
</g>
<!-- mstb1&#45;&gt;port1 -->
<g id="edge9" class="edge">
<title>mstb1&#45;&gt;port1</title>
<path fill="none" stroke="black" d="M207.08,-328.95C206.33,-321.66 206.09,-312.98 206.35,-304.79"/>
<polygon fill="black" stroke="black" points="209.84,-305.07 207.01,-294.86 202.86,-304.61 209.84,-305.07"/>
</g>
<!-- mstb1&#45;&gt;port1 -->
<g id="edge16" class="edge">
<title>mstb1&#45;&gt;port1</title>
<path fill="none" stroke="black" stroke-dasharray="5,2" d="M219.65,-317.49C219.91,-309.29 219.66,-300.62 218.9,-293.35"/>
<polygon fill="black" stroke="black" points="216.16,-317.23 219.01,-327.44 223.15,-317.68 216.16,-317.23"/>
</g>
<!-- mstb1&#45;&gt;port2 -->
<g id="edge10" class="edge">
<title>mstb1&#45;&gt;port2</title>
<path fill="none" stroke="black" d="M181.3,-331.75C162.18,-321.83 138.03,-308.54 118.89,-297.44"/>
<polygon fill="black" stroke="black" points="120.81,-294.51 110.42,-292.47 117.27,-300.55 120.81,-294.51"/>
</g>
<!-- mstb1&#45;&gt;port2 -->
<g id="edge17" class="edge">
<title>mstb1&#45;&gt;port2</title>
<path fill="none" stroke="black" stroke-dasharray="5,2" d="M180.16,-324.5C160.6,-313.19 136.06,-299.71 117,-289.88"/>
<polygon fill="black" stroke="black" points="178.17,-327.4 188.57,-329.43 181.7,-321.35 178.17,-327.4"/>
</g>
<!-- mstb3&#45;&gt;port3 -->
<g id="edge13" class="edge">
<title>mstb3&#45;&gt;port3</title>
<path fill="none" stroke="black" d="M99.06,-186.37C116.84,-175.9 141.71,-162.14 162.71,-151.11"/>
<polygon fill="black" stroke="black" points="164.06,-154.36 171.32,-146.64 160.84,-148.14 164.06,-154.36"/>
</g>
<!-- mstb3&#45;&gt;port3 -->
<g id="edge20" class="edge">
<title>mstb3&#45;&gt;port3</title>
<path fill="none" stroke="black" stroke-dasharray="5,2" d="M117.87,-182.56C138.82,-171.53 163.28,-157.97 180.67,-147.71"/>
<polygon fill="black" stroke="black" points="116.5,-179.32 109.25,-187.05 119.74,-185.53 116.5,-179.32"/>
</g>
<!-- mstb3&#45;&gt;port4 -->
<g id="edge14" class="edge">
<title>mstb3&#45;&gt;port4</title>
<path fill="none" stroke="black" d="M70.08,-184.95C69.33,-177.66 69.09,-168.98 69.35,-160.79"/>
<polygon fill="black" stroke="black" points="72.84,-161.07 70.01,-150.86 65.86,-160.61 72.84,-161.07"/>
</g>
<!-- mstb3&#45;&gt;port4 -->
<g id="edge21" class="edge">
<title>mstb3&#45;&gt;port4</title>
<path fill="none" stroke="black" stroke-dasharray="5,2" d="M82.65,-173.49C82.91,-165.29 82.66,-156.62 81.9,-149.35"/>
<polygon fill="black" stroke="black" points="79.16,-173.23 82.01,-183.44 86.15,-173.68 79.16,-173.23"/>
</g>
</g>
</svg>
