<?xml version="1.0" encoding="UTF-8" standalone="no"?>
<!DOCTYPE svg PUBLIC "-//W3C//DTD SVG 1.1//EN"
 "http://www.w3.org/Graphics/SVG/1.1/DTD/svg11.dtd">
<!-- Generated by graphviz version 14.1.2 (20260126.1125)
 -->
<!-- Title: conn_states Pages: 1 -->
<svg width="753pt" height="474pt"
 viewBox="0.00 0.00 753.00 474.00" xmlns="http://www.w3.org/2000/svg" xmlns:xlink="http://www.w3.org/1999/xlink">
<g id="graph0" class="graph" transform="scale(1 1) rotate(0) translate(4 470)">
<title>conn_states</title>
<polygon fill="white" stroke="none" points="-4,4 -4,-470 748.99,-470 748.99,4 -4,4"/>
<!-- StandAllone -->
<g id="node1" class="node">
<title>StandAllone</title>
<ellipse fill="none" stroke="black" cx="71.73" cy="-448" rx="71.73" ry="18"/>
<text xml:space="preserve" text-anchor="middle" x="71.73" y="-443.32" font-family="Times,serif" font-size="14.00">StandAllone</text>
</g>
<!-- WFConnection -->
<g id="node2" class="node">
<title>WFConnection</title>
<ellipse fill="none" stroke="black" cx="343.73" cy="-358.75" rx="84.35" ry="18"/>
<text xml:space="preserve" text-anchor="middle" x="343.73" y="-354.07" font-family="Times,serif" font-size="14.00">WFConnection</text>
</g>
<!-- StandAllone&#45;&gt;WFConnection -->
<g id="edge1" class="edge">
<title>StandAllone&#45;&gt;WFConnection</title>
<path fill="none" stroke="black" d="M114.83,-433.17C161.58,-418.18 236.39,-394.18 287.67,-377.73"/>
<polygon fill="black" stroke="black" points="288.67,-381.09 297.12,-374.7 286.53,-374.42 288.67,-381.09"/>
<text xml:space="preserve" text-anchor="middle" x="281.96" y="-398.7" font-family="Times,serif" font-size="14.00">ioctl_set_net()</text>
</g>
<!-- Unconnected -->
<g id="node3" class="node">
<title>Unconnected</title>
<ellipse fill="none" stroke="black" cx="314.73" cy="-269.5" rx="76.99" ry="18"/>
<text xml:space="preserve" text-anchor="middle" x="314.73" y="-264.82" font-family="Times,serif" font-size="14.00">Unconnected</text>
</g>
<!-- WFConnection&#45;&gt;Unconnected -->
<g id="edge2" class="edge">
<title>WFConnection&#45;&gt;Unconnected</title>
<path fill="none" stroke="black" d="M326.21,-340.66C321.88,-335.37 317.81,-329.21 315.48,-322.75 312.81,-315.38 311.86,-307.04 311.77,-299.23"/>
<polygon fill="black" stroke="black" points="315.26,-299.58 312.13,-289.46 308.26,-299.33 315.26,-299.58"/>
<text xml:space="preserve" text-anchor="middle" x="372.1" y="-309.45" font-family="Times,serif" font-size="14.00">unable to bind()</text>
</g>
<!-- WFReportParams -->
<g id="node4" class="node">
<title>WFReportParams</title>
<ellipse fill="none" stroke="black" cx="119.73" cy="-269.5" rx="99.61" ry="18"/>
<text xml:space="preserve" text-anchor="middle" x="119.73" y="-264.82" font-family="Times,serif" font-size="14.00">WFReportParams</text>
</g>
<!-- WFConnection&#45;&gt;WFReportParams -->
<g id="edge3" class="edge">
<title>WFConnection&#45;&gt;WFReportParams</title>
<path fill="none" stroke="black" d="M279.57,-346.64C267.98,-344.66 255.99,-342.63 244.73,-340.75 220.08,-336.64 152.27,-339.51 133.73,-322.75 126.94,-316.62 123.3,-307.6 121.38,-298.77"/>
<polygon fill="black" stroke="black" points="124.86,-298.42 119.96,-289.03 117.94,-299.43 124.86,-298.42"/>
<text xml:space="preserve" text-anchor="middle" x="220.73" y="-309.45" font-family="Times,serif" font-size="14.00">in connect() after accept</text>
</g>
<!-- WFReportParams&#45;&gt;StandAllone -->
<g id="edge4" class="edge">
<title>WFReportParams&#45;&gt;StandAllone</title>
<path fill="none" stroke="black" d="M101.24,-287.57C88.46,-300.69 72.54,-320.04 65.48,-340.75 56.82,-366.13 59.98,-396.88 64.35,-418.75"/>
<polygon fill="black" stroke="black" points="60.92,-419.43 66.51,-428.43 67.75,-417.91 60.92,-419.43"/>
<text xml:space="preserve" text-anchor="middle" x="158.1" y="-354.07" font-family="Times,serif" font-size="14.00">checks in receive_param()</text>
</g>
<!-- Connected -->
<g id="node5" class="node">
<title>Connected</title>
<ellipse fill="none" stroke="black" cx="385.73" cy="-18" rx="64.36" ry="18"/>
<text xml:space="preserve" text-anchor="middle" x="385.73" y="-13.32" font-family="Times,serif" font-size="14.00">Connected</text>
</g>
<!-- WFReportParams&#45;&gt;Connected -->
<g id="edge5" class="edge">
<title>WFReportParams&#45;&gt;Connected</title>
<path fill="none" stroke="black" d="M201.89,-259.02C219.88,-253.77 237.71,-245.75 251.73,-233.5 290.33,-199.78 269.47,-170.87 295.98,-127 314.62,-96.15 341.67,-64.9 361.2,-44.01"/>
<polygon fill="black" stroke="black" points="363.67,-46.49 368.02,-36.82 358.6,-41.67 363.67,-46.49"/>
<text xml:space="preserve" text-anchor="middle" x="362.35" y="-130.95" font-family="Times,serif" font-size="14.00">in receive_param()</text>
</g>
<!-- WFBitMapS -->
<g id="node6" class="node">
<title>WFBitMapS</title>
<ellipse fill="none" stroke="black" cx="123.73" cy="-180.25" rx="71.73" ry="18"/>
<text xml:space="preserve" text-anchor="middle" x="123.73" y="-175.57" font-family="Times,serif" font-size="14.00">WFBitMapS</text>
</g>
<!-- WFReportParams&#45;&gt;WFBitMapS -->
<g id="edge6" class="edge">
<title>WFReportParams&#45;&gt;WFBitMapS</title>
<path fill="none" stroke="black" d="M120.52,-251.26C121.06,-239.43 121.79,-223.45 122.42,-209.75"/>
<polygon fill="black" stroke="black" points="125.91,-210.11 122.87,-199.96 118.91,-209.79 125.91,-210.11"/>
<text xml:space="preserve" text-anchor="middle" x="185.08" y="-220.2" font-family="Times,serif" font-size="14.00">sync_handshake()</text>
</g>
<!-- WFBitMapT -->
<g id="node7" class="node">
<title>WFBitMapT</title>
<ellipse fill="none" stroke="black" cx="664.73" cy="-180.25" rx="71.2" ry="18"/>
<text xml:space="preserve" text-anchor="middle" x="664.73" y="-175.57" font-family="Times,serif" font-size="14.00">WFBitMapT</text>
</g>
<!-- WFReportParams&#45;&gt;WFBitMapT -->
<g id="edge7" class="edge">
<title>WFReportParams&#45;&gt;WFBitMapT</title>
<path fill="none" stroke="black" d="M193.3,-256.98C205.15,-255.14 217.27,-253.26 228.73,-251.5 384.68,-227.51 424.32,-225.56 579.73,-198.25 586.18,-197.12 592.9,-195.87 599.61,-194.6"/>
<polygon fill="black" stroke="black" points="600.2,-198.05 609.35,-192.71 598.87,-191.17 600.2,-198.05"/>
<text xml:space="preserve" text-anchor="middle" x="534.32" y="-220.2" font-family="Times,serif" font-size="14.00">sync_handshake()</text>
</g>
<!-- Connected&#45;&gt;WFConnection -->
<g id="edge16" class="edge">
<title>Connected&#45;&gt;WFConnection</title>
<path fill="none" stroke="black" d="M409.24,-35.08C424.94,-47.89 442.73,-67.4 442.73,-90 442.73,-270.5 442.73,-270.5 442.73,-270.5 442.73,-294.54 444.6,-304.69 428.73,-322.75 422.8,-329.49 415.37,-334.96 407.39,-339.39"/>
<polygon fill="black" stroke="black" points="405.85,-336.25 398.42,-343.8 408.94,-342.53 405.85,-336.25"/>
<text xml:space="preserve" text-anchor="middle" x="509.1" y="-175.57" font-family="Times,serif" font-size="14.00">* on network error</text>
</g>
<!-- SyncSource -->
<g id="node8" class="node">
<title>SyncSource</title>
<ellipse fill="none" stroke="black" cx="148.73" cy="-91" rx="70.15" ry="18"/>
<text xml:space="preserve" text-anchor="middle" x="148.73" y="-86.33" font-family="Times,serif" font-size="14.00">SyncSource</text>
</g>
<!-- WFBitMapS&#45;&gt;SyncSource -->
<g id="edge8" class="edge">
<title>WFBitMapS&#45;&gt;SyncSource</title>
<path fill="none" stroke="black" d="M122.95,-161.92C122.97,-151.56 123.88,-138.26 127.48,-127 128.35,-124.27 129.47,-121.54 130.74,-118.87"/>
<polygon fill="black" stroke="black" points="133.68,-120.79 135.45,-110.34 127.55,-117.4 133.68,-120.79"/>
<text xml:space="preserve" text-anchor="middle" x="187.1" y="-130.95" font-family="Times,serif" font-size="14.00">receive_bitmap()</text>
</g>
<!-- SyncTarget -->
<g id="node9" class="node">
<title>SyncTarget</title>
<ellipse fill="none" stroke="black" cx="569.73" cy="-91" rx="68.04" ry="18"/>
<text xml:space="preserve" text-anchor="middle" x="569.73" y="-86.33" font-family="Times,serif" font-size="14.00">SyncTarget</text>
</g>
<!-- WFBitMapT&#45;&gt;SyncTarget -->
<g id="edge9" class="edge">
<title>WFBitMapT&#45;&gt;SyncTarget</title>
<path fill="none" stroke="black" d="M646.41,-162.43C632.22,-149.39 612.35,-131.14 596.39,-116.49"/>
<polygon fill="black" stroke="black" points="598.83,-113.98 589.1,-109.79 594.1,-119.14 598.83,-113.98"/>
<text xml:space="preserve" text-anchor="middle" x="685.36" y="-130.95" font-family="Times,serif" font-size="14.00">receive_bitmap()</text>
</g>
<!-- SyncSource&#45;&gt;Connected -->
<g id="edge10" class="edge">
<title>SyncSource&#45;&gt;Connected</title>
<path fill="none" stroke="black" d="M188.54,-75.78C208.34,-68.89 232.69,-60.68 254.73,-54 278.54,-46.78 305.02,-39.56 327.91,-33.56"/>
<polygon fill="black" stroke="black" points="328.57,-37.01 337.36,-31.11 326.81,-30.24 328.57,-37.01"/>
</g>
<!-- PausedSyncS -->
<g id="node10" class="node">
<title>PausedSyncS</title>
<ellipse fill="none" stroke="black" cx="148.73" cy="-18" rx="78.04" ry="18"/>
<text xml:space="preserve" text-anchor="middle" x="148.73" y="-13.32" font-family="Times,serif" font-size="14.00">PausedSyncS</text>
</g>
<!-- SyncSource&#45;&gt;PausedSyncS -->
<g id="edge12" class="edge">
<title>SyncSource&#45;&gt;PausedSyncS</title>
<path fill="none" stroke="black" d="M142.85,-72.81C142.05,-65.14 141.8,-55.89 142.1,-47.24"/>
<polygon fill="black" stroke="black" points="145.58,-47.75 142.76,-37.54 138.59,-47.28 145.58,-47.75"/>
</g>
<!-- SyncTarget&#45;&gt;Connected -->
<g id="edge11" class="edge">
<title>SyncTarget&#45;&gt;Connected</title>
<path fill="none" stroke="black" d="M532.49,-75.63C503.75,-64.54 463.79,-49.12 432.82,-37.17"/>
<polygon fill="black" stroke="black" points="434.28,-33.98 423.69,-33.65 431.76,-40.51 434.28,-33.98"/>
</g>
<!-- PausedSyncT -->
<g id="node11" class="node">
<title>PausedSyncT</title>
<ellipse fill="none" stroke="black" cx="569.73" cy="-18" rx="77.51" ry="18"/>
<text xml:space="preserve" text-anchor="middle" x="569.73" y="-13.32" font-family="Times,serif" font-size="14.00">PausedSyncT</text>
</g>
<!-- SyncTarget&#45;&gt;PausedSyncT -->
<g id="edge13" class="edge">
<title>SyncTarget&#45;&gt;PausedSyncT</title>
<path fill="none" stroke="black" d="M563.85,-72.81C563.05,-65.14 562.8,-55.89 563.1,-47.24"/>
<polygon fill="black" stroke="black" points="566.58,-47.75 563.76,-37.54 559.59,-47.28 566.58,-47.75"/>
</g>
<!-- PausedSyncS&#45;&gt;SyncSource -->
<g id="edge14" class="edge">
<title>PausedSyncS&#45;&gt;SyncSource</title>
<path fill="none" stroke="black" d="M154.59,-36.03C155.4,-43.68 155.65,-52.92 155.36,-61.58"/>
<polygon fill="black" stroke="black" points="151.88,-61.09 154.71,-71.3 158.86,-61.56 151.88,-61.09"/>
</g>
<!-- PausedSyncT&#45;&gt;SyncTarget -->
<g id="edge15" class="edge">
<title>PausedSyncT&#45;&gt;SyncTarget</title>
<path fill="none" stroke="black" d="M575.59,-36.03C576.4,-43.68 576.65,-52.92 576.36,-61.58"/>
<polygon fill="black" stroke="black" points="572.88,-61.09 575.71,-71.3 579.86,-61.56 572.88,-61.09"/>
</g>
</g>
</svg>
