<?xml version="1.0" encoding="UTF-8" standalone="no"?>
<!DOCTYPE svg PUBLIC "-//W3C//DTD SVG 1.1//EN"
 "http://www.w3.org/Graphics/SVG/1.1/DTD/svg11.dtd">
<!-- Generated by graphviz version 14.1.2 (20260126.1125)
 -->
<!-- Title: disk_states Pages: 1 -->
<svg width="940pt" height="490pt"
 viewBox="0.00 0.00 940.00 490.00" xmlns="http://www.w3.org/2000/svg" xmlns:xlink="http://www.w3.org/1999/xlink">
<g id="graph0" class="graph" transform="scale(1 1) rotate(0) translate(4 486.25)">
<title>disk_states</title>
<polygon fill="white" stroke="none" points="-4,4 -4,-486.25 935.55,-486.25 935.55,4 -4,4"/>
<!-- Diskless -->
<g id="node1" class="node">
<title>Diskless</title>
<ellipse fill="none" stroke="black" cx="308.05" cy="-464.25" rx="52.79" ry="18"/>
<text xml:space="preserve" text-anchor="middle" x="308.05" y="-459.57" font-family="Times,serif" font-size="14.00">Diskless</text>
</g>
<!-- Inconsistent -->
<g id="node2" class="node">
<title>Inconsistent</title>
<ellipse fill="none" stroke="black" cx="198.05" cy="-196.5" rx="72.78" ry="18"/>
<text xml:space="preserve" text-anchor="middle" x="198.05" y="-191.82" font-family="Times,serif" font-size="14.00">Inconsistent</text>
</g>
<!-- Diskless&#45;&gt;Inconsistent -->
<g id="edge1" class="edge">
<title>Diskless&#45;&gt;Inconsistent</title>
<path fill="none" stroke="black" d="M282.28,-448.29C250.44,-428.13 197.85,-388.94 176.3,-339 160.23,-301.77 173.48,-254.52 185.2,-225.14"/>
<polygon fill="black" stroke="black" points="188.31,-226.79 188.97,-216.21 181.86,-224.07 188.31,-226.79"/>
<text xml:space="preserve" text-anchor="middle" x="229.17" y="-325.7" font-family="Times,serif" font-size="14.00">ioctl_set_disk()</text>
</g>
<!-- Consistent -->
<g id="node3" class="node">
<title>Consistent</title>
<ellipse fill="none" stroke="black" cx="438.05" cy="-375" rx="64.89" ry="18"/>
<text xml:space="preserve" text-anchor="middle" x="438.05" y="-370.32" font-family="Times,serif" font-size="14.00">Consistent</text>
</g>
<!-- Diskless&#45;&gt;Consistent -->
<g id="edge2" class="edge">
<title>Diskless&#45;&gt;Consistent</title>
<path fill="none" stroke="black" d="M331.29,-447.65C351.74,-433.93 381.75,-413.78 404.75,-398.35"/>
<polygon fill="black" stroke="black" points="406.52,-401.38 412.87,-392.9 402.62,-395.56 406.52,-401.38"/>
<text xml:space="preserve" text-anchor="middle" x="437.57" y="-414.95" font-family="Times,serif" font-size="14.00">ioctl_set_disk()</text>
</g>
<!-- Outdated -->
<g id="node4" class="node">
<title>Outdated</title>
<ellipse fill="none" stroke="black" cx="58.05" cy="-285.75" rx="58.05" ry="18"/>
<text xml:space="preserve" text-anchor="middle" x="58.05" y="-281.07" font-family="Times,serif" font-size="14.00">Outdated</text>
</g>
<!-- Diskless&#45;&gt;Outdated -->
<g id="edge3" class="edge">
<title>Diskless&#45;&gt;Outdated</title>
<path fill="none" stroke="black" d="M259.67,-456.69C194.22,-446.68 82.87,-425.31 59.3,-393 43.09,-370.79 45.33,-338.44 50.03,-315.27"/>
<polygon fill="black" stroke="black" points="53.43,-316.1 52.29,-305.57 46.61,-314.52 53.43,-316.1"/>
<text xml:space="preserve" text-anchor="middle" x="112.17" y="-370.32" font-family="Times,serif" font-size="14.00">ioctl_set_disk()</text>
</g>
<!-- UpToDate -->
<g id="node5" class="node">
<title>UpToDate</title>
<ellipse fill="none" stroke="black" cx="397.05" cy="-107.25" rx="61.2" ry="18"/>
<text xml:space="preserve" text-anchor="middle" x="397.05" y="-102.58" font-family="Times,serif" font-size="14.00">UpToDate</text>
</g>
<!-- Inconsistent&#45;&gt;UpToDate -->
<g id="edge9" class="edge">
<title>Inconsistent&#45;&gt;UpToDate</title>
<path fill="none" stroke="black" d="M197.7,-178.5C198.43,-166.91 201.42,-152.11 211.05,-143.25 229.44,-126.33 297.52,-130.01 322.05,-125.25 327.64,-124.16 333.45,-122.97 339.25,-121.73"/>
<polygon fill="black" stroke="black" points="339.83,-125.18 348.85,-119.63 338.34,-118.35 339.83,-125.18"/>
<text xml:space="preserve" text-anchor="middle" x="274.05" y="-147.2" font-family="Times,serif" font-size="14.00">resync completed</text>
</g>
<!-- Failed -->
<g id="node6" class="node">
<title>Failed</title>
<ellipse fill="none" stroke="black" cx="397.05" cy="-18" rx="41.74" ry="18"/>
<text xml:space="preserve" text-anchor="middle" x="397.05" y="-13.32" font-family="Times,serif" font-size="14.00">Failed</text>
</g>
<!-- Inconsistent&#45;&gt;Failed -->
<g id="edge13" class="edge">
<title>Inconsistent&#45;&gt;Failed</title>
<path fill="none" stroke="black" d="M190.43,-178.22C181.71,-155.55 170.93,-115.56 189.8,-89.25 224.64,-40.66 294.97,-25.26 343.99,-20.61"/>
<polygon fill="black" stroke="black" points="344.14,-24.11 353.83,-19.81 343.58,-17.13 344.14,-24.11"/>
<text xml:space="preserve" text-anchor="middle" x="258.42" y="-102.58" font-family="Times,serif" font-size="14.00">io completion error</text>
</g>
<!-- Consistent&#45;&gt;Inconsistent -->
<g id="edge6" class="edge">
<title>Consistent&#45;&gt;Inconsistent</title>
<path fill="none" stroke="black" d="M437.3,-356.61C435.96,-345.44 432.54,-331.29 424.05,-321.75 409.66,-305.58 398.24,-313.26 378.8,-303.75 326.05,-277.94 268,-242.46 232.28,-219.76"/>
<polygon fill="black" stroke="black" points="234.4,-216.96 224.09,-214.52 230.63,-222.86 234.4,-216.96"/>
<text xml:space="preserve" text-anchor="middle" x="421.92" y="-281.07" font-family="Times,serif" font-size="14.00">start resync</text>
</g>
<!-- Consistent&#45;&gt;Outdated -->
<g id="edge4" class="edge">
<title>Consistent&#45;&gt;Outdated</title>
<path fill="none" stroke="black" d="M385.08,-364.28C361.18,-358.73 333.05,-350.53 309.3,-339 297.72,-333.38 297.92,-326.71 286.05,-321.75 235.45,-300.64 173.77,-292.1 127.32,-288.72"/>
<polygon fill="black" stroke="black" points="127.58,-285.23 117.37,-288.07 127.12,-292.21 127.58,-285.23"/>
<text xml:space="preserve" text-anchor="middle" x="366.67" y="-325.7" font-family="Times,serif" font-size="14.00">receive_param()</text>
</g>
<!-- Consistent&#45;&gt;UpToDate -->
<g id="edge5" class="edge">
<title>Consistent&#45;&gt;UpToDate</title>
<path fill="none" stroke="black" d="M446.66,-356.91C453.16,-342.99 461.54,-322.63 465.05,-303.75 471.55,-268.68 483.62,-173.7 465.05,-143.25 460.86,-136.39 454.86,-130.82 448.13,-126.31"/>
<polygon fill="black" stroke="black" points="450.32,-123.54 439.91,-121.56 446.82,-129.6 450.32,-123.54"/>
<text xml:space="preserve" text-anchor="middle" x="531.14" y="-236.45" font-family="Times,serif" font-size="14.00">receive_param()</text>
</g>
<!-- Consistent&#45;&gt;Failed -->
<g id="edge10" class="edge">
<title>Consistent&#45;&gt;Failed</title>
<path fill="none" stroke="black" d="M498.34,-367.84C547.57,-359.09 609.05,-337.91 609.05,-286.75 609.05,-286.75 609.05,-286.75 609.05,-106.25 609.05,-37.78 513.3,-21.93 450.5,-18.9"/>
<polygon fill="black" stroke="black" points="450.82,-15.41 440.7,-18.53 450.56,-22.41 450.82,-15.41"/>
<text xml:space="preserve" text-anchor="middle" x="677.67" y="-191.82" font-family="Times,serif" font-size="14.00">io completion error</text>
</g>
<!-- Outdated&#45;&gt;Inconsistent -->
<g id="edge7" class="edge">
<title>Outdated&#45;&gt;Inconsistent</title>
<path fill="none" stroke="black" d="M60.86,-267.46C63.59,-256.05 68.84,-241.57 78.8,-232.5 91.11,-221.28 106.83,-213.65 122.8,-208.45"/>
<polygon fill="black" stroke="black" points="123.78,-211.81 132.4,-205.66 121.82,-205.09 123.78,-211.81"/>
<text xml:space="preserve" text-anchor="middle" x="121.92" y="-236.45" font-family="Times,serif" font-size="14.00">start resync</text>
</g>
<!-- Outdated&#45;&gt;Failed -->
<g id="edge11" class="edge">
<title>Outdated&#45;&gt;Failed</title>
<path fill="none" stroke="black" d="M49.43,-267.69C36.58,-239.62 16.3,-182.88 39.8,-143.25 101.62,-39 259.99,-20.49 343.57,-18.27"/>
<polygon fill="black" stroke="black" points="343.4,-21.78 353.33,-18.09 343.27,-14.78 343.4,-21.78"/>
<text xml:space="preserve" text-anchor="middle" x="108.42" y="-147.2" font-family="Times,serif" font-size="14.00">io completion error</text>
</g>
<!-- UpToDate&#45;&gt;Inconsistent -->
<g id="edge8" class="edge">
<title>UpToDate&#45;&gt;Inconsistent</title>
<path fill="none" stroke="black" d="M380.97,-125C367.78,-138.41 349.88,-155.73 341.05,-160.5 319.98,-171.88 295.19,-179.62 272.21,-184.86"/>
<polygon fill="black" stroke="black" points="271.63,-181.4 262.59,-186.92 273.1,-188.25 271.63,-181.4"/>
<text xml:space="preserve" text-anchor="middle" x="411.48" y="-147.2" font-family="Times,serif" font-size="14.00">ioctl_replicate</text>
</g>
<!-- UpToDate&#45;&gt;Failed -->
<g id="edge12" class="edge">
<title>UpToDate&#45;&gt;Failed</title>
<path fill="none" stroke="black" d="M397.05,-89.01C397.05,-77.18 397.05,-61.2 397.05,-47.5"/>
<polygon fill="black" stroke="black" points="400.55,-47.72 397.05,-37.72 393.55,-47.72 400.55,-47.72"/>
<text xml:space="preserve" text-anchor="middle" x="465.67" y="-57.95" font-family="Times,serif" font-size="14.00">io completion error</text>
</g>
<!-- Failed&#45;&gt;Diskless -->
<g id="edge14" class="edge">
<title>Failed&#45;&gt;Diskless</title>
<path fill="none" stroke="black" d="M438.83,-19.9C536.99,-23.15 774.05,-38.06 774.05,-106.25 774.05,-376 774.05,-376 774.05,-376 774.05,-416.61 497.14,-446.46 370.24,-458"/>
<polygon fill="black" stroke="black" points="369.96,-454.51 360.31,-458.89 370.59,-461.49 369.96,-454.51"/>
<text xml:space="preserve" text-anchor="middle" x="852.8" y="-236.45" font-family="Times,serif" font-size="14.00">sending notify to peer</text>
</g>
</g>
</svg>
