<?xml version="1.0" encoding="UTF-8" standalone="no"?>
<!DOCTYPE svg PUBLIC "-//W3C//DTD SVG 1.1//EN"
 "http://www.w3.org/Graphics/SVG/1.1/DTD/svg11.dtd">
<!-- Generated by graphviz version 14.1.2 (20260126.1125)
 -->
<!-- Title: IPU3 ImgU Pages: 1 -->
<svg width="645pt" height="530pt"
 viewBox="0.00 0.00 645.00 530.00" xmlns="http://www.w3.org/2000/svg" xmlns:xlink="http://www.w3.org/1999/xlink">
<g id="graph0" class="graph" transform="scale(1 1) rotate(0) translate(4 526)">
<title>IPU3 ImgU</title>
<polygon fill="white" stroke="none" points="-4,4 -4,-526 641.25,-526 641.25,4 -4,4"/>
<!-- a -->
<g id="node1" class="node">
<title>a</title>
<polygon fill="none" stroke="black" points="196.38,-522 103.12,-522 103.12,-486 196.38,-486 196.38,-522"/>
<text xml:space="preserve" text-anchor="middle" x="149.75" y="-499.32" font-family="Times,serif" font-size="14.00">Raw pixels</text>
</g>
<!-- b -->
<g id="node2" class="node">
<title>b</title>
<polygon fill="none" stroke="black" points="226.38,-468 73.12,-468 73.12,-432 226.38,-432 226.38,-468"/>
<text xml:space="preserve" text-anchor="middle" x="149.75" y="-445.32" font-family="Times,serif" font-size="14.00">Bayer Downscaling</text>
</g>
<!-- a&#45;&gt;b -->
<g id="edge1" class="edge">
<title>a&#45;&gt;b</title>
<path fill="none" stroke="black" d="M149.25,-485.72C149.25,-485.72 149.25,-479.78 149.25,-479.78"/>
<polygon fill="black" stroke="black" points="152.75,-479.78 149.25,-469.78 145.75,-479.78 152.75,-479.78"/>
</g>
<!-- j -->
<g id="node10" class="node">
<title>j</title>
<polygon fill="none" stroke="black" points="534.88,-522 347.88,-522 347.88,-486 534.88,-486 534.88,-522"/>
<text xml:space="preserve" text-anchor="middle" x="441.38" y="-499.32" font-family="Times,serif" font-size="14.00">Color Correction Matrix</text>
</g>
<!-- a&#45;&gt;j -->
<!-- c -->
<g id="node3" class="node">
<title>c</title>
<polygon fill="none" stroke="black" points="245.12,-414 54.38,-414 54.38,-378 245.12,-378 245.12,-414"/>
<text xml:space="preserve" text-anchor="middle" x="149.75" y="-391.32" font-family="Times,serif" font-size="14.00">Optical Black Correction</text>
</g>
<!-- b&#45;&gt;c -->
<g id="edge2" class="edge">
<title>b&#45;&gt;c</title>
<path fill="none" stroke="black" d="M149.25,-431.72C149.25,-431.72 149.25,-425.78 149.25,-425.78"/>
<polygon fill="black" stroke="black" points="152.75,-425.78 149.25,-415.78 145.75,-425.78 152.75,-425.78"/>
</g>
<!-- d -->
<g id="node4" class="node">
<title>d</title>
<polygon fill="none" stroke="black" points="204.62,-360 94.88,-360 94.88,-324 204.62,-324 204.62,-360"/>
<text xml:space="preserve" text-anchor="middle" x="149.75" y="-337.32" font-family="Times,serif" font-size="14.00">Linearization</text>
</g>
<!-- c&#45;&gt;d -->
<g id="edge3" class="edge">
<title>c&#45;&gt;d</title>
<path fill="none" stroke="black" d="M149.25,-377.72C149.25,-377.72 149.25,-371.78 149.25,-371.78"/>
<polygon fill="black" stroke="black" points="152.75,-371.78 149.25,-361.78 145.75,-371.78 152.75,-371.78"/>
</g>
<!-- e -->
<g id="node5" class="node">
<title>e</title>
<polygon fill="none" stroke="black" points="246.25,-306 53.25,-306 53.25,-270 246.25,-270 246.25,-306"/>
<text xml:space="preserve" text-anchor="middle" x="149.75" y="-283.32" font-family="Times,serif" font-size="14.00">Lens Shading Correction</text>
</g>
<!-- d&#45;&gt;e -->
<g id="edge4" class="edge">
<title>d&#45;&gt;e</title>
<path fill="none" stroke="black" d="M149.25,-323.72C149.25,-323.72 149.25,-317.78 149.25,-317.78"/>
<polygon fill="black" stroke="black" points="152.75,-317.78 149.25,-307.78 145.75,-317.78 152.75,-317.78"/>
</g>
<!-- f -->
<g id="node6" class="node">
<title>f</title>
<polygon fill="none" stroke="black" points="299.5,-252 0,-252 0,-216 299.5,-216 299.5,-252"/>
<text xml:space="preserve" text-anchor="middle" x="149.75" y="-229.32" font-family="Times,serif" font-size="14.00">White Balance / Exposure / Focus Apply</text>
</g>
<!-- e&#45;&gt;f -->
<g id="edge5" class="edge">
<title>e&#45;&gt;f</title>
<path fill="none" stroke="black" d="M149.25,-269.72C149.25,-269.72 149.25,-263.78 149.25,-263.78"/>
<polygon fill="black" stroke="black" points="152.75,-263.78 149.25,-253.78 145.75,-263.78 152.75,-263.78"/>
</g>
<!-- g -->
<g id="node7" class="node">
<title>g</title>
<polygon fill="none" stroke="black" points="239.5,-198 60,-198 60,-162 239.5,-162 239.5,-198"/>
<text xml:space="preserve" text-anchor="middle" x="149.75" y="-175.32" font-family="Times,serif" font-size="14.00">Bayer Noise Reduction</text>
</g>
<!-- f&#45;&gt;g -->
<g id="edge6" class="edge">
<title>f&#45;&gt;g</title>
<path fill="none" stroke="black" d="M149.25,-215.72C149.25,-215.72 149.25,-209.78 149.25,-209.78"/>
<polygon fill="black" stroke="black" points="152.75,-209.78 149.25,-199.78 145.75,-209.78 152.75,-209.78"/>
</g>
<!-- h -->
<g id="node8" class="node">
<title>h</title>
<polygon fill="none" stroke="black" points="176.75,-144 122.75,-144 122.75,-108 176.75,-108 176.75,-144"/>
<text xml:space="preserve" text-anchor="middle" x="149.75" y="-121.33" font-family="Times,serif" font-size="14.00">ANR</text>
</g>
<!-- g&#45;&gt;h -->
<g id="edge7" class="edge">
<title>g&#45;&gt;h</title>
<path fill="none" stroke="black" d="M149.25,-161.72C149.25,-161.72 149.25,-155.78 149.25,-155.78"/>
<polygon fill="black" stroke="black" points="152.75,-155.78 149.25,-145.78 145.75,-155.78 152.75,-155.78"/>
</g>
<!-- i -->
<g id="node9" class="node">
<title>i</title>
<polygon fill="none" stroke="black" points="203.5,-90 96,-90 96,-54 203.5,-54 203.5,-90"/>
<text xml:space="preserve" text-anchor="middle" x="149.75" y="-67.33" font-family="Times,serif" font-size="14.00">Demosaicing</text>
</g>
<!-- h&#45;&gt;i -->
<g id="edge8" class="edge">
<title>h&#45;&gt;i</title>
<path fill="none" stroke="black" d="M149.25,-107.72C149.25,-107.72 149.25,-101.78 149.25,-101.78"/>
<polygon fill="black" stroke="black" points="152.75,-101.78 149.25,-91.78 145.75,-101.78 152.75,-101.78"/>
</g>
<!-- i&#45;&gt;j -->
<g id="edge19" class="edge">
<title>i&#45;&gt;j</title>
<path fill="none" stroke="black" d="M203.67,-72C252.64,-72 317.25,-72 317.25,-72 317.25,-72 317.25,-498 317.25,-498 317.25,-498 336.1,-498 336.1,-498"/>
<polygon fill="black" stroke="black" points="336.1,-501.5 346.1,-498 336.1,-494.5 336.1,-501.5"/>
</g>
<!-- k -->
<g id="node11" class="node">
<title>k</title>
<polygon fill="none" stroke="black" points="515.38,-468 367.38,-468 367.38,-432 515.38,-432 515.38,-468"/>
<text xml:space="preserve" text-anchor="middle" x="441.38" y="-445.32" font-family="Times,serif" font-size="14.00">Gamma correction</text>
</g>
<!-- j&#45;&gt;k -->
<g id="edge9" class="edge">
<title>j&#45;&gt;k</title>
<path fill="none" stroke="black" d="M441.25,-485.72C441.25,-485.72 441.25,-479.78 441.25,-479.78"/>
<polygon fill="black" stroke="black" points="444.75,-479.78 441.25,-469.78 437.75,-479.78 444.75,-479.78"/>
</g>
<!-- l -->
<g id="node12" class="node">
<title>l</title>
<polygon fill="none" stroke="black" points="534.5,-414 348.25,-414 348.25,-378 534.5,-378 534.5,-414"/>
<text xml:space="preserve" text-anchor="middle" x="441.38" y="-391.32" font-family="Times,serif" font-size="14.00">Color Space Conversion</text>
</g>
<!-- k&#45;&gt;l -->
<g id="edge10" class="edge">
<title>k&#45;&gt;l</title>
<path fill="none" stroke="black" d="M441.25,-431.72C441.25,-431.72 441.25,-425.78 441.25,-425.78"/>
<polygon fill="black" stroke="black" points="444.75,-425.78 441.25,-415.78 437.75,-425.78 444.75,-425.78"/>
</g>
<!-- m -->
<g id="node13" class="node">
<title>m</title>
<polygon fill="none" stroke="black" points="528.5,-360 354.25,-360 354.25,-324 528.5,-324 528.5,-360"/>
<text xml:space="preserve" text-anchor="middle" x="441.38" y="-337.32" font-family="Times,serif" font-size="14.00">Chroma Down Scaling</text>
</g>
<!-- l&#45;&gt;m -->
<g id="edge11" class="edge">
<title>l&#45;&gt;m</title>
<path fill="none" stroke="black" d="M441.25,-377.72C441.25,-377.72 441.25,-371.78 441.25,-371.78"/>
<polygon fill="black" stroke="black" points="444.75,-371.78 441.25,-361.78 437.75,-371.78 444.75,-371.78"/>
</g>
<!-- n -->
<g id="node14" class="node">
<title>n</title>
<polygon fill="none" stroke="black" points="547.25,-306 335.5,-306 335.5,-270 547.25,-270 547.25,-306"/>
<text xml:space="preserve" text-anchor="middle" x="441.38" y="-283.32" font-family="Times,serif" font-size="14.00">Chromatic Noise Reduction</text>
</g>
<!-- m&#45;&gt;n -->
<g id="edge12" class="edge">
<title>m&#45;&gt;n</title>
<path fill="none" stroke="black" d="M441.25,-323.72C441.25,-323.72 441.25,-317.78 441.25,-317.78"/>
<polygon fill="black" stroke="black" points="444.75,-317.78 441.25,-307.78 437.75,-317.78 444.75,-317.78"/>
</g>
<!-- o -->
<g id="node15" class="node">
<title>o</title>
<polygon fill="none" stroke="black" points="528.5,-252 354.25,-252 354.25,-216 528.5,-216 528.5,-252"/>
<text xml:space="preserve" text-anchor="middle" x="441.38" y="-229.32" font-family="Times,serif" font-size="14.00">Total Color Correction</text>
</g>
<!-- n&#45;&gt;o -->
<g id="edge13" class="edge">
<title>n&#45;&gt;o</title>
<path fill="none" stroke="black" d="M441.25,-269.72C441.25,-269.72 441.25,-263.78 441.25,-263.78"/>
<polygon fill="black" stroke="black" points="444.75,-263.78 441.25,-253.78 437.75,-263.78 444.75,-263.78"/>
</g>
<!-- p -->
<g id="node16" class="node">
<title>p</title>
<polygon fill="none" stroke="black" points="470,-198 412.75,-198 412.75,-162 470,-162 470,-198"/>
<text xml:space="preserve" text-anchor="middle" x="441.38" y="-175.32" font-family="Times,serif" font-size="14.00">XNR3</text>
</g>
<!-- o&#45;&gt;p -->
<g id="edge14" class="edge">
<title>o&#45;&gt;p</title>
<path fill="none" stroke="black" d="M441.25,-215.72C441.25,-215.72 441.25,-209.78 441.25,-209.78"/>
<polygon fill="black" stroke="black" points="444.75,-209.78 441.25,-199.78 437.75,-209.78 444.75,-209.78"/>
</g>
<!-- q -->
<g id="node17" class="node">
<title>q</title>
<polygon fill="none" stroke="black" points="468.38,-144 414.38,-144 414.38,-108 468.38,-108 468.38,-144"/>
<text xml:space="preserve" text-anchor="middle" x="441.38" y="-121.33" font-family="Times,serif" font-size="14.00">TNR</text>
</g>
<!-- p&#45;&gt;q -->
<g id="edge15" class="edge">
<title>p&#45;&gt;q</title>
<path fill="none" stroke="black" d="M441.25,-161.72C441.25,-161.72 441.25,-155.78 441.25,-155.78"/>
<polygon fill="black" stroke="black" points="444.75,-155.78 441.25,-145.78 437.75,-155.78 444.75,-155.78"/>
</g>
<!-- r -->
<g id="node18" class="node">
<title>r</title>
<path fill="yellow" stroke="black" d="M637.25,-140.73C637.25,-142.53 625.15,-144 610.25,-144 595.35,-144 583.25,-142.53 583.25,-140.73 583.25,-140.73 583.25,-111.27 583.25,-111.27 583.25,-109.47 595.35,-108 610.25,-108 625.15,-108 637.25,-109.47 637.25,-111.27 637.25,-111.27 637.25,-140.73 637.25,-140.73"/>
<path fill="none" stroke="black" d="M637.25,-140.73C637.25,-138.92 625.15,-137.45 610.25,-137.45 595.35,-137.45 583.25,-138.92 583.25,-140.73"/>
<text xml:space="preserve" text-anchor="middle" x="610.25" y="-121.33" font-family="Times,serif" font-size="14.00">DDR</text>
</g>
<!-- q&#45;&gt;r -->
<g id="edge20" class="edge">
<title>q&#45;&gt;r</title>
<path fill="none" stroke="black" d="M468.51,-126C468.51,-126 571.39,-126 571.39,-126"/>
<polygon fill="black" stroke="black" points="571.39,-129.5 581.39,-126 571.39,-122.5 571.39,-129.5"/>
</g>
<!-- s -->
<g id="node19" class="node">
<title>s</title>
<polygon fill="none" stroke="black" points="512.38,-90 370.38,-90 370.38,-54 512.38,-54 512.38,-90"/>
<text xml:space="preserve" text-anchor="middle" x="441.38" y="-67.33" font-family="Times,serif" font-size="14.00">YUV Downscaling</text>
</g>
<!-- q&#45;&gt;s -->
<g id="edge16" class="edge">
<title>q&#45;&gt;s</title>
<path fill="none" stroke="black" d="M441.25,-107.72C441.25,-107.72 441.25,-101.78 441.25,-101.78"/>
<polygon fill="black" stroke="black" points="444.75,-101.78 441.25,-91.78 437.75,-101.78 444.75,-101.78"/>
</g>
<!-- t -->
<g id="node20" class="node">
<title>t</title>
<path fill="yellow" stroke="black" d="M468.38,-32.73C468.38,-34.53 456.27,-36 441.38,-36 426.48,-36 414.38,-34.53 414.38,-32.73 414.38,-32.73 414.38,-3.27 414.38,-3.27 414.38,-1.47 426.48,0 441.38,0 456.27,0 468.38,-1.47 468.38,-3.27 468.38,-3.27 468.38,-32.73 468.38,-32.73"/>
<path fill="none" stroke="black" d="M468.38,-32.73C468.38,-30.92 456.27,-29.45 441.38,-29.45 426.48,-29.45 414.38,-30.92 414.38,-32.73"/>
<text xml:space="preserve" text-anchor="middle" x="441.38" y="-13.32" font-family="Times,serif" font-size="14.00">DDR</text>
</g>
<!-- s&#45;&gt;t -->
<g id="edge17" class="edge">
<title>s&#45;&gt;t</title>
<path fill="none" stroke="black" d="M441.25,-53.72C441.25,-53.72 441.25,-47.78 441.25,-47.78"/>
<polygon fill="black" stroke="black" points="444.75,-47.78 441.25,-37.78 437.75,-47.78 444.75,-47.78"/>
</g>
</g>
</svg>
