<?xml version="1.0" encoding="UTF-8" standalone="no"?>
<!DOCTYPE svg PUBLIC "-//W3C//DTD SVG 1.1//EN"
 "http://www.w3.org/Graphics/SVG/1.1/DTD/svg11.dtd">
<!-- Generated by graphviz version 14.1.2 (20260126.1125)
 -->
<!-- Title: board Pages: 1 -->
<svg width="618pt" height="242pt"
 viewBox="0.00 0.00 618.00 242.00" xmlns="http://www.w3.org/2000/svg" xmlns:xlink="http://www.w3.org/1999/xlink">
<g id="graph0" class="graph" transform="scale(1 1) rotate(0) translate(4 237.75)">
<title>board</title>
<polygon fill="white" stroke="none" points="-4,4 -4,-237.75 614.12,-237.75 614.12,4 -4,4"/>
<!-- n00000001 -->
<g id="node1" class="node">
<title>n00000001</title>
<path fill="green" stroke="black" d="M242,-79C242,-79 318,-79 318,-79 324,-79 330,-85 330,-91 330,-91 330,-142.75 330,-142.75 330,-148.75 324,-154.75 318,-154.75 318,-154.75 242,-154.75 242,-154.75 236,-154.75 230,-148.75 230,-142.75 230,-142.75 230,-91 230,-91 230,-85 236,-79 242,-79"/>
<text xml:space="preserve" text-anchor="middle" x="242.5" y="-137.45" font-family="Times,serif" font-size="14.00">0</text>
<polyline fill="none" stroke="black" points="255,-129.5 255,-154.75"/>
<text xml:space="preserve" text-anchor="middle" x="267.5" y="-137.45" font-family="Times,serif" font-size="14.00">1</text>
<polyline fill="none" stroke="black" points="280,-129.5 280,-154.75"/>
<text xml:space="preserve" text-anchor="middle" x="292.5" y="-137.45" font-family="Times,serif" font-size="14.00">2</text>
<polyline fill="none" stroke="black" points="305,-129.5 305,-154.75"/>
<text xml:space="preserve" text-anchor="middle" x="317.5" y="-137.45" font-family="Times,serif" font-size="14.00">7</text>
<polyline fill="none" stroke="black" points="230,-129.5 330,-129.5"/>
<text xml:space="preserve" text-anchor="middle" x="280" y="-112.2" font-family="Times,serif" font-size="14.00">pispbe</text>
<polyline fill="none" stroke="black" points="230,-104.25 330,-104.25"/>
<text xml:space="preserve" text-anchor="middle" x="242.5" y="-86.95" font-family="Times,serif" font-size="14.00">3</text>
<polyline fill="none" stroke="black" points="255,-79 255,-104.25"/>
<text xml:space="preserve" text-anchor="middle" x="267.5" y="-86.95" font-family="Times,serif" font-size="14.00">4</text>
<polyline fill="none" stroke="black" points="280,-79 280,-104.25"/>
<text xml:space="preserve" text-anchor="middle" x="292.5" y="-86.95" font-family="Times,serif" font-size="14.00">5</text>
<polyline fill="none" stroke="black" points="305,-79 305,-104.25"/>
<text xml:space="preserve" text-anchor="middle" x="317.5" y="-86.95" font-family="Times,serif" font-size="14.00">6</text>
</g>
<!-- n0000001c -->
<g id="node2" class="node">
<title>n0000001c</title>
<polygon fill="yellow" stroke="black" points="124,-42.5 0,-42.5 0,0 124,0 124,-42.5"/>
<text xml:space="preserve" text-anchor="middle" x="62" y="-25.2" font-family="Times,serif" font-size="14.00">pispbe&#45;output0</text>
<text xml:space="preserve" text-anchor="middle" x="62" y="-7.95" font-family="Times,serif" font-size="14.00">/dev/video3</text>
</g>
<!-- n00000001&#45;&gt;n0000001c -->
<g id="edge1" class="edge">
<title>n00000001:port3&#45;&gt;n0000001c</title>
<path fill="none" stroke="black" stroke-width="2" d="M229,-91.62C182.48,-91.62 133.87,-68.38 101.17,-48.81"/>
<polygon fill="black" stroke="black" stroke-width="2" points="104.47,-46.73 94.13,-44.47 100.8,-52.69 104.47,-46.73"/>
</g>
<!-- n00000022 -->
<g id="node3" class="node">
<title>n00000022</title>
<polygon fill="yellow" stroke="black" points="266,-42.5 142,-42.5 142,0 266,0 266,-42.5"/>
<text xml:space="preserve" text-anchor="middle" x="204" y="-25.2" font-family="Times,serif" font-size="14.00">pispbe&#45;output1</text>
<text xml:space="preserve" text-anchor="middle" x="204" y="-7.95" font-family="Times,serif" font-size="14.00">/dev/video4</text>
</g>
<!-- n00000001&#45;&gt;n00000022 -->
<g id="edge2" class="edge">
<title>n00000001:port4&#45;&gt;n00000022</title>
<path fill="none" stroke="black" stroke-width="2" d="M267.5,-78.5C267.5,-67.34 261.94,-57.86 254.11,-50.05"/>
<polygon fill="black" stroke="black" stroke-width="2" points="257.81,-48.61 247.94,-44.75 253.25,-53.92 257.81,-48.61"/>
</g>
<!-- n00000028 -->
<g id="node4" class="node">
<title>n00000028</title>
<polygon fill="yellow" stroke="black" points="429.88,-42.5 284.12,-42.5 284.12,0 429.88,0 429.88,-42.5"/>
<text xml:space="preserve" text-anchor="middle" x="357" y="-25.2" font-family="Times,serif" font-size="14.00">pispbe&#45;tdn_output</text>
<text xml:space="preserve" text-anchor="middle" x="357" y="-7.95" font-family="Times,serif" font-size="14.00">/dev/video5</text>
</g>
<!-- n00000001&#45;&gt;n00000028 -->
<g id="edge3" class="edge">
<title>n00000001:port5&#45;&gt;n00000028</title>
<path fill="none" stroke="black" stroke-width="2" d="M292.5,-78.5C292.5,-67.36 298.04,-57.91 305.86,-50.13"/>
<polygon fill="black" stroke="black" stroke-width="2" points="306.7,-54.02 312.03,-44.87 302.15,-48.7 306.7,-54.02"/>
</g>
<!-- n0000002e -->
<g id="node5" class="node">
<title>n0000002e</title>
<polygon fill="yellow" stroke="black" points="610.12,-42.5 447.88,-42.5 447.88,0 610.12,0 610.12,-42.5"/>
<text xml:space="preserve" text-anchor="middle" x="529" y="-25.2" font-family="Times,serif" font-size="14.00">pispbe&#45;stitch_output</text>
<text xml:space="preserve" text-anchor="middle" x="529" y="-7.95" font-family="Times,serif" font-size="14.00">/dev/video6</text>
</g>
<!-- n00000001&#45;&gt;n0000002e -->
<g id="edge4" class="edge">
<title>n00000001:port6&#45;&gt;n0000002e</title>
<path fill="none" stroke="black" stroke-width="2" d="M331,-91.62C385.67,-91.62 444.29,-67.78 483.44,-48.05"/>
<polygon fill="black" stroke="black" stroke-width="2" points="483.49,-51.96 490.77,-44.27 480.27,-45.75 483.49,-51.96"/>
</g>
<!-- n0000000a -->
<g id="node6" class="node">
<title>n0000000a</title>
<polygon fill="yellow" stroke="black" points="112.62,-233.75 7.38,-233.75 7.38,-191.25 112.62,-191.25 112.62,-233.75"/>
<text xml:space="preserve" text-anchor="middle" x="60" y="-216.45" font-family="Times,serif" font-size="14.00">pispbe&#45;input</text>
<text xml:space="preserve" text-anchor="middle" x="60" y="-199.2" font-family="Times,serif" font-size="14.00">/dev/video0</text>
</g>
<!-- n0000000a&#45;&gt;n00000001 -->
<g id="edge5" class="edge">
<title>n0000000a&#45;&gt;n00000001:port0</title>
<path fill="none" stroke="black" stroke-width="2" d="M89.94,-190.87C120.23,-171.9 169.37,-146.17 217.72,-142.55"/>
<polygon fill="black" stroke="black" stroke-width="2" points="216.12,-146.12 225.98,-142.24 215.85,-139.12 216.12,-146.12"/>
</g>
<!-- n00000010 -->
<g id="node7" class="node">
<title>n00000010</title>
<polygon fill="yellow" stroke="black" points="267,-233.75 131,-233.75 131,-191.25 267,-191.25 267,-233.75"/>
<text xml:space="preserve" text-anchor="middle" x="199" y="-216.45" font-family="Times,serif" font-size="14.00">pispbe&#45;tdn_input</text>
<text xml:space="preserve" text-anchor="middle" x="199" y="-199.2" font-family="Times,serif" font-size="14.00">/dev/video1</text>
</g>
<!-- n00000010&#45;&gt;n00000001 -->
<g id="edge6" class="edge">
<title>n00000010&#45;&gt;n00000001:port1</title>
<path fill="none" stroke="black" stroke-width="2" d="M245.07,-190.9C254.17,-184.44 262,-176.38 265.52,-166.57"/>
<polygon fill="black" stroke="black" stroke-width="2" points="268.7,-168.69 266.98,-158.23 261.81,-167.48 268.7,-168.69"/>
</g>
<!-- n00000016 -->
<g id="node8" class="node">
<title>n00000016</title>
<polygon fill="yellow" stroke="black" points="437.25,-233.75 284.75,-233.75 284.75,-191.25 437.25,-191.25 437.25,-233.75"/>
<text xml:space="preserve" text-anchor="middle" x="361" y="-216.45" font-family="Times,serif" font-size="14.00">pispbe&#45;stitch_input</text>
<text xml:space="preserve" text-anchor="middle" x="361" y="-199.2" font-family="Times,serif" font-size="14.00">/dev/video2</text>
</g>
<!-- n00000016&#45;&gt;n00000001 -->
<g id="edge7" class="edge">
<title>n00000016&#45;&gt;n00000001:port2</title>
<path fill="none" stroke="black" stroke-width="2" d="M314.93,-190.9C305.83,-184.44 298,-176.38 294.48,-166.57"/>
<polygon fill="black" stroke="black" stroke-width="2" points="298.19,-167.48 293.02,-158.23 291.3,-168.69 298.19,-167.48"/>
</g>
<!-- n00000034 -->
<g id="node9" class="node">
<title>n00000034</title>
<polygon fill="yellow" stroke="black" points="566.25,-233.75 455.75,-233.75 455.75,-191.25 566.25,-191.25 566.25,-233.75"/>
<text xml:space="preserve" text-anchor="middle" x="511" y="-216.45" font-family="Times,serif" font-size="14.00">pispbe&#45;config</text>
<text xml:space="preserve" text-anchor="middle" x="511" y="-199.2" font-family="Times,serif" font-size="14.00">/dev/video7</text>
</g>
<!-- n00000034&#45;&gt;n00000001 -->
<g id="edge8" class="edge">
<title>n00000034&#45;&gt;n00000001:port7</title>
<path fill="none" stroke="black" stroke-width="2" d="M478.93,-190.87C446.38,-171.82 393.61,-145.96 342.27,-142.51"/>
<polygon fill="black" stroke="black" stroke-width="2" points="344.14,-139.07 334.03,-142.23 343.9,-146.07 344.14,-139.07"/>
</g>
</g>
</svg>
