<?xml version="1.0" encoding="UTF-8" standalone="no"?>
<!DOCTYPE svg PUBLIC "-//W3C//DTD SVG 1.1//EN"
 "http://www.w3.org/Graphics/SVG/1.1/DTD/svg11.dtd">
<!-- Generated by graphviz version 14.1.2 (20260126.1125)
 -->
<!-- Title: board Pages: 1 -->
<svg width="1047pt" height="441pt"
 viewBox="0.00 0.00 1047.00 441.00" xmlns="http://www.w3.org/2000/svg" xmlns:xlink="http://www.w3.org/1999/xlink">
<g id="graph0" class="graph" transform="scale(1 1) rotate(0) translate(4 436.5)">
<title>board</title>
<polygon fill="white" stroke="none" points="-4,4 -4,-436.5 1042.75,-436.5 1042.75,4 -4,4"/>
<!-- n00000001 -->
<g id="node1" class="node">
<title>n00000001</title>
<path fill="green" stroke="black" d="M160,-339C160,-339 272.75,-339 272.75,-339 278.75,-339 284.75,-345 284.75,-351 284.75,-351 284.75,-420 284.75,-420 284.75,-426 278.75,-432 272.75,-432 272.75,-432 160,-432 160,-432 154,-432 148,-426 148,-420 148,-420 148,-351 148,-351 148,-345 154,-339 160,-339"/>
<text xml:space="preserve" text-anchor="middle" x="216.25" y="-414.7" font-family="Times,serif" font-size="14.00"> </text>
<polyline fill="none" stroke="black" points="148,-406.75 284.75,-406.75"/>
<text xml:space="preserve" text-anchor="middle" x="216.38" y="-389.45" font-family="Times,serif" font-size="14.00">Sensor A</text>
<text xml:space="preserve" text-anchor="middle" x="216.38" y="-372.2" font-family="Times,serif" font-size="14.00">/dev/v4l&#45;subdev0</text>
<polyline fill="none" stroke="black" points="148,-364.25 284.75,-364.25"/>
<text xml:space="preserve" text-anchor="middle" x="216" y="-346.95" font-family="Times,serif" font-size="14.00">0</text>
</g>
<!-- n00000005 -->
<g id="node2" class="node">
<title>n00000005</title>
<path fill="green" stroke="black" d="M12,-209C12,-209 124.75,-209 124.75,-209 130.75,-209 136.75,-215 136.75,-221 136.75,-221 136.75,-290 136.75,-290 136.75,-296 130.75,-302 124.75,-302 124.75,-302 12,-302 12,-302 6,-302 0,-296 0,-290 0,-290 0,-221 0,-221 0,-215 6,-209 12,-209"/>
<text xml:space="preserve" text-anchor="middle" x="68" y="-284.7" font-family="Times,serif" font-size="14.00">0</text>
<polyline fill="none" stroke="black" points="0,-276.75 136.75,-276.75"/>
<text xml:space="preserve" text-anchor="middle" x="68.38" y="-259.45" font-family="Times,serif" font-size="14.00">Debayer A</text>
<text xml:space="preserve" text-anchor="middle" x="68.38" y="-242.2" font-family="Times,serif" font-size="14.00">/dev/v4l&#45;subdev2</text>
<polyline fill="none" stroke="black" points="0,-234.25 136.75,-234.25"/>
<text xml:space="preserve" text-anchor="middle" x="68" y="-216.95" font-family="Times,serif" font-size="14.00">1</text>
</g>
<!-- n00000001&#45;&gt;n00000005 -->
<g id="edge1" class="edge">
<title>n00000001:port0&#45;&gt;n00000005:port0</title>
<path fill="none" stroke="black" stroke-width="2" d="M147,-351.62C136.55,-351.62 143.92,-316.97 142.53,-299.38"/>
<polygon fill="black" stroke="black" stroke-width="2" points="146.36,-299.08 138.46,-292.02 140.24,-302.47 146.36,-299.08"/>
</g>
<!-- n0000000b -->
<g id="node3" class="node">
<title>n0000000b</title>
<polygon fill="yellow" stroke="black" points="277.62,-276.75 155.12,-276.75 155.12,-234.25 277.62,-234.25 277.62,-276.75"/>
<text xml:space="preserve" text-anchor="middle" x="216.38" y="-259.45" font-family="Times,serif" font-size="14.00">Raw Capture 0</text>
<text xml:space="preserve" text-anchor="middle" x="216.38" y="-242.2" font-family="Times,serif" font-size="14.00">/dev/video0</text>
</g>
<!-- n00000001&#45;&gt;n0000000b -->
<g id="edge2" class="edge">
<title>n00000001:port0&#45;&gt;n0000000b</title>
<path fill="none" stroke="black" stroke-width="2" d="M216,-338.5C216,-321.99 216.08,-303.6 216.16,-288.44"/>
<polygon fill="black" stroke="black" stroke-width="2" points="219.65,-290.1 216.21,-280.08 212.65,-290.06 219.65,-290.1"/>
</g>
<!-- n00000002 -->
<g id="node4" class="node">
<title>n00000002</title>
<path fill="green" stroke="black" d="M308,-209C308,-209 420.75,-209 420.75,-209 426.75,-209 432.75,-215 432.75,-221 432.75,-221 432.75,-290 432.75,-290 432.75,-296 426.75,-302 420.75,-302 420.75,-302 308,-302 308,-302 302,-302 296,-296 296,-290 296,-290 296,-221 296,-221 296,-215 302,-209 308,-209"/>
<text xml:space="preserve" text-anchor="middle" x="364.25" y="-284.7" font-family="Times,serif" font-size="14.00"> </text>
<polyline fill="none" stroke="black" points="296,-276.75 432.75,-276.75"/>
<text xml:space="preserve" text-anchor="middle" x="364.38" y="-259.45" font-family="Times,serif" font-size="14.00">Lens A</text>
<text xml:space="preserve" text-anchor="middle" x="364.38" y="-242.2" font-family="Times,serif" font-size="14.00">/dev/v4l&#45;subdev5</text>
<polyline fill="none" stroke="black" points="296,-234.25 432.75,-234.25"/>
<text xml:space="preserve" text-anchor="middle" x="364.25" y="-216.95" font-family="Times,serif" font-size="14.00"> </text>
</g>
<!-- n00000001&#45;&gt;n00000002 -->
<g id="edge3" class="edge">
<title>n00000001&#45;&gt;n00000002</title>
<path fill="none" stroke="black" d="M269.39,-338.65C280.23,-329.28 291.72,-319.33 302.83,-309.73"/>
<polygon fill="black" stroke="black" points="304.82,-312.64 310.09,-303.45 300.24,-307.34 304.82,-312.64"/>
</g>
<!-- n00000015 -->
<g id="node9" class="node">
<title>n00000015</title>
<path fill="green" stroke="black" d="M463,-79C463,-79 575.75,-79 575.75,-79 581.75,-79 587.75,-85 587.75,-91 587.75,-91 587.75,-160 587.75,-160 587.75,-166 581.75,-172 575.75,-172 575.75,-172 463,-172 463,-172 457,-172 451,-166 451,-160 451,-160 451,-91 451,-91 451,-85 457,-79 463,-79"/>
<text xml:space="preserve" text-anchor="middle" x="519" y="-154.7" font-family="Times,serif" font-size="14.00">0</text>
<polyline fill="none" stroke="black" points="451,-146.75 587.75,-146.75"/>
<text xml:space="preserve" text-anchor="middle" x="519.38" y="-129.45" font-family="Times,serif" font-size="14.00">Scaler</text>
<text xml:space="preserve" text-anchor="middle" x="519.38" y="-112.2" font-family="Times,serif" font-size="14.00">/dev/v4l&#45;subdev5</text>
<polyline fill="none" stroke="black" points="451,-104.25 587.75,-104.25"/>
<text xml:space="preserve" text-anchor="middle" x="519" y="-86.95" font-family="Times,serif" font-size="14.00">1</text>
</g>
<!-- n00000005&#45;&gt;n00000015 -->
<g id="edge7" class="edge">
<title>n00000005:port1&#45;&gt;n00000015:port0</title>
<path fill="none" stroke="black" d="M137,-221.62C144.17,-221.62 140.28,-212.28 146.38,-208.5 201.5,-174.29 363.96,-160.76 438.78,-159.48"/>
<polygon fill="black" stroke="black" points="438.52,-162.98 448.49,-159.39 438.45,-155.98 438.52,-162.98"/>
</g>
<!-- n00000003 -->
<g id="node5" class="node">
<title>n00000003</title>
<path fill="green" stroke="black" d="M611,-339C611,-339 723.75,-339 723.75,-339 729.75,-339 735.75,-345 735.75,-351 735.75,-351 735.75,-420 735.75,-420 735.75,-426 729.75,-432 723.75,-432 723.75,-432 611,-432 611,-432 605,-432 599,-426 599,-420 599,-420 599,-351 599,-351 599,-345 605,-339 611,-339"/>
<text xml:space="preserve" text-anchor="middle" x="667.25" y="-414.7" font-family="Times,serif" font-size="14.00"> </text>
<polyline fill="none" stroke="black" points="599,-406.75 735.75,-406.75"/>
<text xml:space="preserve" text-anchor="middle" x="667.38" y="-389.45" font-family="Times,serif" font-size="14.00">Sensor B</text>
<text xml:space="preserve" text-anchor="middle" x="667.38" y="-372.2" font-family="Times,serif" font-size="14.00">/dev/v4l&#45;subdev1</text>
<polyline fill="none" stroke="black" points="599,-364.25 735.75,-364.25"/>
<text xml:space="preserve" text-anchor="middle" x="667" y="-346.95" font-family="Times,serif" font-size="14.00">0</text>
</g>
<!-- n00000008 -->
<g id="node6" class="node">
<title>n00000008</title>
<path fill="green" stroke="black" d="M463,-209C463,-209 575.75,-209 575.75,-209 581.75,-209 587.75,-215 587.75,-221 587.75,-221 587.75,-290 587.75,-290 587.75,-296 581.75,-302 575.75,-302 575.75,-302 463,-302 463,-302 457,-302 451,-296 451,-290 451,-290 451,-221 451,-221 451,-215 457,-209 463,-209"/>
<text xml:space="preserve" text-anchor="middle" x="519" y="-284.7" font-family="Times,serif" font-size="14.00">0</text>
<polyline fill="none" stroke="black" points="451,-276.75 587.75,-276.75"/>
<text xml:space="preserve" text-anchor="middle" x="519.38" y="-259.45" font-family="Times,serif" font-size="14.00">Debayer B</text>
<text xml:space="preserve" text-anchor="middle" x="519.38" y="-242.2" font-family="Times,serif" font-size="14.00">/dev/v4l&#45;subdev3</text>
<polyline fill="none" stroke="black" points="451,-234.25 587.75,-234.25"/>
<text xml:space="preserve" text-anchor="middle" x="519" y="-216.95" font-family="Times,serif" font-size="14.00">1</text>
</g>
<!-- n00000003&#45;&gt;n00000008 -->
<g id="edge4" class="edge">
<title>n00000003:port0&#45;&gt;n00000008:port0</title>
<path fill="none" stroke="black" stroke-width="2" d="M598,-351.62C587.55,-351.62 594.92,-316.97 593.53,-299.38"/>
<polygon fill="black" stroke="black" stroke-width="2" points="597.36,-299.08 589.46,-292.02 591.24,-302.47 597.36,-299.08"/>
</g>
<!-- n0000000f -->
<g id="node7" class="node">
<title>n0000000f</title>
<polygon fill="yellow" stroke="black" points="728.62,-276.75 606.12,-276.75 606.12,-234.25 728.62,-234.25 728.62,-276.75"/>
<text xml:space="preserve" text-anchor="middle" x="667.38" y="-259.45" font-family="Times,serif" font-size="14.00">Raw Capture 1</text>
<text xml:space="preserve" text-anchor="middle" x="667.38" y="-242.2" font-family="Times,serif" font-size="14.00">/dev/video1</text>
</g>
<!-- n00000003&#45;&gt;n0000000f -->
<g id="edge5" class="edge">
<title>n00000003:port0&#45;&gt;n0000000f</title>
<path fill="none" stroke="black" stroke-width="2" d="M667,-338.5C667,-321.99 667.08,-303.6 667.16,-288.44"/>
<polygon fill="black" stroke="black" stroke-width="2" points="670.65,-290.1 667.21,-280.08 663.65,-290.06 670.65,-290.1"/>
</g>
<!-- n00000004 -->
<g id="node8" class="node">
<title>n00000004</title>
<path fill="green" stroke="black" d="M759,-209C759,-209 871.75,-209 871.75,-209 877.75,-209 883.75,-215 883.75,-221 883.75,-221 883.75,-290 883.75,-290 883.75,-296 877.75,-302 871.75,-302 871.75,-302 759,-302 759,-302 753,-302 747,-296 747,-290 747,-290 747,-221 747,-221 747,-215 753,-209 759,-209"/>
<text xml:space="preserve" text-anchor="middle" x="815.25" y="-284.7" font-family="Times,serif" font-size="14.00"> </text>
<polyline fill="none" stroke="black" points="747,-276.75 883.75,-276.75"/>
<text xml:space="preserve" text-anchor="middle" x="815.38" y="-259.45" font-family="Times,serif" font-size="14.00">Lens B</text>
<text xml:space="preserve" text-anchor="middle" x="815.38" y="-242.2" font-family="Times,serif" font-size="14.00">/dev/v4l&#45;subdev6</text>
<polyline fill="none" stroke="black" points="747,-234.25 883.75,-234.25"/>
<text xml:space="preserve" text-anchor="middle" x="815.25" y="-216.95" font-family="Times,serif" font-size="14.00"> </text>
</g>
<!-- n00000003&#45;&gt;n00000004 -->
<g id="edge6" class="edge">
<title>n00000003&#45;&gt;n00000004</title>
<path fill="none" stroke="black" d="M720.39,-338.65C731.23,-329.28 742.72,-319.33 753.83,-309.73"/>
<polygon fill="black" stroke="black" points="755.82,-312.64 761.09,-303.45 751.24,-307.34 755.82,-312.64"/>
</g>
<!-- n00000008&#45;&gt;n00000015 -->
<g id="edge8" class="edge">
<title>n00000008:port1&#45;&gt;n00000015:port0</title>
<path fill="none" stroke="black" stroke-dasharray="5,2" d="M519,-208.5C519,-197.12 519,-191.82 519,-183.95"/>
<polygon fill="black" stroke="black" points="522.5,-184.01 519,-174.01 515.5,-184.01 522.5,-184.01"/>
</g>
<!-- n00000018 -->
<g id="node11" class="node">
<title>n00000018</title>
<polygon fill="yellow" stroke="black" points="592.25,-42.5 446.5,-42.5 446.5,0 592.25,0 592.25,-42.5"/>
<text xml:space="preserve" text-anchor="middle" x="519.38" y="-25.2" font-family="Times,serif" font-size="14.00">RGB/YUV Capture</text>
<text xml:space="preserve" text-anchor="middle" x="519.38" y="-7.95" font-family="Times,serif" font-size="14.00">/dev/video2</text>
</g>
<!-- n00000015&#45;&gt;n00000018 -->
<g id="edge10" class="edge">
<title>n00000015:port1&#45;&gt;n00000018</title>
<path fill="none" stroke="black" stroke-width="2" d="M519,-78.5C519,-70.65 519.04,-62.19 519.09,-54.27"/>
<polygon fill="black" stroke="black" stroke-width="2" points="522.58,-55.87 519.15,-45.85 515.58,-55.82 522.58,-55.87"/>
</g>
<!-- n00000013 -->
<g id="node10" class="node">
<title>n00000013</title>
<path fill="green" stroke="black" d="M914,-209C914,-209 1026.75,-209 1026.75,-209 1032.75,-209 1038.75,-215 1038.75,-221 1038.75,-221 1038.75,-290 1038.75,-290 1038.75,-296 1032.75,-302 1026.75,-302 1026.75,-302 914,-302 914,-302 908,-302 902,-296 902,-290 902,-290 902,-221 902,-221 902,-215 908,-209 914,-209"/>
<text xml:space="preserve" text-anchor="middle" x="970.25" y="-284.7" font-family="Times,serif" font-size="14.00"> </text>
<polyline fill="none" stroke="black" points="902,-276.75 1038.75,-276.75"/>
<text xml:space="preserve" text-anchor="middle" x="970.38" y="-259.45" font-family="Times,serif" font-size="14.00">RGB/YUV Input</text>
<text xml:space="preserve" text-anchor="middle" x="970.38" y="-242.2" font-family="Times,serif" font-size="14.00">/dev/v4l&#45;subdev4</text>
<polyline fill="none" stroke="black" points="902,-234.25 1038.75,-234.25"/>
<text xml:space="preserve" text-anchor="middle" x="970" y="-216.95" font-family="Times,serif" font-size="14.00">0</text>
</g>
<!-- n00000013&#45;&gt;n00000015 -->
<g id="edge9" class="edge">
<title>n00000013:port0&#45;&gt;n00000015:port0</title>
<path fill="none" stroke="black" stroke-dasharray="5,2" d="M901,-221.62C894.02,-221.62 898.23,-212.29 892.38,-208.5 837.79,-173.15 674.32,-160.65 599.26,-159.47"/>
<polygon fill="black" stroke="black" points="599.54,-155.97 589.51,-159.39 599.48,-162.97 599.54,-155.97"/>
</g>
</g>
</svg>
