<?xml version="1.0" encoding="UTF-8" standalone="no"?>
<!DOCTYPE svg PUBLIC "-//W3C//DTD SVG 1.1//EN"
 "http://www.w3.org/Graphics/SVG/1.1/DTD/svg11.dtd">
<!-- Generated by graphviz version 14.1.2 (20260126.1125)
 -->
<!-- Title: decoder_state_machine Pages: 1 -->
<svg width="1392pt" height="1151pt"
 viewBox="0.00 0.00 1392.00 1151.00" xmlns="http://www.w3.org/2000/svg" xmlns:xlink="http://www.w3.org/1999/xlink">
<g id="graph0" class="graph" transform="scale(1 1) rotate(0) translate(4 1146.68)">
<title>decoder_state_machine</title>
<polygon fill="white" stroke="none" points="-4,4 -4,-1146.68 1388.21,-1146.68 1388.21,4 -4,4"/>
<!-- Decoding -->
<g id="node1" class="node">
<title>Decoding</title>
<ellipse fill="none" stroke="black" cx="633.46" cy="-1080.64" rx="58.05" ry="58.05"/>
<ellipse fill="none" stroke="black" cx="633.46" cy="-1080.64" rx="62.05" ry="62.05"/>
<text xml:space="preserve" text-anchor="middle" x="633.46" y="-1075.96" font-family="Times,serif" font-size="14.00">Decoding</text>
</g>
<!-- Decoding&#45;&gt;Decoding -->
<g id="edge9" class="edge">
<title>Decoding&#45;&gt;Decoding</title>
<path fill="none" stroke="black" d="M692.81,-1099.74C704.87,-1097.66 713.51,-1091.29 713.51,-1080.64 713.51,-1073.48 709.61,-1068.25 703.39,-1064.97"/>
<polygon fill="black" stroke="black" points="704.84,-1061.76 694.25,-1062 702.68,-1068.41 704.84,-1061.76"/>
</g>
<!-- ResChange -->
<g id="node4" class="node">
<title>ResChange</title>
<ellipse fill="none" stroke="black" cx="238.46" cy="-847.01" rx="64.88" ry="64.88"/>
<text xml:space="preserve" text-anchor="middle" x="238.46" y="-859.59" font-family="Times,serif" font-size="14.00">Dynamic</text>
<text xml:space="preserve" text-anchor="middle" x="238.46" y="-842.34" font-family="Times,serif" font-size="14.00">Resolution</text>
<text xml:space="preserve" text-anchor="middle" x="238.46" y="-825.09" font-family="Times,serif" font-size="14.00">Change</text>
</g>
<!-- Decoding&#45;&gt;ResChange -->
<g id="edge4" class="edge">
<title>Decoding&#45;&gt;ResChange</title>
<path fill="none" stroke="black" d="M571.21,-1075.72C473.52,-1068.18 291.03,-1047.99 249.46,-1000.59 230.99,-979.53 225.88,-949.92 226.24,-922.39"/>
<polygon fill="black" stroke="black" points="229.73,-922.8 226.63,-912.67 222.74,-922.52 229.73,-922.8"/>
<text xml:space="preserve" text-anchor="middle" x="285.46" y="-987.29" font-family="Times,serif" font-size="14.00">Stream</text>
<text xml:space="preserve" text-anchor="middle" x="285.46" y="-970.04" font-family="Times,serif" font-size="14.00">resolution</text>
<text xml:space="preserve" text-anchor="middle" x="285.46" y="-952.79" font-family="Times,serif" font-size="14.00">change</text>
</g>
<!-- Stopped -->
<g id="node5" class="node">
<title>Stopped</title>
<ellipse fill="none" stroke="black" cx="590.46" cy="-413.35" rx="52.79" ry="52.79"/>
<text xml:space="preserve" text-anchor="middle" x="590.46" y="-408.67" font-family="Times,serif" font-size="14.00">Stopped</text>
</g>
<!-- Decoding&#45;&gt;Stopped -->
<g id="edge8" class="edge">
<title>Decoding&#45;&gt;Stopped</title>
<path fill="none" stroke="black" d="M586.97,-1039.13C524.54,-981.3 416.58,-868.35 374.46,-745.18 367.02,-723.42 358.98,-710.44 374.46,-693.43 403.31,-661.75 536.19,-705.76 566.46,-675.43 593.25,-648.6 595.34,-546.1 593.52,-477.8"/>
<polygon fill="black" stroke="black" points="597.02,-477.71 593.22,-467.82 590.03,-477.92 597.02,-477.71"/>
<text xml:space="preserve" text-anchor="middle" x="492.96" y="-714.63" font-family="Times,serif" font-size="14.00">VIDIOC_STREAMOFF(CAPTURE)</text>
</g>
<!-- Drain -->
<g id="node6" class="node">
<title>Drain</title>
<ellipse fill="none" stroke="black" cx="893.46" cy="-623.29" rx="39.11" ry="39.11"/>
<text xml:space="preserve" text-anchor="middle" x="893.46" y="-618.61" font-family="Times,serif" font-size="14.00">Drain</text>
</g>
<!-- Decoding&#45;&gt;Drain -->
<g id="edge5" class="edge">
<title>Decoding&#45;&gt;Drain</title>
<path fill="none" stroke="black" d="M647.73,-1019.95C668.02,-948.17 712.23,-829.13 794.46,-763.18 819.52,-743.09 841.93,-768.08 864.46,-745.18 882.82,-726.52 890.29,-698.4 893.07,-673.98"/>
<polygon fill="black" stroke="black" points="896.54,-674.48 893.93,-664.21 889.57,-673.87 896.54,-674.48"/>
<text xml:space="preserve" text-anchor="middle" x="876.96" y="-842.34" font-family="Times,serif" font-size="14.00">V4L2_DEC_CMD_STOP</text>
</g>
<!-- Seek -->
<g id="node7" class="node">
<title>Seek</title>
<ellipse fill="none" stroke="black" cx="429.46" cy="-237.39" rx="35.42" ry="35.42"/>
<text xml:space="preserve" text-anchor="middle" x="429.46" y="-232.71" font-family="Times,serif" font-size="14.00">Seek</text>
</g>
<!-- Decoding&#45;&gt;Seek -->
<g id="edge7" class="edge">
<title>Decoding&#45;&gt;Seek</title>
<path fill="none" stroke="black" d="M574.05,-1061.66C514.57,-1040.42 425.36,-999.05 378.46,-930.84 332.85,-864.5 308.76,-647.17 335.21,-571.14 338.56,-561.5 344.94,-562.28 349.46,-553.14 393.81,-463.45 415.12,-346.87 424.02,-283.77"/>
<polygon fill="black" stroke="black" points="427.45,-284.51 425.33,-274.13 420.51,-283.56 427.45,-284.51"/>
<text xml:space="preserve" text-anchor="middle" x="448.84" y="-618.61" font-family="Times,serif" font-size="14.00">VIDIOC_STREAMOFF(OUTPUT)</text>
</g>
<!-- EoS -->
<g id="node8" class="node">
<title>EoS</title>
<ellipse fill="none" stroke="black" cx="1052.46" cy="-847.01" rx="83.83" ry="83.83"/>
<text xml:space="preserve" text-anchor="middle" x="1052.46" y="-842.34" font-family="Times,serif" font-size="14.00">End of Stream</text>
</g>
<!-- Decoding&#45;&gt;EoS -->
<g id="edge6" class="edge">
<title>Decoding&#45;&gt;EoS</title>
<path fill="none" stroke="black" d="M691.52,-1058.19C757.73,-1032.52 867.98,-986.01 954.46,-930.84 963.69,-924.95 972.98,-918.28 981.98,-911.33"/>
<polygon fill="black" stroke="black" points="984,-914.19 989.67,-905.25 979.66,-908.7 984,-914.19"/>
<text xml:space="preserve" text-anchor="middle" x="969.7" y="-978.66" font-family="Times,serif" font-size="14.00">EoS mark</text>
<text xml:space="preserve" text-anchor="middle" x="969.7" y="-961.41" font-family="Times,serif" font-size="14.00">in the stream</text>
</g>
<!-- Initialization -->
<g id="node2" class="node">
<title>Initialization</title>
<ellipse fill="none" stroke="black" cx="319.46" cy="-74.36" rx="74.36" ry="74.36"/>
<text xml:space="preserve" text-anchor="middle" x="319.46" y="-69.68" font-family="Times,serif" font-size="14.00">Initialization</text>
</g>
<!-- CaptureSetup -->
<g id="node3" class="node">
<title>CaptureSetup</title>
<ellipse fill="none" stroke="black" cx="243.46" cy="-623.29" rx="52.15" ry="52.15"/>
<text xml:space="preserve" text-anchor="middle" x="243.46" y="-627.24" font-family="Times,serif" font-size="14.00">Capture</text>
<text xml:space="preserve" text-anchor="middle" x="243.46" y="-609.99" font-family="Times,serif" font-size="14.00">setup</text>
</g>
<!-- Initialization&#45;&gt;CaptureSetup -->
<g id="edge2" class="edge">
<title>Initialization&#45;&gt;CaptureSetup</title>
<path fill="none" stroke="black" d="M299.39,-146.11C288.32,-187.87 275.31,-241.97 267.71,-290.81 253.24,-383.79 247.37,-492.81 245.01,-559.71"/>
<polygon fill="black" stroke="black" points="241.52,-559.26 244.68,-569.37 248.52,-559.5 241.52,-559.26"/>
<text xml:space="preserve" text-anchor="middle" x="308.59" y="-329.26" font-family="Times,serif" font-size="14.00">CAPTURE</text>
<text xml:space="preserve" text-anchor="middle" x="308.59" y="-312.01" font-family="Times,serif" font-size="14.00">format</text>
<text xml:space="preserve" text-anchor="middle" x="308.59" y="-294.76" font-family="Times,serif" font-size="14.00">established</text>
</g>
<!-- CaptureSetup&#45;&gt;Stopped -->
<g id="edge3" class="edge">
<title>CaptureSetup&#45;&gt;Stopped</title>
<path fill="none" stroke="black" d="M284.73,-590.91C294.04,-584.18 303.98,-577.26 313.46,-571.14 387.71,-523.23 477.27,-474 534.05,-443.79"/>
<polygon fill="black" stroke="black" points="535.38,-447.05 542.58,-439.27 532.1,-440.86 535.38,-447.05"/>
<text xml:space="preserve" text-anchor="middle" x="491.15" y="-531.21" font-family="Times,serif" font-size="14.00">CAPTURE</text>
<text xml:space="preserve" text-anchor="middle" x="491.15" y="-513.96" font-family="Times,serif" font-size="14.00">buffers</text>
<text xml:space="preserve" text-anchor="middle" x="491.15" y="-496.71" font-family="Times,serif" font-size="14.00">ready</text>
</g>
<!-- ResChange&#45;&gt;CaptureSetup -->
<g id="edge10" class="edge">
<title>ResChange&#45;&gt;CaptureSetup</title>
<path fill="none" stroke="black" d="M238.33,-781.78C238.45,-754.53 238.81,-722.43 239.71,-693.43 239.78,-691.36 239.85,-689.25 239.93,-687.13"/>
<polygon fill="black" stroke="black" points="243.43,-687.28 240.35,-677.14 236.43,-686.99 243.43,-687.28"/>
<text xml:space="preserve" text-anchor="middle" x="280.59" y="-731.88" font-family="Times,serif" font-size="14.00">CAPTURE</text>
<text xml:space="preserve" text-anchor="middle" x="280.59" y="-714.63" font-family="Times,serif" font-size="14.00">format</text>
<text xml:space="preserve" text-anchor="middle" x="280.59" y="-697.38" font-family="Times,serif" font-size="14.00">established</text>
</g>
<!-- ResChange&#45;&gt;Seek -->
<g id="edge11" class="edge">
<title>ResChange&#45;&gt;Seek</title>
<path fill="none" stroke="black" d="M185.61,-808.7C101.88,-744.69 -45.94,-608.78 14.21,-484.14 85.6,-336.21 291.23,-270.72 383.58,-248.17"/>
<polygon fill="black" stroke="black" points="384.14,-251.63 393.06,-245.91 382.52,-244.82 384.14,-251.63"/>
<text xml:space="preserve" text-anchor="middle" x="127.84" y="-513.96" font-family="Times,serif" font-size="14.00">VIDIOC_STREAMOFF(OUTPUT)</text>
</g>
<!-- Stopped&#45;&gt;Decoding -->
<g id="edge17" class="edge">
<title>Stopped&#45;&gt;Decoding</title>
<path fill="none" stroke="black" d="M603.98,-464.82C605.35,-471.28 606.57,-477.84 607.46,-484.14 634.09,-671.34 635.95,-894.69 634.84,-1007.21"/>
<polygon fill="black" stroke="black" points="631.34,-1006.86 634.73,-1016.89 638.34,-1006.93 631.34,-1006.86"/>
<text xml:space="preserve" text-anchor="middle" x="744.88" y="-731.88" font-family="Times,serif" font-size="14.00">V4L2_DEC_CMD_START</text>
<text xml:space="preserve" text-anchor="middle" x="744.88" y="-714.63" font-family="Times,serif" font-size="14.00">or</text>
<text xml:space="preserve" text-anchor="middle" x="744.88" y="-697.38" font-family="Times,serif" font-size="14.00">VIDIOC_STREAMON(CAPTURE)</text>
</g>
<!-- Stopped&#45;&gt;Seek -->
<g id="edge18" class="edge">
<title>Stopped&#45;&gt;Seek</title>
<path fill="none" stroke="black" d="M555.13,-374.17C526.99,-343.77 487.97,-301.6 460.9,-272.36"/>
<polygon fill="black" stroke="black" points="463.65,-270.17 454.28,-265.21 458.51,-274.93 463.65,-270.17"/>
<text xml:space="preserve" text-anchor="middle" x="638.01" y="-312.01" font-family="Times,serif" font-size="14.00">VIDIOC_STREAMOFF(OUTPUT)</text>
</g>
<!-- Drain&#45;&gt;Stopped -->
<g id="edge13" class="edge">
<title>Drain&#45;&gt;Stopped</title>
<path fill="none" stroke="black" d="M854.3,-621.45C802.68,-618.23 712.17,-604.97 658.46,-553.14 635.2,-530.69 649.44,-513.28 635.46,-484.14 632.71,-478.39 629.56,-472.55 626.24,-466.81"/>
<polygon fill="black" stroke="black" points="629.46,-465.37 621.31,-458.6 623.46,-468.98 629.46,-465.37"/>
<text xml:space="preserve" text-anchor="middle" x="776.96" y="-539.84" font-family="Times,serif" font-size="14.00">All CAPTURE</text>
<text xml:space="preserve" text-anchor="middle" x="776.96" y="-522.59" font-family="Times,serif" font-size="14.00">buffers dequeued</text>
<text xml:space="preserve" text-anchor="middle" x="776.96" y="-505.34" font-family="Times,serif" font-size="14.00">or</text>
<text xml:space="preserve" text-anchor="middle" x="776.96" y="-488.09" font-family="Times,serif" font-size="14.00">VIDIOC_STREAMOFF(CAPTURE)</text>
</g>
<!-- Drain&#45;&gt;Seek -->
<g id="edge14" class="edge">
<title>Drain&#45;&gt;Seek</title>
<path fill="none" stroke="black" d="M900.47,-584.37C904.17,-556.05 906.04,-516.77 895.46,-484.14 862.76,-383.22 847.69,-343.24 755.46,-290.81 716.67,-268.76 599.38,-280.72 555.46,-272.81 528.1,-267.88 498.05,-259.78 474.17,-252.68"/>
<polygon fill="black" stroke="black" points="475.35,-249.38 464.76,-249.83 473.32,-256.08 475.35,-249.38"/>
<text xml:space="preserve" text-anchor="middle" x="1002.75" y="-408.67" font-family="Times,serif" font-size="14.00">VIDIOC_STREAMOFF(OUTPUT)</text>
</g>
<!-- Seek&#45;&gt;Decoding -->
<g id="edge15" class="edge">
<title>Seek&#45;&gt;Decoding</title>
<path fill="none" stroke="black" d="M463.02,-249.48C488.18,-257.32 523.61,-267.36 555.46,-272.81 692.31,-296.22 1164.46,-273.51 1164.46,-412.35 1164.46,-848.01 1164.46,-848.01 1164.46,-848.01 1164.46,-885.78 1168.08,-900.59 1145.46,-930.84 1107.6,-981.48 1080.71,-978.51 1021.46,-1000.59 915.7,-1040 786.02,-1061.37 706.59,-1071.63"/>
<polygon fill="black" stroke="black" points="706.23,-1068.15 696.74,-1072.88 707.1,-1075.09 706.23,-1068.15"/>
<text xml:space="preserve" text-anchor="middle" x="1274.34" y="-618.61" font-family="Times,serif" font-size="14.00">VIDIOC_STREAMON(OUTPUT)</text>
</g>
<!-- Seek&#45;&gt;Initialization -->
<g id="edge16" class="edge">
<title>Seek&#45;&gt;Initialization</title>
<path fill="none" stroke="black" d="M394.63,-229.65C369.46,-222.78 337.15,-209.37 320.96,-183.96 316.22,-176.53 313.17,-168.18 311.33,-159.51"/>
<polygon fill="black" stroke="black" points="314.84,-159.25 309.86,-149.9 307.92,-160.31 314.84,-159.25"/>
<text xml:space="preserve" text-anchor="middle" x="432.71" y="-170.66" font-family="Times,serif" font-size="14.00">VIDIOC_REQBUFS(OUTPUT, 0)</text>
</g>
<!-- EoS&#45;&gt;Drain -->
<g id="edge12" class="edge">
<title>EoS&#45;&gt;Drain</title>
<path fill="none" stroke="black" d="M1003.89,-778.28C977.21,-741.07 945.02,-696.19 922.3,-664.5"/>
<polygon fill="black" stroke="black" points="925.41,-662.84 916.74,-656.75 919.73,-666.92 925.41,-662.84"/>
<text xml:space="preserve" text-anchor="middle" x="1005.1" y="-723.26" font-family="Times,serif" font-size="14.00">Implicit</text>
<text xml:space="preserve" text-anchor="middle" x="1005.1" y="-706.01" font-family="Times,serif" font-size="14.00">drain</text>
</g>
<!-- qi -->
<g id="node9" class="node">
<title>qi</title>
<ellipse fill="black" stroke="black" cx="566.46" cy="-237.39" rx="1.8" ry="1.8"/>
</g>
<!-- qi&#45;&gt;Initialization -->
<g id="edge1" class="edge">
<title>qi&#45;&gt;Initialization</title>
<path fill="none" stroke="black" d="M566.44,-235.24C566.27,-227.99 564.42,-188.34 544.46,-166.71 507.65,-126.84 450.97,-103.97 403.71,-91.08"/>
<polygon fill="black" stroke="black" points="404.88,-87.77 394.32,-88.63 403.11,-94.54 404.88,-87.77"/>
<text xml:space="preserve" text-anchor="middle" x="577.71" y="-170.66" font-family="Times,serif" font-size="14.00">open()</text>
</g>
</g>
</svg>
