<?xml version="1.0" encoding="UTF-8" standalone="no"?>
<!DOCTYPE svg PUBLIC "-//W3C//DTD SVG 1.1//EN"
 "http://www.w3.org/Graphics/SVG/1.1/DTD/svg11.dtd">
<!-- Generated by graphviz version 14.1.2 (20260126.1125)
 -->
<!-- Pages: 1 -->
<svg width="338pt" height="116pt"
 viewBox="0.00 0.00 338.00 116.00" xmlns="http://www.w3.org/2000/svg" xmlns:xlink="http://www.w3.org/1999/xlink">
<g id="graph0" class="graph" transform="scale(1 1) rotate(0) translate(4 112)">
<polygon fill="white" stroke="none" points="-4,4 -4,-112 333.88,-112 333.88,4 -4,4"/>
<!-- drm_property A -->
<g id="node1" class="node">
<title>drm_property A</title>
<polygon fill="none" stroke="black" points="302,-108 173.5,-108 173.5,-72 302,-72 302,-108"/>
<text xml:space="preserve" text-anchor="middle" x="237.75" y="-85.33" font-family="Times,serif" font-size="14.00">drm_property A</text>
</g>
<!-- drm_mode_object A -->
<g id="node2" class="node">
<title>drm_mode_object A</title>
<polygon fill="none" stroke="black" points="155.5,-36 0,-36 0,0 155.5,0 155.5,-36"/>
<text xml:space="preserve" text-anchor="middle" x="77.75" y="-13.32" font-family="Times,serif" font-size="14.00">drm_mode_object A</text>
</g>
<!-- drm_property A&#45;&gt;drm_mode_object A -->
<g id="edge1" class="edge">
<title>drm_property A&#45;&gt;drm_mode_object A</title>
<path fill="none" stroke="black" d="M197.79,-71.52C176.61,-62.25 150.4,-50.78 127.87,-40.93"/>
<polygon fill="black" stroke="black" points="129.43,-37.79 118.87,-36.99 126.62,-44.2 129.43,-37.79"/>
</g>
<!-- drm_mode_object B -->
<g id="node3" class="node">
<title>drm_mode_object B</title>
<polygon fill="none" stroke="black" points="329.88,-36 173.62,-36 173.62,0 329.88,0 329.88,-36"/>
<text xml:space="preserve" text-anchor="middle" x="251.75" y="-13.32" font-family="Times,serif" font-size="14.00">drm_mode_object B</text>
</g>
<!-- drm_property A&#45;&gt;drm_mode_object B -->
<g id="edge2" class="edge">
<title>drm_property A&#45;&gt;drm_mode_object B</title>
<path fill="none" stroke="black" d="M241.21,-71.7C242.69,-64.32 244.45,-55.52 246.1,-47.25"/>
<polygon fill="black" stroke="black" points="249.5,-48.08 248.03,-37.59 242.64,-46.71 249.5,-48.08"/>
</g>
<!-- drm_property B -->
<g id="node4" class="node">
<title>drm_property B</title>
<polygon fill="none" stroke="black" points="142.38,-108 13.12,-108 13.12,-72 142.38,-72 142.38,-108"/>
<text xml:space="preserve" text-anchor="middle" x="77.75" y="-85.33" font-family="Times,serif" font-size="14.00">drm_property B</text>
</g>
<!-- drm_property B&#45;&gt;drm_mode_object A -->
<g id="edge3" class="edge">
<title>drm_property B&#45;&gt;drm_mode_object A</title>
<path fill="none" stroke="black" d="M77.75,-71.7C77.75,-64.41 77.75,-55.73 77.75,-47.54"/>
<polygon fill="black" stroke="black" points="81.25,-47.62 77.75,-37.62 74.25,-47.62 81.25,-47.62"/>
</g>
</g>
</svg>
