<?xml version="1.0" encoding="UTF-8" standalone="no"?>
<!DOCTYPE svg PUBLIC "-//W3C//DTD SVG 1.1//EN"
 "http://www.w3.org/Graphics/SVG/1.1/DTD/svg11.dtd">
<!-- Generated by graphviz version 14.1.2 (20260126.1125)
 -->
<!-- Title: board Pages: 1 -->
<svg width="520pt" height="441pt"
 viewBox="0.00 0.00 520.00 441.00" xmlns="http://www.w3.org/2000/svg" xmlns:xlink="http://www.w3.org/1999/xlink">
<g id="graph0" class="graph" transform="scale(1 1) rotate(0) translate(4 436.5)">
<title>board</title>
<polygon fill="white" stroke="none" points="-4,4 -4,-436.5 516.25,-436.5 516.25,4 -4,4"/>
<!-- n00000001 -->
<g id="node1" class="node">
<title>n00000001</title>
<path fill="green" stroke="black" d="M278.38,-209C278.38,-209 391.12,-209 391.12,-209 397.12,-209 403.12,-215 403.12,-221 403.12,-221 403.12,-290 403.12,-290 403.12,-296 397.12,-302 391.12,-302 391.12,-302 278.38,-302 278.38,-302 272.38,-302 266.38,-296 266.38,-290 266.38,-290 266.38,-221 266.38,-221 266.38,-215 272.38,-209 278.38,-209"/>
<text xml:space="preserve" text-anchor="middle" x="300.38" y="-284.7" font-family="Times,serif" font-size="14.00">0</text>
<polyline fill="none" stroke="black" points="334.38,-276.75 334.38,-302"/>
<text xml:space="preserve" text-anchor="middle" x="368.38" y="-284.7" font-family="Times,serif" font-size="14.00">1</text>
<polyline fill="none" stroke="black" points="266.38,-276.75 403.12,-276.75"/>
<text xml:space="preserve" text-anchor="middle" x="334.75" y="-259.45" font-family="Times,serif" font-size="14.00">rkisp1_isp</text>
<text xml:space="preserve" text-anchor="middle" x="334.75" y="-242.2" font-family="Times,serif" font-size="14.00">/dev/v4l&#45;subdev0</text>
<polyline fill="none" stroke="black" points="266.38,-234.25 403.12,-234.25"/>
<text xml:space="preserve" text-anchor="middle" x="300.38" y="-216.95" font-family="Times,serif" font-size="14.00">2</text>
<polyline fill="none" stroke="black" points="334.38,-209 334.38,-234.25"/>
<text xml:space="preserve" text-anchor="middle" x="368.38" y="-216.95" font-family="Times,serif" font-size="14.00">3</text>
</g>
<!-- n00000006 -->
<g id="node2" class="node">
<title>n00000006</title>
<path fill="green" stroke="black" d="M12,-79C12,-79 179.5,-79 179.5,-79 185.5,-79 191.5,-85 191.5,-91 191.5,-91 191.5,-160 191.5,-160 191.5,-166 185.5,-172 179.5,-172 179.5,-172 12,-172 12,-172 6,-172 0,-166 0,-160 0,-160 0,-91 0,-91 0,-85 6,-79 12,-79"/>
<text xml:space="preserve" text-anchor="middle" x="95.5" y="-154.7" font-family="Times,serif" font-size="14.00">0</text>
<polyline fill="none" stroke="black" points="0,-146.75 191.5,-146.75"/>
<text xml:space="preserve" text-anchor="middle" x="95.75" y="-129.45" font-family="Times,serif" font-size="14.00">rkisp1_resizer_mainpath</text>
<text xml:space="preserve" text-anchor="middle" x="95.75" y="-112.2" font-family="Times,serif" font-size="14.00">/dev/v4l&#45;subdev1</text>
<polyline fill="none" stroke="black" points="0,-104.25 191.5,-104.25"/>
<text xml:space="preserve" text-anchor="middle" x="95.5" y="-86.95" font-family="Times,serif" font-size="14.00">1</text>
</g>
<!-- n00000001&#45;&gt;n00000006 -->
<g id="edge1" class="edge">
<title>n00000001:port2&#45;&gt;n00000006:port0</title>
<path fill="none" stroke="black" d="M265.38,-221.62C229.3,-221.62 225.46,-198.79 200.75,-172.5 199.7,-171.38 199.03,-170.13 198.54,-168.84"/>
<polygon fill="black" stroke="black" points="201.42,-166.86 192.86,-160.62 195.66,-170.84 201.42,-166.86"/>
</g>
<!-- n00000009 -->
<g id="node3" class="node">
<title>n00000009</title>
<path fill="green" stroke="black" d="M221.88,-79C221.88,-79 379.62,-79 379.62,-79 385.62,-79 391.62,-85 391.62,-91 391.62,-91 391.62,-160 391.62,-160 391.62,-166 385.62,-172 379.62,-172 379.62,-172 221.88,-172 221.88,-172 215.88,-172 209.88,-166 209.88,-160 209.88,-160 209.88,-91 209.88,-91 209.88,-85 215.88,-79 221.88,-79"/>
<text xml:space="preserve" text-anchor="middle" x="300.38" y="-154.7" font-family="Times,serif" font-size="14.00">0</text>
<polyline fill="none" stroke="black" points="209.88,-146.75 391.62,-146.75"/>
<text xml:space="preserve" text-anchor="middle" x="300.75" y="-129.45" font-family="Times,serif" font-size="14.00">rkisp1_resizer_selfpath</text>
<text xml:space="preserve" text-anchor="middle" x="300.75" y="-112.2" font-family="Times,serif" font-size="14.00">/dev/v4l&#45;subdev2</text>
<polyline fill="none" stroke="black" points="209.88,-104.25 391.62,-104.25"/>
<text xml:space="preserve" text-anchor="middle" x="300.38" y="-86.95" font-family="Times,serif" font-size="14.00">1</text>
</g>
<!-- n00000001&#45;&gt;n00000009 -->
<g id="edge2" class="edge">
<title>n00000001:port2&#45;&gt;n00000009:port0</title>
<path fill="none" stroke="black" d="M300.38,-208.5C300.38,-197.12 300.38,-191.82 300.38,-183.95"/>
<polygon fill="black" stroke="black" points="303.88,-184.01 300.38,-174.01 296.88,-184.01 303.88,-184.01"/>
</g>
<!-- n00000014 -->
<g id="node4" class="node">
<title>n00000014</title>
<polygon fill="yellow" stroke="black" points="512.25,-146.75 409.25,-146.75 409.25,-104.25 512.25,-104.25 512.25,-146.75"/>
<text xml:space="preserve" text-anchor="middle" x="460.75" y="-129.45" font-family="Times,serif" font-size="14.00">rkisp1_stats</text>
<text xml:space="preserve" text-anchor="middle" x="460.75" y="-112.2" font-family="Times,serif" font-size="14.00">/dev/video2</text>
</g>
<!-- n00000001&#45;&gt;n00000014 -->
<g id="edge3" class="edge">
<title>n00000001:port3&#45;&gt;n00000014</title>
<path fill="none" stroke="black" stroke-width="2" d="M403.38,-221.62C433.58,-221.62 448.3,-186.02 455.18,-158.37"/>
<polygon fill="black" stroke="black" stroke-width="2" points="458.27,-160.62 457.02,-150.1 451.43,-159.1 458.27,-160.62"/>
</g>
<!-- n0000000c -->
<g id="node5" class="node">
<title>n0000000c</title>
<polygon fill="yellow" stroke="black" points="163.38,-42.5 28.12,-42.5 28.12,0 163.38,0 163.38,-42.5"/>
<text xml:space="preserve" text-anchor="middle" x="95.75" y="-25.2" font-family="Times,serif" font-size="14.00">rkisp1_mainpath</text>
<text xml:space="preserve" text-anchor="middle" x="95.75" y="-7.95" font-family="Times,serif" font-size="14.00">/dev/video0</text>
</g>
<!-- n00000006&#45;&gt;n0000000c -->
<g id="edge4" class="edge">
<title>n00000006:port1&#45;&gt;n0000000c</title>
<path fill="none" stroke="black" stroke-width="2" d="M95.5,-78.5C95.5,-70.65 95.52,-62.19 95.56,-54.27"/>
<polygon fill="black" stroke="black" stroke-width="2" points="99.05,-55.87 95.6,-45.85 92.05,-55.83 99.05,-55.87"/>
</g>
<!-- n00000010 -->
<g id="node6" class="node">
<title>n00000010</title>
<polygon fill="yellow" stroke="black" points="363.5,-42.5 238,-42.5 238,0 363.5,0 363.5,-42.5"/>
<text xml:space="preserve" text-anchor="middle" x="300.75" y="-25.2" font-family="Times,serif" font-size="14.00">rkisp1_selfpath</text>
<text xml:space="preserve" text-anchor="middle" x="300.75" y="-7.95" font-family="Times,serif" font-size="14.00">/dev/video1</text>
</g>
<!-- n00000009&#45;&gt;n00000010 -->
<g id="edge5" class="edge">
<title>n00000009:port1&#45;&gt;n00000010</title>
<path fill="none" stroke="black" stroke-width="2" d="M300.38,-78.5C300.38,-70.65 300.41,-62.19 300.46,-54.27"/>
<polygon fill="black" stroke="black" stroke-width="2" points="303.95,-55.87 300.52,-45.85 296.95,-55.82 303.95,-55.87"/>
</g>
<!-- n00000018 -->
<g id="node7" class="node">
<title>n00000018</title>
<polygon fill="yellow" stroke="black" points="468.25,-406.75 347.25,-406.75 347.25,-364.25 468.25,-364.25 468.25,-406.75"/>
<text xml:space="preserve" text-anchor="middle" x="407.75" y="-389.45" font-family="Times,serif" font-size="14.00">rkisp1_params</text>
<text xml:space="preserve" text-anchor="middle" x="407.75" y="-372.2" font-family="Times,serif" font-size="14.00">/dev/video3</text>
</g>
<!-- n00000018&#45;&gt;n00000001 -->
<g id="edge6" class="edge">
<title>n00000018&#45;&gt;n00000001:port1</title>
<path fill="none" stroke="black" stroke-width="2" d="M391.51,-363.87C382.48,-350.69 372.46,-332.59 369.35,-313.87"/>
<polygon fill="black" stroke="black" stroke-width="2" points="372.97,-315.18 368.63,-305.52 366,-315.78 372.97,-315.18"/>
</g>
<!-- n0000001c -->
<g id="node8" class="node">
<title>n0000001c</title>
<path fill="green" stroke="black" d="M204.38,-339C204.38,-339 317.12,-339 317.12,-339 323.12,-339 329.12,-345 329.12,-351 329.12,-351 329.12,-420 329.12,-420 329.12,-426 323.12,-432 317.12,-432 317.12,-432 204.38,-432 204.38,-432 198.38,-432 192.38,-426 192.38,-420 192.38,-420 192.38,-351 192.38,-351 192.38,-345 198.38,-339 204.38,-339"/>
<text xml:space="preserve" text-anchor="middle" x="260.62" y="-414.7" font-family="Times,serif" font-size="14.00"> </text>
<polyline fill="none" stroke="black" points="192.38,-406.75 329.12,-406.75"/>
<text xml:space="preserve" text-anchor="middle" x="260.75" y="-389.45" font-family="Times,serif" font-size="14.00">imx219 4&#45;0010</text>
<text xml:space="preserve" text-anchor="middle" x="260.75" y="-372.2" font-family="Times,serif" font-size="14.00">/dev/v4l&#45;subdev3</text>
<polyline fill="none" stroke="black" points="192.38,-364.25 329.12,-364.25"/>
<text xml:space="preserve" text-anchor="middle" x="260.38" y="-346.95" font-family="Times,serif" font-size="14.00">0</text>
</g>
<!-- n0000001c&#45;&gt;n00000001 -->
<g id="edge7" class="edge">
<title>n0000001c:port0&#45;&gt;n00000001:port0</title>
<path fill="none" stroke="black" d="M329.38,-351.62C335.23,-351.62 330.48,-343.96 328.38,-338.5 322.78,-324.02 309.34,-322.49 303.35,-313.47"/>
<polygon fill="black" stroke="black" points="306.76,-312.7 300.77,-303.96 300.01,-314.53 306.76,-312.7"/>
</g>
</g>
</svg>
