<?xml version="1.0" encoding="UTF-8" standalone="no"?>
<!DOCTYPE svg PUBLIC "-//W3C//DTD SVG 1.1//EN"
 "http://www.w3.org/Graphics/SVG/1.1/DTD/svg11.dtd">
<!-- Generated by graphviz version 14.1.2 (20260126.1125)
 -->
<!-- Title: srp_initiator Pages: 1 -->
<svg width="864pt" height="886pt"
 viewBox="0.00 0.00 864.00 886.00" xmlns="http://www.w3.org/2000/svg" xmlns:xlink="http://www.w3.org/1999/xlink">
<g id="graph0" class="graph" transform="scale(1 1) rotate(0) translate(4 881.95)">
<title>srp_initiator</title>
<polygon fill="white" stroke="none" points="-4,4 -4,-881.95 860.38,-881.95 860.38,4 -4,4"/>
<!-- running -->
<g id="node1" class="node">
<title>running</title>
<ellipse fill="none" stroke="black" cx="263.38" cy="-602.71" rx="61.16" ry="61.16"/>
<ellipse fill="none" stroke="black" cx="263.38" cy="-602.71" rx="65.16" ry="65.16"/>
<text xml:space="preserve" text-anchor="middle" x="263.38" y="-623.91" font-family="Times,serif" font-size="14.00">running;</text>
<text xml:space="preserve" text-anchor="middle" x="263.38" y="-606.66" font-family="Times,serif" font-size="14.00">reconnect</text>
<text xml:space="preserve" text-anchor="middle" x="263.38" y="-589.41" font-family="Times,serif" font-size="14.00">timer</text>
<text xml:space="preserve" text-anchor="middle" x="263.38" y="-572.16" font-family="Times,serif" font-size="14.00">stopped</text>
</g>
<!-- lost -->
<g id="node2" class="node">
<title>lost</title>
<ellipse fill="none" stroke="black" cx="251.38" cy="-33.64" rx="29.64" ry="29.64"/>
<ellipse fill="none" stroke="black" cx="251.38" cy="-33.64" rx="33.64" ry="33.64"/>
<text xml:space="preserve" text-anchor="middle" x="251.38" y="-28.96" font-family="Times,serif" font-size="14.00">lost</text>
</g>
<!-- running&#45;&gt;lost -->
<g id="edge11" class="edge">
<title>running&#45;&gt;lost</title>
<path fill="none" stroke="black" d="M197.94,-598.28C142.51,-591.57 65.79,-572.56 25.38,-519.54 -25.11,-453.3 16.05,-415.78 13.38,-332.53 12.4,-301.88 1.5,-291.81 13.38,-263.53 57.25,-159.15 112.93,-162.87 195.38,-85.28 202.58,-78.5 210.41,-71.31 217.86,-64.55"/>
<polygon fill="black" stroke="black" points="220.18,-67.18 225.25,-57.88 215.48,-61.98 220.18,-67.18"/>
<text xml:space="preserve" text-anchor="middle" x="97.38" y="-293.36" font-family="Times,serif" font-size="14.00">srp_stop_rport_timers()</text>
</g>
<!-- running_rta -->
<g id="node3" class="node">
<title>running_rta</title>
<ellipse fill="none" stroke="black" cx="466.38" cy="-816.79" rx="61.16" ry="61.16"/>
<text xml:space="preserve" text-anchor="middle" x="466.38" y="-837.99" font-family="Times,serif" font-size="14.00">running;</text>
<text xml:space="preserve" text-anchor="middle" x="466.38" y="-820.74" font-family="Times,serif" font-size="14.00">reconnect</text>
<text xml:space="preserve" text-anchor="middle" x="466.38" y="-803.49" font-family="Times,serif" font-size="14.00">timer</text>
<text xml:space="preserve" text-anchor="middle" x="466.38" y="-786.24" font-family="Times,serif" font-size="14.00">active</text>
</g>
<!-- running&#45;&gt;running_rta -->
<g id="edge1" class="edge">
<title>running&#45;&gt;running_rta</title>
<path fill="none" stroke="black" d="M327.41,-616.69C367.18,-628.13 415.96,-648.96 444.38,-685.87 457.1,-702.39 463.55,-723.61 466.58,-744.09"/>
<polygon fill="black" stroke="black" points="463.09,-744.34 467.76,-753.86 470.04,-743.51 463.09,-744.34"/>
<text xml:space="preserve" text-anchor="middle" x="554.89" y="-724.32" font-family="Times,serif" font-size="14.00">fast_io_fail_tmo = off and</text>
<text xml:space="preserve" text-anchor="middle" x="554.89" y="-707.07" font-family="Times,serif" font-size="14.00">dev_loss_tmo = off;</text>
<text xml:space="preserve" text-anchor="middle" x="554.89" y="-689.82" font-family="Times,serif" font-size="14.00">srp_start_tl_fail_timers()</text>
</g>
<!-- blocked -->
<g id="node4" class="node">
<title>blocked</title>
<ellipse fill="none" stroke="black" cx="201.38" cy="-400.16" rx="49.63" ry="49.63"/>
<text xml:space="preserve" text-anchor="middle" x="201.38" y="-395.49" font-family="Times,serif" font-size="14.00">blocked</text>
</g>
<!-- running&#45;&gt;blocked -->
<g id="edge3" class="edge">
<title>running&#45;&gt;blocked</title>
<path fill="none" stroke="black" d="M198.06,-597.38C145.36,-590.05 74.34,-570.62 38.63,-519.54 25.45,-500.69 25.81,-486.89 38.63,-467.79 61.37,-433.91 104.74,-417.24 140.99,-409.05"/>
<polygon fill="black" stroke="black" points="141.42,-412.54 150.5,-407.08 140,-405.69 141.42,-412.54"/>
<text xml:space="preserve" text-anchor="middle" x="126" y="-506.24" font-family="Times,serif" font-size="14.00">fast_io_fail_tmo &gt;= 0 or</text>
<text xml:space="preserve" text-anchor="middle" x="126" y="-488.99" font-family="Times,serif" font-size="14.00">dev_loss_tmo &gt;= 0;</text>
<text xml:space="preserve" text-anchor="middle" x="126" y="-471.74" font-family="Times,serif" font-size="14.00">srp_start_tl_fail_timers()</text>
</g>
<!-- failfast -->
<g id="node5" class="node">
<title>failfast</title>
<ellipse fill="none" stroke="black" cx="416.38" cy="-200.28" rx="45.25" ry="45.25"/>
<text xml:space="preserve" text-anchor="middle" x="416.38" y="-204.23" font-family="Times,serif" font-size="14.00">fail I/O</text>
<text xml:space="preserve" text-anchor="middle" x="416.38" y="-186.98" font-family="Times,serif" font-size="14.00">fast</text>
</g>
<!-- running&#45;&gt;failfast -->
<g id="edge4" class="edge">
<title>running&#45;&gt;failfast</title>
<path fill="none" stroke="black" d="M307.64,-554.91C316.01,-543.98 323.85,-531.9 329.38,-519.54 360.46,-450.04 337.05,-423.91 357.38,-350.53 366.65,-317.08 380.87,-280.84 393.03,-252.45"/>
<polygon fill="black" stroke="black" points="396.2,-253.93 396.97,-243.36 389.78,-251.14 396.2,-253.93"/>
<text xml:space="preserve" text-anchor="middle" x="447.38" y="-412.74" font-family="Times,serif" font-size="14.00">fast_io_fail_tmo = off and</text>
<text xml:space="preserve" text-anchor="middle" x="447.38" y="-395.49" font-family="Times,serif" font-size="14.00">dev_loss_tmo = off;</text>
<text xml:space="preserve" text-anchor="middle" x="447.38" y="-378.24" font-family="Times,serif" font-size="14.00">reconnecting failed</text>
</g>
<!-- running_rta&#45;&gt;running -->
<g id="edge2" class="edge">
<title>running_rta&#45;&gt;running</title>
<path fill="none" stroke="black" d="M405.47,-810.82C357.23,-803.32 292.75,-784.53 260.38,-737.62 248.4,-720.26 245.29,-698.4 246.26,-677.39"/>
<polygon fill="black" stroke="black" points="249.73,-677.94 247.03,-667.69 242.75,-677.38 249.73,-677.94"/>
<text xml:space="preserve" text-anchor="middle" x="350.38" y="-724.32" font-family="Times,serif" font-size="14.00">fast_io_fail_tmo = off and</text>
<text xml:space="preserve" text-anchor="middle" x="350.38" y="-707.07" font-family="Times,serif" font-size="14.00">dev_loss_tmo = off;</text>
<text xml:space="preserve" text-anchor="middle" x="350.38" y="-689.82" font-family="Times,serif" font-size="14.00">reconnecting succeeded</text>
</g>
<!-- running_rta&#45;&gt;lost -->
<g id="edge12" class="edge">
<title>running_rta&#45;&gt;lost</title>
<path fill="none" stroke="black" d="M526.59,-804.13C566.68,-793.37 617.64,-773.43 649.38,-737.62 690.5,-691.23 688.38,-665.7 688.38,-603.71 688.38,-603.71 688.38,-603.71 688.38,-199.28 688.38,-110.87 606.93,-119.42 525.38,-85.28 448.94,-53.27 352.1,-41.42 296.4,-37.09"/>
<polygon fill="black" stroke="black" points="296.9,-33.61 286.67,-36.38 296.39,-40.6 296.9,-33.61"/>
<text xml:space="preserve" text-anchor="middle" x="772.38" y="-395.49" font-family="Times,serif" font-size="14.00">srp_stop_rport_timers()</text>
</g>
<!-- blocked&#45;&gt;running -->
<g id="edge8" class="edge">
<title>blocked&#45;&gt;running</title>
<path fill="none" stroke="black" d="M214.94,-448.21C221.3,-469.97 229.07,-496.12 236.38,-519.54 237.4,-522.81 238.45,-526.14 239.52,-529.5"/>
<polygon fill="black" stroke="black" points="236.13,-530.41 242.52,-538.86 242.8,-528.27 236.13,-530.41"/>
<text xml:space="preserve" text-anchor="middle" x="282.88" y="-497.62" font-family="Times,serif" font-size="14.00">reconnecting</text>
<text xml:space="preserve" text-anchor="middle" x="282.88" y="-480.37" font-family="Times,serif" font-size="14.00">succeeded</text>
</g>
<!-- blocked&#45;&gt;lost -->
<g id="edge6" class="edge">
<title>blocked&#45;&gt;lost</title>
<path fill="none" stroke="black" d="M193.02,-350.77C186.04,-301.02 179.41,-221.63 194.38,-155.03 200.93,-125.87 215.39,-95.48 228.11,-72.52"/>
<polygon fill="black" stroke="black" points="231.14,-74.27 233.04,-63.85 225.06,-70.81 231.14,-74.27"/>
<text xml:space="preserve" text-anchor="middle" x="278.38" y="-212.85" font-family="Times,serif" font-size="14.00">dev_loss_tmo</text>
<text xml:space="preserve" text-anchor="middle" x="278.38" y="-195.6" font-family="Times,serif" font-size="14.00">expired or</text>
<text xml:space="preserve" text-anchor="middle" x="278.38" y="-178.35" font-family="Times,serif" font-size="14.00">srp_stop_rport_timers()</text>
</g>
<!-- blocked&#45;&gt;failfast -->
<g id="edge5" class="edge">
<title>blocked&#45;&gt;failfast</title>
<path fill="none" stroke="black" d="M201.68,-350.23C202.99,-316.45 207.12,-275.54 219.13,-263.53 241.04,-241.63 328.68,-257.21 357.38,-245.53 362.73,-243.36 368.02,-240.58 373.12,-237.47"/>
<polygon fill="black" stroke="black" points="374.96,-240.44 381.37,-232 371.1,-234.61 374.96,-240.44"/>
<text xml:space="preserve" text-anchor="middle" x="274.25" y="-319.23" font-family="Times,serif" font-size="14.00">fast_io_fail_tmo</text>
<text xml:space="preserve" text-anchor="middle" x="274.25" y="-301.98" font-family="Times,serif" font-size="14.00">expired or</text>
<text xml:space="preserve" text-anchor="middle" x="274.25" y="-284.73" font-family="Times,serif" font-size="14.00">reconnecting</text>
<text xml:space="preserve" text-anchor="middle" x="274.25" y="-267.48" font-family="Times,serif" font-size="14.00">failed</text>
</g>
<!-- failfast&#45;&gt;running -->
<g id="edge10" class="edge">
<title>failfast&#45;&gt;running</title>
<path fill="none" stroke="black" d="M449.94,-230.76C499.63,-278.1 582.31,-373.51 537.38,-449.79 494.56,-522.49 403.04,-562.86 337.55,-583.4"/>
<polygon fill="black" stroke="black" points="336.87,-579.95 328.32,-586.2 338.9,-586.64 336.87,-579.95"/>
<text xml:space="preserve" text-anchor="middle" x="596.81" y="-404.11" font-family="Times,serif" font-size="14.00">reconnecting</text>
<text xml:space="preserve" text-anchor="middle" x="596.81" y="-386.86" font-family="Times,serif" font-size="14.00">succeeded</text>
</g>
<!-- failfast&#45;&gt;lost -->
<g id="edge7" class="edge">
<title>failfast&#45;&gt;lost</title>
<path fill="none" stroke="black" d="M384.57,-167.54C355.21,-138.24 311.86,-94.99 282.67,-65.86"/>
<polygon fill="black" stroke="black" points="285.46,-63.7 275.91,-59.11 280.51,-68.65 285.46,-63.7"/>
<text xml:space="preserve" text-anchor="middle" x="437.51" y="-123.73" font-family="Times,serif" font-size="14.00">dev_loss_tmo</text>
<text xml:space="preserve" text-anchor="middle" x="437.51" y="-106.48" font-family="Times,serif" font-size="14.00">expired or</text>
<text xml:space="preserve" text-anchor="middle" x="437.51" y="-89.23" font-family="Times,serif" font-size="14.00">srp_stop_rport_timers()</text>
</g>
<!-- failfast&#45;&gt;failfast -->
<g id="edge9" class="edge">
<title>failfast&#45;&gt;failfast</title>
<path fill="none" stroke="black" d="M458.95,-216.89C470.68,-216.09 479.63,-210.55 479.63,-200.28 479.63,-193.54 475.78,-188.84 469.81,-186.18"/>
<polygon fill="black" stroke="black" points="470.96,-182.85 460.43,-184.01 469.38,-189.67 470.96,-182.85"/>
<text xml:space="preserve" text-anchor="middle" x="526.13" y="-204.23" font-family="Times,serif" font-size="14.00">reconnecting</text>
<text xml:space="preserve" text-anchor="middle" x="526.13" y="-186.98" font-family="Times,serif" font-size="14.00">failed</text>
</g>
</g>
</svg>
