<?xml version="1.0" encoding="UTF-8" standalone="no"?>
<!DOCTYPE svg PUBLIC "-//W3C//DTD SVG 1.1//EN"
 "http://www.w3.org/Graphics/SVG/1.1/DTD/svg11.dtd">
<!-- Generated by graphviz version 14.1.2 (20260126.1125)
 -->
<!-- Title: board Pages: 1 -->
<svg width="570pt" height="701pt"
 viewBox="0.00 0.00 570.00 701.00" xmlns="http://www.w3.org/2000/svg" xmlns:xlink="http://www.w3.org/1999/xlink">
<g id="graph0" class="graph" transform="scale(1 1) rotate(0) translate(4 696.5)">
<title>board</title>
<polygon fill="white" stroke="none" points="-4,4 -4,-696.5 566.25,-696.5 566.25,4 -4,4"/>
<!-- n00000001 -->
<g id="node1" class="node">
<title>n00000001</title>
<path fill="green" stroke="black" d="M204.5,-209C204.5,-209 317.25,-209 317.25,-209 323.25,-209 329.25,-215 329.25,-221 329.25,-221 329.25,-290 329.25,-290 329.25,-296 323.25,-302 317.25,-302 317.25,-302 204.5,-302 204.5,-302 198.5,-302 192.5,-296 192.5,-290 192.5,-290 192.5,-221 192.5,-221 192.5,-215 198.5,-209 204.5,-209"/>
<text xml:space="preserve" text-anchor="middle" x="226.5" y="-284.7" font-family="Times,serif" font-size="14.00">0</text>
<polyline fill="none" stroke="black" points="260.5,-276.75 260.5,-302"/>
<text xml:space="preserve" text-anchor="middle" x="294.5" y="-284.7" font-family="Times,serif" font-size="14.00">1</text>
<polyline fill="none" stroke="black" points="192.5,-276.75 329.25,-276.75"/>
<text xml:space="preserve" text-anchor="middle" x="260.88" y="-259.45" font-family="Times,serif" font-size="14.00">c3&#45;isp&#45;core</text>
<text xml:space="preserve" text-anchor="middle" x="260.88" y="-242.2" font-family="Times,serif" font-size="14.00">/dev/v4l&#45;subdev0</text>
<polyline fill="none" stroke="black" points="192.5,-234.25 329.25,-234.25"/>
<text xml:space="preserve" text-anchor="middle" x="209.5" y="-216.95" font-family="Times,serif" font-size="14.00">2</text>
<polyline fill="none" stroke="black" points="226.5,-209 226.5,-234.25"/>
<text xml:space="preserve" text-anchor="middle" x="243.5" y="-216.95" font-family="Times,serif" font-size="14.00">3</text>
<polyline fill="none" stroke="black" points="260.5,-209 260.5,-234.25"/>
<text xml:space="preserve" text-anchor="middle" x="277.5" y="-216.95" font-family="Times,serif" font-size="14.00">4</text>
<polyline fill="none" stroke="black" points="294.5,-209 294.5,-234.25"/>
<text xml:space="preserve" text-anchor="middle" x="311.5" y="-216.95" font-family="Times,serif" font-size="14.00">5</text>
</g>
<!-- n00000008 -->
<g id="node2" class="node">
<title>n00000008</title>
<path fill="green" stroke="black" d="M127.5,-79C127.5,-79 240.25,-79 240.25,-79 246.25,-79 252.25,-85 252.25,-91 252.25,-91 252.25,-160 252.25,-160 252.25,-166 246.25,-172 240.25,-172 240.25,-172 127.5,-172 127.5,-172 121.5,-172 115.5,-166 115.5,-160 115.5,-160 115.5,-91 115.5,-91 115.5,-85 121.5,-79 127.5,-79"/>
<text xml:space="preserve" text-anchor="middle" x="183.5" y="-154.7" font-family="Times,serif" font-size="14.00">0</text>
<polyline fill="none" stroke="black" points="115.5,-146.75 252.25,-146.75"/>
<text xml:space="preserve" text-anchor="middle" x="183.88" y="-129.45" font-family="Times,serif" font-size="14.00">c3&#45;isp&#45;resizer0</text>
<text xml:space="preserve" text-anchor="middle" x="183.88" y="-112.2" font-family="Times,serif" font-size="14.00">/dev/v4l&#45;subdev1</text>
<polyline fill="none" stroke="black" points="115.5,-104.25 252.25,-104.25"/>
<text xml:space="preserve" text-anchor="middle" x="183.5" y="-86.95" font-family="Times,serif" font-size="14.00">1</text>
</g>
<!-- n00000001&#45;&gt;n00000008 -->
<g id="edge1" class="edge">
<title>n00000001:port3&#45;&gt;n00000008:port0</title>
<path fill="none" stroke="black" d="M243.5,-208.5C243.5,-194.28 256.3,-178.12 259.67,-168.34"/>
<polygon fill="black" stroke="black" points="262.42,-166.18 253.45,-160.56 256.96,-170.55 262.42,-166.18"/>
</g>
<!-- n0000000b -->
<g id="node3" class="node">
<title>n0000000b</title>
<path fill="green" stroke="black" d="M282.5,-79C282.5,-79 395.25,-79 395.25,-79 401.25,-79 407.25,-85 407.25,-91 407.25,-91 407.25,-160 407.25,-160 407.25,-166 401.25,-172 395.25,-172 395.25,-172 282.5,-172 282.5,-172 276.5,-172 270.5,-166 270.5,-160 270.5,-160 270.5,-91 270.5,-91 270.5,-85 276.5,-79 282.5,-79"/>
<text xml:space="preserve" text-anchor="middle" x="338.5" y="-154.7" font-family="Times,serif" font-size="14.00">0</text>
<polyline fill="none" stroke="black" points="270.5,-146.75 407.25,-146.75"/>
<text xml:space="preserve" text-anchor="middle" x="338.88" y="-129.45" font-family="Times,serif" font-size="14.00">c3&#45;isp&#45;resizer1</text>
<text xml:space="preserve" text-anchor="middle" x="338.88" y="-112.2" font-family="Times,serif" font-size="14.00">/dev/v4l&#45;subdev2</text>
<polyline fill="none" stroke="black" points="270.5,-104.25 407.25,-104.25"/>
<text xml:space="preserve" text-anchor="middle" x="338.5" y="-86.95" font-family="Times,serif" font-size="14.00">1</text>
</g>
<!-- n00000001&#45;&gt;n0000000b -->
<g id="edge2" class="edge">
<title>n00000001:port4&#45;&gt;n0000000b:port0</title>
<path fill="none" stroke="black" d="M277.5,-208.5C277.5,-194.16 264.84,-177.76 261.96,-168"/>
<polygon fill="black" stroke="black" points="264.56,-170.35 268.5,-160.51 259.29,-165.74 264.56,-170.35"/>
</g>
<!-- n0000000e -->
<g id="node4" class="node">
<title>n0000000e</title>
<path fill="green" stroke="black" d="M437.5,-79C437.5,-79 550.25,-79 550.25,-79 556.25,-79 562.25,-85 562.25,-91 562.25,-91 562.25,-160 562.25,-160 562.25,-166 556.25,-172 550.25,-172 550.25,-172 437.5,-172 437.5,-172 431.5,-172 425.5,-166 425.5,-160 425.5,-160 425.5,-91 425.5,-91 425.5,-85 431.5,-79 437.5,-79"/>
<text xml:space="preserve" text-anchor="middle" x="493.5" y="-154.7" font-family="Times,serif" font-size="14.00">0</text>
<polyline fill="none" stroke="black" points="425.5,-146.75 562.25,-146.75"/>
<text xml:space="preserve" text-anchor="middle" x="493.88" y="-129.45" font-family="Times,serif" font-size="14.00">c3&#45;isp&#45;resizer2</text>
<text xml:space="preserve" text-anchor="middle" x="493.88" y="-112.2" font-family="Times,serif" font-size="14.00">/dev/v4l&#45;subdev3</text>
<polyline fill="none" stroke="black" points="425.5,-104.25 562.25,-104.25"/>
<text xml:space="preserve" text-anchor="middle" x="493.5" y="-86.95" font-family="Times,serif" font-size="14.00">1</text>
</g>
<!-- n00000001&#45;&gt;n0000000e -->
<g id="edge3" class="edge">
<title>n00000001:port5&#45;&gt;n0000000e:port0</title>
<path fill="none" stroke="black" d="M329.5,-221.62C373.66,-221.62 383.66,-202.71 415.88,-172.5 416.99,-171.46 417.69,-170.24 418.19,-168.98"/>
<polygon fill="black" stroke="black" points="421.1,-170.92 423.67,-160.64 415.25,-167.07 421.1,-170.92"/>
</g>
<!-- n00000027 -->
<g id="node5" class="node">
<title>n00000027</title>
<polygon fill="yellow" stroke="black" points="97.75,-146.75 0,-146.75 0,-104.25 97.75,-104.25 97.75,-146.75"/>
<text xml:space="preserve" text-anchor="middle" x="48.88" y="-129.45" font-family="Times,serif" font-size="14.00">c3&#45;isp&#45;stats</text>
<text xml:space="preserve" text-anchor="middle" x="48.88" y="-112.2" font-family="Times,serif" font-size="14.00">/dev/video3</text>
</g>
<!-- n00000001&#45;&gt;n00000027 -->
<g id="edge4" class="edge">
<title>n00000001:port2&#45;&gt;n00000027</title>
<path fill="none" stroke="black" d="M191.5,-221.62C143.22,-221.62 98.86,-183.43 72.83,-155.44"/>
<polygon fill="black" stroke="black" points="75.67,-153.36 66.38,-148.27 70.46,-158.04 75.67,-153.36"/>
</g>
<!-- n00000016 -->
<g id="node6" class="node">
<title>n00000016</title>
<polygon fill="yellow" stroke="black" points="232.75,-42.5 135,-42.5 135,0 232.75,0 232.75,-42.5"/>
<text xml:space="preserve" text-anchor="middle" x="183.88" y="-25.2" font-family="Times,serif" font-size="14.00">c3&#45;isp&#45;cap0</text>
<text xml:space="preserve" text-anchor="middle" x="183.88" y="-7.95" font-family="Times,serif" font-size="14.00">/dev/video0</text>
</g>
<!-- n00000008&#45;&gt;n00000016 -->
<g id="edge5" class="edge">
<title>n00000008:port1&#45;&gt;n00000016</title>
<path fill="none" stroke="black" stroke-width="2" d="M183.5,-78.5C183.5,-70.65 183.54,-62.19 183.59,-54.27"/>
<polygon fill="black" stroke="black" stroke-width="2" points="187.08,-55.87 183.65,-45.85 180.08,-55.82 187.08,-55.87"/>
</g>
<!-- n0000001a -->
<g id="node7" class="node">
<title>n0000001a</title>
<polygon fill="yellow" stroke="black" points="387.75,-42.5 290,-42.5 290,0 387.75,0 387.75,-42.5"/>
<text xml:space="preserve" text-anchor="middle" x="338.88" y="-25.2" font-family="Times,serif" font-size="14.00">c3&#45;isp&#45;cap1</text>
<text xml:space="preserve" text-anchor="middle" x="338.88" y="-7.95" font-family="Times,serif" font-size="14.00">/dev/video1</text>
</g>
<!-- n0000000b&#45;&gt;n0000001a -->
<g id="edge6" class="edge">
<title>n0000000b:port1&#45;&gt;n0000001a</title>
<path fill="none" stroke="black" stroke-width="2" d="M338.5,-78.5C338.5,-70.65 338.54,-62.19 338.59,-54.27"/>
<polygon fill="black" stroke="black" stroke-width="2" points="342.08,-55.87 338.65,-45.85 335.08,-55.82 342.08,-55.87"/>
</g>
<!-- n00000023 -->
<g id="node8" class="node">
<title>n00000023</title>
<polygon fill="yellow" stroke="black" points="542.75,-42.5 445,-42.5 445,0 542.75,0 542.75,-42.5"/>
<text xml:space="preserve" text-anchor="middle" x="493.88" y="-25.2" font-family="Times,serif" font-size="14.00">c3&#45;isp&#45;cap2</text>
<text xml:space="preserve" text-anchor="middle" x="493.88" y="-7.95" font-family="Times,serif" font-size="14.00">/dev/video2</text>
</g>
<!-- n0000000e&#45;&gt;n00000023 -->
<g id="edge7" class="edge">
<title>n0000000e:port1&#45;&gt;n00000023</title>
<path fill="none" stroke="black" stroke-width="2" d="M493.5,-78.5C493.5,-70.65 493.54,-62.19 493.59,-54.27"/>
<polygon fill="black" stroke="black" stroke-width="2" points="497.08,-55.87 493.65,-45.85 490.08,-55.82 497.08,-55.87"/>
</g>
<!-- n00000011 -->
<g id="node9" class="node">
<title>n00000011</title>
<path fill="green" stroke="black" d="M132.5,-339C132.5,-339 245.25,-339 245.25,-339 251.25,-339 257.25,-345 257.25,-351 257.25,-351 257.25,-420 257.25,-420 257.25,-426 251.25,-432 245.25,-432 245.25,-432 132.5,-432 132.5,-432 126.5,-432 120.5,-426 120.5,-420 120.5,-420 120.5,-351 120.5,-351 120.5,-345 126.5,-339 132.5,-339"/>
<text xml:space="preserve" text-anchor="middle" x="188.5" y="-414.7" font-family="Times,serif" font-size="14.00">0</text>
<polyline fill="none" stroke="black" points="120.5,-406.75 257.25,-406.75"/>
<text xml:space="preserve" text-anchor="middle" x="188.88" y="-389.45" font-family="Times,serif" font-size="14.00">c3&#45;mipi&#45;adapter</text>
<text xml:space="preserve" text-anchor="middle" x="188.88" y="-372.2" font-family="Times,serif" font-size="14.00">/dev/v4l&#45;subdev4</text>
<polyline fill="none" stroke="black" points="120.5,-364.25 257.25,-364.25"/>
<text xml:space="preserve" text-anchor="middle" x="188.5" y="-346.95" font-family="Times,serif" font-size="14.00">1</text>
</g>
<!-- n00000011&#45;&gt;n00000001 -->
<g id="edge8" class="edge">
<title>n00000011:port1&#45;&gt;n00000001:port0</title>
<path fill="none" stroke="black" stroke-width="2" d="M257.5,-351.62C263.35,-351.62 258.7,-343.92 256.5,-338.5 250.44,-323.57 235.81,-322.66 229.49,-313.38"/>
<polygon fill="black" stroke="black" stroke-width="2" points="233.33,-314.13 227.3,-305.42 226.58,-315.99 233.33,-314.13"/>
</g>
<!-- n0000001e -->
<g id="node10" class="node">
<title>n0000001e</title>
<path fill="green" stroke="black" d="M132.5,-469C132.5,-469 245.25,-469 245.25,-469 251.25,-469 257.25,-475 257.25,-481 257.25,-481 257.25,-550 257.25,-550 257.25,-556 251.25,-562 245.25,-562 245.25,-562 132.5,-562 132.5,-562 126.5,-562 120.5,-556 120.5,-550 120.5,-550 120.5,-481 120.5,-481 120.5,-475 126.5,-469 132.5,-469"/>
<text xml:space="preserve" text-anchor="middle" x="188.5" y="-544.7" font-family="Times,serif" font-size="14.00">0</text>
<polyline fill="none" stroke="black" points="120.5,-536.75 257.25,-536.75"/>
<text xml:space="preserve" text-anchor="middle" x="188.88" y="-519.45" font-family="Times,serif" font-size="14.00">c3&#45;mipi&#45;csi2</text>
<text xml:space="preserve" text-anchor="middle" x="188.88" y="-502.2" font-family="Times,serif" font-size="14.00">/dev/v4l&#45;subdev5</text>
<polyline fill="none" stroke="black" points="120.5,-494.25 257.25,-494.25"/>
<text xml:space="preserve" text-anchor="middle" x="188.5" y="-476.95" font-family="Times,serif" font-size="14.00">1</text>
</g>
<!-- n0000001e&#45;&gt;n00000011 -->
<g id="edge9" class="edge">
<title>n0000001e:port1&#45;&gt;n00000011:port0</title>
<path fill="none" stroke="black" stroke-width="2" d="M188.5,-468.5C188.5,-457.12 188.5,-451.82 188.5,-443.95"/>
<polygon fill="black" stroke="black" stroke-width="2" points="192,-445.53 188.5,-435.53 185,-445.53 192,-445.53"/>
</g>
<!-- n0000002b -->
<g id="node11" class="node">
<title>n0000002b</title>
<polygon fill="yellow" stroke="black" points="390.75,-406.75 275,-406.75 275,-364.25 390.75,-364.25 390.75,-406.75"/>
<text xml:space="preserve" text-anchor="middle" x="332.88" y="-389.45" font-family="Times,serif" font-size="14.00">c3&#45;isp&#45;params</text>
<text xml:space="preserve" text-anchor="middle" x="332.88" y="-372.2" font-family="Times,serif" font-size="14.00">/dev/video4</text>
</g>
<!-- n0000002b&#45;&gt;n00000001 -->
<g id="edge10" class="edge">
<title>n0000002b&#45;&gt;n00000001:port1</title>
<path fill="none" stroke="black" d="M317.04,-363.81C308.25,-350.6 298.48,-332.49 295.45,-313.83"/>
<polygon fill="black" stroke="black" points="298.95,-313.68 294.63,-304.01 291.97,-314.27 298.95,-313.68"/>
</g>
<!-- n0000003f -->
<g id="node12" class="node">
<title>n0000003f</title>
<path fill="green" stroke="black" d="M132.5,-599C132.5,-599 245.25,-599 245.25,-599 251.25,-599 257.25,-605 257.25,-611 257.25,-611 257.25,-680 257.25,-680 257.25,-686 251.25,-692 245.25,-692 245.25,-692 132.5,-692 132.5,-692 126.5,-692 120.5,-686 120.5,-680 120.5,-680 120.5,-611 120.5,-611 120.5,-605 126.5,-599 132.5,-599"/>
<text xml:space="preserve" text-anchor="middle" x="188.75" y="-674.7" font-family="Times,serif" font-size="14.00"> </text>
<polyline fill="none" stroke="black" points="120.5,-666.75 257.25,-666.75"/>
<text xml:space="preserve" text-anchor="middle" x="188.88" y="-649.45" font-family="Times,serif" font-size="14.00">imx290 2&#45;001a</text>
<text xml:space="preserve" text-anchor="middle" x="188.88" y="-632.2" font-family="Times,serif" font-size="14.00">/dev/v4l&#45;subdev6</text>
<polyline fill="none" stroke="black" points="120.5,-624.25 257.25,-624.25"/>
<text xml:space="preserve" text-anchor="middle" x="188.5" y="-606.95" font-family="Times,serif" font-size="14.00">0</text>
</g>
<!-- n0000003f&#45;&gt;n0000001e -->
<g id="edge11" class="edge">
<title>n0000003f:port0&#45;&gt;n0000001e:port0</title>
<path fill="none" stroke="black" stroke-width="2" d="M188.5,-598.5C188.5,-587.12 188.5,-581.82 188.5,-573.95"/>
<polygon fill="black" stroke="black" stroke-width="2" points="192,-575.53 188.5,-565.53 185,-575.53 192,-575.53"/>
</g>
</g>
</svg>
