<?xml version="1.0" encoding="UTF-8" standalone="no"?>
<!DOCTYPE svg PUBLIC "-//W3C//DTD SVG 1.1//EN"
 "http://www.w3.org/Graphics/SVG/1.1/DTD/svg11.dtd">
<!-- Generated by graphviz version 14.1.2 (20260126.1125)
 -->
<!-- Title: NFC Pages: 1 -->
<svg width="552pt" height="404pt"
 viewBox="0.00 0.00 552.00 404.00" xmlns="http://www.w3.org/2000/svg" xmlns:xlink="http://www.w3.org/1999/xlink">
<g id="graph0" class="graph" transform="scale(1 1) rotate(0) translate(4 400)">
<title>NFC</title>
<polygon fill="white" stroke="none" points="-4,4 -4,-400 547.88,-400 547.88,4 -4,4"/>
<!-- cl_nfc -->
<g id="node1" class="node">
<title>cl_nfc</title>
<ellipse fill="none" stroke="black" cx="282.17" cy="-90" rx="73.3" ry="18"/>
<text xml:space="preserve" text-anchor="middle" x="282.17" y="-85.33" font-family="Times,serif" font-size="14.00">mei/bus(nfc)</text>
</g>
<!-- me_cl_nfc -->
<g id="node2" class="node">
<title>me_cl_nfc</title>
<ellipse fill="none" stroke="black" cx="282.17" cy="-18" rx="67.52" ry="18"/>
<text xml:space="preserve" text-anchor="middle" x="282.17" y="-13.32" font-family="Times,serif" font-size="14.00">me fw (nfc)</text>
</g>
<!-- cl_nfc&#45;&gt;me_cl_nfc -->
<g id="edge1" class="edge">
<title>cl_nfc&#45;&gt;me_cl_nfc</title>
<path fill="none" stroke="black" d="M282.17,-71.7C282.17,-64.41 282.17,-55.73 282.17,-47.54"/>
<polygon fill="black" stroke="black" points="285.67,-47.62 282.17,-37.62 278.67,-47.62 285.67,-47.62"/>
</g>
<!-- drivers/nfc/mei_phy -->
<g id="node3" class="node">
<title>drivers/nfc/mei_phy</title>
<ellipse fill="none" stroke="black" cx="282.17" cy="-162" rx="110.13" ry="18"/>
<text xml:space="preserve" text-anchor="middle" x="282.17" y="-157.32" font-family="Times,serif" font-size="14.00">drivers/nfc/mei_phy</text>
</g>
<!-- drivers/nfc/mei_phy&#45;&gt;cl_nfc -->
<g id="edge2" class="edge">
<title>drivers/nfc/mei_phy&#45;&gt;cl_nfc</title>
<path fill="none" stroke="black" d="M282.17,-143.7C282.17,-136.41 282.17,-127.73 282.17,-119.54"/>
<polygon fill="black" stroke="black" points="285.67,-119.62 282.17,-109.62 278.67,-119.62 285.67,-119.62"/>
</g>
<!-- drivers/nfc/microread/mei -->
<g id="node4" class="node">
<title>drivers/nfc/microread/mei</title>
<ellipse fill="none" stroke="black" cx="141.17" cy="-234" rx="141.17" ry="18"/>
<text xml:space="preserve" text-anchor="middle" x="141.17" y="-229.32" font-family="Times,serif" font-size="14.00">drivers/nfc/microread/mei</text>
</g>
<!-- drivers/nfc/microread/mei&#45;&gt;cl_nfc -->
<g id="edge3" class="edge">
<title>drivers/nfc/microread/mei&#45;&gt;cl_nfc</title>
<path fill="none" stroke="black" d="M141.11,-215.6C141.95,-196.04 146.11,-164.38 163.17,-144 177.64,-126.72 198.87,-114.87 219.41,-106.83"/>
<polygon fill="black" stroke="black" points="220.42,-110.18 228.62,-103.48 218.03,-103.6 220.42,-110.18"/>
</g>
<!-- drivers/nfc/microread/mei&#45;&gt;drivers/nfc/mei_phy -->
<g id="edge4" class="edge">
<title>drivers/nfc/microread/mei&#45;&gt;drivers/nfc/mei_phy</title>
<path fill="none" stroke="black" d="M175.3,-216.05C194.32,-206.61 218.2,-194.76 238.56,-184.65"/>
<polygon fill="black" stroke="black" points="240.09,-187.8 247.49,-180.22 236.97,-181.53 240.09,-187.8"/>
</g>
<!-- drivers/nfc/pn544/mei -->
<g id="node5" class="node">
<title>drivers/nfc/pn544/mei</title>
<ellipse fill="none" stroke="black" cx="422.17" cy="-234" rx="121.71" ry="18"/>
<text xml:space="preserve" text-anchor="middle" x="422.17" y="-229.32" font-family="Times,serif" font-size="14.00">drivers/nfc/pn544/mei</text>
</g>
<!-- drivers/nfc/pn544/mei&#45;&gt;cl_nfc -->
<g id="edge5" class="edge">
<title>drivers/nfc/pn544/mei&#45;&gt;cl_nfc</title>
<path fill="none" stroke="black" d="M422.46,-215.61C421.87,-196.07 418.08,-164.42 401.17,-144 386.86,-126.72 365.77,-114.87 345.3,-106.85"/>
<polygon fill="black" stroke="black" points="346.71,-103.63 336.12,-103.5 344.32,-110.21 346.71,-103.63"/>
</g>
<!-- drivers/nfc/pn544/mei&#45;&gt;drivers/nfc/mei_phy -->
<g id="edge6" class="edge">
<title>drivers/nfc/pn544/mei&#45;&gt;drivers/nfc/mei_phy</title>
<path fill="none" stroke="black" d="M388.64,-216.23C369.76,-206.8 345.98,-194.9 325.68,-184.76"/>
<polygon fill="black" stroke="black" points="327.3,-181.65 316.79,-180.31 324.17,-187.91 327.3,-181.65"/>
</g>
<!-- net/nfc -->
<g id="node6" class="node">
<title>net/nfc</title>
<ellipse fill="none" stroke="black" cx="281.17" cy="-306" rx="45.95" ry="18"/>
<text xml:space="preserve" text-anchor="middle" x="281.17" y="-301.32" font-family="Times,serif" font-size="14.00">net/nfc</text>
</g>
<!-- net/nfc&#45;&gt;drivers/nfc/microread/mei -->
<g id="edge7" class="edge">
<title>net/nfc&#45;&gt;drivers/nfc/microread/mei</title>
<path fill="none" stroke="black" d="M253.51,-291.17C234.04,-281.44 207.58,-268.2 185.22,-257.02"/>
<polygon fill="black" stroke="black" points="186.82,-253.91 176.31,-252.57 183.69,-260.17 186.82,-253.91"/>
</g>
<!-- net/nfc&#45;&gt;drivers/nfc/pn544/mei -->
<g id="edge8" class="edge">
<title>net/nfc&#45;&gt;drivers/nfc/pn544/mei</title>
<path fill="none" stroke="black" d="M308.69,-291.34C328.5,-281.5 355.63,-268.04 378.39,-256.74"/>
<polygon fill="black" stroke="black" points="379.75,-259.97 387.15,-252.39 376.63,-253.7 379.75,-259.97"/>
</g>
<!-- neard -->
<g id="node7" class="node">
<title>neard</title>
<ellipse fill="none" stroke="black" cx="281.17" cy="-378" rx="40.16" ry="18"/>
<text xml:space="preserve" text-anchor="middle" x="281.17" y="-373.32" font-family="Times,serif" font-size="14.00">neard</text>
</g>
<!-- neard&#45;&gt;net/nfc -->
<g id="edge9" class="edge">
<title>neard&#45;&gt;net/nfc</title>
<path fill="none" stroke="black" d="M281.17,-359.7C281.17,-352.41 281.17,-343.73 281.17,-335.54"/>
<polygon fill="black" stroke="black" points="284.67,-335.62 281.17,-325.62 277.67,-335.62 284.67,-335.62"/>
</g>
</g>
</svg>
