<?xml version="1.0" encoding="UTF-8" standalone="no"?>
<!DOCTYPE svg PUBLIC "-//W3C//DTD SVG 1.1//EN"
 "http://www.w3.org/Graphics/SVG/1.1/DTD/svg11.dtd">
<!-- Generated by graphviz version 14.1.2 (20260126.1125)
 -->
<!-- Title: Output Pipeline Pages: 1 -->
<svg width="598pt" height="367pt"
 viewBox="0.00 0.00 598.00 367.00" xmlns="http://www.w3.org/2000/svg" xmlns:xlink="http://www.w3.org/1999/xlink">
<g id="graph0" class="graph" transform="scale(1 1) rotate(0) translate(4 362.5)">
<title>Output Pipeline</title>
<polygon fill="white" stroke="none" points="-4,4 -4,-362.5 594,-362.5 594,4 -4,4"/>
<g id="clust2" class="cluster">
<title>cluster_internal</title>
<polygon fill="none" stroke="black" stroke-dasharray="5,2" points="29,-93.25 29,-314.5 453,-314.5 453,-93.25 29,-93.25"/>
<text xml:space="preserve" text-anchor="middle" x="241" y="-297.2" font-family="Times,serif" font-size="14.00">Internal Pipeline</text>
</g>
<g id="clust5" class="cluster">
<title>cluster_output</title>
<polygon fill="none" stroke="black" stroke-dasharray="5,2" points="8,-8 8,-85.25 582,-85.25 582,-8 8,-8"/>
<text xml:space="preserve" text-anchor="middle" x="295" y="-67.95" font-family="Times,serif" font-size="14.00">Outputs</text>
</g>
<!-- drm_crtc -->
<g id="node1" class="node">
<title>drm_crtc</title>
<polygon fill="lightgrey" stroke="black" points="280.88,-358.5 201.12,-358.5 201.12,-322.5 280.88,-322.5 280.88,-358.5"/>
<text xml:space="preserve" text-anchor="middle" x="241" y="-335.82" font-family="Times,serif" font-size="14.00">drm_crtc</text>
</g>
<!-- drm_encoder A -->
<g id="node2" class="node">
<title>drm_encoder A</title>
<polygon fill="lightgrey" stroke="black" points="444.62,-281.25 321.38,-281.25 321.38,-245.25 444.62,-245.25 444.62,-281.25"/>
<text xml:space="preserve" text-anchor="middle" x="383" y="-258.57" font-family="Times,serif" font-size="14.00">drm_encoder A</text>
</g>
<!-- drm_crtc&#45;&gt;drm_encoder A -->
<g id="edge4" class="edge">
<title>drm_crtc&#45;&gt;drm_encoder A</title>
<path fill="none" stroke="black" d="M281.25,-327.51C291.51,-323.86 302.37,-319.48 312,-314.5 326.22,-307.15 340.83,-297.27 353.08,-288.22"/>
<polygon fill="black" stroke="black" points="354.87,-291.25 360.73,-282.43 350.64,-285.67 354.87,-291.25"/>
</g>
<!-- drm_encoder B -->
<g id="node3" class="node">
<title>drm_encoder B</title>
<polygon fill="lightgrey" stroke="black" points="303,-281.25 179,-281.25 179,-245.25 303,-245.25 303,-281.25"/>
<text xml:space="preserve" text-anchor="middle" x="241" y="-258.57" font-family="Times,serif" font-size="14.00">drm_encoder B</text>
</g>
<!-- drm_crtc&#45;&gt;drm_encoder B -->
<g id="edge5" class="edge">
<title>drm_crtc&#45;&gt;drm_encoder B</title>
<path fill="none" stroke="black" d="M241,-322.05C241,-313.4 241,-302.75 241,-292.94"/>
<polygon fill="black" stroke="black" points="244.5,-293.12 241,-283.12 237.5,-293.12 244.5,-293.12"/>
</g>
<!-- drm_encoder C -->
<g id="node4" class="node">
<title>drm_encoder C</title>
<polygon fill="lightgrey" stroke="black" points="161,-281.25 37,-281.25 37,-245.25 161,-245.25 161,-281.25"/>
<text xml:space="preserve" text-anchor="middle" x="99" y="-258.57" font-family="Times,serif" font-size="14.00">drm_encoder C</text>
</g>
<!-- drm_crtc&#45;&gt;drm_encoder C -->
<g id="edge6" class="edge">
<title>drm_crtc&#45;&gt;drm_encoder C</title>
<path fill="none" stroke="black" d="M200.75,-327.51C190.49,-323.86 179.63,-319.48 170,-314.5 155.78,-307.15 141.17,-297.27 128.92,-288.22"/>
<polygon fill="black" stroke="black" points="131.36,-285.67 121.27,-282.43 127.13,-291.25 131.36,-285.67"/>
</g>
<!-- drm_connector A -->
<g id="node8" class="node">
<title>drm_connector A</title>
<polygon fill="none" stroke="black" points="464.38,-52 327.62,-52 327.62,-16 464.38,-16 464.38,-52"/>
<text xml:space="preserve" text-anchor="middle" x="396" y="-29.32" font-family="Times,serif" font-size="14.00">drm_connector A</text>
</g>
<!-- drm_encoder A&#45;&gt;drm_connector A -->
<g id="edge7" class="edge">
<title>drm_encoder A&#45;&gt;drm_connector A</title>
<path fill="none" stroke="black" d="M384,-244.8C386.23,-205.79 391.64,-111.23 394.37,-63.53"/>
<polygon fill="black" stroke="black" points="397.85,-63.9 394.93,-53.71 390.86,-63.5 397.85,-63.9"/>
</g>
<!-- drm_bridge B -->
<g id="node5" class="node">
<title>drm_bridge B</title>
<polygon fill="lightgrey" stroke="black" points="297.75,-209.25 184.25,-209.25 184.25,-173.25 297.75,-173.25 297.75,-209.25"/>
<text xml:space="preserve" text-anchor="middle" x="241" y="-186.57" font-family="Times,serif" font-size="14.00">drm_bridge B</text>
</g>
<!-- drm_encoder B&#45;&gt;drm_bridge B -->
<g id="edge1" class="edge">
<title>drm_encoder B&#45;&gt;drm_bridge B</title>
<path fill="none" stroke="black" d="M241,-244.95C241,-237.66 241,-228.98 241,-220.79"/>
<polygon fill="black" stroke="black" points="244.5,-220.87 241,-210.87 237.5,-220.87 244.5,-220.87"/>
</g>
<!-- drm_bridge C1 -->
<g id="node6" class="node">
<title>drm_bridge C1</title>
<polygon fill="lightgrey" stroke="black" points="159.25,-209.25 36.75,-209.25 36.75,-173.25 159.25,-173.25 159.25,-209.25"/>
<text xml:space="preserve" text-anchor="middle" x="98" y="-186.57" font-family="Times,serif" font-size="14.00">drm_bridge C1</text>
</g>
<!-- drm_encoder C&#45;&gt;drm_bridge C1 -->
<g id="edge2" class="edge">
<title>drm_encoder C&#45;&gt;drm_bridge C1</title>
<path fill="none" stroke="black" d="M98.75,-244.95C98.65,-237.66 98.52,-228.98 98.41,-220.79"/>
<polygon fill="black" stroke="black" points="101.91,-220.82 98.27,-210.87 94.91,-220.92 101.91,-220.82"/>
</g>
<!-- drm_connector B -->
<g id="node9" class="node">
<title>drm_connector B</title>
<polygon fill="none" stroke="black" points="309.75,-52 172.25,-52 172.25,-16 309.75,-16 309.75,-52"/>
<text xml:space="preserve" text-anchor="middle" x="241" y="-29.32" font-family="Times,serif" font-size="14.00">drm_connector B</text>
</g>
<!-- drm_bridge B&#45;&gt;drm_connector B -->
<g id="edge8" class="edge">
<title>drm_bridge B&#45;&gt;drm_connector B</title>
<path fill="none" stroke="black" d="M241,-173.04C241,-146.58 241,-95.61 241,-63.55"/>
<polygon fill="black" stroke="black" points="244.5,-63.8 241,-53.8 237.5,-63.8 244.5,-63.8"/>
</g>
<!-- drm_bridge C2 -->
<g id="node7" class="node">
<title>drm_bridge C2</title>
<polygon fill="lightgrey" stroke="black" points="159.25,-137.25 36.75,-137.25 36.75,-101.25 159.25,-101.25 159.25,-137.25"/>
<text xml:space="preserve" text-anchor="middle" x="98" y="-114.58" font-family="Times,serif" font-size="14.00">drm_bridge C2</text>
</g>
<!-- drm_bridge C1&#45;&gt;drm_bridge C2 -->
<g id="edge3" class="edge">
<title>drm_bridge C1&#45;&gt;drm_bridge C2</title>
<path fill="none" stroke="black" d="M98,-172.95C98,-165.66 98,-156.98 98,-148.79"/>
<polygon fill="black" stroke="black" points="101.5,-148.87 98,-138.87 94.5,-148.87 101.5,-148.87"/>
</g>
<!-- drm_connector C -->
<g id="node10" class="node">
<title>drm_connector C</title>
<polygon fill="none" stroke="black" points="153.75,-52 16.25,-52 16.25,-16 153.75,-16 153.75,-52"/>
<text xml:space="preserve" text-anchor="middle" x="85" y="-29.32" font-family="Times,serif" font-size="14.00">drm_connector C</text>
</g>
<!-- drm_bridge C2&#45;&gt;drm_connector C -->
<g id="edge9" class="edge">
<title>drm_bridge C2&#45;&gt;drm_connector C</title>
<path fill="none" stroke="black" d="M95.31,-101C93.62,-90.17 91.39,-75.95 89.45,-63.48"/>
<polygon fill="black" stroke="black" points="92.92,-63.06 87.92,-53.72 86.01,-64.14 92.92,-63.06"/>
</g>
<!-- drm_panel -->
<g id="node11" class="node">
<title>drm_panel</title>
<polygon fill="none" stroke="black" points="573.5,-52 482.5,-52 482.5,-16 573.5,-16 573.5,-52"/>
<text xml:space="preserve" text-anchor="middle" x="528" y="-29.32" font-family="Times,serif" font-size="14.00">drm_panel</text>
</g>
</g>
</svg>
