<?xml version="1.0" encoding="UTF-8" standalone="no"?>
<!DOCTYPE svg PUBLIC "-//W3C//DTD SVG 1.1//EN"
 "http://www.w3.org/Graphics/SVG/1.1/DTD/svg11.dtd">
<!-- Generated by graphviz version 14.1.2 (20260126.1125)
 -->
<!-- Title: single_ppl Pages: 1 -->
<svg width="358pt" height="44pt"
 viewBox="0.00 0.00 358.00 44.00" xmlns="http://www.w3.org/2000/svg" xmlns:xlink="http://www.w3.org/1999/xlink">
<g id="graph0" class="graph" transform="scale(1 1) rotate(0) translate(4 40)">
<title>single_ppl</title>
<polygon fill="white" stroke="none" points="-4,4 -4,-40 354.25,-40 354.25,4 -4,4"/>
<!-- Compiz -->
<g id="node1" class="node">
<title>Compiz</title>
<polygon fill="none" stroke="black" points="69.25,-36 0,-36 0,0 69.25,0 69.25,-36"/>
<text xml:space="preserve" text-anchor="middle" x="34.62" y="-13.32" font-family="Times,serif" font-size="14.00">Compiz</text>
</g>
<!-- Improc -->
<g id="node2" class="node">
<title>Improc</title>
<polygon fill="none" stroke="black" points="171.5,-36 105.25,-36 105.25,0 171.5,0 171.5,-36"/>
<text xml:space="preserve" text-anchor="middle" x="138.38" y="-13.32" font-family="Times,serif" font-size="14.00">Improc</text>
</g>
<!-- Compiz&#45;&gt;Improc -->
<g id="edge1" class="edge">
<title>Compiz&#45;&gt;Improc</title>
<path fill="none" stroke="black" d="M69.51,-18C77.2,-18 85.47,-18 93.51,-18"/>
<polygon fill="black" stroke="black" points="93.51,-21.5 103.51,-18 93.51,-14.5 93.51,-21.5"/>
</g>
<!-- Timing Controller -->
<g id="node3" class="node">
<title>Timing Controller</title>
<polygon fill="none" stroke="black" points="350.25,-36 207.5,-36 207.5,0 350.25,0 350.25,-36"/>
<text xml:space="preserve" text-anchor="middle" x="278.88" y="-13.32" font-family="Times,serif" font-size="14.00">Timing Controller</text>
</g>
<!-- Improc&#45;&gt;Timing Controller -->
<g id="edge2" class="edge">
<title>Improc&#45;&gt;Timing Controller</title>
<path fill="none" stroke="black" d="M171.85,-18C179.16,-18 187.24,-18 195.58,-18"/>
<polygon fill="black" stroke="black" points="195.56,-21.5 205.56,-18 195.56,-14.5 195.56,-21.5"/>
</g>
</g>
</svg>
