<?xml version="1.0" encoding="UTF-8" standalone="no"?>
<!DOCTYPE svg PUBLIC "-//W3C//DTD SVG 1.1//EN"
 "http://www.w3.org/Graphics/SVG/1.1/DTD/svg11.dtd">
<!-- Generated by graphviz version 14.1.2 (20260126.1125)
 -->
<!-- Title: peer_states Pages: 1 -->
<svg width="489pt" height="223pt"
 viewBox="0.00 0.00 489.00 223.00" xmlns="http://www.w3.org/2000/svg" xmlns:xlink="http://www.w3.org/1999/xlink">
<g id="graph0" class="graph" transform="scale(1 1) rotate(0) translate(4 218.5)">
<title>peer_states</title>
<polygon fill="white" stroke="none" points="-4,4 -4,-218.5 485.39,-218.5 485.39,4 -4,4"/>
<!-- Secondary -->
<g id="node1" class="node">
<title>Secondary</title>
<ellipse fill="none" stroke="black" cx="219.45" cy="-196.5" rx="63.83" ry="18"/>
<text xml:space="preserve" text-anchor="middle" x="219.45" y="-191.82" font-family="Times,serif" font-size="14.00">Secondary</text>
</g>
<!-- Primary -->
<g id="node2" class="node">
<title>Primary</title>
<ellipse fill="none" stroke="black" cx="109.45" cy="-107.25" rx="51.73" ry="18"/>
<text xml:space="preserve" text-anchor="middle" x="109.45" y="-102.58" font-family="Times,serif" font-size="14.00">Primary</text>
</g>
<!-- Secondary&#45;&gt;Primary -->
<g id="edge1" class="edge">
<title>Secondary&#45;&gt;Primary</title>
<path fill="none" stroke="black" d="M155.97,-193.91C100.01,-191 24.5,-182.91 5.45,-160.5 -12.53,-139.33 18.78,-125.83 51.64,-117.87"/>
<polygon fill="black" stroke="black" points="52.3,-121.31 61.29,-115.71 50.77,-114.48 52.3,-121.31"/>
<text xml:space="preserve" text-anchor="middle" x="66.95" y="-147.2" font-family="Times,serif" font-size="14.00">recv state packet</text>
</g>
<!-- Unknown -->
<g id="node3" class="node">
<title>Unknown</title>
<ellipse fill="none" stroke="black" cx="244.45" cy="-18" rx="58.57" ry="18"/>
<text xml:space="preserve" text-anchor="middle" x="244.45" y="-13.32" font-family="Times,serif" font-size="14.00">Unknown</text>
</g>
<!-- Secondary&#45;&gt;Unknown -->
<g id="edge4" class="edge">
<title>Secondary&#45;&gt;Unknown</title>
<path fill="none" stroke="black" d="M253.8,-180.98C262.02,-175.78 269.77,-169.03 274.45,-160.5 297.23,-119.01 290.87,-98.39 274.45,-54 273.24,-50.73 271.57,-47.56 269.64,-44.54"/>
<polygon fill="black" stroke="black" points="272.54,-42.58 263.7,-36.75 266.97,-46.82 272.54,-42.58"/>
<text xml:space="preserve" text-anchor="middle" x="343.25" y="-102.58" font-family="Times,serif" font-size="14.00">connection lost</text>
</g>
<!-- Primary&#45;&gt;Secondary -->
<g id="edge2" class="edge">
<title>Primary&#45;&gt;Secondary</title>
<path fill="none" stroke="black" d="M120.4,-125.33C128.1,-136.37 139.19,-150.49 151.45,-160.5 158.39,-166.17 166.4,-171.28 174.43,-175.73"/>
<polygon fill="black" stroke="black" points="172.71,-178.78 183.2,-180.32 175.96,-172.58 172.71,-178.78"/>
<text xml:space="preserve" text-anchor="middle" x="212.95" y="-147.2" font-family="Times,serif" font-size="14.00">recv state packet</text>
</g>
<!-- Primary&#45;&gt;Unknown -->
<g id="edge3" class="edge">
<title>Primary&#45;&gt;Unknown</title>
<path fill="none" stroke="black" d="M85.92,-90.88C72.66,-80.32 60.55,-66.09 70.45,-54 83.94,-37.53 133.54,-28.65 176.36,-23.95"/>
<polygon fill="black" stroke="black" points="176.54,-27.45 186.13,-22.95 175.83,-20.49 176.54,-27.45"/>
<text xml:space="preserve" text-anchor="middle" x="124.45" y="-57.95" font-family="Times,serif" font-size="14.00">connection lost</text>
</g>
<!-- Unknown&#45;&gt;Secondary -->
<g id="edge6" class="edge">
<title>Unknown&#45;&gt;Secondary</title>
<path fill="none" stroke="black" d="M289.98,-29.52C347.23,-44.99 434.31,-77.35 401.45,-125.25 376.55,-161.55 330.02,-179.1 290.24,-187.58"/>
<polygon fill="black" stroke="black" points="289.58,-184.14 280.44,-189.5 290.93,-191.01 289.58,-184.14"/>
<text xml:space="preserve" text-anchor="middle" x="445.01" y="-102.58" font-family="Times,serif" font-size="14.00">connected</text>
</g>
<!-- Unknown&#45;&gt;Primary -->
<g id="edge5" class="edge">
<title>Unknown&#45;&gt;Primary</title>
<path fill="none" stroke="black" d="M224.62,-35.42C208.75,-48.42 187.68,-65.34 178.45,-71.25 169.56,-76.94 159.63,-82.44 150.13,-87.32"/>
<polygon fill="black" stroke="black" points="148.79,-84.08 141.42,-91.68 151.93,-90.33 148.79,-84.08"/>
<text xml:space="preserve" text-anchor="middle" x="237.77" y="-57.95" font-family="Times,serif" font-size="14.00">connected</text>
</g>
</g>
</svg>
