<?xml version="1.0" encoding="UTF-8" standalone="no"?>
<!DOCTYPE svg PUBLIC "-//W3C//DTD SVG 1.1//EN"
 "http://www.w3.org/Graphics/SVG/1.1/DTD/svg11.dtd">
<!-- Generated by graphviz version 14.1.2 (20260126.1125)
 -->
<!-- Title: board Pages: 1 -->
<svg width="733pt" height="415pt"
 viewBox="0.00 0.00 733.00 415.00" xmlns="http://www.w3.org/2000/svg" xmlns:xlink="http://www.w3.org/1999/xlink">
<g id="graph0" class="graph" transform="scale(1 1) rotate(0) translate(4 411.25)">
<title>board</title>
<polygon fill="white" stroke="none" points="-4,4 -4,-411.25 729.25,-411.25 729.25,4 -4,4"/>
<!-- n00000001 -->
<g id="node1" class="node">
<title>n00000001</title>
<path fill="green" stroke="black" d="M368.25,-209C368.25,-209 481,-209 481,-209 487,-209 493,-215 493,-221 493,-221 493,-290 493,-290 493,-296 487,-302 481,-302 481,-302 368.25,-302 368.25,-302 362.25,-302 356.25,-296 356.25,-290 356.25,-290 356.25,-221 356.25,-221 356.25,-215 362.25,-209 368.25,-209"/>
<text xml:space="preserve" text-anchor="middle" x="424.25" y="-284.7" font-family="Times,serif" font-size="14.00">0</text>
<polyline fill="none" stroke="black" points="356.25,-276.75 493,-276.75"/>
<text xml:space="preserve" text-anchor="middle" x="424.62" y="-259.45" font-family="Times,serif" font-size="14.00">csi2</text>
<text xml:space="preserve" text-anchor="middle" x="424.62" y="-242.2" font-family="Times,serif" font-size="14.00">/dev/v4l&#45;subdev0</text>
<polyline fill="none" stroke="black" points="356.25,-234.25 493,-234.25"/>
<text xml:space="preserve" text-anchor="middle" x="373.25" y="-216.95" font-family="Times,serif" font-size="14.00">1</text>
<polyline fill="none" stroke="black" points="390.25,-209 390.25,-234.25"/>
<text xml:space="preserve" text-anchor="middle" x="407.25" y="-216.95" font-family="Times,serif" font-size="14.00">2</text>
<polyline fill="none" stroke="black" points="424.25,-209 424.25,-234.25"/>
<text xml:space="preserve" text-anchor="middle" x="441.25" y="-216.95" font-family="Times,serif" font-size="14.00">3</text>
<polyline fill="none" stroke="black" points="458.25,-209 458.25,-234.25"/>
<text xml:space="preserve" text-anchor="middle" x="475.25" y="-216.95" font-family="Times,serif" font-size="14.00">4</text>
</g>
<!-- n00000011 -->
<g id="node2" class="node">
<title>n00000011</title>
<polygon fill="yellow" stroke="black" points="129.25,-146.75 0,-146.75 0,-104.25 129.25,-104.25 129.25,-146.75"/>
<text xml:space="preserve" text-anchor="middle" x="64.62" y="-129.45" font-family="Times,serif" font-size="14.00">rp1&#45;cfe&#45;csi2&#45;ch0</text>
<text xml:space="preserve" text-anchor="middle" x="64.62" y="-112.2" font-family="Times,serif" font-size="14.00">/dev/video0</text>
</g>
<!-- n00000001&#45;&gt;n00000011 -->
<g id="edge1" class="edge">
<title>n00000001:port1&#45;&gt;n00000011</title>
<path fill="none" stroke="black" stroke-dasharray="5,2" d="M355.25,-221.62C256.09,-221.62 229.25,-210.39 137.62,-172.5 125.42,-167.45 112.96,-160.42 101.87,-153.38"/>
<polygon fill="black" stroke="black" points="104.07,-150.63 93.79,-148.07 100.22,-156.48 104.07,-150.63"/>
</g>
<!-- n00000007 -->
<g id="node3" class="node">
<title>n00000007</title>
<path fill="green" stroke="black" d="M453.25,-79C453.25,-79 566,-79 566,-79 572,-79 578,-85 578,-91 578,-91 578,-160 578,-160 578,-166 572,-172 566,-172 566,-172 453.25,-172 453.25,-172 447.25,-172 441.25,-166 441.25,-160 441.25,-160 441.25,-91 441.25,-91 441.25,-85 447.25,-79 453.25,-79"/>
<text xml:space="preserve" text-anchor="middle" x="475.25" y="-154.7" font-family="Times,serif" font-size="14.00">0</text>
<polyline fill="none" stroke="black" points="509.25,-146.75 509.25,-172"/>
<text xml:space="preserve" text-anchor="middle" x="543.25" y="-154.7" font-family="Times,serif" font-size="14.00">1</text>
<polyline fill="none" stroke="black" points="441.25,-146.75 578,-146.75"/>
<text xml:space="preserve" text-anchor="middle" x="509.62" y="-129.45" font-family="Times,serif" font-size="14.00">pisp&#45;fe</text>
<text xml:space="preserve" text-anchor="middle" x="509.62" y="-112.2" font-family="Times,serif" font-size="14.00">/dev/v4l&#45;subdev1</text>
<polyline fill="none" stroke="black" points="441.25,-104.25 578,-104.25"/>
<text xml:space="preserve" text-anchor="middle" x="463.75" y="-86.95" font-family="Times,serif" font-size="14.00">2</text>
<polyline fill="none" stroke="black" points="486.25,-79 486.25,-104.25"/>
<text xml:space="preserve" text-anchor="middle" x="509.25" y="-86.95" font-family="Times,serif" font-size="14.00">3</text>
<polyline fill="none" stroke="black" points="532.25,-79 532.25,-104.25"/>
<text xml:space="preserve" text-anchor="middle" x="554.75" y="-86.95" font-family="Times,serif" font-size="14.00">4</text>
</g>
<!-- n00000001&#45;&gt;n00000007 -->
<g id="edge2" class="edge">
<title>n00000001:port1&#45;&gt;n00000007:port0</title>
<path fill="none" stroke="black" d="M373.25,-208.5C373.25,-177.64 411.01,-194.53 432.62,-172.5 433.58,-171.52 434.19,-170.4 434.6,-169.23"/>
<polygon fill="black" stroke="black" points="437.56,-171.11 439.5,-160.69 431.49,-167.63 437.56,-171.11"/>
</g>
<!-- n00000001&#45;&gt;n00000007 -->
<g id="edge4" class="edge">
<title>n00000001:port2&#45;&gt;n00000007:port0</title>
<path fill="none" stroke="black" stroke-dasharray="5,2" d="M407.25,-208.5C407.25,-188.92 422.06,-188.98 432.62,-172.5 433.36,-171.35 433.84,-170.12 434.18,-168.9"/>
<polygon fill="black" stroke="black" points="437.02,-170.97 439.44,-160.65 431.11,-167.21 437.02,-170.97"/>
</g>
<!-- n00000001&#45;&gt;n00000007 -->
<g id="edge6" class="edge">
<title>n00000001:port3&#45;&gt;n00000007:port0</title>
<path fill="none" stroke="black" stroke-dasharray="5,2" d="M441.25,-208.5C441.25,-201.25 435.99,-181.97 435.66,-169.83"/>
<polygon fill="black" stroke="black" points="438.83,-171.32 439.64,-160.76 432.42,-168.51 438.83,-171.32"/>
</g>
<!-- n00000001&#45;&gt;n00000007 -->
<g id="edge8" class="edge">
<title>n00000001:port4&#45;&gt;n00000007:port0</title>
<path fill="none" stroke="black" stroke-dasharray="5,2" d="M475.25,-208.5C475.25,-186.49 450.15,-192.63 441.25,-172.5 440.99,-171.91 440.71,-171.3 440.41,-170.67"/>
<polygon fill="black" stroke="black" points="443.92,-170.84 440.27,-160.89 436.92,-170.94 443.92,-170.84"/>
</g>
<!-- n00000015 -->
<g id="node4" class="node">
<title>n00000015</title>
<polygon fill="yellow" stroke="black" points="276.25,-146.75 147,-146.75 147,-104.25 276.25,-104.25 276.25,-146.75"/>
<text xml:space="preserve" text-anchor="middle" x="211.62" y="-129.45" font-family="Times,serif" font-size="14.00">rp1&#45;cfe&#45;csi2&#45;ch1</text>
<text xml:space="preserve" text-anchor="middle" x="211.62" y="-112.2" font-family="Times,serif" font-size="14.00">/dev/video1</text>
</g>
<!-- n00000001&#45;&gt;n00000015 -->
<g id="edge3" class="edge">
<title>n00000001:port2&#45;&gt;n00000015</title>
<path fill="none" stroke="black" d="M407.25,-208.5C407.25,-151.7 336.4,-195.86 284.62,-172.5 272.92,-167.22 260.86,-160.31 250.01,-153.46"/>
<polygon fill="black" stroke="black" points="251.98,-150.57 241.69,-148.06 248.17,-156.44 251.98,-150.57"/>
</g>
<!-- n00000019 -->
<g id="node5" class="node">
<title>n00000019</title>
<polygon fill="yellow" stroke="black" points="423.25,-146.75 294,-146.75 294,-104.25 423.25,-104.25 423.25,-146.75"/>
<text xml:space="preserve" text-anchor="middle" x="358.62" y="-129.45" font-family="Times,serif" font-size="14.00">rp1&#45;cfe&#45;csi2&#45;ch2</text>
<text xml:space="preserve" text-anchor="middle" x="358.62" y="-112.2" font-family="Times,serif" font-size="14.00">/dev/video2</text>
</g>
<!-- n00000001&#45;&gt;n00000019 -->
<g id="edge5" class="edge">
<title>n00000001:port3&#45;&gt;n00000019</title>
<path fill="none" stroke="black" stroke-dasharray="5,2" d="M441.25,-208.5C441.25,-185.75 425.27,-167.15 407.37,-153.45"/>
<polygon fill="black" stroke="black" points="409.89,-150.95 399.72,-148 405.83,-156.65 409.89,-150.95"/>
</g>
<!-- n0000001d -->
<g id="node6" class="node">
<title>n0000001d</title>
<polygon fill="yellow" stroke="black" points="725.25,-146.75 596,-146.75 596,-104.25 725.25,-104.25 725.25,-146.75"/>
<text xml:space="preserve" text-anchor="middle" x="660.62" y="-129.45" font-family="Times,serif" font-size="14.00">rp1&#45;cfe&#45;csi2&#45;ch3</text>
<text xml:space="preserve" text-anchor="middle" x="660.62" y="-112.2" font-family="Times,serif" font-size="14.00">/dev/video3</text>
</g>
<!-- n00000001&#45;&gt;n0000001d -->
<g id="edge7" class="edge">
<title>n00000001:port4&#45;&gt;n0000001d</title>
<path fill="none" stroke="black" stroke-dasharray="5,2" d="M493.25,-221.62C500.17,-221.62 496.34,-212.97 501.62,-208.5 532.96,-182.02 550.2,-191.39 586.62,-172.5 597.83,-166.69 609.6,-159.78 620.36,-153.1"/>
<polygon fill="black" stroke="black" points="622.05,-156.17 628.65,-147.88 618.32,-150.25 622.05,-156.17"/>
</g>
<!-- n00000021 -->
<g id="node7" class="node">
<title>n00000021</title>
<polygon fill="yellow" stroke="black" points="421.25,-42.5 280,-42.5 280,0 421.25,0 421.25,-42.5"/>
<text xml:space="preserve" text-anchor="middle" x="350.62" y="-25.2" font-family="Times,serif" font-size="14.00">rp1&#45;cfe&#45;fe&#45;image0</text>
<text xml:space="preserve" text-anchor="middle" x="350.62" y="-7.95" font-family="Times,serif" font-size="14.00">/dev/video4</text>
</g>
<!-- n00000007&#45;&gt;n00000021 -->
<g id="edge9" class="edge">
<title>n00000007:port2&#45;&gt;n00000021</title>
<path fill="none" stroke="black" d="M440.25,-91.62C433.5,-91.62 437.21,-83.45 432.62,-78.5 422.43,-67.51 409.71,-57.5 397.36,-49.07"/>
<polygon fill="black" stroke="black" points="399.57,-46.34 389.29,-43.78 395.73,-52.19 399.57,-46.34"/>
</g>
<!-- n00000025 -->
<g id="node8" class="node">
<title>n00000025</title>
<polygon fill="yellow" stroke="black" points="580.25,-42.5 439,-42.5 439,0 580.25,0 580.25,-42.5"/>
<text xml:space="preserve" text-anchor="middle" x="509.62" y="-25.2" font-family="Times,serif" font-size="14.00">rp1&#45;cfe&#45;fe&#45;image1</text>
<text xml:space="preserve" text-anchor="middle" x="509.62" y="-7.95" font-family="Times,serif" font-size="14.00">/dev/video5</text>
</g>
<!-- n00000007&#45;&gt;n00000025 -->
<g id="edge10" class="edge">
<title>n00000007:port3&#45;&gt;n00000025</title>
<path fill="none" stroke="black" stroke-dasharray="5,2" d="M509.25,-78.5C509.25,-70.65 509.29,-62.19 509.34,-54.27"/>
<polygon fill="black" stroke="black" points="512.84,-54.36 509.41,-44.33 505.84,-54.31 512.84,-54.36"/>
</g>
<!-- n00000029 -->
<g id="node9" class="node">
<title>n00000029</title>
<polygon fill="yellow" stroke="black" points="722.62,-42.5 598.62,-42.5 598.62,0 722.62,0 722.62,-42.5"/>
<text xml:space="preserve" text-anchor="middle" x="660.62" y="-25.2" font-family="Times,serif" font-size="14.00">rp1&#45;cfe&#45;fe&#45;stats</text>
<text xml:space="preserve" text-anchor="middle" x="660.62" y="-7.95" font-family="Times,serif" font-size="14.00">/dev/video6</text>
</g>
<!-- n00000007&#45;&gt;n00000029 -->
<g id="edge11" class="edge">
<title>n00000007:port4&#45;&gt;n00000029</title>
<path fill="none" stroke="black" d="M578.25,-91.62C585.17,-91.62 581.94,-83.59 586.62,-78.5 596.37,-67.92 608.31,-57.88 619.72,-49.3"/>
<polygon fill="black" stroke="black" points="621.48,-52.35 627.49,-43.63 617.35,-46.7 621.48,-52.35"/>
</g>
<!-- n0000000d -->
<g id="node10" class="node">
<title>n0000000d</title>
<path fill="green" stroke="black" d="M368.25,-339C368.25,-339 481,-339 481,-339 487,-339 493,-345 493,-351 493,-351 493,-394.75 493,-394.75 493,-400.75 487,-406.75 481,-406.75 481,-406.75 368.25,-406.75 368.25,-406.75 362.25,-406.75 356.25,-400.75 356.25,-394.75 356.25,-394.75 356.25,-351 356.25,-351 356.25,-345 362.25,-339 368.25,-339"/>
<text xml:space="preserve" text-anchor="middle" x="424.62" y="-389.45" font-family="Times,serif" font-size="14.00">imx219 6&#45;0010</text>
<text xml:space="preserve" text-anchor="middle" x="424.62" y="-372.2" font-family="Times,serif" font-size="14.00">/dev/v4l&#45;subdev2</text>
<polyline fill="none" stroke="black" points="356.25,-364.25 493,-364.25"/>
<text xml:space="preserve" text-anchor="middle" x="424.25" y="-346.95" font-family="Times,serif" font-size="14.00">0</text>
</g>
<!-- n0000000d&#45;&gt;n00000001 -->
<g id="edge12" class="edge">
<title>n0000000d:port0&#45;&gt;n00000001:port0</title>
<path fill="none" stroke="black" stroke-width="2" d="M424.25,-338.5C424.25,-327.12 424.25,-321.82 424.25,-313.95"/>
<polygon fill="black" stroke="black" stroke-width="2" points="427.75,-315.53 424.25,-305.53 420.75,-315.53 427.75,-315.53"/>
</g>
<!-- n0000002d -->
<g id="node11" class="node">
<title>n0000002d</title>
<polygon fill="yellow" stroke="black" points="642.38,-276.75 510.88,-276.75 510.88,-234.25 642.38,-234.25 642.38,-276.75"/>
<text xml:space="preserve" text-anchor="middle" x="576.62" y="-259.45" font-family="Times,serif" font-size="14.00">rp1&#45;cfe&#45;fe&#45;config</text>
<text xml:space="preserve" text-anchor="middle" x="576.62" y="-242.2" font-family="Times,serif" font-size="14.00">/dev/video7</text>
</g>
<!-- n0000002d&#45;&gt;n00000007 -->
<g id="edge13" class="edge">
<title>n0000002d&#45;&gt;n00000007:port1</title>
<path fill="none" stroke="black" d="M563.05,-233.86C555.4,-220.57 546.84,-202.39 544.13,-183.96"/>
<polygon fill="black" stroke="black" points="547.62,-183.71 543.37,-174.01 540.64,-184.25 547.62,-183.71"/>
</g>
</g>
</svg>
