<?xml version="1.0" encoding="UTF-8" standalone="no"?>
<!DOCTYPE svg PUBLIC "-//W3C//DTD SVG 1.1//EN"
 "http://www.w3.org/Graphics/SVG/1.1/DTD/svg11.dtd">
<!-- Generated by graphviz version 14.1.2 (20260126.1125)
 -->
<!-- Title: board Pages: 1 -->
<svg width="145pt" height="311pt"
 viewBox="0.00 0.00 145.00 311.00" xmlns="http://www.w3.org/2000/svg" xmlns:xlink="http://www.w3.org/1999/xlink">
<g id="graph0" class="graph" transform="scale(1 1) rotate(0) translate(4 306.5)">
<title>board</title>
<polygon fill="white" stroke="none" points="-4,4 -4,-306.5 140.75,-306.5 140.75,4 -4,4"/>
<!-- n00000001 -->
<g id="node1" class="node">
<title>n00000001</title>
<path fill="green" stroke="black" d="M12,-79C12,-79 124.75,-79 124.75,-79 130.75,-79 136.75,-85 136.75,-91 136.75,-91 136.75,-160 136.75,-160 136.75,-166 130.75,-172 124.75,-172 124.75,-172 12,-172 12,-172 6,-172 0,-166 0,-160 0,-160 0,-91 0,-91 0,-85 6,-79 12,-79"/>
<text xml:space="preserve" text-anchor="middle" x="68" y="-154.7" font-family="Times,serif" font-size="14.00">0</text>
<polyline fill="none" stroke="black" points="0,-146.75 136.75,-146.75"/>
<text xml:space="preserve" text-anchor="middle" x="68.38" y="-129.45" font-family="Times,serif" font-size="14.00">rkcif&#45;dvp0</text>
<text xml:space="preserve" text-anchor="middle" x="68.38" y="-112.2" font-family="Times,serif" font-size="14.00">/dev/v4l&#45;subdev0</text>
<polyline fill="none" stroke="black" points="0,-104.25 136.75,-104.25"/>
<text xml:space="preserve" text-anchor="middle" x="68" y="-86.95" font-family="Times,serif" font-size="14.00">1</text>
</g>
<!-- n00000004 -->
<g id="node2" class="node">
<title>n00000004</title>
<polygon fill="yellow" stroke="black" points="125.5,-42.5 11.25,-42.5 11.25,0 125.5,0 125.5,-42.5"/>
<text xml:space="preserve" text-anchor="middle" x="68.38" y="-25.2" font-family="Times,serif" font-size="14.00">rkcif&#45;dvp0&#45;id0</text>
<text xml:space="preserve" text-anchor="middle" x="68.38" y="-7.95" font-family="Times,serif" font-size="14.00">/dev/video0</text>
</g>
<!-- n00000001&#45;&gt;n00000004 -->
<g id="edge1" class="edge">
<title>n00000001:port1&#45;&gt;n00000004</title>
<path fill="none" stroke="black" d="M68,-78.5C68,-70.65 68.04,-62.19 68.09,-54.27"/>
<polygon fill="black" stroke="black" points="71.59,-54.36 68.16,-44.33 64.59,-54.31 71.59,-54.36"/>
</g>
<!-- n00000025 -->
<g id="node3" class="node">
<title>n00000025</title>
<path fill="green" stroke="black" d="M12,-209C12,-209 124.75,-209 124.75,-209 130.75,-209 136.75,-215 136.75,-221 136.75,-221 136.75,-290 136.75,-290 136.75,-296 130.75,-302 124.75,-302 124.75,-302 12,-302 12,-302 6,-302 0,-296 0,-290 0,-290 0,-221 0,-221 0,-215 6,-209 12,-209"/>
<text xml:space="preserve" text-anchor="middle" x="68.25" y="-284.7" font-family="Times,serif" font-size="14.00"> </text>
<polyline fill="none" stroke="black" points="0,-276.75 136.75,-276.75"/>
<text xml:space="preserve" text-anchor="middle" x="68.38" y="-259.45" font-family="Times,serif" font-size="14.00">it6801 2&#45;0048</text>
<text xml:space="preserve" text-anchor="middle" x="68.38" y="-242.2" font-family="Times,serif" font-size="14.00">/dev/v4l&#45;subdev1</text>
<polyline fill="none" stroke="black" points="0,-234.25 136.75,-234.25"/>
<text xml:space="preserve" text-anchor="middle" x="68" y="-216.95" font-family="Times,serif" font-size="14.00">0</text>
</g>
<!-- n00000025&#45;&gt;n00000001 -->
<g id="edge2" class="edge">
<title>n00000025:port0&#45;&gt;n00000001:port0</title>
<path fill="none" stroke="black" d="M68,-208.5C68,-197.12 68,-191.82 68,-183.95"/>
<polygon fill="black" stroke="black" points="71.5,-184.01 68,-174.01 64.5,-184.01 71.5,-184.01"/>
</g>
</g>
</svg>
