<?xml version="1.0" encoding="UTF-8" standalone="no"?>
<!DOCTYPE svg PUBLIC "-//W3C//DTD SVG 1.1//EN"
 "http://www.w3.org/Graphics/SVG/1.1/DTD/svg11.dtd">
<!-- Generated by graphviz version 14.1.2 (20260126.1125)
 -->
<!-- Title: board Pages: 1 -->
<svg width="365pt" height="423pt"
 viewBox="0.00 0.00 365.00 423.00" xmlns="http://www.w3.org/2000/svg" xmlns:xlink="http://www.w3.org/1999/xlink">
<g id="graph0" class="graph" transform="scale(1 1) rotate(0) translate(4 419.25)">
<title>board</title>
<polygon fill="white" stroke="none" points="-4,4 -4,-419.25 360.75,-419.25 360.75,4 -4,4"/>
<!-- n00000001 -->
<g id="node1" class="node">
<title>n00000001</title>
<path fill="green" stroke="black" d="M12,-79C12,-79 124.75,-79 124.75,-79 130.75,-79 136.75,-85 136.75,-91 136.75,-91 136.75,-160 136.75,-160 136.75,-166 130.75,-172 124.75,-172 124.75,-172 12,-172 12,-172 6,-172 0,-166 0,-160 0,-160 0,-91 0,-91 0,-85 6,-79 12,-79"/>
<text xml:space="preserve" text-anchor="middle" x="68" y="-154.7" font-family="Times,serif" font-size="14.00">0</text>
<polyline fill="none" stroke="black" points="0,-146.75 136.75,-146.75"/>
<text xml:space="preserve" text-anchor="middle" x="68.38" y="-129.45" font-family="Times,serif" font-size="14.00">stf_isp</text>
<text xml:space="preserve" text-anchor="middle" x="68.38" y="-112.2" font-family="Times,serif" font-size="14.00">/dev/v4l&#45;subdev0</text>
<polyline fill="none" stroke="black" points="0,-104.25 136.75,-104.25"/>
<text xml:space="preserve" text-anchor="middle" x="68" y="-86.95" font-family="Times,serif" font-size="14.00">1</text>
</g>
<!-- n00000008 -->
<g id="node2" class="node">
<title>n00000008</title>
<polygon fill="yellow" stroke="black" points="119.88,-42.5 16.88,-42.5 16.88,0 119.88,0 119.88,-42.5"/>
<text xml:space="preserve" text-anchor="middle" x="68.38" y="-25.2" font-family="Times,serif" font-size="14.00">capture_yuv</text>
<text xml:space="preserve" text-anchor="middle" x="68.38" y="-7.95" font-family="Times,serif" font-size="14.00">/dev/video1</text>
</g>
<!-- n00000001&#45;&gt;n00000008 -->
<g id="edge1" class="edge">
<title>n00000001:port1&#45;&gt;n00000008</title>
<path fill="none" stroke="black" stroke-dasharray="5,2" d="M68,-78.5C68,-70.65 68.04,-62.19 68.09,-54.27"/>
<polygon fill="black" stroke="black" points="71.59,-54.36 68.16,-44.33 64.59,-54.31 71.59,-54.36"/>
</g>
<!-- n00000004 -->
<g id="node3" class="node">
<title>n00000004</title>
<polygon fill="yellow" stroke="black" points="259.62,-146.75 155.12,-146.75 155.12,-104.25 259.62,-104.25 259.62,-146.75"/>
<text xml:space="preserve" text-anchor="middle" x="207.38" y="-129.45" font-family="Times,serif" font-size="14.00">capture_raw</text>
<text xml:space="preserve" text-anchor="middle" x="207.38" y="-112.2" font-family="Times,serif" font-size="14.00">/dev/video0</text>
</g>
<!-- n0000000e -->
<g id="node4" class="node">
<title>n0000000e</title>
<path fill="green" stroke="black" d="M118,-209C118,-209 344.75,-209 344.75,-209 350.75,-209 356.75,-215 356.75,-221 356.75,-221 356.75,-272.75 356.75,-272.75 356.75,-278.75 350.75,-284.75 344.75,-284.75 344.75,-284.75 118,-284.75 118,-284.75 112,-284.75 106,-278.75 106,-272.75 106,-272.75 106,-221 106,-221 106,-215 112,-209 118,-209"/>
<text xml:space="preserve" text-anchor="middle" x="231" y="-267.45" font-family="Times,serif" font-size="14.00">0</text>
<polyline fill="none" stroke="black" points="106,-259.5 356.75,-259.5"/>
<text xml:space="preserve" text-anchor="middle" x="231.38" y="-242.2" font-family="Times,serif" font-size="14.00">cdns_csi2rx.19800000.csi&#45;bridge</text>
<polyline fill="none" stroke="black" points="106,-234.25 356.75,-234.25"/>
<text xml:space="preserve" text-anchor="middle" x="137" y="-216.95" font-family="Times,serif" font-size="14.00">1</text>
<polyline fill="none" stroke="black" points="168,-209 168,-234.25"/>
<text xml:space="preserve" text-anchor="middle" x="199.5" y="-216.95" font-family="Times,serif" font-size="14.00">2</text>
<polyline fill="none" stroke="black" points="231,-209 231,-234.25"/>
<text xml:space="preserve" text-anchor="middle" x="262.5" y="-216.95" font-family="Times,serif" font-size="14.00">3</text>
<polyline fill="none" stroke="black" points="294,-209 294,-234.25"/>
<text xml:space="preserve" text-anchor="middle" x="325" y="-216.95" font-family="Times,serif" font-size="14.00">4</text>
</g>
<!-- n0000000e&#45;&gt;n00000001 -->
<g id="edge2" class="edge">
<title>n0000000e:port1&#45;&gt;n00000001:port0</title>
<path fill="none" stroke="black" stroke-dasharray="5,2" d="M105,-221.62C82.28,-221.62 126.42,-188.41 139.75,-170.5"/>
<polygon fill="black" stroke="black" points="143.16,-169.71 137.36,-160.84 136.36,-171.39 143.16,-169.71"/>
</g>
<!-- n0000000e&#45;&gt;n00000004 -->
<g id="edge3" class="edge">
<title>n0000000e:port1&#45;&gt;n00000004</title>
<path fill="none" stroke="black" stroke-dasharray="5,2" d="M137,-208.5C137,-187.13 150.93,-168.54 166.4,-154.49"/>
<polygon fill="black" stroke="black" points="168.54,-157.27 173.92,-148.14 164.02,-151.92 168.54,-157.27"/>
</g>
<!-- n00000018 -->
<g id="node5" class="node">
<title>n00000018</title>
<path fill="green" stroke="black" d="M175,-321.75C175,-321.75 287.75,-321.75 287.75,-321.75 293.75,-321.75 299.75,-327.75 299.75,-333.75 299.75,-333.75 299.75,-402.75 299.75,-402.75 299.75,-408.75 293.75,-414.75 287.75,-414.75 287.75,-414.75 175,-414.75 175,-414.75 169,-414.75 163,-408.75 163,-402.75 163,-402.75 163,-333.75 163,-333.75 163,-327.75 169,-321.75 175,-321.75"/>
<text xml:space="preserve" text-anchor="middle" x="231.25" y="-397.45" font-family="Times,serif" font-size="14.00"> </text>
<polyline fill="none" stroke="black" points="163,-389.5 299.75,-389.5"/>
<text xml:space="preserve" text-anchor="middle" x="231.38" y="-372.2" font-family="Times,serif" font-size="14.00">imx219 6&#45;0010</text>
<text xml:space="preserve" text-anchor="middle" x="231.38" y="-354.95" font-family="Times,serif" font-size="14.00">/dev/v4l&#45;subdev1</text>
<polyline fill="none" stroke="black" points="163,-347 299.75,-347"/>
<text xml:space="preserve" text-anchor="middle" x="231" y="-329.7" font-family="Times,serif" font-size="14.00">0</text>
</g>
<!-- n00000018&#45;&gt;n0000000e -->
<g id="edge4" class="edge">
<title>n00000018:port0&#45;&gt;n0000000e:port0</title>
<path fill="none" stroke="black" stroke-width="2" d="M231,-321.25C231,-309.88 231,-304.57 231,-296.7"/>
<polygon fill="black" stroke="black" stroke-width="2" points="234.5,-298.28 231,-288.28 227.5,-298.28 234.5,-298.28"/>
</g>
</g>
</svg>
