<?xml version="1.0" encoding="UTF-8" standalone="no"?>
<!DOCTYPE svg PUBLIC "-//W3C//DTD SVG 1.1//EN"
 "http://www.w3.org/Graphics/SVG/1.1/DTD/svg11.dtd">
<!-- Generated by graphviz version 14.1.2 (20260126.1125)
 -->
<!-- Title: T Pages: 1 -->
<svg width="581pt" height="461pt"
 viewBox="0.00 0.00 581.00 461.00" xmlns="http://www.w3.org/2000/svg" xmlns:xlink="http://www.w3.org/1999/xlink">
<g id="graph0" class="graph" transform="scale(1 1) rotate(0) translate(4 457.25)">
<title>T</title>
<polygon fill="white" stroke="none" points="-4,4 -4,-457.25 577.25,-457.25 577.25,4 -4,4"/>
<g id="clust1" class="cluster">
<title>cluster_driver</title>
<polygon fill="grey" stroke="black" points="289,-321.25 289,-445.25 518,-445.25 518,-321.25 289,-321.25"/>
</g>
<g id="clust2" class="cluster">
<title>cluster_topology</title>
<polygon fill="none" stroke="black" points="8,-8 8,-373.25 281,-373.25 281,-8 8,-8"/>
<text xml:space="preserve" text-anchor="middle" x="144.5" y="-15.95" font-family="Times,serif" font-size="14.00">Topology Manager</text>
</g>
<!-- driver -->
<g id="node1" class="node">
<title>driver</title>
<polygon fill="lightblue" stroke="black" points="453,-437.25 353,-437.25 353,-401.25 453,-401.25 453,-437.25"/>
<text xml:space="preserve" text-anchor="middle" x="403" y="-414.57" font-family="Times,serif" font-size="14.00">DRM driver</text>
</g>
<!-- payload1 -->
<g id="node2" class="node">
<title>payload1</title>
<polygon fill="lightblue" stroke="black" points="394.5,-365.25 297.5,-365.25 297.5,-329.25 394.5,-329.25 394.5,-365.25"/>
<text xml:space="preserve" text-anchor="middle" x="346" y="-342.57" font-family="Times,serif" font-size="14.00">Payload #1</text>
</g>
<!-- driver&#45;&gt;payload1 -->
<g id="edge1" class="edge">
<title>driver&#45;&gt;payload1</title>
<path fill="none" stroke="black" d="M388.91,-400.95C380.07,-390.1 368.73,-376.17 359.93,-365.35"/>
</g>
<!-- payload2 -->
<g id="node3" class="node">
<title>payload2</title>
<polygon fill="lightblue" stroke="black" stroke-width="3" points="509.5,-365.25 412.5,-365.25 412.5,-329.25 509.5,-329.25 509.5,-365.25"/>
<text xml:space="preserve" text-anchor="middle" x="461" y="-342.57" font-family="Times,serif" font-size="14.00">Payload #2</text>
</g>
<!-- driver&#45;&gt;payload2 -->
<g id="edge2" class="edge">
<title>driver&#45;&gt;payload2</title>
<path fill="none" stroke="black" stroke-width="3" d="M417.34,-400.95C426.06,-390.42 437.18,-377 446.02,-366.33"/>
</g>
<!-- port1 -->
<g id="node4" class="node">
<title>port1</title>
<ellipse fill="none" stroke="black" cx="213" cy="-275.25" rx="50.16" ry="18"/>
<text xml:space="preserve" text-anchor="middle" x="213" y="-270.57" font-family="Times,serif" font-size="14.00">Port #1</text>
</g>
<!-- driver&#45;&gt;port1 -->
<g id="edge3" class="edge">
<title>driver&#45;&gt;port1</title>
<path fill="none" stroke="black" stroke-dasharray="5,2" d="M352.52,-416.91C284.83,-413.92 170.11,-404.29 144,-373.25 129.12,-355.56 132.99,-341.57 144,-321.25 149.95,-310.27 159.86,-301.55 170.34,-294.82"/>
<polygon fill="black" stroke="black" points="171.83,-298 178.72,-289.95 168.32,-291.95 171.83,-298"/>
</g>
<!-- port2 -->
<g id="node5" class="node">
<title>port2</title>
<ellipse fill="none" stroke="black" stroke-width="5" cx="87" cy="-275.25" rx="50.16" ry="18"/>
<text xml:space="preserve" text-anchor="middle" x="87" y="-270.57" font-family="Times,serif" font-size="14.00">Port #2</text>
</g>
<!-- driver&#45;&gt;port2 -->
<g id="edge4" class="edge">
<title>driver&#45;&gt;port2</title>
<path fill="none" stroke="black" stroke-dasharray="5,2" d="M352.7,-415.61C283.59,-411.04 163.96,-399.52 130,-373.25 109.13,-357.1 98.15,-328.65 92.53,-306.73"/>
<polygon fill="black" stroke="black" points="95.97,-306.09 90.33,-297.12 89.15,-307.65 95.97,-306.09"/>
</g>
<!-- port3 -->
<g id="node6" class="node">
<title>port3</title>
<ellipse fill="none" stroke="black" stroke-width="3" cx="203" cy="-131.25" rx="50.16" ry="18"/>
<text xml:space="preserve" text-anchor="middle" x="203" y="-126.58" font-family="Times,serif" font-size="14.00">Port #3</text>
</g>
<!-- driver&#45;&gt;port3 -->
<g id="edge5" class="edge">
<title>driver&#45;&gt;port3:e</title>
<path fill="none" stroke="black" stroke-dasharray="5,2" d="M453.16,-417.61C487,-414.23 529.45,-403.62 552,-373.25 582.74,-331.86 576.97,-302.35 552,-257.25 484.45,-135.26 403.05,-131.37 266.61,-131.25"/>
<polygon fill="black" stroke="black" points="266.92,-127.75 256.92,-131.25 266.92,-134.75 266.92,-127.75"/>
</g>
<!-- port4 -->
<g id="node7" class="node">
<title>port4</title>
<ellipse fill="grey" stroke="black" cx="76" cy="-131.25" rx="50.16" ry="18"/>
<text xml:space="preserve" text-anchor="middle" x="76" y="-126.58" font-family="Times,serif" font-size="14.00">Port #4</text>
</g>
<!-- driver&#45;&gt;port4 -->
<g id="edge6" class="edge">
<title>driver&#45;&gt;port4</title>
<path fill="none" stroke="grey" stroke-dasharray="5,2" d="M453.43,-411.9C477.51,-406.05 504.23,-394.82 519,-373.25 532.06,-354.18 530.58,-341.25 519,-321.25 458.14,-216.16 394.49,-231.02 282,-185.25 274.71,-182.28 185.74,-159.76 127.14,-145.04"/>
<polygon fill="grey" stroke="grey" points="128.23,-141.71 117.68,-142.67 126.53,-148.5 128.23,-141.71"/>
</g>
<!-- payload1&#45;&gt;port1 -->
<g id="edge7" class="edge">
<title>payload1:s&#45;&gt;port1:e</title>
<path fill="none" stroke="black" stroke-dasharray="5,2" d="M346,-328.25C346,-288.97 314.34,-277.29 276.12,-275.51"/>
<polygon fill="black" stroke="black" points="276.21,-272.01 266.14,-275.28 276.06,-279 276.21,-272.01"/>
</g>
<!-- payload2&#45;&gt;port3 -->
<g id="edge8" class="edge">
<title>payload2:s&#45;&gt;port3:e</title>
<path fill="none" stroke="black" stroke-width="3" stroke-dasharray="5,2" d="M461,-328.25C461,-206.52 387.86,-136.7 269.66,-131.56"/>
<polygon fill="black" stroke="black" stroke-width="3" points="270.02,-128.06 259.94,-131.35 269.87,-135.06 270.02,-128.06"/>
</g>
<!-- mstb2 -->
<g id="node9" class="node">
<title>mstb2</title>
<ellipse fill="palegreen" stroke="black" cx="213" cy="-203.25" rx="59.63" ry="18"/>
<text xml:space="preserve" text-anchor="middle" x="213" y="-198.57" font-family="Times,serif" font-size="14.00">MSTB #2</text>
</g>
<!-- port1&#45;&gt;mstb2 -->
<g id="edge11" class="edge">
<title>port1&#45;&gt;mstb2</title>
<path fill="none" stroke="black" d="M207.08,-256.95C206.33,-249.66 206.09,-240.98 206.35,-232.79"/>
<polygon fill="black" stroke="black" points="209.84,-233.07 207.01,-222.86 202.86,-232.61 209.84,-233.07"/>
</g>
<!-- port1&#45;&gt;mstb2 -->
<g id="edge18" class="edge">
<title>port1&#45;&gt;mstb2</title>
<path fill="none" stroke="black" stroke-dasharray="5,2" d="M219.65,-245.49C219.91,-237.29 219.66,-228.62 218.9,-221.35"/>
<polygon fill="black" stroke="black" points="216.16,-245.23 219.01,-255.44 223.15,-245.68 216.16,-245.23"/>
</g>
<!-- mstb3 -->
<g id="node10" class="node">
<title>mstb3</title>
<ellipse fill="palegreen" stroke="black" stroke-width="3" cx="76" cy="-203.25" rx="59.63" ry="18"/>
<text xml:space="preserve" text-anchor="middle" x="76" y="-198.57" font-family="Times,serif" font-size="14.00">MSTB #3</text>
</g>
<!-- port2&#45;&gt;mstb3 -->
<g id="edge12" class="edge">
<title>port2&#45;&gt;mstb3</title>
<path fill="none" stroke="grey" d="M77.9,-255.12C76.27,-248.51 74.89,-240.93 73.95,-233.69"/>
<polygon fill="grey" stroke="grey" points="77.45,-233.51 73,-223.9 70.48,-234.19 77.45,-233.51"/>
</g>
<!-- port2&#45;&gt;mstb3 -->
<g id="edge19" class="edge">
<title>port2&#45;&gt;mstb3</title>
<path fill="none" stroke="black" stroke-width="3" stroke-dasharray="5,2" d="M88.49,-240.82C87.54,-234.46 86.28,-228.04 84.85,-222.39"/>
<polygon fill="black" stroke="black" stroke-width="3" points="85,-241.06 89.58,-250.61 91.95,-240.28 85,-241.06"/>
</g>
<!-- mstb4 -->
<g id="node11" class="node">
<title>mstb4</title>
<ellipse fill="grey" stroke="black" cx="203" cy="-59.25" rx="59.63" ry="18"/>
<text xml:space="preserve" text-anchor="middle" x="203" y="-54.58" font-family="Times,serif" font-size="14.00">MSTB #4</text>
</g>
<!-- port3&#45;&gt;mstb4 -->
<g id="edge15" class="edge">
<title>port3&#45;&gt;mstb4</title>
<path fill="none" stroke="grey" d="M197.01,-112.22C196.32,-105.12 196.1,-96.79 196.35,-88.9"/>
<polygon fill="grey" stroke="grey" points="199.84,-89.21 196.99,-79 192.85,-88.75 199.84,-89.21"/>
</g>
<!-- port3&#45;&gt;mstb4 -->
<g id="edge22" class="edge">
<title>port3&#45;&gt;mstb4</title>
<path fill="none" stroke="grey" stroke-dasharray="5,2" d="M209.67,-101C209.9,-93 209.64,-84.58 208.91,-77.49"/>
<polygon fill="grey" stroke="grey" points="206.19,-100.52 209.08,-110.71 213.18,-100.94 206.19,-100.52"/>
</g>
<!-- mstb1 -->
<g id="node8" class="node">
<title>mstb1</title>
<ellipse fill="palegreen" stroke="black" cx="213" cy="-347.25" rx="59.63" ry="18"/>
<text xml:space="preserve" text-anchor="middle" x="213" y="-342.57" font-family="Times,serif" font-size="14.00">MSTB #1</text>
</g>
<!-- mstb1&#45;&gt;port1 -->
<g id="edge9" class="edge">
<title>mstb1&#45;&gt;port1</title>
<path fill="none" stroke="black" d="M207.08,-328.95C206.33,-321.66 206.09,-312.98 206.35,-304.79"/>
<polygon fill="black" stroke="black" points="209.84,-305.07 207.01,-294.86 202.86,-304.61 209.84,-305.07"/>
</g>
<!-- mstb1&#45;&gt;port1 -->
<g id="edge16" class="edge">
<title>mstb1&#45;&gt;port1</title>
<path fill="none" stroke="black" stroke-dasharray="5,2" d="M219.65,-317.49C219.91,-309.29 219.66,-300.62 218.9,-293.35"/>
<polygon fill="black" stroke="black" points="216.16,-317.23 219.01,-327.44 223.15,-317.68 216.16,-317.23"/>
</g>
<!-- mstb1&#45;&gt;port2 -->
<g id="edge10" class="edge">
<title>mstb1&#45;&gt;port2</title>
<path fill="none" stroke="black" d="M181.3,-331.75C163.05,-322.29 140.21,-309.74 121.53,-298.97"/>
<polygon fill="black" stroke="black" points="123.34,-295.98 112.94,-293.96 119.82,-302.02 123.34,-295.98"/>
</g>
<!-- mstb1&#45;&gt;port2 -->
<g id="edge17" class="edge">
<title>mstb1&#45;&gt;port2</title>
<path fill="none" stroke="black" stroke-dasharray="5,2" d="M180.05,-324.44C161.42,-313.67 138.3,-300.94 119.71,-291.28"/>
<polygon fill="black" stroke="black" points="178.17,-327.4 188.57,-329.43 181.7,-321.35 178.17,-327.4"/>
</g>
<!-- mstb3&#45;&gt;port3 -->
<g id="edge13" class="edge">
<title>mstb3&#45;&gt;port3</title>
<path fill="none" stroke="grey" d="M100.56,-185.48C117.84,-175.36 141.25,-162.41 161.38,-151.81"/>
<polygon fill="grey" stroke="grey" points="162.96,-154.94 170.21,-147.22 159.73,-148.73 162.96,-154.94"/>
</g>
<!-- mstb3&#45;&gt;port3 -->
<g id="edge20" class="edge">
<title>mstb3&#45;&gt;port3</title>
<path fill="none" stroke="black" stroke-width="3" stroke-dasharray="5,2" d="M121.95,-180.4C141.47,-170.04 163.35,-157.89 179.52,-148.38"/>
<polygon fill="black" stroke="black" stroke-width="3" points="120.49,-177.21 113.26,-184.95 123.74,-183.41 120.49,-177.21"/>
</g>
<!-- mstb3&#45;&gt;port4 -->
<g id="edge14" class="edge">
<title>mstb3&#45;&gt;port4</title>
<path fill="none" stroke="grey" d="M69.98,-183.86C69.31,-176.76 69.1,-168.47 69.36,-160.64"/>
<polygon fill="grey" stroke="grey" points="72.84,-161.04 70.01,-150.83 65.85,-160.57 72.84,-161.04"/>
</g>
<!-- mstb3&#45;&gt;port4 -->
<g id="edge21" class="edge">
<title>mstb3&#45;&gt;port4</title>
<path fill="none" stroke="grey" stroke-dasharray="5,2" d="M82.69,-172.38C82.89,-164.5 82.62,-156.26 81.89,-149.32"/>
<polygon fill="grey" stroke="grey" points="79.19,-172.16 82.11,-182.35 86.18,-172.57 79.19,-172.16"/>
</g>
</g>
</svg>
