<?xml version="1.0" encoding="UTF-8" standalone="no"?>
<!DOCTYPE svg PUBLIC "-//W3C//DTD SVG 1.1//EN"
 "http://www.w3.org/Graphics/SVG/1.1/DTD/svg11.dtd">
<!-- Generated by graphviz version 14.1.2 (20260126.1125)
 -->
<!-- Title: foo Pages: 1 -->
<svg width="615pt" height="476pt"
 viewBox="0.00 0.00 615.00 476.00" xmlns="http://www.w3.org/2000/svg" xmlns:xlink="http://www.w3.org/1999/xlink">
<g id="graph0" class="graph" transform="scale(1 1) rotate(0) translate(4 472)">
<title>foo</title>
<polygon fill="white" stroke="none" points="-4,4 -4,-472 611.46,-472 611.46,4 -4,4"/>
<!-- root0 -->
<g id="node1" class="node">
<title>root0</title>
<ellipse fill="none" stroke="black" cx="303.73" cy="-450" rx="38.06" ry="18"/>
<text xml:space="preserve" text-anchor="middle" x="303.73" y="-445.32" font-family="Times,serif" font-size="14.00">root0</text>
</g>
<!-- port1 -->
<g id="node2" class="node">
<title>port1</title>
<ellipse fill="none" stroke="black" cx="179.73" cy="-378" rx="38.58" ry="18"/>
<text xml:space="preserve" text-anchor="middle" x="179.73" y="-373.32" font-family="Times,serif" font-size="14.00">port1</text>
</g>
<!-- root0&#45;&gt;port1 -->
<g id="edge1" class="edge">
<title>root0&#45;&gt;port1</title>
<path fill="none" stroke="black" d="M279.82,-435.5C260.95,-424.85 234.4,-409.86 213.38,-398"/>
<polygon fill="black" stroke="black" points="215.31,-395.07 204.88,-393.2 211.87,-401.16 215.31,-395.07"/>
</g>
<!-- port3 -->
<g id="node3" class="node">
<title>port3</title>
<ellipse fill="none" stroke="black" cx="427.73" cy="-378" rx="38.58" ry="18"/>
<text xml:space="preserve" text-anchor="middle" x="427.73" y="-373.32" font-family="Times,serif" font-size="14.00">port3</text>
</g>
<!-- root0&#45;&gt;port3 -->
<g id="edge2" class="edge">
<title>root0&#45;&gt;port3</title>
<path fill="none" stroke="black" d="M327.64,-435.5C346.51,-424.85 373.06,-409.86 394.08,-398"/>
<polygon fill="black" stroke="black" points="395.59,-401.16 402.58,-393.2 392.15,-395.07 395.59,-401.16"/>
</g>
<!-- decoder0.0 -->
<g id="node4" class="node">
<title>decoder0.0</title>
<ellipse fill="none" stroke="black" cx="303.73" cy="-378" rx="66.99" ry="18"/>
<text xml:space="preserve" text-anchor="middle" x="303.73" y="-373.32" font-family="Times,serif" font-size="14.00">decoder0.0</text>
</g>
<!-- root0&#45;&gt;decoder0.0 -->
<g id="edge3" class="edge">
<title>root0&#45;&gt;decoder0.0</title>
<path fill="none" stroke="black" d="M303.73,-431.7C303.73,-424.41 303.73,-415.73 303.73,-407.54"/>
<polygon fill="black" stroke="black" points="307.23,-407.62 303.73,-397.62 300.23,-407.62 307.23,-407.62"/>
</g>
<!-- endpoint5 -->
<g id="node5" class="node">
<title>endpoint5</title>
<ellipse fill="none" stroke="black" cx="61.73" cy="-306" rx="61.73" ry="18"/>
<text xml:space="preserve" text-anchor="middle" x="61.73" y="-301.32" font-family="Times,serif" font-size="14.00">endpoint5</text>
</g>
<!-- port1&#45;&gt;endpoint5 -->
<g id="edge4" class="edge">
<title>port1&#45;&gt;endpoint5</title>
<path fill="none" stroke="black" d="M156.42,-363.17C139.68,-353.24 116.8,-339.67 97.73,-328.35"/>
<polygon fill="black" stroke="black" points="99.56,-325.37 89.17,-323.28 95.99,-331.39 99.56,-325.37"/>
</g>
<!-- decoder1.0 -->
<g id="node7" class="node">
<title>decoder1.0</title>
<ellipse fill="none" stroke="black" cx="208.73" cy="-306" rx="66.99" ry="18"/>
<text xml:space="preserve" text-anchor="middle" x="208.73" y="-301.32" font-family="Times,serif" font-size="14.00">decoder1.0</text>
</g>
<!-- port1&#45;&gt;decoder1.0 -->
<g id="edge6" class="edge">
<title>port1&#45;&gt;decoder1.0</title>
<path fill="none" stroke="black" d="M186.75,-360.05C189.91,-352.43 193.72,-343.23 197.28,-334.65"/>
<polygon fill="black" stroke="black" points="200.4,-336.25 200.99,-325.67 193.93,-333.57 200.4,-336.25"/>
</g>
<!-- endpoint6 -->
<g id="node6" class="node">
<title>endpoint6</title>
<ellipse fill="none" stroke="black" cx="545.73" cy="-306" rx="61.73" ry="18"/>
<text xml:space="preserve" text-anchor="middle" x="545.73" y="-301.32" font-family="Times,serif" font-size="14.00">endpoint6</text>
</g>
<!-- port3&#45;&gt;endpoint6 -->
<g id="edge5" class="edge">
<title>port3&#45;&gt;endpoint6</title>
<path fill="none" stroke="black" d="M451.04,-363.17C467.78,-353.24 490.66,-339.67 509.73,-328.35"/>
<polygon fill="black" stroke="black" points="511.47,-331.39 518.29,-323.28 507.9,-325.37 511.47,-331.39"/>
</g>
<!-- decoder3.0 -->
<g id="node8" class="node">
<title>decoder3.0</title>
<ellipse fill="none" stroke="black" cx="398.73" cy="-306" rx="66.99" ry="18"/>
<text xml:space="preserve" text-anchor="middle" x="398.73" y="-301.32" font-family="Times,serif" font-size="14.00">decoder3.0</text>
</g>
<!-- port3&#45;&gt;decoder3.0 -->
<g id="edge7" class="edge">
<title>port3&#45;&gt;decoder3.0</title>
<path fill="none" stroke="black" d="M420.71,-360.05C417.55,-352.43 413.74,-343.23 410.19,-334.65"/>
<polygon fill="black" stroke="black" points="413.53,-333.57 406.47,-325.67 407.06,-336.25 413.53,-333.57"/>
</g>
<!-- decoder0.0&#45;&gt;decoder1.0 -->
<g id="edge11" class="edge">
<title>decoder0.0&#45;&gt;decoder1.0</title>
<path fill="none" stroke="black" d="M281.7,-360.76C269.32,-351.64 253.66,-340.1 240.02,-330.06"/>
<polygon fill="black" stroke="black" points="242.32,-327.4 232.19,-324.29 238.17,-333.04 242.32,-327.4"/>
</g>
<!-- decoder0.0&#45;&gt;decoder3.0 -->
<g id="edge12" class="edge">
<title>decoder0.0&#45;&gt;decoder3.0</title>
<path fill="none" stroke="black" d="M325.76,-360.76C338.14,-351.64 353.8,-340.1 367.44,-330.06"/>
<polygon fill="black" stroke="black" points="369.29,-333.04 375.27,-324.29 365.14,-327.4 369.29,-333.04"/>
</g>
<!-- region0 -->
<g id="node11" class="node">
<title>region0</title>
<ellipse fill="none" stroke="black" cx="303.73" cy="-162" rx="49.63" ry="18"/>
<text xml:space="preserve" text-anchor="middle" x="303.73" y="-157.32" font-family="Times,serif" font-size="14.00">region0</text>
</g>
<!-- decoder0.0&#45;&gt;region0 -->
<g id="edge10" class="edge">
<title>decoder0.0&#45;&gt;region0</title>
<path fill="none" stroke="black" d="M303.73,-359.85C303.73,-323.14 303.73,-236.66 303.73,-191.53"/>
<polygon fill="black" stroke="black" points="307.23,-191.75 303.73,-181.75 300.23,-191.75 307.23,-191.75"/>
</g>
<!-- decoder5.0 -->
<g id="node9" class="node">
<title>decoder5.0</title>
<ellipse fill="none" stroke="black" cx="208.73" cy="-234" rx="66.99" ry="18"/>
<text xml:space="preserve" text-anchor="middle" x="208.73" y="-229.32" font-family="Times,serif" font-size="14.00">decoder5.0</text>
</g>
<!-- endpoint5&#45;&gt;decoder5.0 -->
<g id="edge8" class="edge">
<title>endpoint5&#45;&gt;decoder5.0</title>
<path fill="none" stroke="black" d="M92.91,-290.15C114.32,-279.96 143,-266.3 166.47,-255.12"/>
<polygon fill="black" stroke="black" points="167.95,-258.3 175.47,-250.84 164.94,-251.98 167.95,-258.3"/>
</g>
<!-- decoder6.0 -->
<g id="node10" class="node">
<title>decoder6.0</title>
<ellipse fill="none" stroke="black" cx="398.73" cy="-234" rx="66.99" ry="18"/>
<text xml:space="preserve" text-anchor="middle" x="398.73" y="-229.32" font-family="Times,serif" font-size="14.00">decoder6.0</text>
</g>
<!-- endpoint6&#45;&gt;decoder6.0 -->
<g id="edge9" class="edge">
<title>endpoint6&#45;&gt;decoder6.0</title>
<path fill="none" stroke="black" d="M514.56,-290.15C493.14,-279.96 464.46,-266.3 440.99,-255.12"/>
<polygon fill="black" stroke="black" points="442.52,-251.98 431.99,-250.84 439.51,-258.3 442.52,-251.98"/>
</g>
<!-- decoder1.0&#45;&gt;decoder5.0 -->
<g id="edge13" class="edge">
<title>decoder1.0&#45;&gt;decoder5.0</title>
<path fill="none" stroke="black" d="M208.73,-287.7C208.73,-280.41 208.73,-271.73 208.73,-263.54"/>
<polygon fill="black" stroke="black" points="212.23,-263.62 208.73,-253.62 205.23,-263.62 212.23,-263.62"/>
</g>
<!-- decoder3.0&#45;&gt;decoder6.0 -->
<g id="edge14" class="edge">
<title>decoder3.0&#45;&gt;decoder6.0</title>
<path fill="none" stroke="black" d="M398.73,-287.7C398.73,-280.41 398.73,-271.73 398.73,-263.54"/>
<polygon fill="black" stroke="black" points="402.23,-263.62 398.73,-253.62 395.23,-263.62 402.23,-263.62"/>
</g>
<!-- decoder5.0&#45;&gt;region0 -->
<g id="edge15" class="edge">
<title>decoder5.0&#45;&gt;region0</title>
<path fill="none" stroke="black" d="M230.76,-216.76C243.41,-207.45 259.48,-195.61 273.32,-185.41"/>
<polygon fill="black" stroke="black" points="275.28,-188.31 281.25,-179.56 271.12,-182.68 275.28,-188.31"/>
</g>
<!-- decoder6.0&#45;&gt;region0 -->
<g id="edge16" class="edge">
<title>decoder6.0&#45;&gt;region0</title>
<path fill="none" stroke="black" d="M376.7,-216.76C364.05,-207.45 347.98,-195.61 334.14,-185.41"/>
<polygon fill="black" stroke="black" points="336.34,-182.68 326.21,-179.56 332.18,-188.31 336.34,-182.68"/>
</g>
<!-- dax_region0 -->
<g id="node12" class="node">
<title>dax_region0</title>
<ellipse fill="none" stroke="black" cx="303.73" cy="-90" rx="72.25" ry="18"/>
<text xml:space="preserve" text-anchor="middle" x="303.73" y="-85.33" font-family="Times,serif" font-size="14.00">dax_region0</text>
</g>
<!-- region0&#45;&gt;dax_region0 -->
<g id="edge17" class="edge">
<title>region0&#45;&gt;dax_region0</title>
<path fill="none" stroke="black" d="M303.73,-143.7C303.73,-136.41 303.73,-127.73 303.73,-119.54"/>
<polygon fill="black" stroke="black" points="307.23,-119.62 303.73,-109.62 300.23,-119.62 307.23,-119.62"/>
</g>
<!-- dax0.0 -->
<g id="node13" class="node">
<title>dax0.0</title>
<ellipse fill="none" stroke="black" cx="303.73" cy="-18" rx="44.89" ry="18"/>
<text xml:space="preserve" text-anchor="middle" x="303.73" y="-13.32" font-family="Times,serif" font-size="14.00">dax0.0</text>
</g>
<!-- dax_region0&#45;&gt;dax0.0 -->
<g id="edge18" class="edge">
<title>dax_region0&#45;&gt;dax0.0</title>
<path fill="none" stroke="black" d="M303.73,-71.7C303.73,-64.41 303.73,-55.73 303.73,-47.54"/>
<polygon fill="black" stroke="black" points="307.23,-47.62 303.73,-37.62 300.23,-47.62 307.23,-47.62"/>
</g>
</g>
</svg>
