<?xml version="1.0" encoding="UTF-8" standalone="no"?>
<!DOCTYPE svg PUBLIC "-//W3C//DTD SVG 1.1//EN"
 "http://www.w3.org/Graphics/SVG/1.1/DTD/svg11.dtd">
<!-- Generated by graphviz version 14.1.2 (20260126.1125)
 -->
<!-- Title: KMS Pages: 1 -->
<svg width="479pt" height="416pt"
 viewBox="0.00 0.00 479.00 416.00" xmlns="http://www.w3.org/2000/svg" xmlns:xlink="http://www.w3.org/1999/xlink">
<g id="graph0" class="graph" transform="scale(1 1) rotate(0) translate(4 411.75)">
<title>KMS</title>
<polygon fill="white" stroke="none" points="-4,4 -4,-411.75 475,-411.75 475,4 -4,4"/>
<g id="clust1" class="cluster">
<title>cluster_static</title>
<polygon fill="none" stroke="black" stroke-dasharray="5,2" points="92,-93.25 92,-314.5 374,-314.5 374,-93.25 92,-93.25"/>
<text xml:space="preserve" text-anchor="middle" x="233" y="-297.2" font-family="Times,serif" font-size="14.00">Static Objects</text>
</g>
<g id="clust2" class="cluster">
<title>cluster_user_created</title>
<polygon fill="none" stroke="black" stroke-dasharray="5,2" points="8,-322.5 8,-399.75 463,-399.75 463,-322.5 8,-322.5"/>
<text xml:space="preserve" text-anchor="middle" x="235.5" y="-382.45" font-family="Times,serif" font-size="14.00">Userspace&#45;Created</text>
</g>
<g id="clust3" class="cluster">
<title>cluster_connector</title>
<polygon fill="none" stroke="black" stroke-dasharray="5,2" points="80,-8 80,-85.25 388,-85.25 388,-8 80,-8"/>
<text xml:space="preserve" text-anchor="middle" x="234" y="-67.95" font-family="Times,serif" font-size="14.00">Hotpluggable</text>
</g>
<!-- drm_plane A -->
<g id="node1" class="node">
<title>drm_plane A</title>
<polygon fill="lightgrey" stroke="black" points="219.62,-281.25 114.38,-281.25 114.38,-245.25 219.62,-245.25 219.62,-281.25"/>
<text xml:space="preserve" text-anchor="middle" x="167" y="-258.57" font-family="Times,serif" font-size="14.00">drm_plane A</text>
</g>
<!-- drm_crtc -->
<g id="node2" class="node">
<title>drm_crtc</title>
<polygon fill="lightgrey" stroke="black" points="210.88,-209.25 131.12,-209.25 131.12,-173.25 210.88,-173.25 210.88,-209.25"/>
<text xml:space="preserve" text-anchor="middle" x="171" y="-186.57" font-family="Times,serif" font-size="14.00">drm_crtc</text>
</g>
<!-- drm_plane A&#45;&gt;drm_crtc -->
<g id="edge1" class="edge">
<title>drm_plane A&#45;&gt;drm_crtc</title>
<path fill="none" stroke="black" d="M167.99,-244.95C168.41,-237.66 168.9,-228.98 169.37,-220.79"/>
<polygon fill="black" stroke="black" points="172.86,-221.05 169.94,-210.87 165.87,-220.65 172.86,-221.05"/>
</g>
<!-- drm_encoder A -->
<g id="node4" class="node">
<title>drm_encoder A</title>
<polygon fill="lightgrey" stroke="black" points="223.62,-137.25 100.38,-137.25 100.38,-101.25 223.62,-101.25 223.62,-137.25"/>
<text xml:space="preserve" text-anchor="middle" x="162" y="-114.58" font-family="Times,serif" font-size="14.00">drm_encoder A</text>
</g>
<!-- drm_crtc&#45;&gt;drm_encoder A -->
<g id="edge3" class="edge">
<title>drm_crtc&#45;&gt;drm_encoder A</title>
<path fill="none" stroke="black" d="M168.78,-172.95C167.83,-165.57 166.7,-156.77 165.63,-148.5"/>
<polygon fill="black" stroke="black" points="169.14,-148.33 164.39,-138.86 162.2,-149.22 169.14,-148.33"/>
</g>
<!-- drm_encoder B -->
<g id="node5" class="node">
<title>drm_encoder B</title>
<polygon fill="lightgrey" stroke="black" points="366,-137.25 242,-137.25 242,-101.25 366,-101.25 366,-137.25"/>
<text xml:space="preserve" text-anchor="middle" x="304" y="-114.58" font-family="Times,serif" font-size="14.00">drm_encoder B</text>
</g>
<!-- drm_crtc&#45;&gt;drm_encoder B -->
<g id="edge4" class="edge">
<title>drm_crtc&#45;&gt;drm_encoder B</title>
<path fill="none" stroke="black" d="M204.22,-172.77C221.49,-163.68 242.79,-152.47 261.27,-142.74"/>
<polygon fill="black" stroke="black" points="262.65,-145.97 269.87,-138.22 259.39,-139.78 262.65,-145.97"/>
</g>
<!-- drm_plane B -->
<g id="node3" class="node">
<title>drm_plane B</title>
<polygon fill="lightgrey" stroke="black" points="357,-281.25 251,-281.25 251,-245.25 357,-245.25 357,-281.25"/>
<text xml:space="preserve" text-anchor="middle" x="304" y="-258.57" font-family="Times,serif" font-size="14.00">drm_plane B</text>
</g>
<!-- drm_plane B&#45;&gt;drm_crtc -->
<g id="edge2" class="edge">
<title>drm_plane B&#45;&gt;drm_crtc</title>
<path fill="none" stroke="black" d="M270.78,-244.77C253.51,-235.68 232.21,-224.47 213.73,-214.74"/>
<polygon fill="black" stroke="black" points="215.61,-211.78 205.13,-210.22 212.35,-217.97 215.61,-211.78"/>
</g>
<!-- drm_connector A -->
<g id="node8" class="node">
<title>drm_connector A</title>
<polygon fill="none" stroke="black" points="224.38,-52 87.62,-52 87.62,-16 224.38,-16 224.38,-52"/>
<text xml:space="preserve" text-anchor="middle" x="156" y="-29.32" font-family="Times,serif" font-size="14.00">drm_connector A</text>
</g>
<!-- drm_encoder A&#45;&gt;drm_connector A -->
<g id="edge7" class="edge">
<title>drm_encoder A&#45;&gt;drm_connector A</title>
<path fill="none" stroke="black" d="M160.76,-101C159.98,-90.17 158.95,-75.95 158.05,-63.48"/>
<polygon fill="black" stroke="black" points="161.56,-63.46 157.35,-53.74 154.58,-63.96 161.56,-63.46"/>
</g>
<!-- drm_connector B -->
<g id="node9" class="node">
<title>drm_connector B</title>
<polygon fill="none" stroke="black" points="379.75,-52 242.25,-52 242.25,-16 379.75,-16 379.75,-52"/>
<text xml:space="preserve" text-anchor="middle" x="311" y="-29.32" font-family="Times,serif" font-size="14.00">drm_connector B</text>
</g>
<!-- drm_encoder B&#45;&gt;drm_connector B -->
<g id="edge8" class="edge">
<title>drm_encoder B&#45;&gt;drm_connector B</title>
<path fill="none" stroke="black" d="M305.45,-101C306.36,-90.17 307.56,-75.95 308.61,-63.48"/>
<polygon fill="black" stroke="black" points="312.07,-63.99 309.42,-53.74 305.1,-63.41 312.07,-63.99"/>
</g>
<!-- drm_framebuffer 1 -->
<g id="node6" class="node">
<title>drm_framebuffer 1</title>
<ellipse fill="none" stroke="black" cx="121" cy="-348.5" rx="105.4" ry="18"/>
<text xml:space="preserve" text-anchor="middle" x="121" y="-343.82" font-family="Times,serif" font-size="14.00">drm_framebuffer 1</text>
</g>
<!-- drm_framebuffer 1&#45;&gt;drm_plane A -->
<g id="edge5" class="edge">
<title>drm_framebuffer 1&#45;&gt;drm_plane A</title>
<path fill="none" stroke="black" d="M130.53,-330.25C136.76,-318.98 145.03,-304.02 152.11,-291.19"/>
<polygon fill="black" stroke="black" points="154.98,-293.25 156.75,-282.8 148.85,-289.86 154.98,-293.25"/>
</g>
<!-- drm_framebuffer 2 -->
<g id="node7" class="node">
<title>drm_framebuffer 2</title>
<ellipse fill="none" stroke="black" cx="350" cy="-348.5" rx="105.4" ry="18"/>
<text xml:space="preserve" text-anchor="middle" x="350" y="-343.82" font-family="Times,serif" font-size="14.00">drm_framebuffer 2</text>
</g>
<!-- drm_framebuffer 2&#45;&gt;drm_plane B -->
<g id="edge6" class="edge">
<title>drm_framebuffer 2&#45;&gt;drm_plane B</title>
<path fill="none" stroke="black" d="M340.47,-330.25C334.24,-318.98 325.97,-304.02 318.89,-291.19"/>
<polygon fill="black" stroke="black" points="322.15,-289.86 314.25,-282.8 316.02,-293.25 322.15,-289.86"/>
</g>
</g>
</svg>
