<?xml version="1.0" encoding="UTF-8" standalone="no"?>
<!DOCTYPE svg PUBLIC "-//W3C//DTD SVG 1.1//EN"
 "http://www.w3.org/Graphics/SVG/1.1/DTD/svg11.dtd">
<!-- Generated by graphviz version 14.1.2 (20260126.1125)
 -->
<!-- Title: foo Pages: 1 -->
<svg width="393pt" height="188pt"
 viewBox="0.00 0.00 393.00 188.00" xmlns="http://www.w3.org/2000/svg" xmlns:xlink="http://www.w3.org/1999/xlink">
<g id="graph0" class="graph" transform="scale(1 1) rotate(0) translate(4 184)">
<title>foo</title>
<polygon fill="white" stroke="none" points="-4,4 -4,-184 389.31,-184 389.31,4 -4,4"/>
<!-- root0 -->
<g id="node1" class="node">
<title>root0</title>
<ellipse fill="none" stroke="black" cx="203.73" cy="-162" rx="38.06" ry="18"/>
<text xml:space="preserve" text-anchor="middle" x="203.73" y="-157.32" font-family="Times,serif" font-size="14.00">root0</text>
</g>
<!-- port1 -->
<g id="node2" class="node">
<title>port1</title>
<ellipse fill="none" stroke="black" cx="61.73" cy="-90" rx="38.58" ry="18"/>
<text xml:space="preserve" text-anchor="middle" x="61.73" y="-85.33" font-family="Times,serif" font-size="14.00">port1</text>
</g>
<!-- root0&#45;&gt;port1 -->
<g id="edge1" class="edge">
<title>root0&#45;&gt;port1</title>
<path fill="none" stroke="black" d="M178.02,-148.32C155.5,-137.22 122.55,-120.98 97.47,-108.62"/>
<polygon fill="black" stroke="black" points="99.13,-105.53 88.61,-104.25 96.03,-111.81 99.13,-105.53"/>
</g>
<!-- port2 -->
<g id="node3" class="node">
<title>port2</title>
<ellipse fill="none" stroke="black" cx="156.73" cy="-90" rx="38.58" ry="18"/>
<text xml:space="preserve" text-anchor="middle" x="156.73" y="-85.33" font-family="Times,serif" font-size="14.00">port2</text>
</g>
<!-- root0&#45;&gt;port2 -->
<g id="edge2" class="edge">
<title>root0&#45;&gt;port2</title>
<path fill="none" stroke="black" d="M192.59,-144.41C187.09,-136.22 180.32,-126.14 174.16,-116.95"/>
<polygon fill="black" stroke="black" points="177.11,-115.08 168.63,-108.73 171.3,-118.98 177.11,-115.08"/>
</g>
<!-- port3 -->
<g id="node4" class="node">
<title>port3</title>
<ellipse fill="none" stroke="black" cx="251.73" cy="-90" rx="38.58" ry="18"/>
<text xml:space="preserve" text-anchor="middle" x="251.73" y="-85.33" font-family="Times,serif" font-size="14.00">port3</text>
</g>
<!-- root0&#45;&gt;port3 -->
<g id="edge3" class="edge">
<title>root0&#45;&gt;port3</title>
<path fill="none" stroke="black" d="M215.11,-144.41C220.72,-136.22 227.63,-126.14 233.93,-116.95"/>
<polygon fill="black" stroke="black" points="236.81,-118.94 239.58,-108.72 231.04,-114.99 236.81,-118.94"/>
</g>
<!-- port4 -->
<g id="node5" class="node">
<title>port4</title>
<ellipse fill="none" stroke="black" cx="346.73" cy="-90" rx="38.58" ry="18"/>
<text xml:space="preserve" text-anchor="middle" x="346.73" y="-85.33" font-family="Times,serif" font-size="14.00">port4</text>
</g>
<!-- root0&#45;&gt;port4 -->
<g id="edge4" class="edge">
<title>root0&#45;&gt;port4</title>
<path fill="none" stroke="black" d="M229.63,-148.32C252.3,-137.22 285.48,-120.98 310.74,-108.62"/>
<polygon fill="black" stroke="black" points="312.22,-111.79 319.67,-104.25 309.15,-105.5 312.22,-111.79"/>
</g>
<!-- endpoint5 -->
<g id="node6" class="node">
<title>endpoint5</title>
<ellipse fill="none" stroke="black" cx="61.73" cy="-18" rx="61.73" ry="18"/>
<text xml:space="preserve" text-anchor="middle" x="61.73" y="-13.32" font-family="Times,serif" font-size="14.00">endpoint5</text>
</g>
<!-- port1&#45;&gt;endpoint5 -->
<g id="edge5" class="edge">
<title>port1&#45;&gt;endpoint5</title>
<path fill="none" stroke="black" d="M61.73,-71.7C61.73,-64.41 61.73,-55.73 61.73,-47.54"/>
<polygon fill="black" stroke="black" points="65.23,-47.62 61.73,-37.62 58.23,-47.62 65.23,-47.62"/>
</g>
<!-- endpoint6 -->
<g id="node7" class="node">
<title>endpoint6</title>
<ellipse fill="none" stroke="black" cx="251.73" cy="-18" rx="61.73" ry="18"/>
<text xml:space="preserve" text-anchor="middle" x="251.73" y="-13.32" font-family="Times,serif" font-size="14.00">endpoint6</text>
</g>
<!-- port3&#45;&gt;endpoint6 -->
<g id="edge6" class="edge">
<title>port3&#45;&gt;endpoint6</title>
<path fill="none" stroke="black" d="M251.73,-71.7C251.73,-64.41 251.73,-55.73 251.73,-47.54"/>
<polygon fill="black" stroke="black" points="255.23,-47.62 251.73,-37.62 248.23,-47.62 255.23,-47.62"/>
</g>
</g>
</svg>
