<?xml version="1.0" encoding="UTF-8" standalone="no"?>
<!DOCTYPE svg PUBLIC "-//W3C//DTD SVG 1.1//EN"
 "http://www.w3.org/Graphics/SVG/1.1/DTD/svg11.dtd">
<!-- Generated by graphviz version 14.1.2 (20260126.1125)
 -->
<!-- Title: layer_data_flow Pages: 1 -->
<svg width="413pt" height="98pt"
 viewBox="0.00 0.00 413.00 98.00" xmlns="http://www.w3.org/2000/svg" xmlns:xlink="http://www.w3.org/1999/xlink">
<g id="graph0" class="graph" transform="scale(1 1) rotate(0) translate(4 94)">
<title>layer_data_flow</title>
<polygon fill="white" stroke="none" points="-4,4 -4,-94 408.5,-94 408.5,4 -4,4"/>
<!-- Layer&#45;0/1 -->
<g id="node1" class="node">
<title>Layer&#45;0/1</title>
<polygon fill="none" stroke="black" points="83.5,-90 0,-90 0,-54 83.5,-54 83.5,-90"/>
<text xml:space="preserve" text-anchor="middle" x="41.75" y="-67.33" font-family="Times,serif" font-size="14.00">Layer&#45;0/1</text>
</g>
<!-- Scaler&#45;0 -->
<g id="node2" class="node">
<title>Scaler&#45;0</title>
<polygon fill="none" stroke="black" points="194,-90 119.5,-90 119.5,-54 194,-54 194,-90"/>
<text xml:space="preserve" text-anchor="middle" x="156.75" y="-67.33" font-family="Times,serif" font-size="14.00">Scaler&#45;0</text>
</g>
<!-- Layer&#45;0/1&#45;&gt;Scaler&#45;0 -->
<g id="edge1" class="edge">
<title>Layer&#45;0/1&#45;&gt;Scaler&#45;0</title>
<path fill="none" stroke="black" d="M83.87,-72C91.67,-72 99.89,-72 107.88,-72"/>
<polygon fill="black" stroke="black" points="107.83,-75.5 117.83,-72 107.83,-68.5 107.83,-75.5"/>
</g>
<!-- Merger -->
<g id="node3" class="node">
<title>Merger</title>
<polygon fill="none" stroke="black" points="299.25,-63 230,-63 230,-27 299.25,-27 299.25,-63"/>
<text xml:space="preserve" text-anchor="middle" x="264.62" y="-40.33" font-family="Times,serif" font-size="14.00">Merger</text>
</g>
<!-- Scaler&#45;0&#45;&gt;Merger -->
<g id="edge2" class="edge">
<title>Scaler&#45;0&#45;&gt;Merger</title>
<path fill="none" stroke="black" d="M194.48,-62.63C202.28,-60.64 210.59,-58.52 218.65,-56.47"/>
<polygon fill="black" stroke="black" points="219.51,-59.86 228.33,-54 217.78,-53.08 219.51,-59.86"/>
</g>
<!-- Compiz -->
<g id="node6" class="node">
<title>Compiz</title>
<polygon fill="none" stroke="black" points="404.5,-63 335.25,-63 335.25,-27 404.5,-27 404.5,-63"/>
<text xml:space="preserve" text-anchor="middle" x="369.88" y="-40.33" font-family="Times,serif" font-size="14.00">Compiz</text>
</g>
<!-- Merger&#45;&gt;Compiz -->
<g id="edge5" class="edge">
<title>Merger&#45;&gt;Compiz</title>
<path fill="none" stroke="black" d="M299.72,-45C307.3,-45 315.45,-45 323.4,-45"/>
<polygon fill="black" stroke="black" points="323.3,-48.5 333.3,-45 323.3,-41.5 323.3,-48.5"/>
</g>
<!-- Layer&#45;2/3 -->
<g id="node4" class="node">
<title>Layer&#45;2/3</title>
<polygon fill="none" stroke="black" points="83.5,-36 0,-36 0,0 83.5,0 83.5,-36"/>
<text xml:space="preserve" text-anchor="middle" x="41.75" y="-13.32" font-family="Times,serif" font-size="14.00">Layer&#45;2/3</text>
</g>
<!-- Scaler&#45;1 -->
<g id="node5" class="node">
<title>Scaler&#45;1</title>
<polygon fill="none" stroke="black" points="194,-36 119.5,-36 119.5,0 194,0 194,-36"/>
<text xml:space="preserve" text-anchor="middle" x="156.75" y="-13.32" font-family="Times,serif" font-size="14.00">Scaler&#45;1</text>
</g>
<!-- Layer&#45;2/3&#45;&gt;Scaler&#45;1 -->
<g id="edge3" class="edge">
<title>Layer&#45;2/3&#45;&gt;Scaler&#45;1</title>
<path fill="none" stroke="black" d="M83.87,-18C91.67,-18 99.89,-18 107.88,-18"/>
<polygon fill="black" stroke="black" points="107.83,-21.5 117.83,-18 107.83,-14.5 107.83,-21.5"/>
</g>
<!-- Scaler&#45;1&#45;&gt;Merger -->
<g id="edge4" class="edge">
<title>Scaler&#45;1&#45;&gt;Merger</title>
<path fill="none" stroke="black" d="M194.48,-27.37C202.28,-29.36 210.59,-31.48 218.65,-33.53"/>
<polygon fill="black" stroke="black" points="217.78,-36.92 228.33,-36 219.51,-30.14 217.78,-36.92"/>
</g>
</g>
</svg>
