<?xml version="1.0" encoding="UTF-8" standalone="no"?>
<!DOCTYPE svg PUBLIC "-//W3C//DTD SVG 1.1//EN"
 "http://www.w3.org/Graphics/SVG/1.1/DTD/svg11.dtd">
<!-- Generated by graphviz version 14.1.2 (20260126.1125)
 -->
<!-- Title: board Pages: 1 -->
<svg width="630pt" height="701pt"
 viewBox="0.00 0.00 630.00 701.00" xmlns="http://www.w3.org/2000/svg" xmlns:xlink="http://www.w3.org/1999/xlink">
<g id="graph0" class="graph" transform="scale(1 1) rotate(0) translate(4 696.5)">
<title>board</title>
<polygon fill="white" stroke="none" points="-4,4 -4,-696.5 626,-696.5 626,4 -4,4"/>
<!-- n00000001 -->
<g id="node1" class="node">
<title>n00000001</title>
<path fill="green" stroke="black" d="M176.62,-469C176.62,-469 289.38,-469 289.38,-469 295.38,-469 301.38,-475 301.38,-481 301.38,-481 301.38,-550 301.38,-550 301.38,-556 295.38,-562 289.38,-562 289.38,-562 176.62,-562 176.62,-562 170.62,-562 164.62,-556 164.62,-550 164.62,-550 164.62,-481 164.62,-481 164.62,-475 170.62,-469 176.62,-469"/>
<text xml:space="preserve" text-anchor="middle" x="232.62" y="-544.7" font-family="Times,serif" font-size="14.00">0</text>
<polyline fill="none" stroke="black" points="164.62,-536.75 301.38,-536.75"/>
<text xml:space="preserve" text-anchor="middle" x="233" y="-519.45" font-family="Times,serif" font-size="14.00">msm_csiphy0</text>
<text xml:space="preserve" text-anchor="middle" x="233" y="-502.2" font-family="Times,serif" font-size="14.00">/dev/v4l&#45;subdev0</text>
<polyline fill="none" stroke="black" points="164.62,-494.25 301.38,-494.25"/>
<text xml:space="preserve" text-anchor="middle" x="232.62" y="-476.95" font-family="Times,serif" font-size="14.00">1</text>
</g>
<!-- n00000007 -->
<g id="node2" class="node">
<title>n00000007</title>
<path fill="green" stroke="black" d="M176.62,-339C176.62,-339 289.38,-339 289.38,-339 295.38,-339 301.38,-345 301.38,-351 301.38,-351 301.38,-420 301.38,-420 301.38,-426 295.38,-432 289.38,-432 289.38,-432 176.62,-432 176.62,-432 170.62,-432 164.62,-426 164.62,-420 164.62,-420 164.62,-351 164.62,-351 164.62,-345 170.62,-339 176.62,-339"/>
<text xml:space="preserve" text-anchor="middle" x="232.62" y="-414.7" font-family="Times,serif" font-size="14.00">0</text>
<polyline fill="none" stroke="black" points="164.62,-406.75 301.38,-406.75"/>
<text xml:space="preserve" text-anchor="middle" x="233" y="-389.45" font-family="Times,serif" font-size="14.00">msm_csid0</text>
<text xml:space="preserve" text-anchor="middle" x="233" y="-372.2" font-family="Times,serif" font-size="14.00">/dev/v4l&#45;subdev2</text>
<polyline fill="none" stroke="black" points="164.62,-364.25 301.38,-364.25"/>
<text xml:space="preserve" text-anchor="middle" x="232.62" y="-346.95" font-family="Times,serif" font-size="14.00">1</text>
</g>
<!-- n00000001&#45;&gt;n00000007 -->
<g id="edge1" class="edge">
<title>n00000001:port1&#45;&gt;n00000007:port0</title>
<path fill="none" stroke="black" stroke-dasharray="5,2" d="M232.62,-468.5C232.62,-457.12 232.62,-451.82 232.62,-443.95"/>
<polygon fill="black" stroke="black" points="236.13,-444.01 232.63,-434.01 229.13,-444.01 236.13,-444.01"/>
</g>
<!-- n0000000a -->
<g id="node3" class="node">
<title>n0000000a</title>
<path fill="green" stroke="black" d="M331.62,-339C331.62,-339 444.38,-339 444.38,-339 450.38,-339 456.38,-345 456.38,-351 456.38,-351 456.38,-420 456.38,-420 456.38,-426 450.38,-432 444.38,-432 444.38,-432 331.62,-432 331.62,-432 325.62,-432 319.62,-426 319.62,-420 319.62,-420 319.62,-351 319.62,-351 319.62,-345 325.62,-339 331.62,-339"/>
<text xml:space="preserve" text-anchor="middle" x="387.62" y="-414.7" font-family="Times,serif" font-size="14.00">0</text>
<polyline fill="none" stroke="black" points="319.62,-406.75 456.38,-406.75"/>
<text xml:space="preserve" text-anchor="middle" x="388" y="-389.45" font-family="Times,serif" font-size="14.00">msm_csid1</text>
<text xml:space="preserve" text-anchor="middle" x="388" y="-372.2" font-family="Times,serif" font-size="14.00">/dev/v4l&#45;subdev3</text>
<polyline fill="none" stroke="black" points="319.62,-364.25 456.38,-364.25"/>
<text xml:space="preserve" text-anchor="middle" x="387.62" y="-346.95" font-family="Times,serif" font-size="14.00">1</text>
</g>
<!-- n00000001&#45;&gt;n0000000a -->
<g id="edge2" class="edge">
<title>n00000001:port1&#45;&gt;n0000000a:port0</title>
<path fill="none" stroke="black" stroke-dasharray="5,2" d="M301.62,-481.62C312.49,-481.62 308.42,-445.88 312.05,-428.56"/>
<polygon fill="black" stroke="black" points="314.77,-430.77 317.74,-420.61 309.07,-426.7 314.77,-430.77"/>
</g>
<!-- n0000000d -->
<g id="node5" class="node">
<title>n0000000d</title>
<path fill="green" stroke="black" d="M176.62,-209C176.62,-209 289.38,-209 289.38,-209 295.38,-209 301.38,-215 301.38,-221 301.38,-221 301.38,-290 301.38,-290 301.38,-296 295.38,-302 289.38,-302 289.38,-302 176.62,-302 176.62,-302 170.62,-302 164.62,-296 164.62,-290 164.62,-290 164.62,-221 164.62,-221 164.62,-215 170.62,-209 176.62,-209"/>
<text xml:space="preserve" text-anchor="middle" x="232.62" y="-284.7" font-family="Times,serif" font-size="14.00">0</text>
<polyline fill="none" stroke="black" points="164.62,-276.75 301.38,-276.75"/>
<text xml:space="preserve" text-anchor="middle" x="233" y="-259.45" font-family="Times,serif" font-size="14.00">msm_ispif0</text>
<text xml:space="preserve" text-anchor="middle" x="233" y="-242.2" font-family="Times,serif" font-size="14.00">/dev/v4l&#45;subdev4</text>
<polyline fill="none" stroke="black" points="164.62,-234.25 301.38,-234.25"/>
<text xml:space="preserve" text-anchor="middle" x="232.62" y="-216.95" font-family="Times,serif" font-size="14.00">1</text>
</g>
<!-- n00000007&#45;&gt;n0000000d -->
<g id="edge5" class="edge">
<title>n00000007:port1&#45;&gt;n0000000d:port0</title>
<path fill="none" stroke="black" stroke-dasharray="5,2" d="M232.62,-338.5C232.62,-327.12 232.62,-321.82 232.62,-313.95"/>
<polygon fill="black" stroke="black" points="236.13,-314.01 232.63,-304.01 229.13,-314.01 236.13,-314.01"/>
</g>
<!-- n00000010 -->
<g id="node6" class="node">
<title>n00000010</title>
<path fill="green" stroke="black" d="M331.62,-209C331.62,-209 444.38,-209 444.38,-209 450.38,-209 456.38,-215 456.38,-221 456.38,-221 456.38,-290 456.38,-290 456.38,-296 450.38,-302 444.38,-302 444.38,-302 331.62,-302 331.62,-302 325.62,-302 319.62,-296 319.62,-290 319.62,-290 319.62,-221 319.62,-221 319.62,-215 325.62,-209 331.62,-209"/>
<text xml:space="preserve" text-anchor="middle" x="387.62" y="-284.7" font-family="Times,serif" font-size="14.00">0</text>
<polyline fill="none" stroke="black" points="319.62,-276.75 456.38,-276.75"/>
<text xml:space="preserve" text-anchor="middle" x="388" y="-259.45" font-family="Times,serif" font-size="14.00">msm_ispif1</text>
<text xml:space="preserve" text-anchor="middle" x="388" y="-242.2" font-family="Times,serif" font-size="14.00">/dev/v4l&#45;subdev5</text>
<polyline fill="none" stroke="black" points="319.62,-234.25 456.38,-234.25"/>
<text xml:space="preserve" text-anchor="middle" x="387.62" y="-216.95" font-family="Times,serif" font-size="14.00">1</text>
</g>
<!-- n00000007&#45;&gt;n00000010 -->
<g id="edge6" class="edge">
<title>n00000007:port1&#45;&gt;n00000010:port0</title>
<path fill="none" stroke="black" stroke-dasharray="5,2" d="M301.62,-351.62C312.49,-351.62 308.42,-315.88 312.05,-298.56"/>
<polygon fill="black" stroke="black" points="314.77,-300.77 317.74,-290.61 309.07,-296.7 314.77,-300.77"/>
</g>
<!-- n0000000a&#45;&gt;n0000000d -->
<g id="edge7" class="edge">
<title>n0000000a:port1&#45;&gt;n0000000d:port0</title>
<path fill="none" stroke="black" stroke-dasharray="5,2" d="M318.62,-351.62C307.76,-351.62 311.83,-315.88 308.2,-298.56"/>
<polygon fill="black" stroke="black" points="311.18,-296.7 302.51,-290.61 305.48,-300.77 311.18,-296.7"/>
</g>
<!-- n0000000a&#45;&gt;n00000010 -->
<g id="edge8" class="edge">
<title>n0000000a:port1&#45;&gt;n00000010:port0</title>
<path fill="none" stroke="black" stroke-dasharray="5,2" d="M387.62,-338.5C387.62,-327.12 387.62,-321.82 387.62,-313.95"/>
<polygon fill="black" stroke="black" points="391.13,-314.01 387.63,-304.01 384.13,-314.01 391.13,-314.01"/>
</g>
<!-- n00000004 -->
<g id="node4" class="node">
<title>n00000004</title>
<path fill="green" stroke="black" d="M331.62,-469C331.62,-469 444.38,-469 444.38,-469 450.38,-469 456.38,-475 456.38,-481 456.38,-481 456.38,-550 456.38,-550 456.38,-556 450.38,-562 444.38,-562 444.38,-562 331.62,-562 331.62,-562 325.62,-562 319.62,-556 319.62,-550 319.62,-550 319.62,-481 319.62,-481 319.62,-475 325.62,-469 331.62,-469"/>
<text xml:space="preserve" text-anchor="middle" x="387.62" y="-544.7" font-family="Times,serif" font-size="14.00">0</text>
<polyline fill="none" stroke="black" points="319.62,-536.75 456.38,-536.75"/>
<text xml:space="preserve" text-anchor="middle" x="388" y="-519.45" font-family="Times,serif" font-size="14.00">msm_csiphy1</text>
<text xml:space="preserve" text-anchor="middle" x="388" y="-502.2" font-family="Times,serif" font-size="14.00">/dev/v4l&#45;subdev1</text>
<polyline fill="none" stroke="black" points="319.62,-494.25 456.38,-494.25"/>
<text xml:space="preserve" text-anchor="middle" x="387.62" y="-476.95" font-family="Times,serif" font-size="14.00">1</text>
</g>
<!-- n00000004&#45;&gt;n00000007 -->
<g id="edge3" class="edge">
<title>n00000004:port1&#45;&gt;n00000007:port0</title>
<path fill="none" stroke="black" stroke-dasharray="5,2" d="M318.62,-481.62C307.76,-481.62 311.83,-445.88 308.2,-428.56"/>
<polygon fill="black" stroke="black" points="311.18,-426.7 302.51,-420.61 305.48,-430.77 311.18,-426.7"/>
</g>
<!-- n00000004&#45;&gt;n0000000a -->
<g id="edge4" class="edge">
<title>n00000004:port1&#45;&gt;n0000000a:port0</title>
<path fill="none" stroke="black" stroke-dasharray="5,2" d="M387.62,-468.5C387.62,-457.12 387.62,-451.82 387.62,-443.95"/>
<polygon fill="black" stroke="black" points="391.13,-444.01 387.63,-434.01 384.13,-444.01 391.13,-444.01"/>
</g>
<!-- n00000013 -->
<g id="node7" class="node">
<title>n00000013</title>
<path fill="green" stroke="black" d="M21.62,-79C21.62,-79 134.38,-79 134.38,-79 140.38,-79 146.38,-85 146.38,-91 146.38,-91 146.38,-160 146.38,-160 146.38,-166 140.38,-172 134.38,-172 134.38,-172 21.62,-172 21.62,-172 15.62,-172 9.62,-166 9.62,-160 9.62,-160 9.62,-91 9.62,-91 9.62,-85 15.62,-79 21.62,-79"/>
<text xml:space="preserve" text-anchor="middle" x="77.62" y="-154.7" font-family="Times,serif" font-size="14.00">0</text>
<polyline fill="none" stroke="black" points="9.62,-146.75 146.38,-146.75"/>
<text xml:space="preserve" text-anchor="middle" x="78" y="-129.45" font-family="Times,serif" font-size="14.00">msm_vfe0_rdi0</text>
<text xml:space="preserve" text-anchor="middle" x="78" y="-112.2" font-family="Times,serif" font-size="14.00">/dev/v4l&#45;subdev6</text>
<polyline fill="none" stroke="black" points="9.62,-104.25 146.38,-104.25"/>
<text xml:space="preserve" text-anchor="middle" x="77.62" y="-86.95" font-family="Times,serif" font-size="14.00">1</text>
</g>
<!-- n0000000d&#45;&gt;n00000013 -->
<g id="edge9" class="edge">
<title>n0000000d:port1&#45;&gt;n00000013:port0</title>
<path fill="none" stroke="black" stroke-dasharray="5,2" d="M163.62,-221.62C152.76,-221.62 156.83,-185.88 153.2,-168.56"/>
<polygon fill="black" stroke="black" points="156.18,-166.7 147.51,-160.61 150.48,-170.77 156.18,-166.7"/>
</g>
<!-- n0000001c -->
<g id="node8" class="node">
<title>n0000001c</title>
<path fill="green" stroke="black" d="M176.62,-79C176.62,-79 289.38,-79 289.38,-79 295.38,-79 301.38,-85 301.38,-91 301.38,-91 301.38,-160 301.38,-160 301.38,-166 295.38,-172 289.38,-172 289.38,-172 176.62,-172 176.62,-172 170.62,-172 164.62,-166 164.62,-160 164.62,-160 164.62,-91 164.62,-91 164.62,-85 170.62,-79 176.62,-79"/>
<text xml:space="preserve" text-anchor="middle" x="232.62" y="-154.7" font-family="Times,serif" font-size="14.00">0</text>
<polyline fill="none" stroke="black" points="164.62,-146.75 301.38,-146.75"/>
<text xml:space="preserve" text-anchor="middle" x="233" y="-129.45" font-family="Times,serif" font-size="14.00">msm_vfe0_rdi1</text>
<text xml:space="preserve" text-anchor="middle" x="233" y="-112.2" font-family="Times,serif" font-size="14.00">/dev/v4l&#45;subdev7</text>
<polyline fill="none" stroke="black" points="164.62,-104.25 301.38,-104.25"/>
<text xml:space="preserve" text-anchor="middle" x="232.62" y="-86.95" font-family="Times,serif" font-size="14.00">1</text>
</g>
<!-- n0000000d&#45;&gt;n0000001c -->
<g id="edge10" class="edge">
<title>n0000000d:port1&#45;&gt;n0000001c:port0</title>
<path fill="none" stroke="black" stroke-dasharray="5,2" d="M232.62,-208.5C232.62,-197.12 232.62,-191.82 232.62,-183.95"/>
<polygon fill="black" stroke="black" points="236.13,-184.01 232.63,-174.01 229.13,-184.01 236.13,-184.01"/>
</g>
<!-- n00000025 -->
<g id="node9" class="node">
<title>n00000025</title>
<path fill="green" stroke="black" d="M331.62,-79C331.62,-79 444.38,-79 444.38,-79 450.38,-79 456.38,-85 456.38,-91 456.38,-91 456.38,-160 456.38,-160 456.38,-166 450.38,-172 444.38,-172 444.38,-172 331.62,-172 331.62,-172 325.62,-172 319.62,-166 319.62,-160 319.62,-160 319.62,-91 319.62,-91 319.62,-85 325.62,-79 331.62,-79"/>
<text xml:space="preserve" text-anchor="middle" x="387.62" y="-154.7" font-family="Times,serif" font-size="14.00">0</text>
<polyline fill="none" stroke="black" points="319.62,-146.75 456.38,-146.75"/>
<text xml:space="preserve" text-anchor="middle" x="388" y="-129.45" font-family="Times,serif" font-size="14.00">msm_vfe0_rdi2</text>
<text xml:space="preserve" text-anchor="middle" x="388" y="-112.2" font-family="Times,serif" font-size="14.00">/dev/v4l&#45;subdev8</text>
<polyline fill="none" stroke="black" points="319.62,-104.25 456.38,-104.25"/>
<text xml:space="preserve" text-anchor="middle" x="387.62" y="-86.95" font-family="Times,serif" font-size="14.00">1</text>
</g>
<!-- n0000000d&#45;&gt;n00000025 -->
<g id="edge11" class="edge">
<title>n0000000d:port1&#45;&gt;n00000025:port0</title>
<path fill="none" stroke="black" stroke-dasharray="5,2" d="M301.62,-221.62C312.49,-221.62 308.42,-185.88 312.05,-168.56"/>
<polygon fill="black" stroke="black" points="314.77,-170.77 317.74,-160.61 309.07,-166.7 314.77,-170.77"/>
</g>
<!-- n0000002e -->
<g id="node10" class="node">
<title>n0000002e</title>
<path fill="green" stroke="black" d="M486.62,-79C486.62,-79 599.38,-79 599.38,-79 605.38,-79 611.38,-85 611.38,-91 611.38,-91 611.38,-160 611.38,-160 611.38,-166 605.38,-172 599.38,-172 599.38,-172 486.62,-172 486.62,-172 480.62,-172 474.62,-166 474.62,-160 474.62,-160 474.62,-91 474.62,-91 474.62,-85 480.62,-79 486.62,-79"/>
<text xml:space="preserve" text-anchor="middle" x="542.62" y="-154.7" font-family="Times,serif" font-size="14.00">0</text>
<polyline fill="none" stroke="black" points="474.62,-146.75 611.38,-146.75"/>
<text xml:space="preserve" text-anchor="middle" x="543" y="-129.45" font-family="Times,serif" font-size="14.00">msm_vfe0_pix</text>
<text xml:space="preserve" text-anchor="middle" x="543" y="-112.2" font-family="Times,serif" font-size="14.00">/dev/v4l&#45;subdev9</text>
<polyline fill="none" stroke="black" points="474.62,-104.25 611.38,-104.25"/>
<text xml:space="preserve" text-anchor="middle" x="542.62" y="-86.95" font-family="Times,serif" font-size="14.00">1</text>
</g>
<!-- n0000000d&#45;&gt;n0000002e -->
<g id="edge12" class="edge">
<title>n0000000d:port1&#45;&gt;n0000002e:port0</title>
<path fill="none" stroke="black" stroke-dasharray="5,2" d="M301.62,-221.62C308.79,-221.62 305.04,-212.49 311,-208.5 369.4,-169.39 407.37,-212.74 465,-172.5 466.34,-171.56 467.14,-170.34 467.68,-169.03"/>
<polygon fill="black" stroke="black" points="470.57,-171.01 472.83,-160.66 464.61,-167.34 470.57,-171.01"/>
</g>
<!-- n00000010&#45;&gt;n00000013 -->
<g id="edge13" class="edge">
<title>n00000010:port1&#45;&gt;n00000013:port0</title>
<path fill="none" stroke="black" stroke-dasharray="5,2" d="M318.62,-221.62C311.64,-221.62 315.72,-212.5 310,-208.5 252.37,-168.26 214.4,-211.61 156,-172.5 154.51,-171.5 153.63,-170.18 153.03,-168.77"/>
<polygon fill="black" stroke="black" points="156,-166.91 147.48,-160.63 150.22,-170.86 156,-166.91"/>
</g>
<!-- n00000010&#45;&gt;n0000001c -->
<g id="edge14" class="edge">
<title>n00000010:port1&#45;&gt;n0000001c:port0</title>
<path fill="none" stroke="black" stroke-dasharray="5,2" d="M318.62,-221.62C307.76,-221.62 311.83,-185.88 308.2,-168.56"/>
<polygon fill="black" stroke="black" points="311.18,-166.7 302.51,-160.61 305.48,-170.77 311.18,-166.7"/>
</g>
<!-- n00000010&#45;&gt;n00000025 -->
<g id="edge15" class="edge">
<title>n00000010:port1&#45;&gt;n00000025:port0</title>
<path fill="none" stroke="black" stroke-dasharray="5,2" d="M387.62,-208.5C387.62,-197.12 387.62,-191.82 387.62,-183.95"/>
<polygon fill="black" stroke="black" points="391.13,-184.01 387.63,-174.01 384.13,-184.01 391.13,-184.01"/>
</g>
<!-- n00000010&#45;&gt;n0000002e -->
<g id="edge16" class="edge">
<title>n00000010:port1&#45;&gt;n0000002e:port0</title>
<path fill="none" stroke="black" stroke-dasharray="5,2" d="M456.62,-221.62C467.49,-221.62 463.42,-185.88 467.05,-168.56"/>
<polygon fill="black" stroke="black" points="469.77,-170.77 472.74,-160.61 464.07,-166.7 469.77,-170.77"/>
</g>
<!-- n00000016 -->
<g id="node11" class="node">
<title>n00000016</title>
<polygon fill="yellow" stroke="black" points="142,-42.5 0,-42.5 0,0 142,0 142,-42.5"/>
<text xml:space="preserve" text-anchor="middle" x="71" y="-25.2" font-family="Times,serif" font-size="14.00">msm_vfe0_video0</text>
<text xml:space="preserve" text-anchor="middle" x="71" y="-7.95" font-family="Times,serif" font-size="14.00">/dev/video0</text>
</g>
<!-- n00000013&#45;&gt;n00000016 -->
<g id="edge17" class="edge">
<title>n00000013:port1&#45;&gt;n00000016</title>
<path fill="none" stroke="black" stroke-width="2" d="M77.62,-78.5C77.62,-70.51 76.96,-61.92 76.04,-53.92"/>
<polygon fill="black" stroke="black" stroke-width="2" points="79.75,-55.22 74.98,-45.76 72.8,-56.12 79.75,-55.22"/>
</g>
<!-- n0000001f -->
<g id="node12" class="node">
<title>n0000001f</title>
<polygon fill="yellow" stroke="black" points="302,-42.5 160,-42.5 160,0 302,0 302,-42.5"/>
<text xml:space="preserve" text-anchor="middle" x="231" y="-25.2" font-family="Times,serif" font-size="14.00">msm_vfe0_video1</text>
<text xml:space="preserve" text-anchor="middle" x="231" y="-7.95" font-family="Times,serif" font-size="14.00">/dev/video1</text>
</g>
<!-- n0000001c&#45;&gt;n0000001f -->
<g id="edge18" class="edge">
<title>n0000001c:port1&#45;&gt;n0000001f</title>
<path fill="none" stroke="black" stroke-width="2" d="M232.62,-78.5C232.62,-70.65 232.46,-62.19 232.25,-54.27"/>
<polygon fill="black" stroke="black" stroke-width="2" points="235.79,-55.73 231.98,-45.84 228.8,-55.95 235.79,-55.73"/>
</g>
<!-- n00000028 -->
<g id="node13" class="node">
<title>n00000028</title>
<polygon fill="yellow" stroke="black" points="462,-42.5 320,-42.5 320,0 462,0 462,-42.5"/>
<text xml:space="preserve" text-anchor="middle" x="391" y="-25.2" font-family="Times,serif" font-size="14.00">msm_vfe0_video2</text>
<text xml:space="preserve" text-anchor="middle" x="391" y="-7.95" font-family="Times,serif" font-size="14.00">/dev/video2</text>
</g>
<!-- n00000025&#45;&gt;n00000028 -->
<g id="edge19" class="edge">
<title>n00000025:port1&#45;&gt;n00000028</title>
<path fill="none" stroke="black" stroke-width="2" d="M387.62,-78.5C387.62,-70.64 387.96,-62.17 388.41,-54.25"/>
<polygon fill="black" stroke="black" stroke-width="2" points="391.8,-56.03 388.97,-45.82 384.82,-55.57 391.8,-56.03"/>
</g>
<!-- n00000031 -->
<g id="node14" class="node">
<title>n00000031</title>
<polygon fill="yellow" stroke="black" points="622,-42.5 480,-42.5 480,0 622,0 622,-42.5"/>
<text xml:space="preserve" text-anchor="middle" x="551" y="-25.2" font-family="Times,serif" font-size="14.00">msm_vfe0_video3</text>
<text xml:space="preserve" text-anchor="middle" x="551" y="-7.95" font-family="Times,serif" font-size="14.00">/dev/video3</text>
</g>
<!-- n0000002e&#45;&gt;n00000031 -->
<g id="edge20" class="edge">
<title>n0000002e:port1&#45;&gt;n00000031</title>
<path fill="none" stroke="black" stroke-width="2" d="M542.62,-78.5C542.62,-70.54 543.46,-62.01 544.59,-54.07"/>
<polygon fill="black" stroke="black" stroke-width="2" points="547.76,-56.4 545.93,-45.96 540.85,-55.26 547.76,-56.4"/>
</g>
<!-- n00000057 -->
<g id="node15" class="node">
<title>n00000057</title>
<path fill="green" stroke="black" d="M168.12,-599C168.12,-599 289.88,-599 289.88,-599 295.88,-599 301.88,-605 301.88,-611 301.88,-611 301.88,-680 301.88,-680 301.88,-686 295.88,-692 289.88,-692 289.88,-692 168.12,-692 168.12,-692 162.12,-692 156.12,-686 156.12,-680 156.12,-680 156.12,-611 156.12,-611 156.12,-605 162.12,-599 168.12,-599"/>
<text xml:space="preserve" text-anchor="middle" x="228.88" y="-674.7" font-family="Times,serif" font-size="14.00"> </text>
<polyline fill="none" stroke="black" points="156.12,-666.75 301.88,-666.75"/>
<text xml:space="preserve" text-anchor="middle" x="229" y="-649.45" font-family="Times,serif" font-size="14.00">ov5645 1&#45;0076</text>
<text xml:space="preserve" text-anchor="middle" x="229" y="-632.2" font-family="Times,serif" font-size="14.00">/dev/v4l&#45;subdev10</text>
<polyline fill="none" stroke="black" points="156.12,-624.25 301.88,-624.25"/>
<text xml:space="preserve" text-anchor="middle" x="228.62" y="-606.95" font-family="Times,serif" font-size="14.00">0</text>
</g>
<!-- n00000057&#45;&gt;n00000001 -->
<g id="edge21" class="edge">
<title>n00000057:port0&#45;&gt;n00000001:port0</title>
<path fill="none" stroke="black" stroke-width="2" d="M228.62,-598.5C228.62,-587.05 230.65,-581.82 231.82,-573.97"/>
<polygon fill="black" stroke="black" stroke-width="2" points="235.2,-575.74 232.41,-565.52 228.22,-575.25 235.2,-575.74"/>
</g>
<!-- n00000059 -->
<g id="node16" class="node">
<title>n00000059</title>
<path fill="green" stroke="black" d="M332.12,-599C332.12,-599 453.88,-599 453.88,-599 459.88,-599 465.88,-605 465.88,-611 465.88,-611 465.88,-680 465.88,-680 465.88,-686 459.88,-692 453.88,-692 453.88,-692 332.12,-692 332.12,-692 326.12,-692 320.12,-686 320.12,-680 320.12,-680 320.12,-611 320.12,-611 320.12,-605 326.12,-599 332.12,-599"/>
<text xml:space="preserve" text-anchor="middle" x="392.88" y="-674.7" font-family="Times,serif" font-size="14.00"> </text>
<polyline fill="none" stroke="black" points="320.12,-666.75 465.88,-666.75"/>
<text xml:space="preserve" text-anchor="middle" x="393" y="-649.45" font-family="Times,serif" font-size="14.00">ov5645 1&#45;0074</text>
<text xml:space="preserve" text-anchor="middle" x="393" y="-632.2" font-family="Times,serif" font-size="14.00">/dev/v4l&#45;subdev11</text>
<polyline fill="none" stroke="black" points="320.12,-624.25 465.88,-624.25"/>
<text xml:space="preserve" text-anchor="middle" x="392.62" y="-606.95" font-family="Times,serif" font-size="14.00">0</text>
</g>
<!-- n00000059&#45;&gt;n00000004 -->
<g id="edge22" class="edge">
<title>n00000059:port0&#45;&gt;n00000004:port0</title>
<path fill="none" stroke="black" stroke-width="2" d="M392.62,-598.5C392.62,-586.89 390.04,-581.72 388.59,-573.73"/>
<polygon fill="black" stroke="black" stroke-width="2" points="392.23,-575.18 387.88,-565.52 385.25,-575.78 392.23,-575.18"/>
</g>
</g>
</svg>
