<?xml version="1.0" encoding="UTF-8" standalone="no"?>
<!DOCTYPE svg PUBLIC "-//W3C//DTD SVG 1.1//EN"
 "http://www.w3.org/Graphics/SVG/1.1/DTD/svg11.dtd">
<!-- Generated by graphviz version 14.1.2 (20260126.1125)
 -->
<!-- Title: Fencing Cycle Pages: 1 -->
<svg width="601pt" height="51pt"
 viewBox="0.00 0.00 601.00 51.00" xmlns="http://www.w3.org/2000/svg" xmlns:xlink="http://www.w3.org/1999/xlink">
<g id="graph0" class="graph" transform="scale(1 1) rotate(0) translate(4 46.62)">
<title>Fencing Cycle</title>
<polygon fill="white" stroke="none" points="-4,4 -4,-46.62 596.5,-46.62 596.5,4 -4,4"/>
<!-- kernel -->
<g id="node1" class="node">
<title>kernel</title>
<polygon fill="lightgrey" stroke="black" points="156.25,-42.62 0,-42.62 0,-6.62 156.25,-6.62 156.25,-42.62"/>
<text xml:space="preserve" text-anchor="middle" x="78.12" y="-19.94" font-family="Times,serif" font-size="14.00">Kernel DMA Fences</text>
</g>
<!-- userspace -->
<g id="node2" class="node">
<title>userspace</title>
<polygon fill="lightgrey" stroke="black" points="592.5,-42.62 377.75,-42.62 377.75,-6.62 592.5,-6.62 592.5,-42.62"/>
<text xml:space="preserve" text-anchor="middle" x="485.12" y="-19.94" font-family="Times,serif" font-size="14.00">userspace controlled fences</text>
</g>
<!-- kernel&#45;&gt;userspace -->
<g id="edge1" class="edge">
<title>kernel&#45;&gt;userspace</title>
<path fill="none" stroke="black" d="M156.63,-8.47C167.46,-6.77 178.48,-5.32 189,-4.37 258.05,1.88 275.85,0.6 345,-4.37 351.92,-4.87 359.01,-5.5 366.16,-6.23"/>
<polygon fill="black" stroke="black" points="365.6,-9.69 375.92,-7.3 366.36,-2.74 365.6,-9.69"/>
<text xml:space="preserve" text-anchor="middle" x="267" y="-8.32" font-family="Times,serif" font-size="14.00">memory management</text>
</g>
<!-- userspace&#45;&gt;kernel -->
<g id="edge2" class="edge">
<title>userspace&#45;&gt;kernel</title>
<path fill="none" stroke="black" d="M377.28,-24.62C311.96,-24.62 229.63,-24.62 167.88,-24.62"/>
<polygon fill="black" stroke="black" points="168.11,-21.12 158.11,-24.62 168.11,-28.12 168.11,-21.12"/>
<text xml:space="preserve" text-anchor="middle" x="267" y="-31.57" font-family="Times,serif" font-size="14.00">Future fence, fence proxy, ...</text>
</g>
</g>
</svg>
