<?xml version="1.0" encoding="UTF-8" standalone="no"?>
<!DOCTYPE svg PUBLIC "-//W3C//DTD SVG 1.1//EN"
 "http://www.w3.org/Graphics/SVG/1.1/DTD/svg11.dtd">
<!-- Generated by graphviz version 14.1.2 (20260126.1125)
 -->
<!-- Pages: 1 -->
<svg width="1477pt" height="417pt"
 viewBox="0.00 0.00 1477.00 417.00" xmlns="http://www.w3.org/2000/svg" xmlns:xlink="http://www.w3.org/1999/xlink">
<g id="graph0" class="graph" transform="scale(1 1) rotate(0) translate(4 412.5)">
<polygon fill="white" stroke="none" points="-4,4 -4,-412.5 1473,-412.5 1473,4 -4,4"/>
<g id="clust1" class="cluster">
<title>cluster_state</title>
<polygon fill="none" stroke="black" stroke-dasharray="5,2" points="8,-250.25 8,-400.5 1234,-400.5 1234,-250.25 8,-250.25"/>
<text xml:space="preserve" text-anchor="middle" x="621" y="-383.2" font-family="Times,serif" font-size="14.00">Free&#45;standing state</text>
</g>
<g id="clust2" class="cluster">
<title>cluster_current</title>
<polygon fill="none" stroke="black" stroke-dasharray="5,2" points="633,-8 633,-231.25 1461,-231.25 1461,-8 633,-8"/>
<text xml:space="preserve" text-anchor="middle" x="1047" y="-213.95" font-family="Times,serif" font-size="14.00">Current state</text>
</g>
<!-- drm_atomic_state -->
<g id="node1" class="node">
<title>drm_atomic_state</title>
<polygon fill="none" stroke="black" points="742.38,-367.25 599.62,-367.25 599.62,-331.25 742.38,-331.25 742.38,-367.25"/>
<text xml:space="preserve" text-anchor="middle" x="671" y="-344.57" font-family="Times,serif" font-size="14.00">drm_atomic_state</text>
</g>
<!-- duplicated drm_plane_state A -->
<g id="node2" class="node">
<title>duplicated drm_plane_state A</title>
<polygon fill="none" stroke="black" points="243.75,-294.25 16.25,-294.25 16.25,-258.25 243.75,-258.25 243.75,-294.25"/>
<text xml:space="preserve" text-anchor="middle" x="130" y="-271.57" font-family="Times,serif" font-size="14.00">duplicated drm_plane_state A</text>
</g>
<!-- drm_atomic_state&#45;&gt;duplicated drm_plane_state A -->
<g id="edge1" class="edge">
<title>drm_atomic_state&#45;&gt;duplicated drm_plane_state A</title>
<path fill="none" stroke="black" d="M599.23,-339.17C518.3,-328.9 382.45,-311.51 255.34,-294.56"/>
<polygon fill="black" stroke="black" points="256.12,-291.13 245.75,-293.28 255.19,-298.07 256.12,-291.13"/>
</g>
<!-- duplicated drm_plane_state B -->
<g id="node3" class="node">
<title>duplicated drm_plane_state B</title>
<polygon fill="none" stroke="black" points="490.12,-294.25 261.88,-294.25 261.88,-258.25 490.12,-258.25 490.12,-294.25"/>
<text xml:space="preserve" text-anchor="middle" x="376" y="-271.57" font-family="Times,serif" font-size="14.00">duplicated drm_plane_state B</text>
</g>
<!-- drm_atomic_state&#45;&gt;duplicated drm_plane_state B -->
<g id="edge2" class="edge">
<title>drm_atomic_state&#45;&gt;duplicated drm_plane_state B</title>
<path fill="none" stroke="black" d="M599.21,-330.97C557.08,-320.83 503.63,-307.97 459.6,-297.37"/>
<polygon fill="black" stroke="black" points="460.64,-294.02 450.09,-295.08 459,-300.83 460.64,-294.02"/>
</g>
<!-- duplicated drm_crtc_state -->
<g id="node4" class="node">
<title>duplicated drm_crtc_state</title>
<polygon fill="none" stroke="black" points="710,-294.25 508,-294.25 508,-258.25 710,-258.25 710,-294.25"/>
<text xml:space="preserve" text-anchor="middle" x="609" y="-271.57" font-family="Times,serif" font-size="14.00">duplicated drm_crtc_state</text>
</g>
<!-- drm_atomic_state&#45;&gt;duplicated drm_crtc_state -->
<g id="edge3" class="edge">
<title>drm_atomic_state&#45;&gt;duplicated drm_crtc_state</title>
<path fill="none" stroke="black" d="M655.99,-331.06C648.6,-322.6 639.55,-312.23 631.37,-302.86"/>
<polygon fill="black" stroke="black" points="634.08,-300.65 624.87,-295.42 628.81,-305.25 634.08,-300.65"/>
</g>
<!-- duplicated drm_connector_state -->
<g id="node5" class="node">
<title>duplicated drm_connector_state</title>
<polygon fill="none" stroke="black" points="972.38,-294.25 727.62,-294.25 727.62,-258.25 972.38,-258.25 972.38,-294.25"/>
<text xml:space="preserve" text-anchor="middle" x="850" y="-271.57" font-family="Times,serif" font-size="14.00">duplicated drm_connector_state</text>
</g>
<!-- drm_atomic_state&#45;&gt;duplicated drm_connector_state -->
<g id="edge4" class="edge">
<title>drm_atomic_state&#45;&gt;duplicated drm_connector_state</title>
<path fill="none" stroke="black" d="M714.79,-330.88C739.17,-321.21 769.73,-309.09 795.63,-298.81"/>
<polygon fill="black" stroke="black" points="796.63,-302.18 804.64,-295.24 794.05,-295.68 796.63,-302.18"/>
</g>
<!-- duplicated driver private state -->
<g id="node6" class="node">
<title>duplicated driver private state</title>
<polygon fill="none" stroke="black" points="1225.5,-294.25 990.5,-294.25 990.5,-258.25 1225.5,-258.25 1225.5,-294.25"/>
<text xml:space="preserve" text-anchor="middle" x="1108" y="-271.57" font-family="Times,serif" font-size="14.00">duplicated driver private state</text>
</g>
<!-- drm_atomic_state&#45;&gt;duplicated driver private state -->
<g id="edge5" class="edge">
<title>drm_atomic_state&#45;&gt;duplicated driver private state</title>
<path fill="none" stroke="black" d="M742.67,-336.61C809.62,-325.73 910.8,-309.29 989.72,-296.47"/>
<polygon fill="black" stroke="black" points="989.9,-299.98 999.21,-294.93 988.78,-293.07 989.9,-299.98"/>
</g>
<!-- drm_device -->
<g id="node7" class="node">
<title>drm_device</title>
<polygon fill="none" stroke="black" points="1083.88,-198 986.12,-198 986.12,-162 1083.88,-162 1083.88,-198"/>
<text xml:space="preserve" text-anchor="middle" x="1035" y="-175.32" font-family="Times,serif" font-size="14.00">drm_device</text>
</g>
<!-- drm_atomic_state&#45;&gt;drm_device -->
<g id="edge16" class="edge">
<title>drm_atomic_state&#45;&gt;drm_device</title>
<path fill="none" stroke="black" d="M742.7,-346.66C887.2,-342.7 1202.48,-330.03 1235,-294.25 1282.22,-242.29 1170.03,-208.25 1095.27,-192.05"/>
<polygon fill="black" stroke="black" points="1096.06,-188.64 1085.56,-190.01 1094.62,-195.49 1096.06,-188.64"/>
<text xml:space="preserve" text-anchor="middle" x="1300.24" y="-271.57" font-family="Times,serif" font-size="14.00">atomic_commit</text>
</g>
<!-- duplicated drm_plane_state A&#45;&gt;drm_device -->
<!-- drm_plane A -->
<g id="node8" class="node">
<title>drm_plane A</title>
<polygon fill="none" stroke="black" points="814.62,-125 709.38,-125 709.38,-89 814.62,-89 814.62,-125"/>
<text xml:space="preserve" text-anchor="middle" x="762" y="-102.33" font-family="Times,serif" font-size="14.00">drm_plane A</text>
</g>
<!-- drm_device&#45;&gt;drm_plane A -->
<g id="edge6" class="edge">
<title>drm_device&#45;&gt;drm_plane A</title>
<path fill="none" stroke="black" d="M985.88,-166.22C941.16,-154.59 874.85,-137.35 826,-124.65"/>
<polygon fill="black" stroke="black" points="826.95,-121.27 816.39,-122.14 825.18,-128.05 826.95,-121.27"/>
</g>
<!-- drm_plane B -->
<g id="node9" class="node">
<title>drm_plane B</title>
<polygon fill="none" stroke="black" points="966,-125 860,-125 860,-89 966,-89 966,-125"/>
<text xml:space="preserve" text-anchor="middle" x="913" y="-102.33" font-family="Times,serif" font-size="14.00">drm_plane B</text>
</g>
<!-- drm_device&#45;&gt;drm_plane B -->
<g id="edge7" class="edge">
<title>drm_device&#45;&gt;drm_plane B</title>
<path fill="none" stroke="black" d="M1005.16,-161.63C989.35,-152.43 969.73,-141.02 952.67,-131.08"/>
<polygon fill="black" stroke="black" points="954.67,-128.2 944.27,-126.2 951.15,-134.25 954.67,-128.2"/>
</g>
<!-- drm_crtc -->
<g id="node10" class="node">
<title>drm_crtc</title>
<polygon fill="none" stroke="black" points="1074.88,-125 995.12,-125 995.12,-89 1074.88,-89 1074.88,-125"/>
<text xml:space="preserve" text-anchor="middle" x="1035" y="-102.33" font-family="Times,serif" font-size="14.00">drm_crtc</text>
</g>
<!-- drm_device&#45;&gt;drm_crtc -->
<g id="edge8" class="edge">
<title>drm_device&#45;&gt;drm_crtc</title>
<path fill="none" stroke="black" d="M1035,-161.81C1035,-154.23 1035,-145.1 1035,-136.54"/>
<polygon fill="black" stroke="black" points="1038.5,-136.54 1035,-126.54 1031.5,-136.54 1038.5,-136.54"/>
</g>
<!-- drm_connector -->
<g id="node11" class="node">
<title>drm_connector</title>
<polygon fill="none" stroke="black" points="1236.25,-125 1113.75,-125 1113.75,-89 1236.25,-89 1236.25,-125"/>
<text xml:space="preserve" text-anchor="middle" x="1175" y="-102.33" font-family="Times,serif" font-size="14.00">drm_connector</text>
</g>
<!-- drm_device&#45;&gt;drm_connector -->
<g id="edge9" class="edge">
<title>drm_device&#45;&gt;drm_connector</title>
<path fill="none" stroke="black" d="M1069.25,-161.63C1087.72,-152.26 1110.74,-140.59 1130.58,-130.53"/>
<polygon fill="black" stroke="black" points="1131.94,-133.76 1139.27,-126.12 1128.77,-127.52 1131.94,-133.76"/>
</g>
<!-- driver private object -->
<g id="node12" class="node">
<title>driver private object</title>
<polygon fill="none" stroke="black" points="1434.5,-125 1271.5,-125 1271.5,-89 1434.5,-89 1434.5,-125"/>
<text xml:space="preserve" text-anchor="middle" x="1353" y="-102.33" font-family="Times,serif" font-size="14.00">driver private object</text>
</g>
<!-- drm_device&#45;&gt;driver private object -->
<g id="edge10" class="edge">
<title>drm_device&#45;&gt;driver private object</title>
<path fill="none" stroke="black" d="M1084.34,-167.98C1132.11,-157.32 1205.64,-140.9 1263.7,-127.94"/>
<polygon fill="black" stroke="black" points="1264.25,-131.4 1273.25,-125.81 1262.73,-124.57 1264.25,-131.4"/>
</g>
<!-- drm_plane_state A -->
<g id="node13" class="node">
<title>drm_plane_state A</title>
<polygon fill="none" stroke="black" points="789,-52 641,-52 641,-16 789,-16 789,-52"/>
<text xml:space="preserve" text-anchor="middle" x="715" y="-29.32" font-family="Times,serif" font-size="14.00">drm_plane_state A</text>
</g>
<!-- drm_plane A&#45;&gt;drm_plane_state A -->
<g id="edge11" class="edge">
<title>drm_plane A&#45;&gt;drm_plane_state A</title>
<path fill="none" stroke="black" d="M750.62,-88.81C745.2,-80.62 738.58,-70.62 732.53,-61.48"/>
<polygon fill="black" stroke="black" points="735.55,-59.7 727.11,-53.29 729.71,-63.56 735.55,-59.7"/>
</g>
<!-- drm_plane_state B -->
<g id="node14" class="node">
<title>drm_plane_state B</title>
<polygon fill="none" stroke="black" points="955.38,-52 806.62,-52 806.62,-16 955.38,-16 955.38,-52"/>
<text xml:space="preserve" text-anchor="middle" x="881" y="-29.32" font-family="Times,serif" font-size="14.00">drm_plane_state B</text>
</g>
<!-- drm_plane B&#45;&gt;drm_plane_state B -->
<g id="edge12" class="edge">
<title>drm_plane B&#45;&gt;drm_plane_state B</title>
<path fill="none" stroke="black" d="M905.25,-88.81C901.68,-80.88 897.34,-71.26 893.33,-62.36"/>
<polygon fill="black" stroke="black" points="896.6,-61.09 889.3,-53.41 890.22,-63.96 896.6,-61.09"/>
</g>
<!-- drm_crtc_state -->
<g id="node15" class="node">
<title>drm_crtc_state</title>
<polygon fill="none" stroke="black" points="1096.25,-52 973.75,-52 973.75,-16 1096.25,-16 1096.25,-52"/>
<text xml:space="preserve" text-anchor="middle" x="1035" y="-29.32" font-family="Times,serif" font-size="14.00">drm_crtc_state</text>
</g>
<!-- drm_crtc&#45;&gt;drm_crtc_state -->
<g id="edge13" class="edge">
<title>drm_crtc&#45;&gt;drm_crtc_state</title>
<path fill="none" stroke="black" d="M1035,-88.81C1035,-81.23 1035,-72.1 1035,-63.54"/>
<polygon fill="black" stroke="black" points="1038.5,-63.54 1035,-53.54 1031.5,-63.54 1038.5,-63.54"/>
</g>
<!-- drm_connector_state -->
<g id="node16" class="node">
<title>drm_connector_state</title>
<polygon fill="none" stroke="black" points="1279.62,-52 1114.38,-52 1114.38,-16 1279.62,-16 1279.62,-52"/>
<text xml:space="preserve" text-anchor="middle" x="1197" y="-29.32" font-family="Times,serif" font-size="14.00">drm_connector_state</text>
</g>
<!-- drm_connector&#45;&gt;drm_connector_state -->
<g id="edge14" class="edge">
<title>drm_connector&#45;&gt;drm_connector_state</title>
<path fill="none" stroke="black" d="M1180.33,-88.81C1182.73,-81.05 1185.63,-71.68 1188.34,-62.95"/>
<polygon fill="black" stroke="black" points="1191.66,-64.06 1191.28,-53.47 1184.97,-61.99 1191.66,-64.06"/>
</g>
<!-- driver private state -->
<g id="node17" class="node">
<title>driver private state</title>
<polygon fill="none" stroke="black" points="1452.75,-52 1297.25,-52 1297.25,-16 1452.75,-16 1452.75,-52"/>
<text xml:space="preserve" text-anchor="middle" x="1375" y="-29.32" font-family="Times,serif" font-size="14.00">driver private state</text>
</g>
<!-- driver private object&#45;&gt;driver private state -->
<g id="edge15" class="edge">
<title>driver private object&#45;&gt;driver private state</title>
<path fill="none" stroke="black" d="M1358.33,-88.81C1360.73,-81.05 1363.63,-71.68 1366.34,-62.95"/>
<polygon fill="black" stroke="black" points="1369.66,-64.06 1369.28,-53.47 1362.97,-61.99 1369.66,-64.06"/>
</g>
</g>
</svg>
