<?xml version="1.0" encoding="UTF-8" standalone="no"?>
<!DOCTYPE svg PUBLIC "-//W3C//DTD SVG 1.1//EN"
 "http://www.w3.org/Graphics/SVG/1.1/DTD/svg11.dtd">
<!-- Generated by graphviz version 14.1.2 (20260126.1125)
 -->
<!-- Title: writeback_data_flow Pages: 1 -->
<svg width="306pt" height="44pt"
 viewBox="0.00 0.00 306.00 44.00" xmlns="http://www.w3.org/2000/svg" xmlns:xlink="http://www.w3.org/1999/xlink">
<g id="graph0" class="graph" transform="scale(1 1) rotate(0) translate(4 40)">
<title>writeback_data_flow</title>
<polygon fill="white" stroke="none" points="-4,4 -4,-40 301.75,-40 301.75,4 -4,4"/>
<!-- Scaler&#45;n -->
<g id="node1" class="node">
<title>Scaler&#45;n</title>
<polygon fill="none" stroke="black" stroke-dasharray="5,2" points="179.75,-36 105.25,-36 105.25,0 179.75,0 179.75,-36"/>
<text xml:space="preserve" text-anchor="middle" x="142.5" y="-13.32" font-family="Times,serif" font-size="14.00">Scaler&#45;n</text>
</g>
<!-- Wb_layer -->
<g id="node3" class="node">
<title>Wb_layer</title>
<polygon fill="none" stroke="black" points="297.75,-36 215.75,-36 215.75,0 297.75,0 297.75,-36"/>
<text xml:space="preserve" text-anchor="middle" x="256.75" y="-13.32" font-family="Times,serif" font-size="14.00">Wb_layer</text>
</g>
<!-- Scaler&#45;n&#45;&gt;Wb_layer -->
<g id="edge2" class="edge">
<title>Scaler&#45;n&#45;&gt;Wb_layer</title>
<path fill="none" stroke="black" d="M179.94,-18C187.69,-18 196.01,-18 204.19,-18"/>
<polygon fill="black" stroke="black" points="204.09,-21.5 214.09,-18 204.09,-14.5 204.09,-21.5"/>
</g>
<!-- Compiz -->
<g id="node2" class="node">
<title>Compiz</title>
<polygon fill="none" stroke="black" points="69.25,-36 0,-36 0,0 69.25,0 69.25,-36"/>
<text xml:space="preserve" text-anchor="middle" x="34.62" y="-13.32" font-family="Times,serif" font-size="14.00">Compiz</text>
</g>
<!-- Compiz&#45;&gt;Scaler&#45;n -->
<g id="edge1" class="edge">
<title>Compiz&#45;&gt;Scaler&#45;n</title>
<path fill="none" stroke="black" d="M69.71,-18C77.35,-18 85.59,-18 93.68,-18"/>
<polygon fill="black" stroke="black" points="93.41,-21.5 103.41,-18 93.41,-14.5 93.41,-21.5"/>
</g>
</g>
</svg>
