<?xml version="1.0" encoding="UTF-8" standalone="no"?>
<!DOCTYPE svg PUBLIC "-//W3C//DTD SVG 1.1//EN"
 "http://www.w3.org/Graphics/SVG/1.1/DTD/svg11.dtd">
<!-- Generated by graphviz version 14.1.2 (20260126.1125)
 -->
<!-- Title: board Pages: 1 -->
<svg width="1027pt" height="831pt"
 viewBox="0.00 0.00 1027.00 831.00" xmlns="http://www.w3.org/2000/svg" xmlns:xlink="http://www.w3.org/1999/xlink">
<g id="graph0" class="graph" transform="scale(1 1) rotate(0) translate(4 826.5)">
<title>board</title>
<polygon fill="white" stroke="none" points="-4,4 -4,-826.5 1022.88,-826.5 1022.88,4 -4,4"/>
<!-- n00000001 -->
<g id="node1" class="node">
<title>n00000001</title>
<path fill="green" stroke="black" d="M16.5,-469C16.5,-469 129.25,-469 129.25,-469 135.25,-469 141.25,-475 141.25,-481 141.25,-481 141.25,-550 141.25,-550 141.25,-556 135.25,-562 129.25,-562 129.25,-562 16.5,-562 16.5,-562 10.5,-562 4.5,-556 4.5,-550 4.5,-550 4.5,-481 4.5,-481 4.5,-475 10.5,-469 16.5,-469"/>
<text xml:space="preserve" text-anchor="middle" x="72.5" y="-544.7" font-family="Times,serif" font-size="14.00">0</text>
<polyline fill="none" stroke="black" points="4.5,-536.75 141.25,-536.75"/>
<text xml:space="preserve" text-anchor="middle" x="72.88" y="-519.45" font-family="Times,serif" font-size="14.00">ipu1_csi0</text>
<text xml:space="preserve" text-anchor="middle" x="72.88" y="-502.2" font-family="Times,serif" font-size="14.00">/dev/v4l&#45;subdev0</text>
<polyline fill="none" stroke="black" points="4.5,-494.25 141.25,-494.25"/>
<text xml:space="preserve" text-anchor="middle" x="38.5" y="-476.95" font-family="Times,serif" font-size="14.00">1</text>
<polyline fill="none" stroke="black" points="72.5,-469 72.5,-494.25"/>
<text xml:space="preserve" text-anchor="middle" x="106.5" y="-476.95" font-family="Times,serif" font-size="14.00">2</text>
</g>
<!-- n00000005 -->
<g id="node2" class="node">
<title>n00000005</title>
<polygon fill="yellow" stroke="black" points="176.88,-406.75 34.88,-406.75 34.88,-364.25 176.88,-364.25 176.88,-406.75"/>
<text xml:space="preserve" text-anchor="middle" x="105.88" y="-389.45" font-family="Times,serif" font-size="14.00">ipu1_csi0 capture</text>
<text xml:space="preserve" text-anchor="middle" x="105.88" y="-372.2" font-family="Times,serif" font-size="14.00">/dev/video0</text>
</g>
<!-- n00000001&#45;&gt;n00000005 -->
<g id="edge1" class="edge">
<title>n00000001:port2&#45;&gt;n00000005</title>
<path fill="none" stroke="black" stroke-dasharray="5,2" d="M106.5,-468.5C106.5,-451.99 106.37,-433.6 106.23,-418.43"/>
<polygon fill="black" stroke="black" points="109.73,-418.53 106.13,-408.57 102.73,-418.6 109.73,-418.53"/>
</g>
<!-- n0000000f -->
<g id="node3" class="node">
<title>n0000000f</title>
<path fill="green" stroke="black" d="M206.5,-209C206.5,-209 319.25,-209 319.25,-209 325.25,-209 331.25,-215 331.25,-221 331.25,-221 331.25,-290 331.25,-290 331.25,-296 325.25,-302 319.25,-302 319.25,-302 206.5,-302 206.5,-302 200.5,-302 194.5,-296 194.5,-290 194.5,-290 194.5,-221 194.5,-221 194.5,-215 200.5,-209 206.5,-209"/>
<text xml:space="preserve" text-anchor="middle" x="262.5" y="-284.7" font-family="Times,serif" font-size="14.00">0</text>
<polyline fill="none" stroke="black" points="194.5,-276.75 331.25,-276.75"/>
<text xml:space="preserve" text-anchor="middle" x="262.88" y="-259.45" font-family="Times,serif" font-size="14.00">ipu1_ic_prp</text>
<text xml:space="preserve" text-anchor="middle" x="262.88" y="-242.2" font-family="Times,serif" font-size="14.00">/dev/v4l&#45;subdev2</text>
<polyline fill="none" stroke="black" points="194.5,-234.25 331.25,-234.25"/>
<text xml:space="preserve" text-anchor="middle" x="228.5" y="-216.95" font-family="Times,serif" font-size="14.00">1</text>
<polyline fill="none" stroke="black" points="262.5,-209 262.5,-234.25"/>
<text xml:space="preserve" text-anchor="middle" x="296.5" y="-216.95" font-family="Times,serif" font-size="14.00">2</text>
</g>
<!-- n00000001&#45;&gt;n0000000f -->
<g id="edge2" class="edge">
<title>n00000001:port1&#45;&gt;n0000000f:port0</title>
<path fill="none" stroke="black" stroke-dasharray="5,2" d="M38.5,-468.5C38.5,-451.54 28.72,-449.21 25.88,-432.5 18.86,-391.31 0.83,-371.94 25.88,-338.5 47.15,-310.1 137.15,-292.57 182.11,-289.77"/>
<polygon fill="black" stroke="black" points="182.12,-293.27 191.99,-289.43 181.87,-286.28 182.12,-293.27"/>
</g>
<!-- n0000000b -->
<g id="node4" class="node">
<title>n0000000b</title>
<path fill="green" stroke="black" d="M206.5,-339C206.5,-339 319.25,-339 319.25,-339 325.25,-339 331.25,-345 331.25,-351 331.25,-351 331.25,-420 331.25,-420 331.25,-426 325.25,-432 319.25,-432 319.25,-432 206.5,-432 206.5,-432 200.5,-432 194.5,-426 194.5,-420 194.5,-420 194.5,-351 194.5,-351 194.5,-345 200.5,-339 206.5,-339"/>
<text xml:space="preserve" text-anchor="middle" x="228.5" y="-414.7" font-family="Times,serif" font-size="14.00">0</text>
<polyline fill="none" stroke="black" points="262.5,-406.75 262.5,-432"/>
<text xml:space="preserve" text-anchor="middle" x="296.5" y="-414.7" font-family="Times,serif" font-size="14.00">1</text>
<polyline fill="none" stroke="black" points="194.5,-406.75 331.25,-406.75"/>
<text xml:space="preserve" text-anchor="middle" x="262.88" y="-389.45" font-family="Times,serif" font-size="14.00">ipu1_vdic</text>
<text xml:space="preserve" text-anchor="middle" x="262.88" y="-372.2" font-family="Times,serif" font-size="14.00">/dev/v4l&#45;subdev1</text>
<polyline fill="none" stroke="black" points="194.5,-364.25 331.25,-364.25"/>
<text xml:space="preserve" text-anchor="middle" x="262.5" y="-346.95" font-family="Times,serif" font-size="14.00">2</text>
</g>
<!-- n00000001&#45;&gt;n0000000b -->
<g id="edge3" class="edge">
<title>n00000001:port1&#45;&gt;n0000000b:port0</title>
<path fill="none" stroke="black" stroke-dasharray="5,2" d="M38.5,-468.5C38.5,-401.07 131.88,-472.88 185.88,-432.5 186.97,-431.68 187.66,-430.65 188.12,-429.53"/>
<polygon fill="black" stroke="black" points="191.2,-431.19 192.79,-420.71 185.02,-427.91 191.2,-431.19"/>
</g>
<!-- n00000013 -->
<g id="node5" class="node">
<title>n00000013</title>
<path fill="green" stroke="black" d="M168.5,-79C168.5,-79 281.25,-79 281.25,-79 287.25,-79 293.25,-85 293.25,-91 293.25,-91 293.25,-160 293.25,-160 293.25,-166 287.25,-172 281.25,-172 281.25,-172 168.5,-172 168.5,-172 162.5,-172 156.5,-166 156.5,-160 156.5,-160 156.5,-91 156.5,-91 156.5,-85 162.5,-79 168.5,-79"/>
<text xml:space="preserve" text-anchor="middle" x="224.5" y="-154.7" font-family="Times,serif" font-size="14.00">0</text>
<polyline fill="none" stroke="black" points="156.5,-146.75 293.25,-146.75"/>
<text xml:space="preserve" text-anchor="middle" x="224.88" y="-129.45" font-family="Times,serif" font-size="14.00">ipu1_ic_prpenc</text>
<text xml:space="preserve" text-anchor="middle" x="224.88" y="-112.2" font-family="Times,serif" font-size="14.00">/dev/v4l&#45;subdev3</text>
<polyline fill="none" stroke="black" points="156.5,-104.25 293.25,-104.25"/>
<text xml:space="preserve" text-anchor="middle" x="224.5" y="-86.95" font-family="Times,serif" font-size="14.00">1</text>
</g>
<!-- n0000000f&#45;&gt;n00000013 -->
<g id="edge5" class="edge">
<title>n0000000f:port1&#45;&gt;n00000013:port0</title>
<path fill="none" stroke="black" stroke-dasharray="5,2" d="M228.5,-208.5C228.5,-197.05 226.48,-191.82 225.31,-183.97"/>
<polygon fill="black" stroke="black" points="228.8,-183.74 224.61,-174.01 221.82,-184.23 228.8,-183.74"/>
</g>
<!-- n0000001c -->
<g id="node6" class="node">
<title>n0000001c</title>
<path fill="green" stroke="black" d="M350.5,-79C350.5,-79 463.25,-79 463.25,-79 469.25,-79 475.25,-85 475.25,-91 475.25,-91 475.25,-160 475.25,-160 475.25,-166 469.25,-172 463.25,-172 463.25,-172 350.5,-172 350.5,-172 344.5,-172 338.5,-166 338.5,-160 338.5,-160 338.5,-91 338.5,-91 338.5,-85 344.5,-79 350.5,-79"/>
<text xml:space="preserve" text-anchor="middle" x="406.5" y="-154.7" font-family="Times,serif" font-size="14.00">0</text>
<polyline fill="none" stroke="black" points="338.5,-146.75 475.25,-146.75"/>
<text xml:space="preserve" text-anchor="middle" x="406.88" y="-129.45" font-family="Times,serif" font-size="14.00">ipu1_ic_prpvf</text>
<text xml:space="preserve" text-anchor="middle" x="406.88" y="-112.2" font-family="Times,serif" font-size="14.00">/dev/v4l&#45;subdev4</text>
<polyline fill="none" stroke="black" points="338.5,-104.25 475.25,-104.25"/>
<text xml:space="preserve" text-anchor="middle" x="406.5" y="-86.95" font-family="Times,serif" font-size="14.00">1</text>
</g>
<!-- n0000000f&#45;&gt;n0000001c -->
<g id="edge6" class="edge">
<title>n0000000f:port2&#45;&gt;n0000001c:port0</title>
<path fill="none" stroke="black" stroke-dasharray="5,2" d="M331.5,-221.62C353.43,-221.62 327.18,-182.87 328.79,-166.52"/>
<polygon fill="black" stroke="black" points="330.81,-169.38 336.33,-160.33 326.38,-163.97 330.81,-169.38"/>
</g>
<!-- n0000000b&#45;&gt;n0000000f -->
<g id="edge4" class="edge">
<title>n0000000b:port2&#45;&gt;n0000000f:port0</title>
<path fill="none" stroke="black" stroke-dasharray="5,2" d="M262.5,-338.5C262.5,-327.12 262.5,-321.82 262.5,-313.95"/>
<polygon fill="black" stroke="black" points="266,-314.01 262.5,-304.01 259,-314.01 266,-314.01"/>
</g>
<!-- n00000016 -->
<g id="node7" class="node">
<title>n00000016</title>
<polygon fill="yellow" stroke="black" points="308.75,-42.5 127,-42.5 127,0 308.75,0 308.75,-42.5"/>
<text xml:space="preserve" text-anchor="middle" x="217.88" y="-25.2" font-family="Times,serif" font-size="14.00">ipu1_ic_prpenc capture</text>
<text xml:space="preserve" text-anchor="middle" x="217.88" y="-7.95" font-family="Times,serif" font-size="14.00">/dev/video1</text>
</g>
<!-- n00000013&#45;&gt;n00000016 -->
<g id="edge7" class="edge">
<title>n00000013:port1&#45;&gt;n00000016</title>
<path fill="none" stroke="black" stroke-dasharray="5,2" d="M224.5,-78.5C224.5,-70.51 223.83,-61.92 222.92,-53.92"/>
<polygon fill="black" stroke="black" points="226.42,-53.72 221.66,-44.25 219.48,-54.62 226.42,-53.72"/>
</g>
<!-- n0000001f -->
<g id="node8" class="node">
<title>n0000001f</title>
<polygon fill="yellow" stroke="black" points="497.12,-42.5 326.62,-42.5 326.62,0 497.12,0 497.12,-42.5"/>
<text xml:space="preserve" text-anchor="middle" x="411.88" y="-25.2" font-family="Times,serif" font-size="14.00">ipu1_ic_prpvf capture</text>
<text xml:space="preserve" text-anchor="middle" x="411.88" y="-7.95" font-family="Times,serif" font-size="14.00">/dev/video2</text>
</g>
<!-- n0000001c&#45;&gt;n0000001f -->
<g id="edge8" class="edge">
<title>n0000001c:port1&#45;&gt;n0000001f</title>
<path fill="none" stroke="black" stroke-dasharray="5,2" d="M406.5,-78.5C406.5,-70.62 407.03,-62.14 407.76,-54.22"/>
<polygon fill="black" stroke="black" points="411.24,-54.59 408.81,-44.28 404.27,-53.86 411.24,-54.59"/>
</g>
<!-- n0000002f -->
<g id="node9" class="node">
<title>n0000002f</title>
<path fill="green" stroke="black" d="M336.5,-469C336.5,-469 449.25,-469 449.25,-469 455.25,-469 461.25,-475 461.25,-481 461.25,-481 461.25,-550 461.25,-550 461.25,-556 455.25,-562 449.25,-562 449.25,-562 336.5,-562 336.5,-562 330.5,-562 324.5,-556 324.5,-550 324.5,-550 324.5,-481 324.5,-481 324.5,-475 330.5,-469 336.5,-469"/>
<text xml:space="preserve" text-anchor="middle" x="392.5" y="-544.7" font-family="Times,serif" font-size="14.00">0</text>
<polyline fill="none" stroke="black" points="324.5,-536.75 461.25,-536.75"/>
<text xml:space="preserve" text-anchor="middle" x="392.88" y="-519.45" font-family="Times,serif" font-size="14.00">ipu1_csi1</text>
<text xml:space="preserve" text-anchor="middle" x="392.88" y="-502.2" font-family="Times,serif" font-size="14.00">/dev/v4l&#45;subdev5</text>
<polyline fill="none" stroke="black" points="324.5,-494.25 461.25,-494.25"/>
<text xml:space="preserve" text-anchor="middle" x="358.5" y="-476.95" font-family="Times,serif" font-size="14.00">1</text>
<polyline fill="none" stroke="black" points="392.5,-469 392.5,-494.25"/>
<text xml:space="preserve" text-anchor="middle" x="426.5" y="-476.95" font-family="Times,serif" font-size="14.00">2</text>
</g>
<!-- n0000002f&#45;&gt;n0000000f -->
<g id="edge10" class="edge">
<title>n0000002f:port1&#45;&gt;n0000000f:port0</title>
<path fill="none" stroke="black" stroke-dasharray="5,2" d="M358.5,-468.5C358.5,-392.08 406.71,-299.34 342.75,-290.12"/>
<polygon fill="black" stroke="black" points="343.22,-286.65 333.01,-289.48 342.76,-293.63 343.22,-286.65"/>
</g>
<!-- n0000002f&#45;&gt;n0000000b -->
<g id="edge11" class="edge">
<title>n0000002f:port1&#45;&gt;n0000000b:port0</title>
<path fill="none" stroke="black" stroke-dasharray="5,2" d="M323.5,-481.62C280.05,-481.62 236.66,-480.3 229.52,-443.76"/>
<polygon fill="black" stroke="black" points="233.03,-443.65 228.64,-434.01 226.05,-444.28 233.03,-443.65"/>
</g>
<!-- n00000033 -->
<g id="node10" class="node">
<title>n00000033</title>
<polygon fill="yellow" stroke="black" points="528.88,-406.75 386.88,-406.75 386.88,-364.25 528.88,-364.25 528.88,-406.75"/>
<text xml:space="preserve" text-anchor="middle" x="457.88" y="-389.45" font-family="Times,serif" font-size="14.00">ipu1_csi1 capture</text>
<text xml:space="preserve" text-anchor="middle" x="457.88" y="-372.2" font-family="Times,serif" font-size="14.00">/dev/video3</text>
</g>
<!-- n0000002f&#45;&gt;n00000033 -->
<g id="edge9" class="edge">
<title>n0000002f:port2&#45;&gt;n00000033</title>
<path fill="none" stroke="black" stroke-dasharray="5,2" d="M426.5,-468.5C426.5,-450.84 432.93,-432.36 439.97,-417.43"/>
<polygon fill="black" stroke="black" points="443.04,-419.1 444.43,-408.6 436.8,-415.94 443.04,-419.1"/>
</g>
<!-- n0000003d -->
<g id="node11" class="node">
<title>n0000003d</title>
<path fill="green" stroke="black" d="M506.5,-599C506.5,-599 619.25,-599 619.25,-599 625.25,-599 631.25,-605 631.25,-611 631.25,-611 631.25,-680 631.25,-680 631.25,-686 625.25,-692 619.25,-692 619.25,-692 506.5,-692 506.5,-692 500.5,-692 494.5,-686 494.5,-680 494.5,-680 494.5,-611 494.5,-611 494.5,-605 500.5,-599 506.5,-599"/>
<text xml:space="preserve" text-anchor="middle" x="562.5" y="-674.7" font-family="Times,serif" font-size="14.00">0</text>
<polyline fill="none" stroke="black" points="494.5,-666.75 631.25,-666.75"/>
<text xml:space="preserve" text-anchor="middle" x="562.88" y="-649.45" font-family="Times,serif" font-size="14.00">ipu2_csi0</text>
<text xml:space="preserve" text-anchor="middle" x="562.88" y="-632.2" font-family="Times,serif" font-size="14.00">/dev/v4l&#45;subdev6</text>
<polyline fill="none" stroke="black" points="494.5,-624.25 631.25,-624.25"/>
<text xml:space="preserve" text-anchor="middle" x="528.5" y="-606.95" font-family="Times,serif" font-size="14.00">1</text>
<polyline fill="none" stroke="black" points="562.5,-599 562.5,-624.25"/>
<text xml:space="preserve" text-anchor="middle" x="596.5" y="-606.95" font-family="Times,serif" font-size="14.00">2</text>
</g>
<!-- n00000041 -->
<g id="node12" class="node">
<title>n00000041</title>
<polygon fill="yellow" stroke="black" points="666.88,-536.75 524.88,-536.75 524.88,-494.25 666.88,-494.25 666.88,-536.75"/>
<text xml:space="preserve" text-anchor="middle" x="595.88" y="-519.45" font-family="Times,serif" font-size="14.00">ipu2_csi0 capture</text>
<text xml:space="preserve" text-anchor="middle" x="595.88" y="-502.2" font-family="Times,serif" font-size="14.00">/dev/video4</text>
</g>
<!-- n0000003d&#45;&gt;n00000041 -->
<g id="edge12" class="edge">
<title>n0000003d:port2&#45;&gt;n00000041</title>
<path fill="none" stroke="black" stroke-dasharray="5,2" d="M596.5,-598.5C596.5,-581.99 596.37,-563.6 596.23,-548.43"/>
<polygon fill="black" stroke="black" points="599.73,-548.53 596.13,-538.57 592.73,-548.6 599.73,-548.53"/>
</g>
<!-- n0000004b -->
<g id="node13" class="node">
<title>n0000004b</title>
<path fill="green" stroke="black" d="M696.5,-339C696.5,-339 809.25,-339 809.25,-339 815.25,-339 821.25,-345 821.25,-351 821.25,-351 821.25,-420 821.25,-420 821.25,-426 815.25,-432 809.25,-432 809.25,-432 696.5,-432 696.5,-432 690.5,-432 684.5,-426 684.5,-420 684.5,-420 684.5,-351 684.5,-351 684.5,-345 690.5,-339 696.5,-339"/>
<text xml:space="preserve" text-anchor="middle" x="752.5" y="-414.7" font-family="Times,serif" font-size="14.00">0</text>
<polyline fill="none" stroke="black" points="684.5,-406.75 821.25,-406.75"/>
<text xml:space="preserve" text-anchor="middle" x="752.88" y="-389.45" font-family="Times,serif" font-size="14.00">ipu2_ic_prp</text>
<text xml:space="preserve" text-anchor="middle" x="752.88" y="-372.2" font-family="Times,serif" font-size="14.00">/dev/v4l&#45;subdev8</text>
<polyline fill="none" stroke="black" points="684.5,-364.25 821.25,-364.25"/>
<text xml:space="preserve" text-anchor="middle" x="718.5" y="-346.95" font-family="Times,serif" font-size="14.00">1</text>
<polyline fill="none" stroke="black" points="752.5,-339 752.5,-364.25"/>
<text xml:space="preserve" text-anchor="middle" x="786.5" y="-346.95" font-family="Times,serif" font-size="14.00">2</text>
</g>
<!-- n0000003d&#45;&gt;n0000004b -->
<g id="edge13" class="edge">
<title>n0000003d:port1&#45;&gt;n0000004b:port0</title>
<path fill="none" stroke="black" stroke-dasharray="5,2" d="M528.5,-598.5C528.5,-581.54 518.72,-579.21 515.88,-562.5 508.86,-521.31 490.83,-501.94 515.88,-468.5 537.15,-440.1 627.15,-422.57 672.11,-419.77"/>
<polygon fill="black" stroke="black" points="672.12,-423.27 681.99,-419.43 671.87,-416.28 672.12,-423.27"/>
</g>
<!-- n00000047 -->
<g id="node14" class="node">
<title>n00000047</title>
<path fill="green" stroke="black" d="M696.5,-469C696.5,-469 809.25,-469 809.25,-469 815.25,-469 821.25,-475 821.25,-481 821.25,-481 821.25,-550 821.25,-550 821.25,-556 815.25,-562 809.25,-562 809.25,-562 696.5,-562 696.5,-562 690.5,-562 684.5,-556 684.5,-550 684.5,-550 684.5,-481 684.5,-481 684.5,-475 690.5,-469 696.5,-469"/>
<text xml:space="preserve" text-anchor="middle" x="718.5" y="-544.7" font-family="Times,serif" font-size="14.00">0</text>
<polyline fill="none" stroke="black" points="752.5,-536.75 752.5,-562"/>
<text xml:space="preserve" text-anchor="middle" x="786.5" y="-544.7" font-family="Times,serif" font-size="14.00">1</text>
<polyline fill="none" stroke="black" points="684.5,-536.75 821.25,-536.75"/>
<text xml:space="preserve" text-anchor="middle" x="752.88" y="-519.45" font-family="Times,serif" font-size="14.00">ipu2_vdic</text>
<text xml:space="preserve" text-anchor="middle" x="752.88" y="-502.2" font-family="Times,serif" font-size="14.00">/dev/v4l&#45;subdev7</text>
<polyline fill="none" stroke="black" points="684.5,-494.25 821.25,-494.25"/>
<text xml:space="preserve" text-anchor="middle" x="752.5" y="-476.95" font-family="Times,serif" font-size="14.00">2</text>
</g>
<!-- n0000003d&#45;&gt;n00000047 -->
<g id="edge14" class="edge">
<title>n0000003d:port1&#45;&gt;n00000047:port0</title>
<path fill="none" stroke="black" stroke-dasharray="5,2" d="M528.5,-598.5C528.5,-531.07 621.88,-602.88 675.88,-562.5 676.97,-561.68 677.66,-560.65 678.12,-559.53"/>
<polygon fill="black" stroke="black" points="681.2,-561.19 682.79,-550.71 675.02,-557.91 681.2,-561.19"/>
</g>
<!-- n0000004f -->
<g id="node15" class="node">
<title>n0000004f</title>
<path fill="green" stroke="black" d="M558.5,-209C558.5,-209 671.25,-209 671.25,-209 677.25,-209 683.25,-215 683.25,-221 683.25,-221 683.25,-290 683.25,-290 683.25,-296 677.25,-302 671.25,-302 671.25,-302 558.5,-302 558.5,-302 552.5,-302 546.5,-296 546.5,-290 546.5,-290 546.5,-221 546.5,-221 546.5,-215 552.5,-209 558.5,-209"/>
<text xml:space="preserve" text-anchor="middle" x="614.5" y="-284.7" font-family="Times,serif" font-size="14.00">0</text>
<polyline fill="none" stroke="black" points="546.5,-276.75 683.25,-276.75"/>
<text xml:space="preserve" text-anchor="middle" x="614.88" y="-259.45" font-family="Times,serif" font-size="14.00">ipu2_ic_prpenc</text>
<text xml:space="preserve" text-anchor="middle" x="614.88" y="-242.2" font-family="Times,serif" font-size="14.00">/dev/v4l&#45;subdev9</text>
<polyline fill="none" stroke="black" points="546.5,-234.25 683.25,-234.25"/>
<text xml:space="preserve" text-anchor="middle" x="614.5" y="-216.95" font-family="Times,serif" font-size="14.00">1</text>
</g>
<!-- n0000004b&#45;&gt;n0000004f -->
<g id="edge16" class="edge">
<title>n0000004b:port1&#45;&gt;n0000004f:port0</title>
<path fill="none" stroke="black" stroke-dasharray="5,2" d="M683.5,-351.62C662.1,-351.62 690.35,-314.39 691.45,-297.51"/>
<polygon fill="black" stroke="black" points="694.05,-295.16 684.56,-290.46 689.04,-300.06 694.05,-295.16"/>
</g>
<!-- n00000058 -->
<g id="node16" class="node">
<title>n00000058</title>
<path fill="green" stroke="black" d="M730,-209C730,-209 851.75,-209 851.75,-209 857.75,-209 863.75,-215 863.75,-221 863.75,-221 863.75,-290 863.75,-290 863.75,-296 857.75,-302 851.75,-302 851.75,-302 730,-302 730,-302 724,-302 718,-296 718,-290 718,-290 718,-221 718,-221 718,-215 724,-209 730,-209"/>
<text xml:space="preserve" text-anchor="middle" x="790.5" y="-284.7" font-family="Times,serif" font-size="14.00">0</text>
<polyline fill="none" stroke="black" points="718,-276.75 863.75,-276.75"/>
<text xml:space="preserve" text-anchor="middle" x="790.88" y="-259.45" font-family="Times,serif" font-size="14.00">ipu2_ic_prpvf</text>
<text xml:space="preserve" text-anchor="middle" x="790.88" y="-242.2" font-family="Times,serif" font-size="14.00">/dev/v4l&#45;subdev10</text>
<polyline fill="none" stroke="black" points="718,-234.25 863.75,-234.25"/>
<text xml:space="preserve" text-anchor="middle" x="790.5" y="-216.95" font-family="Times,serif" font-size="14.00">1</text>
</g>
<!-- n0000004b&#45;&gt;n00000058 -->
<g id="edge17" class="edge">
<title>n0000004b:port2&#45;&gt;n00000058:port0</title>
<path fill="none" stroke="black" stroke-dasharray="5,2" d="M786.5,-338.5C786.5,-327.05 788.52,-321.82 789.69,-313.97"/>
<polygon fill="black" stroke="black" points="793.18,-314.23 790.39,-304.01 786.2,-313.74 793.18,-314.23"/>
</g>
<!-- n00000047&#45;&gt;n0000004b -->
<g id="edge15" class="edge">
<title>n00000047:port2&#45;&gt;n0000004b:port0</title>
<path fill="none" stroke="black" stroke-dasharray="5,2" d="M752.5,-468.5C752.5,-457.12 752.5,-451.82 752.5,-443.95"/>
<polygon fill="black" stroke="black" points="756,-444.01 752.5,-434.01 749,-444.01 756,-444.01"/>
</g>
<!-- n00000052 -->
<g id="node17" class="node">
<title>n00000052</title>
<polygon fill="yellow" stroke="black" points="689.75,-146.75 508,-146.75 508,-104.25 689.75,-104.25 689.75,-146.75"/>
<text xml:space="preserve" text-anchor="middle" x="598.88" y="-129.45" font-family="Times,serif" font-size="14.00">ipu2_ic_prpenc capture</text>
<text xml:space="preserve" text-anchor="middle" x="598.88" y="-112.2" font-family="Times,serif" font-size="14.00">/dev/video5</text>
</g>
<!-- n0000004f&#45;&gt;n00000052 -->
<g id="edge18" class="edge">
<title>n0000004f:port1&#45;&gt;n00000052</title>
<path fill="none" stroke="black" stroke-dasharray="5,2" d="M614.5,-208.5C614.5,-191.64 611.27,-173.17 607.75,-158.03"/>
<polygon fill="black" stroke="black" points="611.23,-157.51 605.42,-148.66 604.44,-159.21 611.23,-157.51"/>
</g>
<!-- n0000005b -->
<g id="node18" class="node">
<title>n0000005b</title>
<polygon fill="yellow" stroke="black" points="878.12,-146.75 707.62,-146.75 707.62,-104.25 878.12,-104.25 878.12,-146.75"/>
<text xml:space="preserve" text-anchor="middle" x="792.88" y="-129.45" font-family="Times,serif" font-size="14.00">ipu2_ic_prpvf capture</text>
<text xml:space="preserve" text-anchor="middle" x="792.88" y="-112.2" font-family="Times,serif" font-size="14.00">/dev/video6</text>
</g>
<!-- n00000058&#45;&gt;n0000005b -->
<g id="edge19" class="edge">
<title>n00000058:port1&#45;&gt;n0000005b</title>
<path fill="none" stroke="black" stroke-dasharray="5,2" d="M790.5,-208.5C790.5,-191.98 790.99,-173.6 791.52,-158.43"/>
<polygon fill="black" stroke="black" points="795.01,-158.69 791.89,-148.56 788.02,-158.43 795.01,-158.69"/>
</g>
<!-- n0000006b -->
<g id="node19" class="node">
<title>n0000006b</title>
<path fill="green" stroke="black" d="M824,-599C824,-599 945.75,-599 945.75,-599 951.75,-599 957.75,-605 957.75,-611 957.75,-611 957.75,-680 957.75,-680 957.75,-686 951.75,-692 945.75,-692 945.75,-692 824,-692 824,-692 818,-692 812,-686 812,-680 812,-680 812,-611 812,-611 812,-605 818,-599 824,-599"/>
<text xml:space="preserve" text-anchor="middle" x="884.5" y="-674.7" font-family="Times,serif" font-size="14.00">0</text>
<polyline fill="none" stroke="black" points="812,-666.75 957.75,-666.75"/>
<text xml:space="preserve" text-anchor="middle" x="884.88" y="-649.45" font-family="Times,serif" font-size="14.00">ipu2_csi1</text>
<text xml:space="preserve" text-anchor="middle" x="884.88" y="-632.2" font-family="Times,serif" font-size="14.00">/dev/v4l&#45;subdev11</text>
<polyline fill="none" stroke="black" points="812,-624.25 957.75,-624.25"/>
<text xml:space="preserve" text-anchor="middle" x="848" y="-606.95" font-family="Times,serif" font-size="14.00">1</text>
<polyline fill="none" stroke="black" points="884,-599 884,-624.25"/>
<text xml:space="preserve" text-anchor="middle" x="920.5" y="-606.95" font-family="Times,serif" font-size="14.00">2</text>
</g>
<!-- n0000006b&#45;&gt;n0000004b -->
<g id="edge21" class="edge">
<title>n0000006b:port1&#45;&gt;n0000004b:port0</title>
<path fill="none" stroke="black" stroke-dasharray="5,2" d="M848,-598.5C848,-522.11 896.63,-429.35 832.74,-420.12"/>
<polygon fill="black" stroke="black" points="833.22,-416.65 823.01,-419.48 832.76,-423.63 833.22,-416.65"/>
</g>
<!-- n0000006b&#45;&gt;n00000047 -->
<g id="edge22" class="edge">
<title>n0000006b:port1&#45;&gt;n00000047:port0</title>
<path fill="none" stroke="black" stroke-dasharray="5,2" d="M811,-611.62C768.45,-611.62 726.4,-609.47 719.49,-573.55"/>
<polygon fill="black" stroke="black" points="723.01,-573.66 718.63,-564.01 716.04,-574.28 723.01,-573.66"/>
</g>
<!-- n0000006f -->
<g id="node20" class="node">
<title>n0000006f</title>
<polygon fill="yellow" stroke="black" points="1018.88,-536.75 876.88,-536.75 876.88,-494.25 1018.88,-494.25 1018.88,-536.75"/>
<text xml:space="preserve" text-anchor="middle" x="947.88" y="-519.45" font-family="Times,serif" font-size="14.00">ipu2_csi1 capture</text>
<text xml:space="preserve" text-anchor="middle" x="947.88" y="-502.2" font-family="Times,serif" font-size="14.00">/dev/video7</text>
</g>
<!-- n0000006b&#45;&gt;n0000006f -->
<g id="edge20" class="edge">
<title>n0000006b:port2&#45;&gt;n0000006f</title>
<path fill="none" stroke="black" stroke-dasharray="5,2" d="M920.5,-598.5C920.5,-580.99 926.19,-562.41 932.38,-547.37"/>
<polygon fill="black" stroke="black" points="935.46,-549.05 936.29,-538.49 929.05,-546.23 935.46,-549.05"/>
</g>
<!-- n00000079 -->
<g id="node21" class="node">
<title>n00000079</title>
<path fill="green" stroke="black" d="M12,-599C12,-599 133.75,-599 133.75,-599 139.75,-599 145.75,-605 145.75,-611 145.75,-611 145.75,-680 145.75,-680 145.75,-686 139.75,-692 133.75,-692 133.75,-692 12,-692 12,-692 6,-692 0,-686 0,-680 0,-680 0,-611 0,-611 0,-605 6,-599 12,-599"/>
<text xml:space="preserve" text-anchor="middle" x="36" y="-674.7" font-family="Times,serif" font-size="14.00">0</text>
<polyline fill="none" stroke="black" points="72,-666.75 72,-692"/>
<text xml:space="preserve" text-anchor="middle" x="108.5" y="-674.7" font-family="Times,serif" font-size="14.00">1</text>
<polyline fill="none" stroke="black" points="0,-666.75 145.75,-666.75"/>
<text xml:space="preserve" text-anchor="middle" x="72.88" y="-649.45" font-family="Times,serif" font-size="14.00">ipu1_csi0_mux</text>
<text xml:space="preserve" text-anchor="middle" x="72.88" y="-632.2" font-family="Times,serif" font-size="14.00">/dev/v4l&#45;subdev12</text>
<polyline fill="none" stroke="black" points="0,-624.25 145.75,-624.25"/>
<text xml:space="preserve" text-anchor="middle" x="72.5" y="-606.95" font-family="Times,serif" font-size="14.00">2</text>
</g>
<!-- n00000079&#45;&gt;n00000001 -->
<g id="edge23" class="edge">
<title>n00000079:port2&#45;&gt;n00000001:port0</title>
<path fill="none" stroke="black" stroke-dasharray="5,2" d="M72.5,-598.5C72.5,-587.12 72.5,-581.82 72.5,-573.95"/>
<polygon fill="black" stroke="black" points="76,-574.01 72.5,-564.01 69,-574.01 76,-574.01"/>
</g>
<!-- n0000007d -->
<g id="node22" class="node">
<title>n0000007d</title>
<path fill="green" stroke="black" d="M824,-729C824,-729 945.75,-729 945.75,-729 951.75,-729 957.75,-735 957.75,-741 957.75,-741 957.75,-810 957.75,-810 957.75,-816 951.75,-822 945.75,-822 945.75,-822 824,-822 824,-822 818,-822 812,-816 812,-810 812,-810 812,-741 812,-741 812,-735 818,-729 824,-729"/>
<text xml:space="preserve" text-anchor="middle" x="848" y="-804.7" font-family="Times,serif" font-size="14.00">0</text>
<polyline fill="none" stroke="black" points="884,-796.75 884,-822"/>
<text xml:space="preserve" text-anchor="middle" x="920.5" y="-804.7" font-family="Times,serif" font-size="14.00">1</text>
<polyline fill="none" stroke="black" points="812,-796.75 957.75,-796.75"/>
<text xml:space="preserve" text-anchor="middle" x="884.88" y="-779.45" font-family="Times,serif" font-size="14.00">ipu2_csi1_mux</text>
<text xml:space="preserve" text-anchor="middle" x="884.88" y="-762.2" font-family="Times,serif" font-size="14.00">/dev/v4l&#45;subdev13</text>
<polyline fill="none" stroke="black" points="812,-754.25 957.75,-754.25"/>
<text xml:space="preserve" text-anchor="middle" x="884.5" y="-736.95" font-family="Times,serif" font-size="14.00">2</text>
</g>
<!-- n0000007d&#45;&gt;n0000006b -->
<g id="edge24" class="edge">
<title>n0000007d:port2&#45;&gt;n0000006b:port0</title>
<path fill="none" stroke="black" stroke-dasharray="5,2" d="M884.5,-728.5C884.5,-717.12 884.5,-711.82 884.5,-703.95"/>
<polygon fill="black" stroke="black" points="888,-704.01 884.5,-694.01 881,-704.01 888,-704.01"/>
</g>
<!-- n00000081 -->
<g id="node23" class="node">
<title>n00000081</title>
<path fill="green" stroke="black" d="M48,-729C48,-729 169.75,-729 169.75,-729 175.75,-729 181.75,-735 181.75,-741 181.75,-741 181.75,-810 181.75,-810 181.75,-816 175.75,-822 169.75,-822 169.75,-822 48,-822 48,-822 42,-822 36,-816 36,-810 36,-810 36,-741 36,-741 36,-735 42,-729 48,-729"/>
<text xml:space="preserve" text-anchor="middle" x="108.75" y="-804.7" font-family="Times,serif" font-size="14.00"> </text>
<polyline fill="none" stroke="black" points="36,-796.75 181.75,-796.75"/>
<text xml:space="preserve" text-anchor="middle" x="108.88" y="-779.45" font-family="Times,serif" font-size="14.00">adv7180 3&#45;0021</text>
<text xml:space="preserve" text-anchor="middle" x="108.88" y="-762.2" font-family="Times,serif" font-size="14.00">/dev/v4l&#45;subdev14</text>
<polyline fill="none" stroke="black" points="36,-754.25 181.75,-754.25"/>
<text xml:space="preserve" text-anchor="middle" x="108.5" y="-736.95" font-family="Times,serif" font-size="14.00">0</text>
</g>
<!-- n00000081&#45;&gt;n00000079 -->
<g id="edge25" class="edge">
<title>n00000081:port0&#45;&gt;n00000079:port1</title>
<path fill="none" stroke="black" stroke-dasharray="5,2" d="M108.5,-728.5C108.5,-717.12 108.5,-711.82 108.5,-703.95"/>
<polygon fill="black" stroke="black" points="112,-704.01 108.5,-694.01 105,-704.01 112,-704.01"/>
</g>
</g>
</svg>
